  0
SECTION
  2
HEADER
  9
$ACADVER
  1
AC1012
  9
$DWGCODEPAGE
  3
ansi_1252
  9
$INSBASE
 10
0.0
 20
0.0
 30
0.0
  9
$EXTMIN
 10
-141.5227
 20
-176.1381
 30
0.0
  9
$EXTMAX
 10
141.5227
 20
176.138
 30
0.0
  9
$LIMMIN
 10
0.0
 20
0.0
  9
$LIMMAX
 10
12.0
 20
9.0
  9
$ORTHOMODE
 70
     0
  9
$REGENMODE
 70
     1
  9
$FILLMODE
 70
     1
  9
$QTEXTMODE
 70
     0
  9
$MIRRTEXT
 70
     1
  9
$DRAGMODE
 70
     2
  9
$LTSCALE
 40
1.0
  9
$OSMODE
 70
    37
  9
$ATTMODE
 70
     1
  9
$TEXTSIZE
 40
0.2
  9
$TRACEWID
 40
0.05
  9
$TEXTSTYLE
  7
STANDARD
  9
$CLAYER
  8
0
  9
$CELTYPE
  6
BYLAYER
  9
$CECOLOR
 62
   256
  9
$CELTSCALE
 40
1.0
  9
$DELOBJ
 70
     1
  9
$DISPSILH
 70
     0
  9
$DIMSCALE
 40
1.0
  9
$DIMASZ
 40
0.18
  9
$DIMEXO
 40
0.0625
  9
$DIMDLI
 40
0.38
  9
$DIMRND
 40
0.0
  9
$DIMDLE
 40
0.0
  9
$DIMEXE
 40
0.18
  9
$DIMTP
 40
0.0
  9
$DIMTM
 40
0.0
  9
$DIMTXT
 40
0.18
  9
$DIMCEN
 40
0.09
  9
$DIMTSZ
 40
0.0
  9
$DIMTOL
 70
     0
  9
$DIMLIM
 70
     0
  9
$DIMTIH
 70
     1
  9
$DIMTOH
 70
     1
  9
$DIMSE1
 70
     0
  9
$DIMSE2
 70
     0
  9
$DIMTAD
 70
     0
  9
$DIMZIN
 70
     0
  9
$DIMBLK
  1

  9
$DIMASO
 70
     1
  9
$DIMSHO
 70
     1
  9
$DIMPOST
  1

  9
$DIMAPOST
  1

  9
$DIMALT
 70
     0
  9
$DIMALTD
 70
     2
  9
$DIMALTF
 40
25.4
  9
$DIMLFAC
 40
1.0
  9
$DIMTOFL
 70
     0
  9
$DIMTVP
 40
0.0
  9
$DIMTIX
 70
     0
  9
$DIMSOXD
 70
     0
  9
$DIMSAH
 70
     0
  9
$DIMBLK1
  1

  9
$DIMBLK2
  1

  9
$DIMSTYLE
  2
STANDARD
  9
$DIMCLRD
 70
     0
  9
$DIMCLRE
 70
     0
  9
$DIMCLRT
 70
     0
  9
$DIMTFAC
 40
1.0
  9
$DIMGAP
 40
0.09
  9
$DIMJUST
 70
     0
  9
$DIMSD1
 70
     0
  9
$DIMSD2
 70
     0
  9
$DIMTOLJ
 70
     1
  9
$DIMTZIN
 70
     0
  9
$DIMALTZ
 70
     0
  9
$DIMALTTZ
 70
     0
  9
$DIMFIT
 70
     3
  9
$DIMUPT
 70
     0
  9
$DIMUNIT
 70
     2
  9
$DIMDEC
 70
     4
  9
$DIMTDEC
 70
     4
  9
$DIMALTU
 70
     2
  9
$DIMALTTD
 70
     2
  9
$DIMTXSTY
  7
STANDARD
  9
$DIMAUNIT
 70
     0
  9
$LUNITS
 70
     2
  9
$LUPREC
 70
     4
  9
$SKETCHINC
 40
0.1
  9
$FILLETRAD
 40
0.5
  9
$AUNITS
 70
     0
  9
$AUPREC
 70
     0
  9
$MENU
  1
.
  9
$ELEVATION
 40
0.0
  9
$PELEVATION
 40
0.0
  9
$THICKNESS
 40
0.0
  9
$LIMCHECK
 70
     0
  9
$CHAMFERA
 40
0.5
  9
$CHAMFERB
 40
0.5
  9
$CHAMFERC
 40
1.0
  9
$CHAMFERD
 40
0.0
  9
$SKPOLY
 70
     0
  9
$TDCREATE
 40
2457568.69697919
  9
$TDUPDATE
 40
2457568.696979201
  9
$TDINDWG
 40
0.0000000116
  9
$TDUSRTIMER
 40
0.0000000116
  9
$USRTIMER
 70
     1
  9
$ANGBASE
 50
0.0
  9
$ANGDIR
 70
     0
  9
$PDMODE
 70
     0
  9
$PDSIZE
 40
0.0
  9
$PLINEWID
 40
0.0
  9
$COORDS
 70
     1
  9
$SPLFRAME
 70
     0
  9
$SPLINETYPE
 70
     6
  9
$SPLINESEGS
 70
     8
  9
$ATTDIA
 70
     0
  9
$ATTREQ
 70
     1
  9
$HANDLING
 70
     1
  9
$HANDSEED
  5
5B
  9
$SURFTAB1
 70
     6
  9
$SURFTAB2
 70
     6
  9
$SURFTYPE
 70
     6
  9
$SURFU
 70
     6
  9
$SURFV
 70
     6
  9
$UCSNAME
  2

  9
$UCSORG
 10
0.0
 20
0.0
 30
0.0
  9
$UCSXDIR
 10
1.0
 20
0.0
 30
0.0
  9
$UCSYDIR
 10
0.0
 20
1.0
 30
0.0
  9
$PUCSNAME
  2

  9
$PUCSORG
 10
0.0
 20
0.0
 30
0.0
  9
$PUCSXDIR
 10
1.0
 20
0.0
 30
0.0
  9
$PUCSYDIR
 10
0.0
 20
1.0
 30
0.0
  9
$USERI1
 70
     0
  9
$USERI2
 70
     0
  9
$USERI3
 70
     0
  9
$USERI4
 70
     0
  9
$USERI5
 70
     0
  9
$USERR1
 40
0.0
  9
$USERR2
 40
0.0
  9
$USERR3
 40
0.0
  9
$USERR4
 40
0.0
  9
$USERR5
 40
0.0
  9
$WORLDVIEW
 70
     1
  9
$SHADEDGE
 70
     3
  9
$SHADEDIF
 70
    70
  9
$TILEMODE
 70
     1
  9
$MAXACTVP
 70
    64
  9
$PINSBASE
 10
0.0
 20
0.0
 30
0.0
  9
$PLIMCHECK
 70
     0
  9
$PEXTMIN
 10
1.000000000000000E+20
 20
1.000000000000000E+20
 30
1.000000000000000E+20
  9
$PEXTMAX
 10
-1.000000000000000E+20
 20
-1.000000000000000E+20
 30
-1.000000000000000E+20
  9
$PLIMMIN
 10
0.0
 20
0.0
  9
$PLIMMAX
 10
12.0
 20
9.0
  9
$UNITMODE
 70
     0
  9
$VISRETAIN
 70
     1
  9
$PLINEGEN
 70
     0
  9
$PSLTSCALE
 70
     1
  9
$TREEDEPTH
 70
  3020
  9
$PICKSTYLE
 70
     1
  9
$CMLSTYLE
  2
STANDARD
  9
$CMLJUST
 70
     0
  9
$CMLSCALE
 40
1.0
  9
$SAVEIMAGES
 70
     1
  0
ENDSEC
  0
SECTION
  2
CLASSES
  0
CLASS
  1
ACDBDICTIONARYWDFLT
  2
AcDbDictionaryWithDefault
  3
ObjectDBX Classes
 90
    32768
280
     0
281
     0
  0
CLASS
  1
VISUALSTYLE
  2
AcDbVisualStyle
  3
ObjectDBX Classes
 90
     4095
280
     0
281
     0
  0
CLASS
  1
MATERIAL
  2
AcDbMaterial
  3
ObjectDBX Classes
 90
     1153
280
     0
281
     0
  0
CLASS
  1
DICTIONARYVAR
  2
AcDbDictionaryVar
  3
ObjectDBX Classes
 90
        0
280
     0
281
     0
  0
CLASS
  1
XRECORD
  2
AcDbXrecord
  3
AutoCAD 2000
 90
    32768
280
     0
281
     0
  0
CLASS
  1
LWPOLYLINE
  2
AcDbPolyline
  3
AutoCAD 2000
 90
    32768
280
     0
281
     1
  0
CLASS
  1
HATCH
  2
AcDbHatch
  3
AutoCAD 2000
 90
    32768
280
     0
281
     1
  0
CLASS
  1
ACDBPLACEHOLDER
  2
AcDbPlaceHolder
  3
ObjectDBX Classes
 90
        0
280
     0
281
     0
  0
CLASS
  1
LAYOUT
  2
AcDbLayout
  3
ObjectDBX Classes
 90
        0
280
     0
281
     0
  0
ENDSEC
  0
SECTION
  2
TABLES
  0
TABLE
  2
VPORT
  5
8
330
0
100
AcDbSymbolTable
 70
     1
  0
VPORT
  5
29
330
8
100
AcDbSymbolTableRecord
100
AcDbViewportTableRecord
  2
*ACTIVE
 70
     0
 10
0.0
 20
0.0
 11
1.0
 21
1.0
 12
10.42990654205607
 22
4.5
 13
0.0
 23
0.0
 14
0.5
 24
0.5
 15
0.5
 25
0.5
 16
0.0
 26
0.0
 36
1.0
 17
0.0
 27
0.0
 37
0.0
 40
9.0
 41
1.972972972850329
 42
50.0
 43
0.0
 44
0.0
 50
0.0
 51
0.0
 71
     0
 72
   100
 73
     1
 74
     3
 75
     0
 76
     0
 77
     0
 78
     0
  0
ENDTAB
  0
TABLE
  2
LTYPE
  5
5
330
0
100
AcDbSymbolTable
 70
     1
  0
LTYPE
  5
14
330
5
100
AcDbSymbolTableRecord
100
AcDbLinetypeTableRecord
  2
BYBLOCK
 70
     0
  3

 72
    65
 73
     0
 40
0.0
  0
LTYPE
  5
15
330
5
100
AcDbSymbolTableRecord
100
AcDbLinetypeTableRecord
  2
BYLAYER
 70
     0
  3

 72
    65
 73
     0
 40
0.0
  0
LTYPE
  5
16
330
5
100
AcDbSymbolTableRecord
100
AcDbLinetypeTableRecord
  2
CONTINUOUS
 70
     0
  3
Solid line
 72
    65
 73
     0
 40
0.0
  0
ENDTAB
  0
TABLE
  2
LAYER
  5
2
330
0
100
AcDbSymbolTable
 70
     1
  0
LAYER
  5
10
330
2
100
AcDbSymbolTableRecord
100
AcDbLayerTableRecord
  2
0
 70
     0
 62
     7
  6
CONTINUOUS
  0
ENDTAB
  0
TABLE
  2
STYLE
  5
3
330
0
100
AcDbSymbolTable
 70
     1
  0
STYLE
  5
11
330
3
100
AcDbSymbolTableRecord
100
AcDbTextStyleTableRecord
  2
STANDARD
 70
     0
 40
0.0
 41
1.0
 50
0.0
 71
     0
 42
0.2
  3
txt
  4

  0
ENDTAB
  0
TABLE
  2
VIEW
  5
6
330
0
100
AcDbSymbolTable
 70
     0
  0
ENDTAB
  0
TABLE
  2
UCS
  5
7
330
0
100
AcDbSymbolTable
 70
     0
  0
ENDTAB
  0
TABLE
  2
APPID
  5
9
330
0
100
AcDbSymbolTable
 70
     2
  0
APPID
  5
12
330
9
100
AcDbSymbolTableRecord
100
AcDbRegAppTableRecord
  2
ACAD
 70
     0
  0
APPID
  5
3F
330
9
100
AcDbSymbolTableRecord
100
AcDbRegAppTableRecord
  2
ODA
 70
     0
  0
ENDTAB
  0
TABLE
  2
DIMSTYLE
  5
A
330
0
100
AcDbSymbolTable
 70
     1
  0
DIMSTYLE
105
27
330
A
100
AcDbSymbolTableRecord
100
AcDbDimStyleTableRecord
  2
STANDARD
 70
     0
  3

  4

  5

  6

  7

 40
1.0
 41
0.18
 42
0.0625
 43
0.38
 44
0.18
 45
0.0
 46
0.0
 47
0.0
 48
0.0
140
0.18
141
0.09
142
0.0
143
25.4
144
1.0
145
0.0
146
1.0
147
0.09
 71
     0
 72
     0
 73
     1
 74
     1
 75
     0
 76
     0
 77
     0
 78
     0
170
     0
171
     2
172
     0
173
     0
174
     0
175
     0
176
     0
177
     0
178
     0
270
     2
271
     4
272
     4
273
     2
274
     2
340
11
275
     0
280
     0
281
     0
282
     0
283
     1
284
     0
285
     0
286
     0
287
     3
288
     0
  0
ENDTAB
  0
TABLE
  2
BLOCK_RECORD
  5
1
330
0
100
AcDbSymbolTable
 70
     1
  0
BLOCK_RECORD
  5
1F
330
1
100
AcDbSymbolTableRecord
100
AcDbBlockTableRecord
  2
*MODEL_SPACE
  0
BLOCK_RECORD
  5
1B
330
1
100
AcDbSymbolTableRecord
100
AcDbBlockTableRecord
  2
*PAPER_SPACE
  0
ENDTAB
  0
ENDSEC
  0
SECTION
  2
BLOCKS
  0
BLOCK
  5
20
330
1F
100
AcDbEntity
  8
0
100
AcDbBlockBegin
  2
*MODEL_SPACE
 70
     0
 10
0.0
 20
0.0
 30
0.0
  3
*MODEL_SPACE
  1

  0
ENDBLK
  5
21
330
1F
100
AcDbEntity
  8
0
100
AcDbBlockEnd
  0
BLOCK
  5
1C
330
1B
100
AcDbEntity
 67
     1
  8
0
100
AcDbBlockBegin
  2
*PAPER_SPACE
 70
     0
 10
0.0
 20
0.0
 30
0.0
  3
*PAPER_SPACE
  1

  0
ENDBLK
  5
1D
330
1B
100
AcDbEntity
 67
     1
  8
0
100
AcDbBlockEnd
  0
ENDSEC
  0
SECTION
  2
ENTITIES
  0
SPLINE
  5
40
330
1F
100
AcDbEntity
  8
0
100
AcDbSpline
210
0.0
220
0.0
230
1.0
 70
     8
 71
     3
 72
    20
 73
    16
 74
     0
 42
0.0000000001
 43
0.0000000001
 40
0.0
 40
0.0
 40
0.0
 40
0.0
 40
0.2
 40
0.2
 40
0.2
 40
0.2
 40
0.4
 40
0.4
 40
0.4
 40
0.4
 40
0.6
 40
0.6
 40
0.6
 40
0.6
 40
1.0
 40
1.0
 40
1.0
 40
1.0
 10
43.5653
 20
160.0
 30
0.0
 10
43.5653
 20
161.0769
 30
0.0
 10
42.6923
 20
161.9499
 30
0.0
 10
41.6153
 20
161.9499
 30
0.0
 10
41.6153
 20
161.9499
 30
0.0
 10
40.5384
 20
161.95
 30
0.0
 10
39.6653
 20
161.0769
 30
0.0
 10
39.6653
 20
160.0
 30
0.0
 10
39.6653
 20
160.0
 30
0.0
 10
39.6653
 20
158.923
 30
0.0
 10
40.5384
 20
158.05
 30
0.0
 10
41.6153
 20
158.05
 30
0.0
 10
41.6153
 20
158.05
 30
0.0
 10
42.6923
 20
158.0499
 30
0.0
 10
43.5653
 20
158.923
 30
0.0
 10
43.5653
 20
159.9999
 30
0.0
  0
SPLINE
  5
41
330
1F
100
AcDbEntity
  8
0
100
AcDbSpline
210
0.0
220
0.0
230
1.0
 70
     8
 71
     3
 72
    20
 73
    16
 74
     0
 42
0.0000000001
 43
0.0000000001
 40
0.0
 40
0.0
 40
0.0
 40
0.0
 40
0.2
 40
0.2
 40
0.2
 40
0.2
 40
0.4
 40
0.4
 40
0.4
 40
0.4
 40
0.6
 40
0.6
 40
0.6
 40
0.6
 40
1.0
 40
1.0
 40
1.0
 40
1.0
 10
76.5653
 20
160.0
 30
0.0
 10
76.5653
 20
161.0769
 30
0.0
 10
75.6923
 20
161.9499
 30
0.0
 10
74.6153
 20
161.9499
 30
0.0
 10
74.6153
 20
161.9499
 30
0.0
 10
73.5384
 20
161.95
 30
0.0
 10
72.6653
 20
161.0769
 30
0.0
 10
72.6653
 20
160.0
 30
0.0
 10
72.6653
 20
160.0
 30
0.0
 10
72.6653
 20
158.923
 30
0.0
 10
73.5384
 20
158.05
 30
0.0
 10
74.6153
 20
158.05
 30
0.0
 10
74.6153
 20
158.05
 30
0.0
 10
75.6923
 20
158.0499
 30
0.0
 10
76.5653
 20
158.923
 30
0.0
 10
76.5653
 20
159.9999
 30
0.0
  0
SPLINE
  5
42
330
1F
100
AcDbEntity
  8
0
100
AcDbSpline
210
0.0
220
0.0
230
1.0
 70
     8
 71
     3
 72
    20
 73
    16
 74
     0
 42
0.0000000001
 43
0.0000000001
 40
0.0
 40
0.0
 40
0.0
 40
0.0
 40
0.2
 40
0.2
 40
0.2
 40
0.2
 40
0.4
 40
0.4
 40
0.4
 40
0.4
 40
0.6
 40
0.6
 40
0.6
 40
0.6
 40
1.0
 40
1.0
 40
1.0
 40
1.0
 10
59.5903
 20
145.0
 30
0.0
 10
59.5903
 20
149.4044
 30
0.0
 10
56.0198
 20
152.9749
 30
0.0
 10
51.6153
 20
152.9749
 30
0.0
 10
51.6153
 20
152.9749
 30
0.0
 10
47.2109
 20
152.975
 30
0.0
 10
43.6403
 20
149.4044
 30
0.0
 10
43.6403
 20
145.0
 30
0.0
 10
43.6403
 20
145.0
 30
0.0
 10
43.6403
 20
140.5955
 30
0.0
 10
47.2108
 20
137.025
 30
0.0
 10
51.6153
 20
137.025
 30
0.0
 10
51.6153
 20
137.025
 30
0.0
 10
56.0198
 20
137.0249
 30
0.0
 10
59.5903
 20
140.5954
 30
0.0
 10
59.5903
 20
144.9999
 30
0.0
  0
SPLINE
  5
43
330
1F
100
AcDbEntity
  8
0
100
AcDbSpline
210
0.0
220
0.0
230
1.0
 70
     8
 71
     3
 72
    20
 73
    16
 74
     0
 42
0.0000000001
 43
0.0000000001
 40
0.0
 40
0.0
 40
0.0
 40
0.0
 40
0.2
 40
0.2
 40
0.2
 40
0.2
 40
0.4
 40
0.4
 40
0.4
 40
0.4
 40
0.6
 40
0.6
 40
0.6
 40
0.6
 40
1.0
 40
1.0
 40
1.0
 40
1.0
 10
76.5653
 20
-159.9999
 30
0.0
 10
76.5653
 20
-158.923
 30
0.0
 10
75.6923
 20
-158.05
 30
0.0
 10
74.6153
 20
-158.05
 30
0.0
 10
74.6153
 20
-158.05
 30
0.0
 10
73.5384
 20
-158.0499
 30
0.0
 10
72.6653
 20
-158.923
 30
0.0
 10
72.6653
 20
-159.9999
 30
0.0
 10
72.6653
 20
-159.9999
 30
0.0
 10
72.6653
 20
-161.0769
 30
0.0
 10
73.5384
 20
-161.9499
 30
0.0
 10
74.6153
 20
-161.9499
 30
0.0
 10
74.6153
 20
-161.9499
 30
0.0
 10
75.6923
 20
-161.95
 30
0.0
 10
76.5653
 20
-161.0769
 30
0.0
 10
76.5653
 20
-160.0
 30
0.0
  0
SPLINE
  5
44
330
1F
100
AcDbEntity
  8
0
100
AcDbSpline
210
0.0
220
0.0
230
1.0
 70
    11
 71
     3
 72
    20
 73
    16
 74
     0
 42
0.0000000001
 43
0.0000000001
 40
0.0
 40
0.0
 40
0.0
 40
0.0
 40
0.2
 40
0.2
 40
0.2
 40
0.2
 40
0.4
 40
0.4
 40
0.4
 40
0.4
 40
0.6
 40
0.6
 40
0.6
 40
0.6
 40
1.0
 40
1.0
 40
1.0
 40
1.0
 10
1.5653
 20
89.9999
 30
0.0
 10
1.5653
 20
91.0769
 30
0.0
 10
0.6923
 20
91.9499
 30
0.0
 10
-0.3846
 20
91.9499
 30
0.0
 10
-0.3846
 20
91.9499
 30
0.0
 10
-1.4615
 20
91.95
 30
0.0
 10
-2.3346
 20
91.0769
 30
0.0
 10
-2.3346
 20
90.0
 30
0.0
 10
-2.3346
 20
90.0
 30
0.0
 10
-2.3346
 20
88.923
 30
0.0
 10
-1.4615
 20
88.05
 30
0.0
 10
-0.3846
 20
88.05
 30
0.0
 10
-0.3846
 20
88.05
 30
0.0
 10
0.6923
 20
88.0499
 30
0.0
 10
1.5653
 20
88.923
 30
0.0
 10
1.5653
 20
89.9999
 30
0.0
  0
SPLINE
  5
45
330
1F
100
AcDbEntity
  8
0
100
AcDbSpline
210
0.0
220
0.0
230
1.0
 70
     8
 71
     3
 72
    20
 73
    16
 74
     0
 42
0.0000000001
 43
0.0000000001
 40
0.0
 40
0.0
 40
0.0
 40
0.0
 40
0.2
 40
0.2
 40
0.2
 40
0.2
 40
0.4
 40
0.4
 40
0.4
 40
0.4
 40
0.6
 40
0.6
 40
0.6
 40
0.6
 40
1.0
 40
1.0
 40
1.0
 40
1.0
 10
28.5653
 20
160.0
 30
0.0
 10
28.5653
 20
161.0769
 30
0.0
 10
27.6923
 20
161.9499
 30
0.0
 10
26.6153
 20
161.9499
 30
0.0
 10
26.6153
 20
161.9499
 30
0.0
 10
25.5384
 20
161.95
 30
0.0
 10
24.6653
 20
161.0769
 30
0.0
 10
24.6653
 20
160.0
 30
0.0
 10
24.6653
 20
160.0
 30
0.0
 10
24.6653
 20
158.923
 30
0.0
 10
25.5384
 20
158.05
 30
0.0
 10
26.6153
 20
158.05
 30
0.0
 10
26.6153
 20
158.05
 30
0.0
 10
27.6923
 20
158.0499
 30
0.0
 10
28.5653
 20
158.923
 30
0.0
 10
28.5653
 20
159.9999
 30
0.0
  0
SPLINE
  5
46
330
1F
100
AcDbEntity
  8
0
100
AcDbSpline
210
0.0
220
0.0
230
1.0
 70
    11
 71
     3
 72
    20
 73
    16
 74
     0
 42
0.0000000001
 43
0.0000000001
 40
0.0
 40
0.0
 40
0.0
 40
0.0
 40
0.2
 40
0.2
 40
0.2
 40
0.2
 40
0.4
 40
0.4
 40
0.4
 40
0.4
 40
0.6
 40
0.6
 40
0.6
 40
0.6
 40
1.0
 40
1.0
 40
1.0
 40
1.0
 10
-123.4346
 20
159.9999
 30
0.0
 10
-123.4346
 20
161.0769
 30
0.0
 10
-124.3076
 20
161.9499
 30
0.0
 10
-125.3846
 20
161.9499
 30
0.0
 10
-125.3846
 20
161.9499
 30
0.0
 10
-126.4615
 20
161.95
 30
0.0
 10
-127.3346
 20
161.0769
 30
0.0
 10
-127.3346
 20
160.0
 30
0.0
 10
-127.3346
 20
160.0
 30
0.0
 10
-127.3346
 20
158.923
 30
0.0
 10
-126.4615
 20
158.05
 30
0.0
 10
-125.3846
 20
158.05
 30
0.0
 10
-125.3846
 20
158.05
 30
0.0
 10
-124.3076
 20
158.0499
 30
0.0
 10
-123.4346
 20
158.923
 30
0.0
 10
-123.4346
 20
159.9999
 30
0.0
  0
SPLINE
  5
47
330
1F
100
AcDbEntity
  8
0
100
AcDbSpline
210
0.0
220
0.0
230
1.0
 70
    11
 71
     3
 72
    20
 73
    16
 74
     0
 42
0.0000000001
 43
0.0000000001
 40
0.0
 40
0.0
 40
0.0
 40
0.0
 40
0.2
 40
0.2
 40
0.2
 40
0.2
 40
0.4
 40
0.4
 40
0.4
 40
0.4
 40
0.6
 40
0.6
 40
0.6
 40
0.6
 40
1.0
 40
1.0
 40
1.0
 40
1.0
 10
-109.4096
 20
144.9999
 30
0.0
 10
-109.4096
 20
149.4044
 30
0.0
 10
-112.9801
 20
152.9749
 30
0.0
 10
-117.3846
 20
152.9749
 30
0.0
 10
-117.3846
 20
152.9749
 30
0.0
 10
-121.789
 20
152.975
 30
0.0
 10
-125.3596
 20
149.4044
 30
0.0
 10
-125.3596
 20
145.0
 30
0.0
 10
-125.3596
 20
145.0
 30
0.0
 10
-125.3596
 20
140.5955
 30
0.0
 10
-121.7891
 20
137.025
 30
0.0
 10
-117.3846
 20
137.025
 30
0.0
 10
-117.3846
 20
137.025
 30
0.0
 10
-112.9801
 20
137.0249
 30
0.0
 10
-109.4096
 20
140.5954
 30
0.0
 10
-109.4096
 20
144.9999
 30
0.0
  0
SPLINE
  5
48
330
1F
100
AcDbEntity
  8
0
100
AcDbSpline
210
0.0
220
0.0
230
1.0
 70
    11
 71
     3
 72
    20
 73
    16
 74
     0
 42
0.0000000001
 43
0.0000000001
 40
0.0
 40
0.0
 40
0.0
 40
0.0
 40
0.2
 40
0.2
 40
0.2
 40
0.2
 40
0.4
 40
0.4
 40
0.4
 40
0.4
 40
0.6
 40
0.6
 40
0.6
 40
0.6
 40
1.0
 40
1.0
 40
1.0
 40
1.0
 10
-123.4346
 20
-160.0
 30
0.0
 10
-123.4346
 20
-158.923
 30
0.0
 10
-124.3076
 20
-158.05
 30
0.0
 10
-125.3846
 20
-158.05
 30
0.0
 10
-125.3846
 20
-158.05
 30
0.0
 10
-126.4615
 20
-158.0499
 30
0.0
 10
-127.3346
 20
-158.923
 30
0.0
 10
-127.3346
 20
-159.9999
 30
0.0
 10
-127.3346
 20
-159.9999
 30
0.0
 10
-127.3346
 20
-161.0769
 30
0.0
 10
-126.4615
 20
-161.9499
 30
0.0
 10
-125.3846
 20
-161.9499
 30
0.0
 10
-125.3846
 20
-161.9499
 30
0.0
 10
-124.3076
 20
-161.95
 30
0.0
 10
-123.4346
 20
-161.0769
 30
0.0
 10
-123.4346
 20
-160.0
 30
0.0
  0
SPLINE
  5
49
330
1F
100
AcDbEntity
  8
0
100
AcDbSpline
210
0.0
220
0.0
230
1.0
 70
    11
 71
     3
 72
    20
 73
    16
 74
     0
 42
0.0000000001
 43
0.0000000001
 40
0.0
 40
0.0
 40
0.0
 40
0.0
 40
0.2
 40
0.2
 40
0.2
 40
0.2
 40
0.4
 40
0.4
 40
0.4
 40
0.4
 40
0.6
 40
0.6
 40
0.6
 40
0.6
 40
1.0
 40
1.0
 40
1.0
 40
1.0
 10
-48.4346
 20
89.9999
 30
0.0
 10
-48.4346
 20
91.0769
 30
0.0
 10
-49.3076
 20
91.9499
 30
0.0
 10
-50.3846
 20
91.9499
 30
0.0
 10
-50.3846
 20
91.9499
 30
0.0
 10
-51.4615
 20
91.95
 30
0.0
 10
-52.3346
 20
91.0769
 30
0.0
 10
-52.3346
 20
90.0
 30
0.0
 10
-52.3346
 20
90.0
 30
0.0
 10
-52.3346
 20
88.923
 30
0.0
 10
-51.4615
 20
88.05
 30
0.0
 10
-50.3846
 20
88.05
 30
0.0
 10
-50.3846
 20
88.05
 30
0.0
 10
-49.3076
 20
88.0499
 30
0.0
 10
-48.4346
 20
88.923
 30
0.0
 10
-48.4346
 20
89.9999
 30
0.0
  0
SPLINE
  5
4A
330
1F
100
AcDbEntity
  8
0
100
AcDbSpline
210
0.0
220
0.0
230
1.0
 70
    11
 71
     3
 72
    20
 73
    16
 74
     0
 42
0.0000000001
 43
0.0000000001
 40
0.0
 40
0.0
 40
0.0
 40
0.0
 40
0.2
 40
0.2
 40
0.2
 40
0.2
 40
0.4
 40
0.4
 40
0.4
 40
0.4
 40
0.6
 40
0.6
 40
0.6
 40
0.6
 40
1.0
 40
1.0
 40
1.0
 40
1.0
 10
84.6153
 20
17.0999
 30
0.0
 10
84.6153
 20
17.0999
 30
0.0
 10
84.6153
 20
-0.1
 30
0.0
 10
84.6153
 20
-0.1
 30
0.0
 10
84.6153
 20
-0.1
 30
0.0
 10
84.6153
 20
-0.1
 30
0.0
 10
90.7153
 20
-0.1
 30
0.0
 10
90.7153
 20
-0.1
 30
0.0
 10
90.7153
 20
-0.1
 30
0.0
 10
90.7153
 20
-0.1
 30
0.0
 10
90.7153
 20
17.0999
 30
0.0
 10
90.7153
 20
17.0999
 30
0.0
 10
90.7153
 20
17.0999
 30
0.0
 10
90.7153
 20
17.0999
 30
0.0
 10
84.6153
 20
17.0999
 30
0.0
 10
84.6153
 20
17.0999
 30
0.0
  0
SPLINE
  5
4B
330
1F
100
AcDbEntity
  8
0
100
AcDbSpline
210
0.0
220
0.0
230
1.0
 70
    11
 71
     3
 72
    20
 73
    16
 74
     0
 42
0.0000000001
 43
0.0000000001
 40
0.0
 40
0.0
 40
0.0
 40
0.0
 40
0.2
 40
0.2
 40
0.2
 40
0.2
 40
0.4
 40
0.4
 40
0.4
 40
0.4
 40
0.6
 40
0.6
 40
0.6
 40
0.6
 40
1.0
 40
1.0
 40
1.0
 40
1.0
 10
84.6153
 20
51.0999
 30
0.0
 10
84.6153
 20
51.0999
 30
0.0
 10
84.6153
 20
33.8999
 30
0.0
 10
84.6153
 20
33.8999
 30
0.0
 10
84.6153
 20
33.8999
 30
0.0
 10
84.6153
 20
33.8999
 30
0.0
 10
90.7153
 20
33.8999
 30
0.0
 10
90.7153
 20
33.8999
 30
0.0
 10
90.7153
 20
33.8999
 30
0.0
 10
90.7153
 20
33.8999
 30
0.0
 10
90.7153
 20
51.0999
 30
0.0
 10
90.7153
 20
51.0999
 30
0.0
 10
90.7153
 20
51.0999
 30
0.0
 10
90.7153
 20
51.0999
 30
0.0
 10
84.6153
 20
51.0999
 30
0.0
 10
84.6153
 20
51.0999
 30
0.0
  0
SPLINE
  5
4C
330
1F
100
AcDbEntity
  8
0
100
AcDbSpline
210
0.0
220
0.0
230
1.0
 70
    11
 71
     3
 72
    20
 73
    16
 74
     0
 42
0.0000000001
 43
0.0000000001
 40
0.0
 40
0.0
 40
0.0
 40
0.0
 40
0.2
 40
0.2
 40
0.2
 40
0.2
 40
0.4
 40
0.4
 40
0.4
 40
0.4
 40
0.6
 40
0.6
 40
0.6
 40
0.6
 40
1.0
 40
1.0
 40
1.0
 40
1.0
 10
84.6153
 20
85.0999
 30
0.0
 10
84.6153
 20
85.0999
 30
0.0
 10
84.6153
 20
67.8999
 30
0.0
 10
84.6153
 20
67.8999
 30
0.0
 10
84.6153
 20
67.8999
 30
0.0
 10
84.6153
 20
67.8999
 30
0.0
 10
90.7153
 20
67.8999
 30
0.0
 10
90.7153
 20
67.8999
 30
0.0
 10
90.7153
 20
67.8999
 30
0.0
 10
90.7153
 20
67.8999
 30
0.0
 10
90.7153
 20
85.0999
 30
0.0
 10
90.7153
 20
85.0999
 30
0.0
 10
90.7153
 20
85.0999
 30
0.0
 10
90.7153
 20
85.0999
 30
0.0
 10
84.6153
 20
85.0999
 30
0.0
 10
84.6153
 20
85.0999
 30
0.0
  0
SPLINE
  5
4D
330
1F
100
AcDbEntity
  8
0
100
AcDbSpline
210
0.0
220
0.0
230
1.0
 70
    11
 71
     3
 72
    20
 73
    16
 74
     0
 42
0.0000000001
 43
0.0000000001
 40
0.0
 40
0.0
 40
0.0
 40
0.0
 40
0.2
 40
0.2
 40
0.2
 40
0.2
 40
0.4
 40
0.4
 40
0.4
 40
0.4
 40
0.6
 40
0.6
 40
0.6
 40
0.6
 40
1.0
 40
1.0
 40
1.0
 40
1.0
 10
84.6153
 20
119.0999
 30
0.0
 10
84.6153
 20
119.0999
 30
0.0
 10
84.6153
 20
101.8999
 30
0.0
 10
84.6153
 20
101.8999
 30
0.0
 10
84.6153
 20
101.8999
 30
0.0
 10
84.6153
 20
101.8999
 30
0.0
 10
90.7153
 20
101.8999
 30
0.0
 10
90.7153
 20
101.8999
 30
0.0
 10
90.7153
 20
101.8999
 30
0.0
 10
90.7153
 20
101.8999
 30
0.0
 10
90.7153
 20
119.0999
 30
0.0
 10
90.7153
 20
119.0999
 30
0.0
 10
90.7153
 20
119.0999
 30
0.0
 10
90.7153
 20
119.0999
 30
0.0
 10
84.6153
 20
119.0999
 30
0.0
 10
84.6153
 20
119.0999
 30
0.0
  0
SPLINE
  5
4E
330
1F
100
AcDbEntity
  8
0
100
AcDbSpline
210
0.0
220
0.0
230
1.0
 70
    11
 71
     3
 72
    20
 73
    16
 74
     0
 42
0.0000000001
 43
0.0000000001
 40
0.0
 40
0.0
 40
0.0
 40
0.0
 40
0.2
 40
0.2
 40
0.2
 40
0.2
 40
0.4
 40
0.4
 40
0.4
 40
0.4
 40
0.6
 40
0.6
 40
0.6
 40
0.6
 40
1.0
 40
1.0
 40
1.0
 40
1.0
 10
84.6153
 20
153.0999
 30
0.0
 10
84.6153
 20
153.0999
 30
0.0
 10
84.6153
 20
135.8999
 30
0.0
 10
84.6153
 20
135.8999
 30
0.0
 10
84.6153
 20
135.8999
 30
0.0
 10
84.6153
 20
135.8999
 30
0.0
 10
90.7153
 20
135.8999
 30
0.0
 10
90.7153
 20
135.8999
 30
0.0
 10
90.7153
 20
135.8999
 30
0.0
 10
90.7153
 20
135.8999
 30
0.0
 10
90.7153
 20
153.0999
 30
0.0
 10
90.7153
 20
153.0999
 30
0.0
 10
90.7153
 20
153.0999
 30
0.0
 10
90.7153
 20
153.0999
 30
0.0
 10
84.6153
 20
153.0999
 30
0.0
 10
84.6153
 20
153.0999
 30
0.0
  0
SPLINE
  5
4F
330
1F
100
AcDbEntity
  8
0
100
AcDbSpline
210
0.0
220
0.0
230
1.0
 70
    11
 71
     3
 72
   500
 73
   496
 74
     0
 42
0.0000000001
 43
0.0000000001
 40
0.0
 40
0.0
 40
0.0
 40
0.0
 40
0.008
 40
0.008
 40
0.008
 40
0.008
 40
0.016
 40
0.016
 40
0.016
 40
0.016
 40
0.024
 40
0.024
 40
0.024
 40
0.024
 40
0.032
 40
0.032
 40
0.032
 40
0.032
 40
0.04
 40
0.04
 40
0.04
 40
0.04
 40
0.048
 40
0.048
 40
0.048
 40
0.048
 40
0.056
 40
0.056
 40
0.056
 40
0.056
 40
0.064
 40
0.064
 40
0.064
 40
0.064
 40
0.072
 40
0.072
 40
0.072
 40
0.072
 40
0.08
 40
0.08
 40
0.08
 40
0.08
 40
0.088
 40
0.088
 40
0.088
 40
0.088
 40
0.096
 40
0.096
 40
0.096
 40
0.096
 40
0.104
 40
0.104
 40
0.104
 40
0.104
 40
0.112
 40
0.112
 40
0.112
 40
0.112
 40
0.12
 40
0.12
 40
0.12
 40
0.12
 40
0.128
 40
0.128
 40
0.128
 40
0.128
 40
0.136
 40
0.136
 40
0.136
 40
0.136
 40
0.144
 40
0.144
 40
0.144
 40
0.144
 40
0.152
 40
0.152
 40
0.152
 40
0.152
 40
0.16
 40
0.16
 40
0.16
 40
0.16
 40
0.168
 40
0.168
 40
0.168
 40
0.168
 40
0.176
 40
0.176
 40
0.176
 40
0.176
 40
0.184
 40
0.184
 40
0.184
 40
0.184
 40
0.192
 40
0.192
 40
0.192
 40
0.192
 40
0.2
 40
0.2
 40
0.2
 40
0.2
 40
0.208
 40
0.208
 40
0.208
 40
0.208
 40
0.216
 40
0.216
 40
0.216
 40
0.216
 40
0.224
 40
0.224
 40
0.224
 40
0.224
 40
0.232
 40
0.232
 40
0.232
 40
0.232
 40
0.24
 40
0.24
 40
0.24
 40
0.24
 40
0.248
 40
0.248
 40
0.248
 40
0.248
 40
0.256
 40
0.256
 40
0.256
 40
0.256
 40
0.264
 40
0.264
 40
0.264
 40
0.264
 40
0.272
 40
0.272
 40
0.272
 40
0.272
 40
0.28
 40
0.28
 40
0.28
 40
0.28
 40
0.288
 40
0.288
 40
0.288
 40
0.288
 40
0.296
 40
0.296
 40
0.296
 40
0.296
 40
0.304
 40
0.304
 40
0.304
 40
0.304
 40
0.312
 40
0.312
 40
0.312
 40
0.312
 40
0.32
 40
0.32
 40
0.32
 40
0.32
 40
0.328
 40
0.328
 40
0.328
 40
0.328
 40
0.336
 40
0.336
 40
0.336
 40
0.336
 40
0.344
 40
0.344
 40
0.344
 40
0.344
 40
0.352
 40
0.352
 40
0.352
 40
0.352
 40
0.36
 40
0.36
 40
0.36
 40
0.36
 40
0.368
 40
0.368
 40
0.368
 40
0.368
 40
0.376
 40
0.376
 40
0.376
 40
0.376
 40
0.384
 40
0.384
 40
0.384
 40
0.384
 40
0.392
 40
0.392
 40
0.392
 40
0.392
 40
0.4
 40
0.4
 40
0.4
 40
0.4
 40
0.408
 40
0.408
 40
0.408
 40
0.408
 40
0.416
 40
0.416
 40
0.416
 40
0.416
 40
0.424
 40
0.424
 40
0.424
 40
0.424
 40
0.432
 40
0.432
 40
0.432
 40
0.432
 40
0.44
 40
0.44
 40
0.44
 40
0.44
 40
0.448
 40
0.448
 40
0.448
 40
0.448
 40
0.456
 40
0.456
 40
0.456
 40
0.456
 40
0.464
 40
0.464
 40
0.464
 40
0.464
 40
0.472
 40
0.472
 40
0.472
 40
0.472
 40
0.48
 40
0.48
 40
0.48
 40
0.48
 40
0.488
 40
0.488
 40
0.488
 40
0.488
 40
0.496
 40
0.496
 40
0.496
 40
0.496
 40
0.504
 40
0.504
 40
0.504
 40
0.504
 40
0.512
 40
0.512
 40
0.512
 40
0.512
 40
0.52
 40
0.52
 40
0.52
 40
0.52
 40
0.528
 40
0.528
 40
0.528
 40
0.528
 40
0.536
 40
0.536
 40
0.536
 40
0.536
 40
0.544
 40
0.544
 40
0.544
 40
0.544
 40
0.552
 40
0.552
 40
0.552
 40
0.552
 40
0.56
 40
0.56
 40
0.56
 40
0.56
 40
0.568
 40
0.568
 40
0.568
 40
0.568
 40
0.576
 40
0.576
 40
0.576
 40
0.576
 40
0.584
 40
0.584
 40
0.584
 40
0.584
 40
0.592
 40
0.592
 40
0.592
 40
0.592
 40
0.6
 40
0.6
 40
0.6
 40
0.6
 40
0.608
 40
0.608
 40
0.608
 40
0.608
 40
0.616
 40
0.616
 40
0.616
 40
0.616
 40
0.624
 40
0.624
 40
0.624
 40
0.624
 40
0.632
 40
0.632
 40
0.632
 40
0.632
 40
0.64
 40
0.64
 40
0.64
 40
0.64
 40
0.648
 40
0.648
 40
0.648
 40
0.648
 40
0.656
 40
0.656
 40
0.656
 40
0.656
 40
0.664
 40
0.664
 40
0.664
 40
0.664
 40
0.672
 40
0.672
 40
0.672
 40
0.672
 40
0.68
 40
0.68
 40
0.68
 40
0.68
 40
0.688
 40
0.688
 40
0.688
 40
0.688
 40
0.696
 40
0.696
 40
0.696
 40
0.696
 40
0.704
 40
0.704
 40
0.704
 40
0.704
 40
0.712
 40
0.712
 40
0.712
 40
0.712
 40
0.72
 40
0.72
 40
0.72
 40
0.72
 40
0.728
 40
0.728
 40
0.728
 40
0.728
 40
0.736
 40
0.736
 40
0.736
 40
0.736
 40
0.744
 40
0.744
 40
0.744
 40
0.744
 40
0.752
 40
0.752
 40
0.752
 40
0.752
 40
0.76
 40
0.76
 40
0.76
 40
0.76
 40
0.768
 40
0.768
 40
0.768
 40
0.768
 40
0.776
 40
0.776
 40
0.776
 40
0.776
 40
0.784
 40
0.784
 40
0.784
 40
0.784
 40
0.792
 40
0.792
 40
0.792
 40
0.792
 40
0.8
 40
0.8
 40
0.8
 40
0.8
 40
0.808
 40
0.808
 40
0.808
 40
0.808
 40
0.816
 40
0.816
 40
0.816
 40
0.816
 40
0.824
 40
0.824
 40
0.824
 40
0.824
 40
0.832
 40
0.832
 40
0.832
 40
0.832
 40
0.84
 40
0.84
 40
0.84
 40
0.84
 40
0.848
 40
0.848
 40
0.848
 40
0.848
 40
0.856
 40
0.856
 40
0.856
 40
0.856
 40
0.864
 40
0.864
 40
0.864
 40
0.864
 40
0.872
 40
0.872
 40
0.872
 40
0.872
 40
0.88
 40
0.88
 40
0.88
 40
0.88
 40
0.888
 40
0.888
 40
0.888
 40
0.888
 40
0.896
 40
0.896
 40
0.896
 40
0.896
 40
0.904
 40
0.904
 40
0.904
 40
0.904
 40
0.912
 40
0.912
 40
0.912
 40
0.912
 40
0.92
 40
0.92
 40
0.92
 40
0.92
 40
0.928
 40
0.928
 40
0.928
 40
0.928
 40
0.936
 40
0.936
 40
0.936
 40
0.936
 40
0.944
 40
0.944
 40
0.944
 40
0.944
 40
0.952
 40
0.952
 40
0.952
 40
0.952
 40
0.96
 40
0.96
 40
0.96
 40
0.96
 40
0.968
 40
0.968
 40
0.968
 40
0.968
 40
0.976
 40
0.976
 40
0.976
 40
0.976
 40
0.984
 40
0.984
 40
0.984
 40
0.984
 40
1.0
 40
1.0
 40
1.0
 40
1.0
 10
90.7153
 20
-16.9
 30
0.0
 10
90.7153
 20
-16.9
 30
0.0
 10
84.6153
 20
-16.9
 30
0.0
 10
84.6153
 20
-16.9
 30
0.0
 10
84.6153
 20
-16.9
 30
0.0
 10
84.6153
 20
-16.9
 30
0.0
 10
84.6153
 20
-34.1
 30
0.0
 10
84.6153
 20
-34.1
 30
0.0
 10
84.6153
 20
-34.1
 30
0.0
 10
84.6153
 20
-34.1
 30
0.0
 10
90.7153
 20
-34.1
 30
0.0
 10
90.7153
 20
-34.1
 30
0.0
 10
90.7153
 20
-34.1
 30
0.0
 10
90.7153
 20
-34.1
 30
0.0
 10
90.7153
 20
-50.9
 30
0.0
 10
90.7153
 20
-50.9
 30
0.0
 10
90.7153
 20
-50.9
 30
0.0
 10
90.7153
 20
-50.9
 30
0.0
 10
84.6153
 20
-50.9
 30
0.0
 10
84.6153
 20
-50.9
 30
0.0
 10
84.6153
 20
-50.9
 30
0.0
 10
84.6153
 20
-50.9
 30
0.0
 10
84.6153
 20
-68.1
 30
0.0
 10
84.6153
 20
-68.1
 30
0.0
 10
84.6153
 20
-68.1
 30
0.0
 10
84.6153
 20
-68.1
 30
0.0
 10
90.7153
 20
-68.1
 30
0.0
 10
90.7153
 20
-68.1
 30
0.0
 10
90.7153
 20
-68.1
 30
0.0
 10
90.7153
 20
-68.1
 30
0.0
 10
90.7153
 20
-84.9
 30
0.0
 10
90.7153
 20
-84.9
 30
0.0
 10
90.7153
 20
-84.9
 30
0.0
 10
90.7153
 20
-84.9
 30
0.0
 10
84.6153
 20
-84.9
 30
0.0
 10
84.6153
 20
-84.9
 30
0.0
 10
84.6153
 20
-84.9
 30
0.0
 10
84.6153
 20
-84.9
 30
0.0
 10
84.6153
 20
-102.1
 30
0.0
 10
84.6153
 20
-102.1
 30
0.0
 10
84.6153
 20
-102.1
 30
0.0
 10
84.6153
 20
-102.1
 30
0.0
 10
90.7153
 20
-102.1
 30
0.0
 10
90.7153
 20
-102.1
 30
0.0
 10
90.7153
 20
-102.1
 30
0.0
 10
90.7153
 20
-102.1
 30
0.0
 10
90.7153
 20
-118.9
 30
0.0
 10
90.7153
 20
-118.9
 30
0.0
 10
90.7153
 20
-118.9
 30
0.0
 10
90.7153
 20
-118.9
 30
0.0
 10
84.6153
 20
-118.9
 30
0.0
 10
84.6153
 20
-118.9
 30
0.0
 10
84.6153
 20
-118.9
 30
0.0
 10
84.6153
 20
-118.9
 30
0.0
 10
84.6153
 20
-136.1
 30
0.0
 10
84.6153
 20
-136.1
 30
0.0
 10
84.6153
 20
-136.1
 30
0.0
 10
84.6153
 20
-136.1
 30
0.0
 10
90.7153
 20
-136.1
 30
0.0
 10
90.7153
 20
-136.1
 30
0.0
 10
90.7153
 20
-136.1
 30
0.0
 10
90.7153
 20
-136.1
 30
0.0
 10
90.7153
 20
-152.9
 30
0.0
 10
90.7153
 20
-152.9
 30
0.0
 10
90.7153
 20
-152.9
 30
0.0
 10
90.7153
 20
-152.9
 30
0.0
 10
84.6153
 20
-152.9
 30
0.0
 10
84.6153
 20
-152.9
 30
0.0
 10
84.6153
 20
-152.9
 30
0.0
 10
84.6153
 20
-152.9
 30
0.0
 10
84.6153
 20
-170.0
 30
0.0
 10
84.6153
 20
-170.0
 30
0.0
 10
84.6153
 20
-170.0
 30
0.0
 10
84.6153
 20
-170.0
 30
0.0
 10
67.5923
 20
-170.0
 30
0.0
 10
67.5923
 20
-170.0
 30
0.0
 10
67.5923
 20
-170.0
 30
0.0
 10
67.5923
 20
-170.0
 30
0.0
 10
67.5923
 20
-176.1
 30
0.0
 10
67.5923
 20
-176.1
 30
0.0
 10
67.5923
 20
-176.1
 30
0.0
 10
67.5923
 20
-176.1
 30
0.0
 10
50.8692
 20
-176.1
 30
0.0
 10
50.8692
 20
-176.1
 30
0.0
 10
50.8692
 20
-176.1
 30
0.0
 10
50.8692
 20
-176.1
 30
0.0
 10
50.8692
 20
-170.0
 30
0.0
 10
50.8692
 20
-170.0
 30
0.0
 10
50.8692
 20
-170.0
 30
0.0
 10
50.8692
 20
-170.0
 30
0.0
 10
33.7461
 20
-170.0
 30
0.0
 10
33.7461
 20
-170.0
 30
0.0
 10
33.7461
 20
-170.0
 30
0.0
 10
33.7461
 20
-170.0
 30
0.0
 10
33.7461
 20
-176.1
 30
0.0
 10
33.7461
 20
-176.1
 30
0.0
 10
33.7461
 20
-176.1
 30
0.0
 10
33.7461
 20
-176.1
 30
0.0
 10
17.023
 20
-176.1
 30
0.0
 10
17.023
 20
-176.1
 30
0.0
 10
17.023
 20
-176.1
 30
0.0
 10
17.023
 20
-176.1
 30
0.0
 10
17.023
 20
-170.0
 30
0.0
 10
17.023
 20
-170.0
 30
0.0
 10
17.023
 20
-170.0
 30
0.0
 10
17.023
 20
-170.0
 30
0.0
 10
-0.0999
 20
-170.0
 30
0.0
 10
-0.0999
 20
-170.0
 30
0.0
 10
-0.0999
 20
-170.0
 30
0.0
 10
-0.0999
 20
-170.0
 30
0.0
 10
-0.0999
 20
-176.1
 30
0.0
 10
-0.0999
 20
-176.1
 30
0.0
 10
-0.0999
 20
-176.1
 30
0.0
 10
-0.0999
 20
-176.1
 30
0.0
 10
-16.823
 20
-176.1
 30
0.0
 10
-16.823
 20
-176.1
 30
0.0
 10
-16.823
 20
-176.1
 30
0.0
 10
-16.823
 20
-176.1
 30
0.0
 10
-16.823
 20
-170.0
 30
0.0
 10
-16.823
 20
-170.0
 30
0.0
 10
-16.823
 20
-170.0
 30
0.0
 10
-16.823
 20
-170.0
 30
0.0
 10
-33.9461
 20
-170.0
 30
0.0
 10
-33.9461
 20
-170.0
 30
0.0
 10
-33.9461
 20
-170.0
 30
0.0
 10
-33.9461
 20
-170.0
 30
0.0
 10
-33.9461
 20
-176.1
 30
0.0
 10
-33.9461
 20
-176.1
 30
0.0
 10
-33.9461
 20
-176.1
 30
0.0
 10
-33.9461
 20
-176.1
 30
0.0
 10
-50.6692
 20
-176.1
 30
0.0
 10
-50.6692
 20
-176.1
 30
0.0
 10
-50.6692
 20
-176.1
 30
0.0
 10
-50.6692
 20
-176.1
 30
0.0
 10
-50.6692
 20
-170.0
 30
0.0
 10
-50.6692
 20
-170.0
 30
0.0
 10
-50.6692
 20
-170.0
 30
0.0
 10
-50.6692
 20
-170.0
 30
0.0
 10
-67.7923
 20
-170.0
 30
0.0
 10
-67.7923
 20
-170.0
 30
0.0
 10
-67.7923
 20
-170.0
 30
0.0
 10
-67.7923
 20
-170.0
 30
0.0
 10
-67.7923
 20
-176.1
 30
0.0
 10
-67.7923
 20
-176.1
 30
0.0
 10
-67.7923
 20
-176.1
 30
0.0
 10
-67.7923
 20
-176.1
 30
0.0
 10
-84.5153
 20
-176.1
 30
0.0
 10
-84.5153
 20
-176.1
 30
0.0
 10
-84.5153
 20
-176.1
 30
0.0
 10
-84.5153
 20
-176.1
 30
0.0
 10
-84.5153
 20
-170.0
 30
0.0
 10
-84.5153
 20
-170.0
 30
0.0
 10
-84.5153
 20
-170.0
 30
0.0
 10
-84.5153
 20
-170.0
 30
0.0
 10
-101.6384
 20
-170.0
 30
0.0
 10
-101.6384
 20
-170.0
 30
0.0
 10
-101.6384
 20
-170.0
 30
0.0
 10
-101.6384
 20
-170.0
 30
0.0
 10
-101.6384
 20
-176.1
 30
0.0
 10
-101.6384
 20
-176.1
 30
0.0
 10
-101.6384
 20
-176.1
 30
0.0
 10
-101.6384
 20
-176.1
 30
0.0
 10
-118.3615
 20
-176.1
 30
0.0
 10
-118.3615
 20
-176.1
 30
0.0
 10
-118.3615
 20
-176.1
 30
0.0
 10
-118.3615
 20
-176.1
 30
0.0
 10
-118.3615
 20
-170.0
 30
0.0
 10
-118.3615
 20
-170.0
 30
0.0
 10
-118.3615
 20
-170.0
 30
0.0
 10
-118.3615
 20
-170.0
 30
0.0
 10
-135.3846
 20
-170.0
 30
0.0
 10
-135.3846
 20
-170.0
 30
0.0
 10
-135.3846
 20
-170.0
 30
0.0
 10
-135.3846
 20
-170.0
 30
0.0
 10
-135.3846
 20
-152.9
 30
0.0
 10
-135.3846
 20
-152.9
 30
0.0
 10
-135.3846
 20
-152.9
 30
0.0
 10
-135.3846
 20
-152.9
 30
0.0
 10
-141.4846
 20
-152.9
 30
0.0
 10
-141.4846
 20
-152.9
 30
0.0
 10
-141.4846
 20
-152.9
 30
0.0
 10
-141.4846
 20
-152.9
 30
0.0
 10
-141.4846
 20
-136.1
 30
0.0
 10
-141.4846
 20
-136.1
 30
0.0
 10
-141.4846
 20
-136.1
 30
0.0
 10
-141.4846
 20
-136.1
 30
0.0
 10
-135.3846
 20
-136.1
 30
0.0
 10
-135.3846
 20
-136.1
 30
0.0
 10
-135.3846
 20
-136.1
 30
0.0
 10
-135.3846
 20
-136.1
 30
0.0
 10
-135.3846
 20
-118.9
 30
0.0
 10
-135.3846
 20
-118.9
 30
0.0
 10
-135.3846
 20
-118.9
 30
0.0
 10
-135.3846
 20
-118.9
 30
0.0
 10
-141.4846
 20
-118.9
 30
0.0
 10
-141.4846
 20
-118.9
 30
0.0
 10
-141.4846
 20
-118.9
 30
0.0
 10
-141.4846
 20
-118.9
 30
0.0
 10
-141.4846
 20
-102.1
 30
0.0
 10
-141.4846
 20
-102.1
 30
0.0
 10
-141.4846
 20
-102.1
 30
0.0
 10
-141.4846
 20
-102.1
 30
0.0
 10
-135.3846
 20
-102.1
 30
0.0
 10
-135.3846
 20
-102.1
 30
0.0
 10
-135.3846
 20
-102.1
 30
0.0
 10
-135.3846
 20
-102.1
 30
0.0
 10
-135.3846
 20
-84.9
 30
0.0
 10
-135.3846
 20
-84.9
 30
0.0
 10
-135.3846
 20
-84.9
 30
0.0
 10
-135.3846
 20
-84.9
 30
0.0
 10
-141.4846
 20
-84.9
 30
0.0
 10
-141.4846
 20
-84.9
 30
0.0
 10
-141.4846
 20
-84.9
 30
0.0
 10
-141.4846
 20
-84.9
 30
0.0
 10
-141.4846
 20
-68.1
 30
0.0
 10
-141.4846
 20
-68.1
 30
0.0
 10
-141.4846
 20
-68.1
 30
0.0
 10
-141.4846
 20
-68.1
 30
0.0
 10
-135.3846
 20
-68.1
 30
0.0
 10
-135.3846
 20
-68.1
 30
0.0
 10
-135.3846
 20
-68.1
 30
0.0
 10
-135.3846
 20
-68.1
 30
0.0
 10
-135.3846
 20
-50.9
 30
0.0
 10
-135.3846
 20
-50.9
 30
0.0
 10
-135.3846
 20
-50.9
 30
0.0
 10
-135.3846
 20
-50.9
 30
0.0
 10
-141.4846
 20
-50.9
 30
0.0
 10
-141.4846
 20
-50.9
 30
0.0
 10
-141.4846
 20
-50.9
 30
0.0
 10
-141.4846
 20
-50.9
 30
0.0
 10
-141.4846
 20
-34.1
 30
0.0
 10
-141.4846
 20
-34.1
 30
0.0
 10
-141.4846
 20
-34.1
 30
0.0
 10
-141.4846
 20
-34.1
 30
0.0
 10
-135.3846
 20
-34.1
 30
0.0
 10
-135.3846
 20
-34.1
 30
0.0
 10
-135.3846
 20
-34.1
 30
0.0
 10
-135.3846
 20
-34.1
 30
0.0
 10
-135.3846
 20
-16.9
 30
0.0
 10
-135.3846
 20
-16.9
 30
0.0
 10
-135.3846
 20
-16.9
 30
0.0
 10
-135.3846
 20
-16.9
 30
0.0
 10
-141.4846
 20
-16.9
 30
0.0
 10
-141.4846
 20
-16.9
 30
0.0
 10
-141.4846
 20
-16.9
 30
0.0
 10
-141.4846
 20
-16.9
 30
0.0
 10
-141.4846
 20
-0.1
 30
0.0
 10
-141.4846
 20
-0.1
 30
0.0
 10
-141.4846
 20
-0.1
 30
0.0
 10
-141.4846
 20
-0.1
 30
0.0
 10
-135.3846
 20
-0.1
 30
0.0
 10
-135.3846
 20
-0.1
 30
0.0
 10
-135.3846
 20
-0.1
 30
0.0
 10
-135.3846
 20
-0.1
 30
0.0
 10
-135.3846
 20
17.0999
 30
0.0
 10
-135.3846
 20
17.0999
 30
0.0
 10
-135.3846
 20
17.0999
 30
0.0
 10
-135.3846
 20
17.0999
 30
0.0
 10
-141.4846
 20
17.0999
 30
0.0
 10
-141.4846
 20
17.0999
 30
0.0
 10
-141.4846
 20
17.0999
 30
0.0
 10
-141.4846
 20
17.0999
 30
0.0
 10
-141.4846
 20
33.8999
 30
0.0
 10
-141.4846
 20
33.8999
 30
0.0
 10
-141.4846
 20
33.8999
 30
0.0
 10
-141.4846
 20
33.8999
 30
0.0
 10
-135.3846
 20
33.8999
 30
0.0
 10
-135.3846
 20
33.8999
 30
0.0
 10
-135.3846
 20
33.8999
 30
0.0
 10
-135.3846
 20
33.8999
 30
0.0
 10
-135.3846
 20
51.0999
 30
0.0
 10
-135.3846
 20
51.0999
 30
0.0
 10
-135.3846
 20
51.0999
 30
0.0
 10
-135.3846
 20
51.0999
 30
0.0
 10
-141.4846
 20
51.0999
 30
0.0
 10
-141.4846
 20
51.0999
 30
0.0
 10
-141.4846
 20
51.0999
 30
0.0
 10
-141.4846
 20
51.0999
 30
0.0
 10
-141.4846
 20
67.8999
 30
0.0
 10
-141.4846
 20
67.8999
 30
0.0
 10
-141.4846
 20
67.8999
 30
0.0
 10
-141.4846
 20
67.8999
 30
0.0
 10
-135.3846
 20
67.8999
 30
0.0
 10
-135.3846
 20
67.8999
 30
0.0
 10
-135.3846
 20
67.8999
 30
0.0
 10
-135.3846
 20
67.8999
 30
0.0
 10
-135.3846
 20
85.0999
 30
0.0
 10
-135.3846
 20
85.0999
 30
0.0
 10
-135.3846
 20
85.0999
 30
0.0
 10
-135.3846
 20
85.0999
 30
0.0
 10
-141.4846
 20
85.0999
 30
0.0
 10
-141.4846
 20
85.0999
 30
0.0
 10
-141.4846
 20
85.0999
 30
0.0
 10
-141.4846
 20
85.0999
 30
0.0
 10
-141.4846
 20
101.8999
 30
0.0
 10
-141.4846
 20
101.8999
 30
0.0
 10
-141.4846
 20
101.8999
 30
0.0
 10
-141.4846
 20
101.8999
 30
0.0
 10
-135.3846
 20
101.8999
 30
0.0
 10
-135.3846
 20
101.8999
 30
0.0
 10
-135.3846
 20
101.8999
 30
0.0
 10
-135.3846
 20
101.8999
 30
0.0
 10
-135.3846
 20
119.0999
 30
0.0
 10
-135.3846
 20
119.0999
 30
0.0
 10
-135.3846
 20
119.0999
 30
0.0
 10
-135.3846
 20
119.0999
 30
0.0
 10
-141.4846
 20
119.0999
 30
0.0
 10
-141.4846
 20
119.0999
 30
0.0
 10
-141.4846
 20
119.0999
 30
0.0
 10
-141.4846
 20
119.0999
 30
0.0
 10
-141.4846
 20
135.8999
 30
0.0
 10
-141.4846
 20
135.8999
 30
0.0
 10
-141.4846
 20
135.8999
 30
0.0
 10
-141.4846
 20
135.8999
 30
0.0
 10
-135.3846
 20
135.8999
 30
0.0
 10
-135.3846
 20
135.8999
 30
0.0
 10
-135.3846
 20
135.8999
 30
0.0
 10
-135.3846
 20
135.8999
 30
0.0
 10
-135.3846
 20
153.0999
 30
0.0
 10
-135.3846
 20
153.0999
 30
0.0
 10
-135.3846
 20
153.0999
 30
0.0
 10
-135.3846
 20
153.0999
 30
0.0
 10
-141.4846
 20
153.0999
 30
0.0
 10
-141.4846
 20
153.0999
 30
0.0
 10
-141.4846
 20
153.0999
 30
0.0
 10
-141.4846
 20
153.0999
 30
0.0
 10
-141.4846
 20
169.8999
 30
0.0
 10
-141.4846
 20
169.8999
 30
0.0
 10
-141.4846
 20
169.8999
 30
0.0
 10
-141.4846
 20
169.8999
 30
0.0
 10
-135.3846
 20
169.8999
 30
0.0
 10
-135.3846
 20
169.8999
 30
0.0
 10
-135.3846
 20
169.8999
 30
0.0
 10
-135.3846
 20
169.8999
 30
0.0
 10
-135.3846
 20
169.9999
 30
0.0
 10
-135.3846
 20
169.9999
 30
0.0
 10
-135.3846
 20
169.9999
 30
0.0
 10
-135.3846
 20
169.9999
 30
0.0
 10
-118.3615
 20
169.9999
 30
0.0
 10
-118.3615
 20
169.9999
 30
0.0
 10
-118.3615
 20
169.9999
 30
0.0
 10
-118.3615
 20
169.9999
 30
0.0
 10
-118.3615
 20
176.0999
 30
0.0
 10
-118.3615
 20
176.0999
 30
0.0
 10
-118.3615
 20
176.0999
 30
0.0
 10
-118.3615
 20
176.0999
 30
0.0
 10
-101.6384
 20
176.0999
 30
0.0
 10
-101.6384
 20
176.0999
 30
0.0
 10
-101.6384
 20
176.0999
 30
0.0
 10
-101.6384
 20
176.0999
 30
0.0
 10
-101.6384
 20
169.9999
 30
0.0
 10
-101.6384
 20
169.9999
 30
0.0
 10
-101.6384
 20
169.9999
 30
0.0
 10
-101.6384
 20
169.9999
 30
0.0
 10
-84.5153
 20
169.9999
 30
0.0
 10
-84.5153
 20
169.9999
 30
0.0
 10
-84.5153
 20
169.9999
 30
0.0
 10
-84.5153
 20
169.9999
 30
0.0
 10
-84.5153
 20
176.0999
 30
0.0
 10
-84.5153
 20
176.0999
 30
0.0
 10
-84.5153
 20
176.0999
 30
0.0
 10
-84.5153
 20
176.0999
 30
0.0
 10
-67.7923
 20
176.0999
 30
0.0
 10
-67.7923
 20
176.0999
 30
0.0
 10
-67.7923
 20
176.0999
 30
0.0
 10
-67.7923
 20
176.0999
 30
0.0
 10
-67.7923
 20
169.9999
 30
0.0
 10
-67.7923
 20
169.9999
 30
0.0
 10
-67.7923
 20
169.9999
 30
0.0
 10
-67.7923
 20
169.9999
 30
0.0
 10
-50.6692
 20
169.9999
 30
0.0
 10
-50.6692
 20
169.9999
 30
0.0
 10
-50.6692
 20
169.9999
 30
0.0
 10
-50.6692
 20
169.9999
 30
0.0
 10
-50.6692
 20
176.0999
 30
0.0
 10
-50.6692
 20
176.0999
 30
0.0
 10
-50.6692
 20
176.0999
 30
0.0
 10
-50.6692
 20
176.0999
 30
0.0
 10
-33.9461
 20
176.0999
 30
0.0
 10
-33.9461
 20
176.0999
 30
0.0
 10
-33.9461
 20
176.0999
 30
0.0
 10
-33.9461
 20
176.0999
 30
0.0
 10
-33.9461
 20
169.9999
 30
0.0
 10
-33.9461
 20
169.9999
 30
0.0
 10
-33.9461
 20
169.9999
 30
0.0
 10
-33.9461
 20
169.9999
 30
0.0
 10
-16.823
 20
169.9999
 30
0.0
 10
-16.823
 20
169.9999
 30
0.0
 10
-16.823
 20
169.9999
 30
0.0
 10
-16.823
 20
169.9999
 30
0.0
 10
-16.823
 20
176.0999
 30
0.0
 10
-16.823
 20
176.0999
 30
0.0
 10
-16.823
 20
176.0999
 30
0.0
 10
-16.823
 20
176.0999
 30
0.0
 10
-0.1
 20
176.0999
 30
0.0
 10
-0.1
 20
176.0999
 30
0.0
 10
-0.1
 20
176.0999
 30
0.0
 10
-0.1
 20
176.0999
 30
0.0
 10
-0.1
 20
169.9999
 30
0.0
 10
-0.1
 20
169.9999
 30
0.0
 10
-0.1
 20
169.9999
 30
0.0
 10
-0.1
 20
169.9999
 30
0.0
 10
17.023
 20
169.9999
 30
0.0
 10
17.023
 20
169.9999
 30
0.0
 10
17.023
 20
169.9999
 30
0.0
 10
17.023
 20
169.9999
 30
0.0
 10
17.023
 20
176.0999
 30
0.0
 10
17.023
 20
176.0999
 30
0.0
 10
17.023
 20
176.0999
 30
0.0
 10
17.023
 20
176.0999
 30
0.0
 10
33.7461
 20
176.0999
 30
0.0
 10
33.7461
 20
176.0999
 30
0.0
 10
33.7461
 20
176.0999
 30
0.0
 10
33.7461
 20
176.0999
 30
0.0
 10
33.7461
 20
169.9999
 30
0.0
 10
33.7461
 20
169.9999
 30
0.0
 10
33.7461
 20
169.9999
 30
0.0
 10
33.7461
 20
169.9999
 30
0.0
 10
50.8692
 20
169.9999
 30
0.0
 10
50.8692
 20
169.9999
 30
0.0
 10
50.8692
 20
169.9999
 30
0.0
 10
50.8692
 20
169.9999
 30
0.0
 10
50.8692
 20
176.0999
 30
0.0
 10
50.8692
 20
176.0999
 30
0.0
 10
50.8692
 20
176.0999
 30
0.0
 10
50.8692
 20
176.0999
 30
0.0
 10
67.5923
 20
176.0999
 30
0.0
 10
67.5923
 20
176.0999
 30
0.0
 10
67.5923
 20
176.0999
 30
0.0
 10
67.5923
 20
176.0999
 30
0.0
 10
67.5923
 20
169.9999
 30
0.0
 10
67.5923
 20
169.9999
 30
0.0
 10
67.5923
 20
169.9999
 30
0.0
 10
67.5923
 20
169.9999
 30
0.0
 10
84.6153
 20
169.9999
 30
0.0
 10
84.6153
 20
169.9999
 30
0.0
 10
84.6153
 20
169.9999
 30
0.0
 10
84.6153
 20
169.9999
 30
0.0
 10
84.6153
 20
169.8999
 30
0.0
 10
84.6153
 20
169.8999
 30
0.0
 10
84.6153
 20
169.8999
 30
0.0
 10
84.6153
 20
169.8999
 30
0.0
 10
90.7153
 20
169.8999
 30
0.0
 10
90.7153
 20
169.8999
 30
0.0
 10
90.7153
 20
169.8999
 30
0.0
 10
90.7153
 20
169.8999
 30
0.0
 10
90.7153
 20
169.9999
 30
0.0
 10
90.7153
 20
169.9999
 30
0.0
 10
90.7153
 20
169.9999
 30
0.0
 10
90.7153
 20
169.9999
 30
0.0
 10
90.8153
 20
169.9999
 30
0.0
 10
90.8153
 20
169.9999
 30
0.0
 10
90.8153
 20
169.9999
 30
0.0
 10
90.8153
 20
169.9999
 30
0.0
 10
90.8153
 20
176.0999
 30
0.0
 10
90.8153
 20
176.0999
 30
0.0
 10
90.8153
 20
176.0999
 30
0.0
 10
90.8153
 20
176.0999
 30
0.0
 10
107.5384
 20
176.0999
 30
0.0
 10
107.5384
 20
176.0999
 30
0.0
 10
107.5384
 20
176.0999
 30
0.0
 10
107.5384
 20
176.0999
 30
0.0
 10
107.5384
 20
169.9999
 30
0.0
 10
107.5384
 20
169.9999
 30
0.0
 10
107.5384
 20
169.9999
 30
0.0
 10
107.5384
 20
169.9999
 30
0.0
 10
124.6615
 20
169.9999
 30
0.0
 10
124.6615
 20
169.9999
 30
0.0
 10
124.6615
 20
169.9999
 30
0.0
 10
124.6615
 20
169.9999
 30
0.0
 10
124.6615
 20
176.0999
 30
0.0
 10
124.6615
 20
176.0999
 30
0.0
 10
124.6615
 20
176.0999
 30
0.0
 10
124.6615
 20
176.0999
 30
0.0
 10
141.3846
 20
176.0999
 30
0.0
 10
141.3846
 20
176.0999
 30
0.0
 10
141.3846
 20
176.0999
 30
0.0
 10
141.3846
 20
176.0999
 30
0.0
 10
141.3846
 20
169.9999
 30
0.0
 10
141.3846
 20
169.9999
 30
0.0
 10
141.3846
 20
169.9999
 30
0.0
 10
141.3846
 20
169.9999
 30
0.0
 10
141.4846
 20
169.9999
 30
0.0
 10
141.4846
 20
169.9999
 30
0.0
 10
141.4846
 20
169.9999
 30
0.0
 10
141.4846
 20
169.9999
 30
0.0
 10
141.4846
 20
38.0113
 30
0.0
 10
141.4846
 20
38.0113
 30
0.0
 10
141.4846
 20
38.0113
 30
0.0
 10
141.4849
 20
35.3598
 30
0.0
 10
140.4303
 20
32.8153
 30
0.0
 10
138.5556
 20
30.9402
 30
0.0
 10
138.5556
 20
30.9402
 30
0.0
 10
138.5556
 20
30.9402
 30
0.0
 10
90.7153
 20
-16.9
 30
0.0
 10
90.7153
 20
-16.9
 30
0.0
  0
ENDSEC
  0
SECTION
  2
OBJECTS
  0
DICTIONARY
  5
C
330
0
100
AcDbDictionary
  3
ACAD_GROUP
350
D
  3
ACAD_LAYOUT
350
1A
  3
ACAD_MATERIAL
350
3B
  3
ACAD_MLEADERSTYLE
350
52
  3
ACAD_MLINESTYLE
350
17
  3
ACAD_PLOTSETTINGS
350
19
  3
ACAD_VISUALSTYLE
350
2A
  3
ACDBVARIABLEDICTIONARY
350
50
1001
ACAD
1000
TREAT_AS_HARD
1070
     0
  0
DICTIONARY
  5
D
102
{ACAD_REACTORS
330
C
102
}
330
C
100
AcDbDictionary
1001
ACAD
1000
TREAT_AS_HARD
1070
     0
  0
DICTIONARY
  5
1A
102
{ACAD_REACTORS
330
C
102
}
330
C
100
AcDbDictionary
1001
ACAD
1000
TREAT_AS_HARD
1070
     0
  0
DICTIONARY
  5
3B
102
{ACAD_REACTORS
330
C
102
}
330
C
100
AcDbDictionary
  3
BYBLOCK
350
3D
  3
BYLAYER
350
3C
  3
GLOBAL
350
3E
1001
ACAD
1000
TREAT_AS_HARD
1070
     0
  0
DICTIONARY
  5
52
102
{ACAD_REACTORS
330
C
102
}
330
C
100
AcDbDictionary
1001
ACAD
1000
TREAT_AS_HARD
1070
     0
  0
DICTIONARY
  5
17
102
{ACAD_REACTORS
330
C
102
}
330
C
100
AcDbDictionary
  3
STANDARD
350
18
1001
ACAD
1000
TREAT_AS_HARD
1070
     0
  0
DICTIONARY
  5
19
102
{ACAD_REACTORS
330
C
102
}
330
C
100
AcDbDictionary
1001
ACAD
1000
TREAT_AS_HARD
1070
     0
  0
DICTIONARY
  5
2A
102
{ACAD_REACTORS
330
C
102
}
330
C
100
AcDbDictionary
  3
2DWIREFRAME
350
2F
  3
3D_HIDDEN
350
31
  3
3DWIREFRAME
350
30
  3
BASIC
350
32
  3
BRIGHTEN
350
36
  3
COLORCHANGE
350
3A
  3
CONCEPTUAL
350
34
  3
DIM
350
35
  3
FACEPATTERN
350
39
  3
FLAT
350
2B
  3
FLATWITHEDGES
350
2C
  3
GOURAUD
350
2D
  3
GOURAUDWITHEDGES
350
2E
  3
LINEPATTERN
350
38
  3
REALISTIC
350
33
  3
THICKEN
350
37
1001
ACAD
1000
TREAT_AS_HARD
1070
     0
  0
DICTIONARY
  5
50
102
{ACAD_REACTORS
330
C
102
}
330
C
100
AcDbDictionary
  3
DIMASSOC
350
53
  3
HIDETEXT
350
54
1001
ACAD
1000
TREAT_AS_HARD
1070
     0
  0
MATERIAL
  5
3D
102
{ACAD_REACTORS
330
3B
102
}
102
{ACAD_XDICTIONARY
360
57
102
}
330
3B
100
AcDbMaterial
  1
ByBlock
  0
MATERIAL
  5
3C
102
{ACAD_REACTORS
330
3B
102
}
102
{ACAD_XDICTIONARY
360
55
102
}
330
3B
100
AcDbMaterial
  1
ByLayer
  0
MATERIAL
  5
3E
102
{ACAD_REACTORS
330
3B
102
}
102
{ACAD_XDICTIONARY
360
59
102
}
330
3B
100
AcDbMaterial
  1
Global
  0
MLINESTYLE
  5
18
102
{ACAD_REACTORS
330
17
102
}
330
17
100
AcDbMlineStyle
  2
Standard
 70
     0
  3

 62
   256
 51
90.0
 52
90.0
 71
     2
 49
0.5
 62
   256
  6
BYLAYER
 49
-0.5
 62
   256
  6
BYLAYER
  0
ACAD_PROXY_OBJECT
  5
2F
102
{ACAD_REACTORS
330
2A
102
}
330
2A
100
AcDbZombieObject
 90
      499
 91
      501
 93
      436
310
42CC9915DA5C99599C985B595049028333333333333E3BF0000000000000FB0107901411070040501600405405064090741402480A0340
1001
ACAD
1000
AcDbSavedByObjectVersion
1070
     0
  0
ACAD_PROXY_OBJECT
  5
31
102
{ACAD_REACTORS
330
2A
102
}
330
2A
100
AcDbZombieObject
 90
      499
 91
      501
 93
      500
310
424CD108121A5919195B90640502408333333333333E3BF0000000000000FB01079024090700405020000000000001110200405405064090740C02480A0340
1001
ACAD
1000
AcDbSavedByObjectVersion
1070
     0
  0
ACAD_PROXY_OBJECT
  5
30
102
{ACAD_REACTORS
330
2A
102
}
330
2A
100
AcDbZombieObject
 90
      499
 91
      501
 93
      436
310
42CCD915DA5C99599C985B595059028333333333333E3BF0000000000000FB0107901411070040501600405405064090741402480A0340
1001
ACAD
1000
AcDbSavedByObjectVersion
1070
     0
  0
ACAD_PROXY_OBJECT
  5
32
102
{ACAD_REACTORS
330
2A
102
}
330
2A
100
AcDbZombieObject
 90
      499
 91
      501
 93
      388
310
4150985CDA58D07406404333333333333E3BF0000000000000FB0107A41107004050150841D405064090741402480A0350
1001
ACAD
1000
AcDbSavedByObjectVersion
1070
     0
  0
ACAD_PROXY_OBJECT
  5
36
102
{ACAD_REACTORS
330
2A
102
}
330
2A
100
AcDbZombieObject
 90
      499
 91
      501
 93
      428
310
42109C9A59DA1D195B90C409028333333333333E3BF0000000000000FB010790141107004050150841D405064090741402480A029950
1001
ACAD
1000
AcDbSavedByObjectVersion
1070
     0
  0
ACAD_PROXY_OBJECT
  5
3A
102
{ACAD_REACTORS
330
2A
102
}
330
2A
100
AcDbZombieObject
 90
      499
 91
      501
 93
      452
310
42D0DBDB1BDC90DA185B99D95104090240C333333333333E3BF0000000000000FB0108901411070040501508421405064090741402480A0350
1001
ACAD
1000
AcDbSavedByObjectVersion
1070
     0
  0
ACAD_PROXY_OBJECT
  5
34
102
{ACAD_REACTORS
330
2A
102
}
330
2A
100
AcDbZombieObject
 90
      499
 91
      501
 93
      500
310
4290DBDB98D95C1D1D585B10940D028333333333333E3BF0000000000000FB0107902409070040501000000000000111010841D405064090740C02480A0340
1001
ACAD
1000
AcDbSavedByObjectVersion
1070
     0
  0
ACAD_PROXY_OBJECT
  5
35
102
{ACAD_REACTORS
330
2A
102
}
330
2A
100
AcDbZombieObject
 90
      499
 91
      501
 93
      412
310
40D11A5B50B409028333333333333E3BF0000000000000FB010790141107004050150841D405064090741402480A02677FFFFFD0
1001
ACAD
1000
AcDbSavedByObjectVersion
1070
     0
  0
ACAD_PROXY_OBJECT
  5
39
102
{ACAD_REACTORS
330
2A
102
}
330
2A
100
AcDbZombieObject
 90
      499
 91
      501
 93
      444
310
42D19858D95C185D1D195C9B90F409028333333333333E3BF0000000000000FB010790141107004050150841D405064090741402480A0350
1001
ACAD
1000
AcDbSavedByObjectVersion
1070
     0
  0
ACAD_PROXY_OBJECT
  5
2B
102
{ACAD_REACTORS
330
2A
102
}
330
2A
100
AcDbZombieObject
 90
      499
 91
      501
 93
      388
310
41119B185D240901404333333333333E3BF0000000000000F9010740A41107004050150841D405064090741402480A1B50
1001
ACAD
1000
AcDbSavedByObjectVersion
1070
     0
  0
ACAD_PROXY_OBJECT
  5
2C
102
{ACAD_REACTORS
330
2A
102
}
330
2A
100
AcDbZombieObject
 90
      499
 91
      501
 93
      476
310
43519B185D15DA5D1A115919D95CD0140901404333333333333E3BF0000000000000F9010740901411070040501600405405064090741402480A1B50
1001
ACAD
1000
AcDbSavedByObjectVersion
1070
     0
  0
ACAD_PROXY_OBJECT
  5
2D
102
{ACAD_REACTORS
330
2A
102
}
330
2A
100
AcDbZombieObject
 90
      499
 91
      501
 93
      412
310
41D1DBDD5C985D5910240902404333333333333E3BF0000000000000F9010740A411070040501641D405064090741402480A1B50
1001
ACAD
1000
AcDbSavedByObjectVersion
1070
     0
  0
ACAD_PROXY_OBJECT
  5
2E
102
{ACAD_REACTORS
330
2A
102
}
330
2A
100
AcDbZombieObject
 90
      499
 91
      501
 93
      500
310
4411DBDD5C985D5915DA5D1A115919D95CD0340902404333333333333E3BF0000000000000F9010740901411070040501600405405064090741402480A1B50
1001
ACAD
1000
AcDbSavedByObjectVersion
1070
     0
  0
ACAD_PROXY_OBJECT
  5
38
102
{ACAD_REACTORS
330
2A
102
}
330
2A
100
AcDbZombieObject
 90
      499
 91
      501
 93
      444
310
42D31A5B995C185D1D195C9B90E409028333333333333E3BF0000000000000FB010790141107004050750841D405064090741402483A0350
1001
ACAD
1000
AcDbSavedByObjectVersion
1070
     0
  0
ACAD_PROXY_OBJECT
  5
33
102
{ACAD_REACTORS
330
2A
102
}
330
2A
100
AcDbZombieObject
 90
      499
 91
      501
 93
      420
310
425499585B1A5CDD1A58D08409028333333333333E3BF0000000000000FB01079019070040501508421405064090741402480A1B40
1001
ACAD
1000
AcDbSavedByObjectVersion
1070
     0
  0
ACAD_PROXY_OBJECT
  5
37
102
{ACAD_REACTORS
330
2A
102
}
330
2A
100
AcDbZombieObject
 90
      499
 91
      501
 93
      412
310
41D51A1A58DAD95B90D409028333333333333E3BF0000000000000FB010790141107004050150C41D405064090741402480A0350
1001
ACAD
1000
AcDbSavedByObjectVersion
1070
     0
  0
DICTIONARYVAR
  5
53
102
{ACAD_REACTORS
330
50
102
}
330
50
100
DictionaryVariables
280
     0
  1
2
  0
DICTIONARYVAR
  5
54
102
{ACAD_REACTORS
330
50
102
}
330
50
100
DictionaryVariables
280
     0
  1
1
  0
DICTIONARY
  5
57
330
3D
100
AcDbDictionary
  3
ACAD_XREC_ROUNDTRIP
360
58
1001
ACAD
1000
TREAT_AS_HARD
1070
     1
  0
DICTIONARY
  5
55
330
3C
100
AcDbDictionary
  3
ACAD_XREC_ROUNDTRIP
360
56
1001
ACAD
1000
TREAT_AS_HARD
1070
     1
  0
DICTIONARY
  5
59
330
3E
100
AcDbDictionary
  3
ACAD_XREC_ROUNDTRIP
360
5A
1001
ACAD
1000
TREAT_AS_HARD
1070
     1
  0
XRECORD
  5
58
102
{ACAD_REACTORS
330
57
102
}
330
57
100
AcDbXrecord
102
MATERIAL
148
0.0
149
0.0
149
0.0
 93
        0
 94
      127
282
     0
 72
     1
 77
     1
171
     1
175
     1
179
     1
273
     0
  0
XRECORD
  5
56
102
{ACAD_REACTORS
330
55
102
}
330
55
100
AcDbXrecord
102
MATERIAL
148
0.0
149
0.0
149
0.0
 93
        0
 94
      127
282
     0
 72
     1
 77
     1
171
     1
175
     1
179
     1
273
     0
  0
XRECORD
  5
5A
102
{ACAD_REACTORS
330
59
102
}
330
59
100
AcDbXrecord
102
MATERIAL
148
0.0
149
0.0
149
0.0
 93
        0
 94
      127
282
     0
 72
     1
 77
     1
171
     1
175
     1
179
     1
273
     0
  0
ENDSEC
  0
EOF
