0
SECTION
2
HEADER
9
$INSUNITS
70
4
9
$ACADVER
1
AC1014
9
$HANDSEED
5
FFFF
0
ENDSEC
0
SECTION
2
TABLES
0
TABLE
2
VPORT
5
8
100
AcDbSymbolTable
0
ENDTAB
0
TABLE
2
LTYPE
5
5
100
AcDbSymbolTable
0
LTYPE
5
14
100
AcDbSymbolTableRecord
100
AcDbLinetypeTableRecord
2
BYBLOCK
70
0
0
LTYPE
5
15
100
AcDbSymbolTableRecord
100
AcDbLinetypeTableRecord
2
BYLAYER
70
0
0
ENDTAB
0
TABLE
2
LAYER
5
2
100
AcDbSymbolTable
70
2
0
LAYER
5
50
100
AcDbSymbolTableRecord
100
AcDbLayerTableRecord
2
0
70
0
6
CONTINUOUS
0
ENDTAB
0
TABLE
2
STYLE
5
3
100
AcDbSymbolTable
70
1
0
STYLE
5
11
100
AcDbSymbolTableRecord
100
AcDbTextStyleTableRecord
2
STANDARD
70
0
0
ENDTAB
0
TABLE
2
VIEW
5
6
100
AcDbSymbolTable
70
0
0
ENDTAB
0
TABLE
2
UCS
5
7
100
AcDbSymbolTable
70
0
0
ENDTAB
0
TABLE
2
APPID
5
9
100
AcDbSymbolTable
70
2
0
APPID
5
12
100
AcDbSymbolTableRecord
100
AcDbRegAppTableRecord
2
ACAD
70
0
0
ENDTAB
0
TABLE
2
DIMSTYLE
5
A
100
AcDbSymbolTable
70
1
0
ENDTAB
0
TABLE
2
BLOCK_RECORD
5
1
100
AcDbSymbolTable
70
1
0
BLOCK_RECORD
5
1F
100
AcDbSymbolTableRecord
100
AcDbBlockTableRecord
2
*MODEL_SPACE
0
BLOCK_RECORD
5
1B
100
AcDbSymbolTableRecord
100
AcDbBlockTableRecord
2
*PAPER_SPACE
0
ENDTAB
0
ENDSEC
0
SECTION
2
BLOCKS
0
BLOCK
5
20
100
AcDbEntity
100
AcDbBlockBegin
2
*MODEL_SPACE
0
ENDBLK
5
21
100
AcDbEntity
100
AcDbBlockEnd
0
BLOCK
5
1C
100
AcDbEntity
100
AcDbBlockBegin
2
*PAPER_SPACE
0
ENDBLK
5
1D
100
AcDbEntity
100
AcDbBlockEnd
0
ENDSEC
0
SECTION
2
ENTITIES
0
LWPOLYLINE
5
100
100
AcDbEntity
8
0
100
AcDbPolyline
90
8
70
1
43
0.0
10
-139.00000000000028
20
-69.070329295399262
10
-139.00000000000028
20
-43.070329295399276
42
0.41421356237309631
10
-141.00000000000028
20
-41.070329295399276
10
-148.00000000000028
20
-41.070329295399276
42
0.41421356237309631
10
-150.00000000000028
20
-43.070329295399276
10
-150.00000000000028
20
-69.070329295399262
42
0.41421356237309631
10
-148.00000000000028
20
-71.070329295399262
10
-141.00000000000028
20
-71.070329295399262
42
0.41421356237309631
0
LWPOLYLINE
5
101
100
AcDbEntity
8
0
100
AcDbPolyline
90
4
70
1
43
0.0
10
-85.500000000000142
20
49.779670704602701
42
-0.99999999999999989
10
-85.500000000000142
20
52.779670704602708
10
-75.500000000000156
20
52.779670704602708
42
-0.99999999999999989
10
-75.500000000000156
20
49.779670704602701
0
CIRCLE
5
102
100
AcDbEntity
8
0
100
AcDbCircle
10
-140.0000000000002
20
-151.07032929539892
30
0
40
1.9500000000000028
0
LWPOLYLINE
5
103
100
AcDbEntity
8
0
100
AcDbPolyline
90
4
70
1
43
0.0
10
15.999999999999613
20
-145.07032929539915
10
15.999999999999613
20
-147.07032929539912
10
20.999999999999616
20
-147.07032929539912
10
20.999999999999616
20
-145.07032929539915
0
LWPOLYLINE
5
104
100
AcDbEntity
8
0
100
AcDbPolyline
90
4
70
1
43
0.0
10
85.999999999999631
20
-157.07032929539915
10
85.999999999999631
20
-159.07032929539915
10
90.999999999999631
20
-159.07032929539915
10
90.999999999999631
20
-157.07032929539915
0
LWPOLYLINE
5
105
100
AcDbEntity
8
0
100
AcDbPolyline
90
4
70
1
43
0.0
10
151.9999999999996
20
-116.07032929539932
10
151.9999999999996
20
-135.87032929539933
10
164.9999999999996
20
-135.87032929539933
10
164.9999999999996
20
-116.07032929539932
0
CIRCLE
5
106
100
AcDbEntity
8
0
100
AcDbCircle
10
-146.50000000000023
20
-96.570329295398921
30
0
40
1.5000000000000036
0
CIRCLE
5
107
100
AcDbEntity
8
0
100
AcDbCircle
10
-160.00000000000028
20
24.429670704602565
30
8.8817841970012523e-15
40
1.9500000000000028
0
CIRCLE
5
108
100
AcDbEntity
8
0
100
AcDbCircle
10
-39.50000000000032
20
-114.42032929539903
30
0
40
1.9500000000000028
0
CIRCLE
5
109
100
AcDbEntity
8
0
100
AcDbCircle
10
-144.50000000000028
20
-85.070329295399247
30
0
40
1.9500000000000028
0
CIRCLE
5
110
100
AcDbEntity
8
0
100
AcDbCircle
10
159.99999999999963
20
-106.07032929539932
30
-8.8817841970012523e-15
40
1.9500000000000028
0
CIRCLE
5
111
100
AcDbEntity
8
0
100
AcDbCircle
10
89.999999999999645
20
-71.070329295399318
30
0
40
1.9500000000000028
0
CIRCLE
5
112
100
AcDbEntity
8
0
100
AcDbCircle
10
-160.00000000000023
20
-151.07032929539889
30
0
40
1.9500000000000028
0
CIRCLE
5
113
100
AcDbEntity
8
0
100
AcDbCircle
10
-115.00000000000021
20
-143.07032929539895
30
0
40
8.1600000000000072
0
CIRCLE
5
114
100
AcDbEntity
8
0
100
AcDbCircle
10
159.99999999999963
20
-151.07032929539935
30
0
40
1.9500000000000028
0
CIRCLE
5
115
100
AcDbEntity
8
0
100
AcDbCircle
10
-160.00000000000028
20
3.9296707046007393
30
0
40
1.9500000000000028
0
CIRCLE
5
116
100
AcDbEntity
8
0
100
AcDbCircle
10
-160.00000000000026
20
-61.070329295399269
30
8.8817841970012523e-15
40
1.9500000000000028
0
CIRCLE
5
117
100
AcDbEntity
8
0
100
AcDbCircle
10
-70.500000000000313
20
-114.42032929539903
30
0
40
1.9500000000000028
0
CIRCLE
5
118
100
AcDbEntity
8
0
100
AcDbCircle
10
-39.500000000000327
20
-145.42032929539903
30
0
40
1.9500000000000028
0
CIRCLE
5
119
100
AcDbEntity
8
0
100
AcDbCircle
10
159.99999999999963
20
-41.07032929539934
30
0
40
1.9500000000000028
0
CIRCLE
5
120
100
AcDbEntity
8
0
100
AcDbCircle
10
-146.50000000000023
20
-145.57032929539892
30
0
40
1.5000000000000036
0
CIRCLE
5
121
100
AcDbEntity
8
0
100
AcDbCircle
10
150.99999999999963
20
-146.07032929539915
30
0
40
1.5000000000000036
0
LWPOLYLINE
5
122
100
AcDbEntity
8
0
100
AcDbPolyline
90
4
70
1
43
0.0
10
-19.000000000000387
20
-145.07032929539915
10
-19.000000000000387
20
-147.07032929539912
10
-14.000000000000387
20
-147.07032929539912
10
-14.000000000000387
20
-145.07032929539915
0
LWPOLYLINE
5
123
100
AcDbEntity
8
0
100
AcDbPolyline
90
4
70
1
43
0.0
10
-68.000000000000284
20
-48.57032929539929
10
-68.000000000000284
20
-53.57032929539929
10
-66.000000000000284
20
-53.57032929539929
10
-66.000000000000284
20
-48.57032929539929
0
LWPOLYLINE
5
124
100
AcDbEntity
8
0
100
AcDbPolyline
90
4
70
1
43
0.0
10
28.049999999999585
20
-43.070329295399276
42
-0.99999999999999989
10
31.949999999999591
20
-43.070329295399233
10
31.949999999999651
20
-59.070329295399247
42
-0.99999999999999989
10
28.049999999999645
20
-59.070329295399247
0
LWPOLYLINE
5
125
100
AcDbEntity
8
0
100
AcDbPolyline
90
4
70
1
43
0.0
10
-54.500000000000178
20
49.779670704602673
10
-44.500000000000178
20
49.779670704602673
42
0.99999999999999989
10
-44.500000000000178
20
52.77967070460268
10
-54.500000000000178
20
52.779670704602701
42
0.99999999999999989
0
LWPOLYLINE
5
126
100
AcDbEntity
8
0
100
AcDbPolyline
90
8
70
1
43
0.0
10
144.99999999999963
20
-154.07032929539918
10
144.99999999999963
20
-138.07032929539915
42
0.41421356237309503
10
142.99999999999963
20
-136.07032929539915
10
118.99999999999962
20
-136.07032929539915
42
0.41421356237309503
10
116.99999999999962
20
-138.07032929539915
10
116.99999999999962
20
-154.07032929539918
42
0.41421356237309503
10
118.99999999999962
20
-156.07032929539915
10
142.99999999999963
20
-156.07032929539915
42
0.41421356237309503
0
LWPOLYLINE
5
127
100
AcDbEntity
8
0
100
AcDbPolyline
90
8
70
1
43
0.0
10
-153.00000000000028
20
18.929670704602572
10
-122.00000000000028
20
18.929670704602501
42
0.4142135623730957
10
-120.00000000000028
20
20.929670704602501
10
-120.00000000000028
20
27.929670704602557
42
0.41421356237309437
10
-122.00000000000028
20
29.92967070460255
10
-153.00000000000028
20
29.929670704602565
42
0.41421356237309631
10
-155.00000000000028
20
27.929670704602572
10
-155.00000000000028
20
20.929670704602565
42
0.4142135623730957
0
LWPOLYLINE
5
128
100
AcDbEntity
8
0
100
AcDbPolyline
90
4
70
1
43
0.0
10
-85.500000000000199
20
18.779670704602715
42
-0.99999999999999989
10
-85.500000000000171
20
21.779670704602722
10
-75.500000000000156
20
21.779670704602722
42
-0.99999999999999989
10
-75.500000000000156
20
18.779670704602715
0
CIRCLE
5
129
100
AcDbEntity
8
0
100
AcDbCircle
10
-140.00000000000028
20
48.929670704602863
30
0
40
1.9500000000000028
0
LWPOLYLINE
5
130
100
AcDbEntity
8
0
100
AcDbPolyline
90
4
70
1
43
0.0
10
15.999999999999613
20
-157.07032929539912
10
15.999999999999613
20
-159.07032929539912
10
20.999999999999609
20
-159.07032929539912
10
20.999999999999609
20
-157.07032929539912
0
LWPOLYLINE
5
131
100
AcDbEntity
8
0
100
AcDbPolyline
90
4
70
1
43
0.0
10
85.999999999999631
20
-145.07032929539915
10
85.999999999999631
20
-147.07032929539915
10
90.999999999999631
20
-147.07032929539915
10
90.999999999999631
20
-145.07032929539915
0
CIRCLE
5
132
100
AcDbEntity
8
0
100
AcDbCircle
10
-88.500000000000227
20
-96.570329295398977
30
0
40
1.5000000000000036
0
CIRCLE
5
133
100
AcDbEntity
8
0
100
AcDbCircle
10
-114.50000000000028
20
-85.070329295399247
30
0
40
1.9500000000000028
0
CIRCLE
5
134
100
AcDbEntity
8
0
100
AcDbCircle
10
-110.00000000000027
20
24.429670704602554
30
0
40
1.9500000000000028
0
CIRCLE
5
135
100
AcDbEntity
8
0
100
AcDbCircle
10
-55.000000000000327
20
-129.92032929539903
30
0
40
3.499999999999996
0
CIRCLE
5
136
100
AcDbEntity
8
0
100
AcDbCircle
10
-144.50000000000026
20
-35.070329295399262
30
0
40
1.9500000000000028
0
CIRCLE
5
137
100
AcDbEntity
8
0
100
AcDbCircle
10
159.99999999999966
20
3.929670704600662
30
0
40
1.9500000000000028
0
CIRCLE
5
138
100
AcDbEntity
8
0
100
AcDbCircle
10
89.999999999999659
20
-31.070329295399318
30
-8.8817841970012523e-15
40
1.9500000000000028
0
CIRCLE
5
139
100
AcDbEntity
8
0
100
AcDbCircle
10
-160.00000000000031
20
48.929670704602906
30
0
40
1.9500000000000028
0
CIRCLE
5
140
100
AcDbEntity
8
0
100
AcDbCircle
10
-115.00000000000027
20
40.929670704602799
30
0
40
8.1600000000000072
0
CIRCLE
5
141
100
AcDbEntity
8
0
100
AcDbCircle
10
159.99999999999966
20
48.929670704602145
30
-8.8817841970012523e-15
40
1.9500000000000028
0
CIRCLE
5
142
100
AcDbEntity
8
0
100
AcDbCircle
10
-160.00000000000026
20
-106.07032929539925
30
0
40
1.9500000000000028
0
CIRCLE
5
143
100
AcDbEntity
8
0
100
AcDbCircle
10
-160.00000000000026
20
-41.070329295399269
30
8.8817841970012523e-15
40
1.9500000000000028
0
CIRCLE
5
144
100
AcDbEntity
8
0
100
AcDbCircle
10
-70.500000000000327
20
-145.42032929539903
30
0
40
1.9500000000000028
0
CIRCLE
5
145
100
AcDbEntity
8
0
100
AcDbCircle
10
-110.00000000000027
20
-5.5703292953974506
30
0
40
1.9500000000000028
0
CIRCLE
5
146
100
AcDbEntity
8
0
100
AcDbCircle
10
159.99999999999963
20
-61.07032929539934
30
0
40
1.9500000000000028
0
CIRCLE
5
147
100
AcDbEntity
8
0
100
AcDbCircle
10
-88.500000000000213
20
-145.57032929539898
30
0
40
1.5000000000000036
0
CIRCLE
5
148
100
AcDbEntity
8
0
100
AcDbCircle
10
110.99999999999963
20
-146.07032929539915
30
0
40
1.5000000000000036
0
LWPOLYLINE
5
149
100
AcDbEntity
8
0
100
AcDbPolyline
90
4
70
1
43
0.0
10
-19.000000000000387
20
-157.07032929539912
10
-19.000000000000387
20
-159.07032929539912
10
-14.000000000000387
20
-159.07032929539912
10
-14.000000000000387
20
-157.07032929539912
0
LWPOLYLINE
5
150
100
AcDbEntity
8
0
100
AcDbPolyline
90
4
70
1
43
0.0
10
-80.000000000000298
20
-48.57032929539929
10
-80.000000000000298
20
-53.57032929539929
10
-78.000000000000284
20
-53.57032929539929
10
-78.000000000000284
20
-48.57032929539929
0
LWPOLYLINE
5
151
100
AcDbEntity
8
0
100
AcDbPolyline
90
4
70
1
43
0.0
10
-70.000000000000213
20
22.779670704602701
42
-0.99999999999999989
10
-70.000000000000142
20
48.779670704602708
10
-60.000000000000149
20
48.779670704602665
42
-0.99999999999999989
10
-60.000000000000206
20
22.779670704602673
0
LWPOLYLINE
5
152
100
AcDbEntity
8
0
100
AcDbPolyline
90
4
70
1
43
0.0
10
-54.500000000000178
20
18.779670704602704
42
-0.99999999999999989
10
-54.500000000000178
20
21.779670704602712
10
-44.500000000000178
20
21.779670704602708
42
-0.99999999999999989
10
-44.500000000000178
20
18.779670704602701
0
LWPOLYLINE
5
153
100
AcDbEntity
8
0
100
AcDbPolyline
90
4
70
1
43
0.0
10
-4.000000000000397
20
-157.07032929539912
42
-0.99999999999999989
10
-4.0000000000003784
20
-147.07032929539912
10
5.999999999999619
20
-147.07032929539909
42
-0.99999999999999989
10
5.9999999999996012
20
-157.07032929539912
0
LWPOLYLINE
5
154
100
AcDbEntity
8
0
100
AcDbPolyline
90
132
70
1
43
0.0
10
-170.00000000000017
20
41.906593781525046
10
-170.00000000000031
20
58.929670704602863
10
-153.00000000000043
20
58.92967070460152
10
-153.00000000000034
20
65.029670704601543
10
-136.00000000000034
20
65.029670704601529
10
-136.00000000000037
20
58.92967070460152
10
-119.00000000000043
20
58.929670704601435
10
-119.00000000000034
20
65.029670704601457
10
-102.00000000000034
20
65.029670704601429
10
-102.00000000000038
20
58.929670704601435
10
-85.000000000000441
20
58.929670704601335
10
-85.000000000000355
20
65.029670704601358
10
-68.000000000000369
20
65.02967070460133
10
-68.000000000000398
20
58.929670704601335
10
-51.000000000000426
20
58.929670704601243
10
-51.000000000000334
20
65.029670704601273
10
-34.000000000000341
20
65.029670704601244
10
-34.000000000000377
20
58.929670704601243
10
-17.000000000000401
20
58.929670704601158
10
-17.000000000000313
20
65.029670704601173
10
-3.1974423109204508e-13
20
65.029670704601159
10
-3.5527136788005009e-13
20
58.929670704601158
10
16.999999999999584
20
58.929670704601065
10
16.999999999999673
20
65.029670704601088
10
33.999999999999666
20
65.029670704601074
10
33.999999999999631
20
58.929670704601065
10
50.999999999999588
20
58.92967070460098
10
50.999999999999673
20
65.029670704601003
10
67.999999999999673
20
65.029670704600989
10
67.999999999999631
20
58.92967070460098
10
84.999999999999588
20
58.929670704600881
10
84.999999999999687
20
65.029670704600903
10
101.99999999999967
20
65.029670704600889
10
101.99999999999963
20
58.929670704600881
10
118.9999999999996
20
58.929670704600795
10
118.99999999999969
20
65.029670704600818
10
135.99999999999969
20
65.02967070460079
10
135.99999999999963
20
58.929670704600795
10
153.0999999999996
20
58.929670704600703
10
153.09999999999968
20
65.029670704600889
10
169.89999999999966
20
65.029670704600889
10
169.89999999999964
20
58.929670704600703
10
169.99999999999966
20
58.929670704600696
10
169.99999999999969
20
41.906593781523952
10
176.09999999999968
20
41.90659378152386
10
176.09999999999968
20
25.183516858446851
10
169.99999999999969
20
25.183516858446957
10
169.99999999999969
20
8.0604399353700984
10
176.09999999999968
20
8.0604399353700096
10
176.09999999999968
20
-8.6626369877069997
10
169.99999999999969
20
-8.6626369877068914
10
169.99999999999969
20
-25.785713910783752
10
176.09999999999968
20
-25.785713910783844
10
176.09999999999968
20
-42.50879083386085
10
169.99999999999969
20
-42.508790833860743
10
169.99999999999969
20
-59.631867756937595
10
176.09999999999968
20
-59.63186775693768
10
176.09999999999968
20
-76.354944680014697
10
169.99999999999969
20
-76.354944680014569
10
169.99999999999969
20
-93.478021603091435
10
176.09999999999968
20
-93.47802160309152
10
176.09999999999968
20
-110.20109852616854
10
169.99999999999969
20
-110.20109852616842
10
169.99999999999969
20
-127.32417544924529
10
176.09999999999968
20
-127.32417544924537
10
176.09999999999968
20
-144.04725237232239
10
169.99999999999969
20
-144.04725237232228
10
169.99999999999969
20
-161.07032929539935
10
169.89999999999966
20
-161.07032929539935
10
169.89999999999966
20
-167.17032929539931
10
153.09999999999968
20
-167.17032929539931
10
153.09999999999968
20
-161.07032929539935
10
135.89999999999966
20
-161.07032929539935
10
135.89999999999966
20
-167.17032929539931
10
119.09999999999968
20
-167.17032929539931
10
119.09999999999967
20
-161.07032929539935
10
101.89999999999966
20
-161.07032929539935
10
101.89999999999966
20
-167.17032929539931
10
85.099999999999682
20
-167.17032929539931
10
85.099999999999653
20
-161.07032929539935
10
67.89999999999965
20
-161.07032929539935
10
67.89999999999965
20
-167.17032929539931
10
51.099999999999675
20
-167.17032929539931
10
51.099999999999653
20
-161.07032929539935
10
33.89999999999965
20
-161.07032929539935
10
33.89999999999965
20
-167.17032929539931
10
17.099999999999671
20
-167.17032929539931
10
17.099999999999653
20
-161.07032929539935
10
-0.10000000000033538
20
-161.07032929539935
10
-0.10000000000033538
20
-167.17032929539931
10
-16.900000000000315
20
-167.17032929539931
10
-16.900000000000333
20
-161.07032929539935
10
-34.100000000000357
20
-161.07032929539935
10
-34.100000000000357
20
-167.17032929539931
10
-50.900000000000333
20
-167.17032929539931
10
-50.900000000000354
20
-161.07032929539935
10
-68.100000000000378
20
-161.07032929539935
10
-68.100000000000378
20
-167.17032929539931
10
-84.900000000000361
20
-167.17032929539931
10
-84.900000000000375
20
-161.07032929539935
10
-102.10000000000036
20
-161.07032929539935
10
-102.10000000000036
20
-167.17032929539931
10
-118.90000000000035
20
-167.17032929539931
10
-118.90000000000036
20
-161.07032929539935
10
-136.10000000000036
20
-161.07032929539935
10
-136.10000000000036
20
-167.17032929539931
10
-152.90000000000032
20
-167.17032929539931
10
-152.90000000000035
20
-161.07032929539935
10
-170.00000000000017
20
-161.07032929539801
10
-170.00000000000017
20
-144.04725237232111
10
-176.10000000000016
20
-144.04725237232111
10
-176.10000000000016
20
-127.32417544924415
10
-170.00000000000017
20
-127.32417544924418
10
-170.00000000000017
20
-110.20109852616726
10
-176.10000000000016
20
-110.20109852616726
10
-176.10000000000016
20
-93.478021603090298
10
-170.00000000000017
20
-93.478021603090326
10
-170.00000000000017
20
-76.354944680013418
10
-176.10000000000016
20
-76.354944680013418
10
-176.10000000000016
20
-59.631867756936458
10
-170.00000000000017
20
-59.631867756936494
10
-170.00000000000017
20
-42.508790833859571
10
-176.10000000000016
20
-42.508790833859571
10
-176.10000000000016
20
-25.785713910782615
10
-170.00000000000017
20
-25.785713910782651
10
-170.00000000000017
20
-8.6626369877057208
10
-176.10000000000016
20
-8.6626369877057208
10
-176.10000000000016
20
8.0604399353712353
10
-170.00000000000017
20
8.0604399353712015
10
-170.00000000000017
20
25.183516858448129
10
-176.10000000000016
20
25.183516858448126
10
-176.10000000000016
20
41.906593781525089
0
ENDSEC
0
SECTION
2
OBJECTS
0
DICTIONARY
5
C
100
AcDbDictionary
3
ACAD_GROUP
350
D
3
ACAD_MLINESTYLE
350
17
0
DICTIONARY
5
D
100
AcDbDictionary
0
DICTIONARY
5
1A
330
C
100
AcDbDictionary
0
DICTIONARY
5
17
100
AcDbDictionary
0
ENDSEC
0
EOF
