0
SECTION
2
HEADER
9
$INSUNITS
70
4
9
$ACADVER
1
AC1014
9
$HANDSEED
5
FFFF
0
ENDSEC
0
SECTION
2
TABLES
0
TABLE
2
VPORT
5
8
100
AcDbSymbolTable
0
ENDTAB
0
TABLE
2
LTYPE
5
5
100
AcDbSymbolTable
0
LTYPE
5
14
100
AcDbSymbolTableRecord
100
AcDbLinetypeTableRecord
2
BYBLOCK
70
0
0
LTYPE
5
15
100
AcDbSymbolTableRecord
100
AcDbLinetypeTableRecord
2
BYLAYER
70
0
0
ENDTAB
0
TABLE
2
LAYER
5
2
100
AcDbSymbolTable
70
2
0
LAYER
5
50
100
AcDbSymbolTableRecord
100
AcDbLayerTableRecord
2
0
70
0
6
CONTINUOUS
0
ENDTAB
0
TABLE
2
STYLE
5
3
100
AcDbSymbolTable
70
1
0
STYLE
5
11
100
AcDbSymbolTableRecord
100
AcDbTextStyleTableRecord
2
STANDARD
70
0
0
ENDTAB
0
TABLE
2
VIEW
5
6
100
AcDbSymbolTable
70
0
0
ENDTAB
0
TABLE
2
UCS
5
7
100
AcDbSymbolTable
70
0
0
ENDTAB
0
TABLE
2
APPID
5
9
100
AcDbSymbolTable
70
2
0
APPID
5
12
100
AcDbSymbolTableRecord
100
AcDbRegAppTableRecord
2
ACAD
70
0
0
ENDTAB
0
TABLE
2
DIMSTYLE
5
A
100
AcDbSymbolTable
70
1
0
ENDTAB
0
TABLE
2
BLOCK_RECORD
5
1
100
AcDbSymbolTable
70
1
0
BLOCK_RECORD
5
1F
100
AcDbSymbolTableRecord
100
AcDbBlockTableRecord
2
*MODEL_SPACE
0
BLOCK_RECORD
5
1B
100
AcDbSymbolTableRecord
100
AcDbBlockTableRecord
2
*PAPER_SPACE
0
ENDTAB
0
ENDSEC
0
SECTION
2
BLOCKS
0
BLOCK
5
20
100
AcDbEntity
100
AcDbBlockBegin
2
*MODEL_SPACE
0
ENDBLK
5
21
100
AcDbEntity
100
AcDbBlockEnd
0
BLOCK
5
1C
100
AcDbEntity
100
AcDbBlockBegin
2
*PAPER_SPACE
0
ENDBLK
5
1D
100
AcDbEntity
100
AcDbBlockEnd
0
ENDSEC
0
SECTION
2
ENTITIES
0
CIRCLE
5
100
100
AcDbEntity
8
0
100
AcDbCircle
10
-69.499999999999545
20
-130.00000000000026
30
0
40
1.9500000000000028
0
CIRCLE
5
101
100
AcDbEntity
8
0
100
AcDbCircle
10
99.999999999999872
20
-160.00000000000031
30
0
40
1.9500000000000028
0
CIRCLE
5
102
100
AcDbEntity
8
0
100
AcDbCircle
10
91.999999999999858
20
-145.00000000000034
30
0
40
8.1600000000000072
0
CIRCLE
5
103
100
AcDbEntity
8
0
100
AcDbCircle
10
99.999999999999162
20
159.99999999999966
30
0
40
1.9500000000000028
0
CIRCLE
5
104
100
AcDbEntity
8
0
100
AcDbCircle
10
-24.999999999999602
20
-90.00000000000027
30
0
40
1.9499999999999984
0
CIRCLE
5
105
100
AcDbEntity
8
0
100
AcDbCircle
10
-84.499999999999531
20
-130.00000000000026
30
0
40
1.9500000000000028
0
CIRCLE
5
106
100
AcDbEntity
8
0
100
AcDbCircle
10
-99.999999999999503
20
-160.00000000000026
30
0
40
1.9500000000000028
0
CIRCLE
5
107
100
AcDbEntity
8
0
100
AcDbCircle
10
-76.999999999999531
20
-145.00000000000026
30
0
40
8.1600000000000072
0
CIRCLE
5
108
100
AcDbEntity
8
0
100
AcDbCircle
10
-99.999999999999915
20
159.99999999999963
30
0
40
1.9500000000000028
0
CIRCLE
5
109
100
AcDbEntity
8
0
100
AcDbCircle
10
25.000000000000394
20
-90.000000000000298
30
0
40
1.9499999999999984
0
LWPOLYLINE
5
110
100
AcDbEntity
8
0
100
AcDbPolyline
90
124
70
1
43
0.0
10
-109.9999999999995
20
-170.00000000000026
10
-109.9999999999995
20
-169.90000000000023
10
-116.0999999999995
20
-169.90000000000023
10
-116.0999999999995
20
-170.00000000000026
10
-116.19999999999949
20
-170.00000000000026
10
-116.19999999999949
20
-176.10000000000025
10
-132.92307692307642
20
-176.10000000000025
10
-132.92307692307642
20
-170.00000000000026
10
-150.04615384615329
20
-170.00000000000026
10
-150.04615384615329
20
-176.10000000000025
10
-166.76923076923021
20
-176.10000000000025
10
-166.76923076923021
20
-170.00000000000026
10
-166.86923076923023
20
-170.00000000000026
10
-166.86923076923023
20
-38.011366392962074
42
-0.19891236737965765
10
-163.9402985810957
20
-30.940298581096606
10
-116.0999999999995
20
16.899999999999764
10
-109.9999999999995
20
16.899999999999764
10
-109.9999999999995
20
34.099999999999788
10
-116.0999999999995
20
34.099999999999788
10
-116.0999999999995
20
50.899999999999785
10
-109.9999999999995
20
50.899999999999785
10
-109.9999999999995
20
68.09999999999981
10
-116.0999999999995
20
68.09999999999981
10
-116.0999999999995
20
84.899999999999807
10
-109.9999999999995
20
84.899999999999807
10
-109.9999999999995
20
102.0999999999998
10
-116.0999999999995
20
102.0999999999998
10
-116.0999999999995
20
118.89999999999979
10
-109.9999999999995
20
118.89999999999979
10
-109.9999999999995
20
136.0999999999998
10
-116.0999999999995
20
136.0999999999998
10
-116.0999999999995
20
152.89999999999978
10
-109.9999999999995
20
152.89999999999978
10
-110.00000000000087
20
169.9999999999996
10
-92.976923076923981
20
169.99999999999966
10
-92.976923076923981
20
176.09999999999962
10
-76.25384615384705
20
176.09999999999962
10
-76.253846153846951
20
169.99999999999966
10
-59.130769230770127
20
169.99999999999966
10
-59.130769230770127
20
176.09999999999962
10
-42.407692307693203
20
176.09999999999962
10
-42.407692307693097
20
169.99999999999966
10
-25.284615384616274
20
169.99999999999966
10
-25.284615384616274
20
176.09999999999962
10
-8.5615384615393531
20
176.09999999999962
10
-8.5615384615392465
20
169.99999999999966
10
8.5615384615375678
20
169.99999999999966
10
8.5615384615375678
20
176.09999999999962
10
25.28461538461449
20
176.09999999999962
10
25.284615384614597
20
169.99999999999966
10
42.407692307691406
20
169.99999999999966
10
42.407692307691406
20
176.09999999999962
10
59.13076923076833
20
176.09999999999962
10
59.130769230768436
20
169.99999999999966
10
76.253846153845259
20
169.99999999999966
10
76.253846153845259
20
176.09999999999962
10
92.976923076922176
20
176.09999999999962
10
92.97692307692229
20
169.99999999999966
10
109.99999999999913
20
169.99999999999966
10
110.0000000000005
20
152.89999999999966
10
116.10000000000049
20
152.89999999999966
10
116.10000000000049
20
136.0999999999998
10
110.0000000000005
20
136.09999999999968
10
110.00000000000058
20
118.89999999999966
10
116.10000000000058
20
118.89999999999966
10
116.10000000000058
20
102.0999999999998
10
110.00000000000058
20
102.09999999999968
10
110.0000000000007
20
84.899999999999679
10
116.10000000000069
20
84.899999999999679
10
116.10000000000069
20
68.09999999999981
10
110.0000000000007
20
68.09999999999971
10
110.0000000000008
20
50.899999999999665
10
116.10000000000079
20
50.899999999999665
10
116.10000000000079
20
34.099999999999788
10
110.0000000000008
20
34.099999999999682
10
110.00000000000088
20
16.89999999999964
10
116.10000000000088
20
16.89999999999964
10
116.10000000000088
20
0.099999999999766942
10
110.00000000000088
20
0.099999999999660361
10
110.00000000000099
20
-17.100000000000346
10
116.10000000000099
20
-17.100000000000346
10
116.10000000000099
20
-33.900000000000219
10
110.00000000000099
20
-33.900000000000325
10
110.00000000000108
20
-51.10000000000035
10
116.10000000000107
20
-51.10000000000035
10
116.10000000000107
20
-67.900000000000219
10
110.00000000000108
20
-67.900000000000333
10
110.00000000000119
20
-85.10000000000035
10
116.10000000000119
20
-85.10000000000035
10
116.10000000000119
20
-101.90000000000023
10
110.00000000000119
20
-101.90000000000033
10
110.00000000000128
20
-119.10000000000036
10
116.10000000000127
20
-119.10000000000036
10
116.10000000000127
20
-135.90000000000023
10
110.00000000000128
20
-135.90000000000035
10
110.00000000000139
20
-153.10000000000036
10
116.10000000000139
20
-153.10000000000036
10
116.10000000000139
20
-169.90000000000023
10
110.00000000000139
20
-169.90000000000035
10
110.00000000000139
20
-170.00000000000034
10
92.976923076924308
20
-170.00000000000028
10
92.976923076924578
20
-176.10000000000036
10
76.253846153847633
20
-176.10000000000036
10
76.253846153847647
20
-170.00000000000028
10
59.130769230770461
20
-170.00000000000028
10
59.130769230770724
20
-176.10000000000036
10
42.407692307693779
20
-176.10000000000036
10
42.4076923076938
20
-170.00000000000028
10
25.284615384616622
20
-170.00000000000028
10
25.284615384616885
20
-176.10000000000036
10
8.5615384615399392
20
-176.10000000000036
10
8.561538461539957
20
-170.00000000000028
10
-8.5615384615372214
20
-170.00000000000028
10
-8.561538461536955
20
-176.10000000000036
10
-25.2846153846139
20
-176.10000000000036
10
-25.284615384613886
20
-170.00000000000028
10
-42.407692307691072
20
-170.00000000000028
10
-42.407692307690809
20
-176.10000000000036
10
-59.130769230767754
20
-176.10000000000036
10
-59.130769230767733
20
-170.00000000000028
10
-76.253846153844918
20
-170.00000000000028
10
-76.253846153844648
20
-176.10000000000036
10
-92.976923076921594
20
-176.10000000000036
10
-92.976923076921594
20
-170.00000000000028
0
LWPOLYLINE
5
111
100
AcDbEntity
8
0
100
AcDbPolyline
90
4
70
1
43
0.0
10
-116.0999999999995
20
-153.10000000000025
10
-109.9999999999995
20
-153.10000000000025
10
-109.9999999999995
20
-135.90000000000023
10
-116.0999999999995
20
-135.90000000000026
0
LWPOLYLINE
5
112
100
AcDbEntity
8
0
100
AcDbPolyline
90
4
70
1
43
0.0
10
-116.0999999999995
20
-119.10000000000025
10
-109.9999999999995
20
-119.10000000000024
10
-109.9999999999995
20
-101.90000000000023
10
-116.0999999999995
20
-101.90000000000023
0
LWPOLYLINE
5
113
100
AcDbEntity
8
0
100
AcDbPolyline
90
4
70
1
43
0.0
10
-116.0999999999995
20
-85.100000000000222
10
-109.9999999999995
20
-85.100000000000222
10
-109.9999999999995
20
-67.900000000000219
10
-116.0999999999995
20
-67.900000000000205
0
LWPOLYLINE
5
114
100
AcDbEntity
8
0
100
AcDbPolyline
90
4
70
1
43
0.0
10
-116.0999999999995
20
-51.100000000000207
10
-109.9999999999995
20
-51.100000000000222
10
-109.9999999999995
20
-33.900000000000219
10
-116.0999999999995
20
-33.900000000000219
0
LWPOLYLINE
5
115
100
AcDbEntity
8
0
100
AcDbPolyline
90
4
70
1
43
0.0
10
-116.0999999999995
20
-17.100000000000222
10
-109.9999999999995
20
-17.100000000000222
10
-109.9999999999995
20
0.099999999999766942
10
-116.0999999999995
20
0.099999999999766942
0
ENDSEC
0
SECTION
2
OBJECTS
0
DICTIONARY
5
C
100
AcDbDictionary
3
ACAD_GROUP
350
D
3
ACAD_MLINESTYLE
350
17
0
DICTIONARY
5
D
100
AcDbDictionary
0
DICTIONARY
5
1A
330
C
100
AcDbDictionary
0
DICTIONARY
5
17
100
AcDbDictionary
0
ENDSEC
0
EOF
