0
SECTION
2
HEADER
9
$INSUNITS
70
4
9
$ACADVER
1
AC1014
9
$HANDSEED
5
FFFF
0
ENDSEC
0
SECTION
2
TABLES
0
TABLE
2
VPORT
5
8
100
AcDbSymbolTable
0
ENDTAB
0
TABLE
2
LTYPE
5
5
100
AcDbSymbolTable
0
LTYPE
5
14
100
AcDbSymbolTableRecord
100
AcDbLinetypeTableRecord
2
BYBLOCK
70
0
0
LTYPE
5
15
100
AcDbSymbolTableRecord
100
AcDbLinetypeTableRecord
2
BYLAYER
70
0
0
ENDTAB
0
TABLE
2
LAYER
5
2
100
AcDbSymbolTable
70
2
0
LAYER
5
50
100
AcDbSymbolTableRecord
100
AcDbLayerTableRecord
2
0
70
0
6
CONTINUOUS
0
ENDTAB
0
TABLE
2
STYLE
5
3
100
AcDbSymbolTable
70
1
0
STYLE
5
11
100
AcDbSymbolTableRecord
100
AcDbTextStyleTableRecord
2
STANDARD
70
0
0
ENDTAB
0
TABLE
2
VIEW
5
6
100
AcDbSymbolTable
70
0
0
ENDTAB
0
TABLE
2
UCS
5
7
100
AcDbSymbolTable
70
0
0
ENDTAB
0
TABLE
2
APPID
5
9
100
AcDbSymbolTable
70
2
0
APPID
5
12
100
AcDbSymbolTableRecord
100
AcDbRegAppTableRecord
2
ACAD
70
0
0
ENDTAB
0
TABLE
2
DIMSTYLE
5
A
100
AcDbSymbolTable
70
1
0
ENDTAB
0
TABLE
2
BLOCK_RECORD
5
1
100
AcDbSymbolTable
70
1
0
BLOCK_RECORD
5
1F
100
AcDbSymbolTableRecord
100
AcDbBlockTableRecord
2
*MODEL_SPACE
0
BLOCK_RECORD
5
1B
100
AcDbSymbolTableRecord
100
AcDbBlockTableRecord
2
*PAPER_SPACE
0
ENDTAB
0
ENDSEC
0
SECTION
2
BLOCKS
0
BLOCK
5
20
100
AcDbEntity
100
AcDbBlockBegin
2
*MODEL_SPACE
0
ENDBLK
5
21
100
AcDbEntity
100
AcDbBlockEnd
0
BLOCK
5
1C
100
AcDbEntity
100
AcDbBlockBegin
2
*PAPER_SPACE
0
ENDBLK
5
1D
100
AcDbEntity
100
AcDbBlockEnd
0
ENDSEC
0
SECTION
2
ENTITIES
0
CIRCLE
5
100
100
AcDbEntity
8
0
100
AcDbCircle
10
84.500000000000455
20
-130.00000000000026
30
0
40
1.9500000000000028
0
CIRCLE
5
101
100
AcDbEntity
8
0
100
AcDbCircle
10
100.00000000000043
20
-160.00000000000026
30
0
40
1.9500000000000028
0
CIRCLE
5
102
100
AcDbEntity
8
0
100
AcDbCircle
10
77.000000000000441
20
-145.00000000000026
30
0
40
8.1599999999999984
0
CIRCLE
5
103
100
AcDbEntity
8
0
100
AcDbCircle
10
100.00000000000085
20
159.99999999999966
30
0
40
1.9500000000000028
0
CIRCLE
5
104
100
AcDbEntity
8
0
100
AcDbCircle
10
25.000000000000519
20
-90.00000000000027
30
0
40
1.9499999999999984
0
CIRCLE
5
105
100
AcDbEntity
8
0
100
AcDbCircle
10
69.500000000000455
20
-130.00000000000026
30
0
40
1.9500000000000028
0
CIRCLE
5
106
100
AcDbEntity
8
0
100
AcDbCircle
10
-100.00000000000136
20
-160.00000000000031
30
0
40
1.9500000000000028
0
CIRCLE
5
107
100
AcDbEntity
8
0
100
AcDbCircle
10
-92.000000000001322
20
-145.00000000000034
30
0
40
8.1600000000000072
0
CIRCLE
5
108
100
AcDbEntity
8
0
100
AcDbCircle
10
-100.00000000000065
20
159.99999999999966
30
0
40
1.9500000000000028
0
CIRCLE
5
109
100
AcDbEntity
8
0
100
AcDbCircle
10
-24.999999999999481
20
-90.000000000000298
30
0
40
1.9499999999999984
0
LWPOLYLINE
5
110
100
AcDbEntity
8
0
100
AcDbPolyline
90
124
70
1
43
0.0
10
109.99999999999986
20
34.099999999999788
10
109.9999999999998
20
16.899999999999711
10
116.0999999999995
20
16.89999999999975
10
163.9402989441611
20
-30.940298944161597
42
-0.19891235403547691
10
166.86923076923028
20
-38.011366392961712
10
166.86923076923028
20
-170.00000000000026
10
166.76923076923029
20
-170.00000000000026
10
166.76923076923029
20
-176.10000000000025
10
150.0461538461534
20
-176.10000000000025
10
150.0461538461534
20
-170.00000000000026
10
132.92307692307642
20
-170.00000000000026
10
132.92307692307642
20
-176.10000000000025
10
116.19999999999949
20
-176.10000000000025
10
116.19999999999949
20
-170.00000000000026
10
116.0999999999995
20
-170.00000000000026
10
116.0999999999995
20
-169.90000000000012
10
109.9999999999995
20
-169.90000000000023
10
109.9999999999995
20
-170.00000000000026
10
92.976923076922873
20
-170.00000000000026
10
92.976923076922816
20
-176.10000000000025
10
76.253846153845899
20
-176.10000000000025
10
76.253846153845899
20
-170.00000000000017
10
59.130769230769019
20
-170.00000000000026
10
59.130769230768969
20
-176.10000000000025
10
42.407692307692059
20
-176.10000000000025
10
42.407692307692059
20
-170.00000000000017
10
25.284615384615179
20
-170.00000000000026
10
25.28461538461513
20
-176.10000000000025
10
8.5615384615382073
20
-176.10000000000025
10
8.5615384615382073
20
-170.00000000000017
10
-8.5615384615386603
20
-170.00000000000026
10
-8.5615384615387136
20
-176.10000000000025
10
-25.284615384615634
20
-176.10000000000025
10
-25.284615384615634
20
-170.00000000000017
10
-42.407692307692514
20
-170.00000000000026
10
-42.407692307692564
20
-176.10000000000025
10
-59.130769230769488
20
-176.10000000000025
10
-59.130769230769488
20
-170.00000000000017
10
-76.253846153846354
20
-170.00000000000026
10
-76.253846153846411
20
-176.10000000000025
10
-92.976923076923327
20
-176.10000000000025
10
-92.976923076923327
20
-170.00000000000017
10
-110.00000000000139
20
-170.00000000000034
10
-110.00000000000139
20
-169.90000000000035
10
-116.10000000000139
20
-169.90000000000035
10
-116.10000000000139
20
-153.10000000000036
10
-110.00000000000139
20
-153.10000000000036
10
-110.00000000000139
20
-135.90000000000035
10
-116.10000000000139
20
-135.90000000000035
10
-116.10000000000139
20
-119.10000000000036
10
-110.00000000000139
20
-119.10000000000036
10
-110.00000000000139
20
-101.90000000000033
10
-116.10000000000139
20
-101.90000000000033
10
-116.10000000000139
20
-85.10000000000035
10
-110.00000000000139
20
-85.10000000000035
10
-110.00000000000139
20
-67.900000000000333
10
-116.10000000000139
20
-67.900000000000333
10
-116.10000000000139
20
-51.10000000000035
10
-110.00000000000139
20
-51.10000000000035
10
-110.00000000000139
20
-33.900000000000325
10
-116.10000000000139
20
-33.900000000000325
10
-116.10000000000139
20
-17.100000000000346
10
-110.00000000000139
20
-17.100000000000346
10
-110.00000000000139
20
0.099999999999660361
10
-116.10000000000139
20
0.099999999999660361
10
-116.10000000000139
20
16.89999999999964
10
-110.00000000000139
20
16.89999999999964
10
-110.00000000000139
20
34.099999999999682
10
-116.10000000000139
20
34.099999999999682
10
-116.10000000000139
20
50.899999999999665
10
-110.00000000000139
20
50.899999999999665
10
-110.00000000000139
20
68.09999999999971
10
-116.10000000000139
20
68.09999999999971
10
-116.10000000000139
20
84.899999999999679
10
-110.00000000000139
20
84.899999999999679
10
-110.00000000000139
20
102.09999999999968
10
-116.10000000000139
20
102.09999999999968
10
-116.10000000000139
20
118.89999999999966
10
-110.00000000000139
20
118.89999999999966
10
-110.00000000000139
20
136.09999999999968
10
-116.10000000000139
20
136.09999999999968
10
-116.10000000000139
20
152.89999999999966
10
-110.00000000000139
20
152.89999999999966
10
-109.99999999999915
20
169.9999999999996
10
-92.976923076922702
20
169.9999999999996
10
-92.976923076922702
20
176.0999999999996
10
-76.253846153845771
20
176.0999999999996
10
-76.253846153845885
20
169.9999999999996
10
-59.130769230768848
20
169.9999999999996
10
-59.130769230768848
20
176.0999999999996
10
-42.407692307691924
20
176.0999999999996
10
-42.407692307692031
20
169.9999999999996
10
-25.284615384614995
20
169.9999999999996
10
-25.284615384614995
20
176.0999999999996
10
-8.5615384615380741
20
176.0999999999996
10
-8.5615384615381807
20
169.9999999999996
10
8.5615384615388468
20
169.9999999999996
10
8.5615384615388468
20
176.0999999999996
10
25.284615384615769
20
176.0999999999996
10
25.284615384615662
20
169.9999999999996
10
42.407692307692685
20
169.9999999999996
10
42.407692307692685
20
176.0999999999996
10
59.130769230769609
20
176.0999999999996
10
59.130769230769502
20
169.9999999999996
10
76.253846153846538
20
169.9999999999996
10
76.253846153846538
20
176.0999999999996
10
92.976923076923455
20
176.0999999999996
10
92.976923076923356
20
169.9999999999996
10
110.00000000000087
20
169.9999999999996
10
110.00000000000006
20
152.89999999999972
10
116.0999999999995
20
152.89999999999975
10
116.0999999999995
20
136.09999999999985
10
110.00000000000006
20
136.0999999999998
10
109.99999999999999
20
118.89999999999974
10
116.0999999999995
20
118.89999999999978
10
116.0999999999995
20
102.09999999999987
10
109.99999999999999
20
102.0999999999998
10
109.99999999999993
20
84.89999999999975
10
116.0999999999995
20
84.899999999999793
10
116.0999999999995
20
68.099999999999881
10
109.99999999999993
20
68.09999999999981
10
109.99999999999986
20
50.899999999999736
10
116.0999999999995
20
50.899999999999764
10
116.0999999999995
20
34.099999999999859
0
LWPOLYLINE
5
111
100
AcDbEntity
8
0
100
AcDbPolyline
90
4
70
1
43
0.0
10
116.0999999999995
20
0.099999999999837996
10
109.9999999999998
20
0.099999999999766942
10
109.99999999999974
20
-17.100000000000275
10
116.0999999999995
20
-17.100000000000257
0
LWPOLYLINE
5
112
100
AcDbEntity
8
0
100
AcDbPolyline
90
4
70
1
43
0.0
10
116.0999999999995
20
-33.900000000000148
10
109.99999999999974
20
-33.900000000000219
10
109.99999999999969
20
-51.100000000000279
10
116.0999999999995
20
-51.100000000000243
0
LWPOLYLINE
5
113
100
AcDbEntity
8
0
100
AcDbPolyline
90
4
70
1
43
0.0
10
116.0999999999995
20
-67.900000000000176
10
109.99999999999969
20
-67.900000000000219
10
109.99999999999963
20
-85.100000000000279
10
116.0999999999995
20
-85.100000000000222
0
LWPOLYLINE
5
114
100
AcDbEntity
8
0
100
AcDbPolyline
90
4
70
1
43
0.0
10
116.0999999999995
20
-101.90000000000015
10
109.99999999999963
20
-101.90000000000023
10
109.99999999999956
20
-119.10000000000028
10
116.0999999999995
20
-119.10000000000025
0
LWPOLYLINE
5
115
100
AcDbEntity
8
0
100
AcDbPolyline
90
4
70
1
43
0.0
10
116.0999999999995
20
-135.90000000000015
10
109.99999999999956
20
-135.90000000000023
10
109.9999999999995
20
-153.10000000000028
10
116.0999999999995
20
-153.10000000000028
0
ENDSEC
0
SECTION
2
OBJECTS
0
DICTIONARY
5
C
100
AcDbDictionary
3
ACAD_GROUP
350
D
3
ACAD_MLINESTYLE
350
17
0
DICTIONARY
5
D
100
AcDbDictionary
0
DICTIONARY
5
1A
330
C
100
AcDbDictionary
0
DICTIONARY
5
17
100
AcDbDictionary
0
ENDSEC
0
EOF
