  0
SECTION
  2
HEADER
  9
$ACADVER
  1
AC1012
  9
$DWGCODEPAGE
  3
ansi_1252
  9
$INSBASE
 10
0.0
 20
0.0
 30
0.0
  9
$EXTMIN
 10
-116.1381
 20
-176.1381
 30
0.0
  9
$EXTMAX
 10
116.1381
 20
176.138
 30
0.0
  9
$LIMMIN
 10
0.0
 20
0.0
  9
$LIMMAX
 10
12.0
 20
9.0
  9
$ORTHOMODE
 70
     0
  9
$REGENMODE
 70
     1
  9
$FILLMODE
 70
     1
  9
$QTEXTMODE
 70
     0
  9
$MIRRTEXT
 70
     1
  9
$DRAGMODE
 70
     2
  9
$LTSCALE
 40
1.0
  9
$OSMODE
 70
    37
  9
$ATTMODE
 70
     1
  9
$TEXTSIZE
 40
0.2
  9
$TRACEWID
 40
0.05
  9
$TEXTSTYLE
  7
STANDARD
  9
$CLAYER
  8
0
  9
$CELTYPE
  6
BYLAYER
  9
$CECOLOR
 62
   256
  9
$CELTSCALE
 40
1.0
  9
$DELOBJ
 70
     1
  9
$DISPSILH
 70
     0
  9
$DIMSCALE
 40
1.0
  9
$DIMASZ
 40
0.18
  9
$DIMEXO
 40
0.0625
  9
$DIMDLI
 40
0.38
  9
$DIMRND
 40
0.0
  9
$DIMDLE
 40
0.0
  9
$DIMEXE
 40
0.18
  9
$DIMTP
 40
0.0
  9
$DIMTM
 40
0.0
  9
$DIMTXT
 40
0.18
  9
$DIMCEN
 40
0.09
  9
$DIMTSZ
 40
0.0
  9
$DIMTOL
 70
     0
  9
$DIMLIM
 70
     0
  9
$DIMTIH
 70
     1
  9
$DIMTOH
 70
     1
  9
$DIMSE1
 70
     0
  9
$DIMSE2
 70
     0
  9
$DIMTAD
 70
     0
  9
$DIMZIN
 70
     0
  9
$DIMBLK
  1

  9
$DIMASO
 70
     1
  9
$DIMSHO
 70
     1
  9
$DIMPOST
  1

  9
$DIMAPOST
  1

  9
$DIMALT
 70
     0
  9
$DIMALTD
 70
     2
  9
$DIMALTF
 40
25.4
  9
$DIMLFAC
 40
1.0
  9
$DIMTOFL
 70
     0
  9
$DIMTVP
 40
0.0
  9
$DIMTIX
 70
     0
  9
$DIMSOXD
 70
     0
  9
$DIMSAH
 70
     0
  9
$DIMBLK1
  1

  9
$DIMBLK2
  1

  9
$DIMSTYLE
  2
STANDARD
  9
$DIMCLRD
 70
     0
  9
$DIMCLRE
 70
     0
  9
$DIMCLRT
 70
     0
  9
$DIMTFAC
 40
1.0
  9
$DIMGAP
 40
0.09
  9
$DIMJUST
 70
     0
  9
$DIMSD1
 70
     0
  9
$DIMSD2
 70
     0
  9
$DIMTOLJ
 70
     1
  9
$DIMTZIN
 70
     0
  9
$DIMALTZ
 70
     0
  9
$DIMALTTZ
 70
     0
  9
$DIMFIT
 70
     3
  9
$DIMUPT
 70
     0
  9
$DIMUNIT
 70
     2
  9
$DIMDEC
 70
     4
  9
$DIMTDEC
 70
     4
  9
$DIMALTU
 70
     2
  9
$DIMALTTD
 70
     2
  9
$DIMTXSTY
  7
STANDARD
  9
$DIMAUNIT
 70
     0
  9
$LUNITS
 70
     2
  9
$LUPREC
 70
     4
  9
$SKETCHINC
 40
0.1
  9
$FILLETRAD
 40
0.5
  9
$AUNITS
 70
     0
  9
$AUPREC
 70
     0
  9
$MENU
  1
.
  9
$ELEVATION
 40
0.0
  9
$PELEVATION
 40
0.0
  9
$THICKNESS
 40
0.0
  9
$LIMCHECK
 70
     0
  9
$CHAMFERA
 40
0.5
  9
$CHAMFERB
 40
0.5
  9
$CHAMFERC
 40
1.0
  9
$CHAMFERD
 40
0.0
  9
$SKPOLY
 70
     0
  9
$TDCREATE
 40
2457568.696637431
  9
$TDUPDATE
 40
2457568.696637442
  9
$TDINDWG
 40
0.0000000116
  9
$TDUSRTIMER
 40
0.0000000116
  9
$USRTIMER
 70
     1
  9
$ANGBASE
 50
0.0
  9
$ANGDIR
 70
     0
  9
$PDMODE
 70
     0
  9
$PDSIZE
 40
0.0
  9
$PLINEWID
 40
0.0
  9
$COORDS
 70
     1
  9
$SPLFRAME
 70
     0
  9
$SPLINETYPE
 70
     6
  9
$SPLINESEGS
 70
     8
  9
$ATTDIA
 70
     0
  9
$ATTREQ
 70
     1
  9
$HANDLING
 70
     1
  9
$HANDSEED
  5
80
  9
$SURFTAB1
 70
     6
  9
$SURFTAB2
 70
     6
  9
$SURFTYPE
 70
     6
  9
$SURFU
 70
     6
  9
$SURFV
 70
     6
  9
$UCSNAME
  2

  9
$UCSORG
 10
0.0
 20
0.0
 30
0.0
  9
$UCSXDIR
 10
1.0
 20
0.0
 30
0.0
  9
$UCSYDIR
 10
0.0
 20
1.0
 30
0.0
  9
$PUCSNAME
  2

  9
$PUCSORG
 10
0.0
 20
0.0
 30
0.0
  9
$PUCSXDIR
 10
1.0
 20
0.0
 30
0.0
  9
$PUCSYDIR
 10
0.0
 20
1.0
 30
0.0
  9
$USERI1
 70
     0
  9
$USERI2
 70
     0
  9
$USERI3
 70
     0
  9
$USERI4
 70
     0
  9
$USERI5
 70
     0
  9
$USERR1
 40
0.0
  9
$USERR2
 40
0.0
  9
$USERR3
 40
0.0
  9
$USERR4
 40
0.0
  9
$USERR5
 40
0.0
  9
$WORLDVIEW
 70
     1
  9
$SHADEDGE
 70
     3
  9
$SHADEDIF
 70
    70
  9
$TILEMODE
 70
     1
  9
$MAXACTVP
 70
    64
  9
$PINSBASE
 10
0.0
 20
0.0
 30
0.0
  9
$PLIMCHECK
 70
     0
  9
$PEXTMIN
 10
1.000000000000000E+20
 20
1.000000000000000E+20
 30
1.000000000000000E+20
  9
$PEXTMAX
 10
-1.000000000000000E+20
 20
-1.000000000000000E+20
 30
-1.000000000000000E+20
  9
$PLIMMIN
 10
0.0
 20
0.0
  9
$PLIMMAX
 10
12.0
 20
9.0
  9
$UNITMODE
 70
     0
  9
$VISRETAIN
 70
     1
  9
$PLINEGEN
 70
     0
  9
$PSLTSCALE
 70
     1
  9
$TREEDEPTH
 70
  3020
  9
$PICKSTYLE
 70
     1
  9
$CMLSTYLE
  2
STANDARD
  9
$CMLJUST
 70
     0
  9
$CMLSCALE
 40
1.0
  9
$SAVEIMAGES
 70
     1
  0
ENDSEC
  0
SECTION
  2
CLASSES
  0
CLASS
  1
ACDBDICTIONARYWDFLT
  2
AcDbDictionaryWithDefault
  3
ObjectDBX Classes
 90
    32768
280
     0
281
     0
  0
CLASS
  1
VISUALSTYLE
  2
AcDbVisualStyle
  3
ObjectDBX Classes
 90
     4095
280
     0
281
     0
  0
CLASS
  1
MATERIAL
  2
AcDbMaterial
  3
ObjectDBX Classes
 90
     1153
280
     0
281
     0
  0
CLASS
  1
DICTIONARYVAR
  2
AcDbDictionaryVar
  3
ObjectDBX Classes
 90
        0
280
     0
281
     0
  0
CLASS
  1
XRECORD
  2
AcDbXrecord
  3
AutoCAD 2000
 90
    32768
280
     0
281
     0
  0
CLASS
  1
LWPOLYLINE
  2
AcDbPolyline
  3
AutoCAD 2000
 90
    32768
280
     0
281
     1
  0
CLASS
  1
HATCH
  2
AcDbHatch
  3
AutoCAD 2000
 90
    32768
280
     0
281
     1
  0
CLASS
  1
ACDBPLACEHOLDER
  2
AcDbPlaceHolder
  3
ObjectDBX Classes
 90
        0
280
     0
281
     0
  0
CLASS
  1
LAYOUT
  2
AcDbLayout
  3
ObjectDBX Classes
 90
        0
280
     0
281
     0
  0
ENDSEC
  0
SECTION
  2
TABLES
  0
TABLE
  2
VPORT
  5
8
330
0
100
AcDbSymbolTable
 70
     1
  0
VPORT
  5
29
330
8
100
AcDbSymbolTableRecord
100
AcDbViewportTableRecord
  2
*ACTIVE
 70
     0
 10
0.0
 20
0.0
 11
1.0
 21
1.0
 12
10.42990654205607
 22
4.5
 13
0.0
 23
0.0
 14
0.5
 24
0.5
 15
0.5
 25
0.5
 16
0.0
 26
0.0
 36
1.0
 17
0.0
 27
0.0
 37
0.0
 40
9.0
 41
1.972972972850329
 42
50.0
 43
0.0
 44
0.0
 50
0.0
 51
0.0
 71
     0
 72
   100
 73
     1
 74
     3
 75
     0
 76
     0
 77
     0
 78
     0
  0
ENDTAB
  0
TABLE
  2
LTYPE
  5
5
330
0
100
AcDbSymbolTable
 70
     1
  0
LTYPE
  5
14
330
5
100
AcDbSymbolTableRecord
100
AcDbLinetypeTableRecord
  2
BYBLOCK
 70
     0
  3

 72
    65
 73
     0
 40
0.0
  0
LTYPE
  5
15
330
5
100
AcDbSymbolTableRecord
100
AcDbLinetypeTableRecord
  2
BYLAYER
 70
     0
  3

 72
    65
 73
     0
 40
0.0
  0
LTYPE
  5
16
330
5
100
AcDbSymbolTableRecord
100
AcDbLinetypeTableRecord
  2
CONTINUOUS
 70
     0
  3
Solid line
 72
    65
 73
     0
 40
0.0
  0
ENDTAB
  0
TABLE
  2
LAYER
  5
2
330
0
100
AcDbSymbolTable
 70
     1
  0
LAYER
  5
10
330
2
100
AcDbSymbolTableRecord
100
AcDbLayerTableRecord
  2
0
 70
     0
 62
     7
  6
CONTINUOUS
  0
ENDTAB
  0
TABLE
  2
STYLE
  5
3
330
0
100
AcDbSymbolTable
 70
     1
  0
STYLE
  5
11
330
3
100
AcDbSymbolTableRecord
100
AcDbTextStyleTableRecord
  2
STANDARD
 70
     0
 40
0.0
 41
1.0
 50
0.0
 71
     0
 42
0.2
  3
txt
  4

  0
ENDTAB
  0
TABLE
  2
VIEW
  5
6
330
0
100
AcDbSymbolTable
 70
     0
  0
ENDTAB
  0
TABLE
  2
UCS
  5
7
330
0
100
AcDbSymbolTable
 70
     0
  0
ENDTAB
  0
TABLE
  2
APPID
  5
9
330
0
100
AcDbSymbolTable
 70
     2
  0
APPID
  5
12
330
9
100
AcDbSymbolTableRecord
100
AcDbRegAppTableRecord
  2
ACAD
 70
     0
  0
APPID
  5
3F
330
9
100
AcDbSymbolTableRecord
100
AcDbRegAppTableRecord
  2
ODA
 70
     0
  0
ENDTAB
  0
TABLE
  2
DIMSTYLE
  5
A
330
0
100
AcDbSymbolTable
 70
     1
  0
DIMSTYLE
105
27
330
A
100
AcDbSymbolTableRecord
100
AcDbDimStyleTableRecord
  2
STANDARD
 70
     0
  3

  4

  5

  6

  7

 40
1.0
 41
0.18
 42
0.0625
 43
0.38
 44
0.18
 45
0.0
 46
0.0
 47
0.0
 48
0.0
140
0.18
141
0.09
142
0.0
143
25.4
144
1.0
145
0.0
146
1.0
147
0.09
 71
     0
 72
     0
 73
     1
 74
     1
 75
     0
 76
     0
 77
     0
 78
     0
170
     0
171
     2
172
     0
173
     0
174
     0
175
     0
176
     0
177
     0
178
     0
270
     2
271
     4
272
     4
273
     2
274
     2
340
11
275
     0
280
     0
281
     0
282
     0
283
     1
284
     0
285
     0
286
     0
287
     3
288
     0
  0
ENDTAB
  0
TABLE
  2
BLOCK_RECORD
  5
1
330
0
100
AcDbSymbolTable
 70
     1
  0
BLOCK_RECORD
  5
1F
330
1
100
AcDbSymbolTableRecord
100
AcDbBlockTableRecord
  2
*MODEL_SPACE
  0
BLOCK_RECORD
  5
1B
330
1
100
AcDbSymbolTableRecord
100
AcDbBlockTableRecord
  2
*PAPER_SPACE
  0
ENDTAB
  0
ENDSEC
  0
SECTION
  2
BLOCKS
  0
BLOCK
  5
20
330
1F
100
AcDbEntity
  8
0
100
AcDbBlockBegin
  2
*MODEL_SPACE
 70
     0
 10
0.0
 20
0.0
 30
0.0
  3
*MODEL_SPACE
  1

  0
ENDBLK
  5
21
330
1F
100
AcDbEntity
  8
0
100
AcDbBlockEnd
  0
BLOCK
  5
1C
330
1B
100
AcDbEntity
 67
     1
  8
0
100
AcDbBlockBegin
  2
*PAPER_SPACE
 70
     0
 10
0.0
 20
0.0
 30
0.0
  3
*PAPER_SPACE
  1

  0
ENDBLK
  5
1D
330
1B
100
AcDbEntity
 67
     1
  8
0
100
AcDbBlockEnd
  0
ENDSEC
  0
SECTION
  2
ENTITIES
  0
SPLINE
  5
40
330
1F
100
AcDbEntity
  8
0
100
AcDbSpline
210
0.0
220
0.0
230
1.0
 70
    11
 71
     3
 72
    52
 73
    48
 74
     0
 42
0.0000000001
 43
0.0000000001
 40
0.0
 40
0.0
 40
0.0
 40
0.0
 40
0.0769230769230769
 40
0.0769230769230769
 40
0.0769230769230769
 40
0.0769230769230769
 40
0.1538461538461539
 40
0.1538461538461539
 40
0.1538461538461539
 40
0.1538461538461539
 40
0.2307692307692308
 40
0.2307692307692308
 40
0.2307692307692308
 40
0.2307692307692308
 40
0.3076923076923077
 40
0.3076923076923077
 40
0.3076923076923077
 40
0.3076923076923077
 40
0.3846153846153846
 40
0.3846153846153846
 40
0.3846153846153846
 40
0.3846153846153846
 40
0.4615384615384616
 40
0.4615384615384616
 40
0.4615384615384616
 40
0.4615384615384616
 40
0.5384615384615384
 40
0.5384615384615384
 40
0.5384615384615384
 40
0.5384615384615384
 40
0.6153846153846154
 40
0.6153846153846154
 40
0.6153846153846154
 40
0.6153846153846154
 40
0.6923076923076923
 40
0.6923076923076923
 40
0.6923076923076923
 40
0.6923076923076923
 40
0.7692307692307693
 40
0.7692307692307693
 40
0.7692307692307693
 40
0.7692307692307693
 40
0.8461538461538461
 40
0.8461538461538461
 40
0.8461538461538461
 40
0.8461538461538461
 40
1.0
 40
1.0
 40
1.0
 40
1.0
 10
-8.0
 20
138.9999
 30
0.0
 10
-8.0
 20
138.9999
 30
0.0
 10
17.9999
 20
138.9999
 30
0.0
 10
17.9999
 20
138.9999
 30
0.0
 10
17.9999
 20
138.9999
 30
0.0
 10
18.5307
 20
139.0003
 30
0.0
 10
19.0396
 20
139.2115
 30
0.0
 10
19.4147
 20
139.587
 30
0.0
 10
19.4147
 20
139.587
 30
0.0
 10
19.7898
 20
139.9625
 30
0.0
 10
20.0003
 20
140.4692
 30
0.0
 10
19.9999
 20
140.9999
 30
0.0
 10
19.9999
 20
140.9999
 30
0.0
 10
19.9999
 20
140.9999
 30
0.0
 10
19.9999
 20
147.9999
 30
0.0
 10
19.9999
 20
147.9999
 30
0.0
 10
19.9999
 20
147.9999
 30
0.0
 10
19.9996
 20
148.5307
 30
0.0
 10
19.7884
 20
149.0396
 30
0.0
 10
19.4129
 20
149.4147
 30
0.0
 10
19.4129
 20
149.4147
 30
0.0
 10
19.0374
 20
149.7898
 30
0.0
 10
18.5307
 20
150.0003
 30
0.0
 10
17.9999
 20
149.9999
 30
0.0
 10
17.9999
 20
149.9999
 30
0.0
 10
17.9999
 20
149.9999
 30
0.0
 10
-8.0
 20
149.9999
 30
0.0
 10
-8.0
 20
149.9999
 30
0.0
 10
-8.0
 20
149.9999
 30
0.0
 10
-8.5307
 20
149.9996
 30
0.0
 10
-9.0396
 20
149.7884
 30
0.0
 10
-9.4147
 20
149.4129
 30
0.0
 10
-9.4147
 20
149.4129
 30
0.0
 10
-9.7898
 20
149.0374
 30
0.0
 10
-10.0003
 20
148.5307
 30
0.0
 10
-10.0
 20
147.9999
 30
0.0
 10
-10.0
 20
147.9999
 30
0.0
 10
-10.0
 20
147.9999
 30
0.0
 10
-10.0
 20
140.9999
 30
0.0
 10
-10.0
 20
140.9999
 30
0.0
 10
-10.0
 20
140.9999
 30
0.0
 10
-9.9996
 20
140.4692
 30
0.0
 10
-9.7884
 20
139.9603
 30
0.0
 10
-9.4129
 20
139.5852
 30
0.0
 10
-9.4129
 20
139.5852
 30
0.0
 10
-9.0374
 20
139.2101
 30
0.0
 10
-8.5307
 20
138.9996
 30
0.0
 10
-8.0
 20
138.9999
 30
0.0
  0
SPLINE
  5
41
330
1F
100
AcDbEntity
  8
0
100
AcDbSpline
210
0.0
220
0.0
230
1.0
 70
    11
 71
     3
 72
    36
 73
    32
 74
     0
 42
0.0000000001
 43
0.0000000001
 40
0.0
 40
0.0
 40
0.0
 40
0.0
 40
0.1111111111111111
 40
0.1111111111111111
 40
0.1111111111111111
 40
0.1111111111111111
 40
0.2222222222222222
 40
0.2222222222222222
 40
0.2222222222222222
 40
0.2222222222222222
 40
0.3333333333333333
 40
0.3333333333333333
 40
0.3333333333333333
 40
0.3333333333333333
 40
0.4444444444444444
 40
0.4444444444444444
 40
0.4444444444444444
 40
0.4444444444444444
 40
0.5555555555555556
 40
0.5555555555555556
 40
0.5555555555555556
 40
0.5555555555555556
 40
0.6666666666666666
 40
0.6666666666666666
 40
0.6666666666666666
 40
0.6666666666666666
 40
0.7777777777777778
 40
0.7777777777777778
 40
0.7777777777777778
 40
0.7777777777777778
 40
1.0
 40
1.0
 40
1.0
 40
1.0
 10
-103.8
 20
85.4999
 30
0.0
 10
-103.8
 20
86.018
 30
0.0
 10
-103.5236
 20
86.4967
 30
0.0
 10
-103.075
 20
86.7557
 30
0.0
 10
-103.075
 20
86.7557
 30
0.0
 10
-102.6263
 20
87.0147
 30
0.0
 10
-102.0736
 20
87.0147
 30
0.0
 10
-101.625
 20
86.7557
 30
0.0
 10
-101.625
 20
86.7557
 30
0.0
 10
-101.1763
 20
86.4967
 30
0.0
 10
-100.9
 20
86.018
 30
0.0
 10
-100.9
 20
85.4999
 30
0.0
 10
-100.9
 20
85.4999
 30
0.0
 10
-100.9
 20
85.4999
 30
0.0
 10
-100.9
 20
75.4999
 30
0.0
 10
-100.9
 20
75.4999
 30
0.0
 10
-100.9
 20
75.4999
 30
0.0
 10
-100.9
 20
74.9819
 30
0.0
 10
-101.1763
 20
74.5032
 30
0.0
 10
-101.625
 20
74.2442
 30
0.0
 10
-101.625
 20
74.2442
 30
0.0
 10
-102.0736
 20
73.9852
 30
0.0
 10
-102.6263
 20
73.9852
 30
0.0
 10
-103.075
 20
74.2442
 30
0.0
 10
-103.075
 20
74.2442
 30
0.0
 10
-103.5236
 20
74.5032
 30
0.0
 10
-103.8
 20
74.9819
 30
0.0
 10
-103.8
 20
75.4999
 30
0.0
 10
-103.8
 20
75.4999
 30
0.0
 10
-103.8
 20
75.4999
 30
0.0
 10
-103.8
 20
85.4999
 30
0.0
 10
-103.8
 20
85.4999
 30
0.0
  0
SPLINE
  5
42
330
1F
100
AcDbEntity
  8
0
100
AcDbSpline
210
0.0
220
0.0
230
1.0
 70
    11
 71
     3
 72
    20
 73
    16
 74
     0
 42
0.0000000001
 43
0.0000000001
 40
0.0
 40
0.0
 40
0.0
 40
0.0
 40
0.2
 40
0.2
 40
0.2
 40
0.2
 40
0.4
 40
0.4
 40
0.4
 40
0.4
 40
0.6
 40
0.6
 40
0.6
 40
0.6
 40
1.0
 40
1.0
 40
1.0
 40
1.0
 10
2.4999
 20
67.9999
 30
0.0
 10
2.4999
 20
67.9999
 30
0.0
 10
-2.5
 20
67.9999
 30
0.0
 10
-2.5
 20
67.9999
 30
0.0
 10
-2.5
 20
67.9999
 30
0.0
 10
-2.5
 20
67.9999
 30
0.0
 10
-2.5
 20
65.9999
 30
0.0
 10
-2.5
 20
65.9999
 30
0.0
 10
-2.5
 20
65.9999
 30
0.0
 10
-2.5
 20
65.9999
 30
0.0
 10
2.4999
 20
65.9999
 30
0.0
 10
2.4999
 20
65.9999
 30
0.0
 10
2.4999
 20
65.9999
 30
0.0
 10
2.4999
 20
65.9999
 30
0.0
 10
2.4999
 20
67.9999
 30
0.0
 10
2.4999
 20
67.9999
 30
0.0
  0
SPLINE
  5
43
330
1F
100
AcDbEntity
  8
0
100
AcDbSpline
210
0.0
220
0.0
230
1.0
 70
    11
 71
     3
 72
    20
 73
    16
 74
     0
 42
0.0000000001
 43
0.0000000001
 40
0.0
 40
0.0
 40
0.0
 40
0.0
 40
0.2
 40
0.2
 40
0.2
 40
0.2
 40
0.4
 40
0.4
 40
0.4
 40
0.4
 40
0.6
 40
0.6
 40
0.6
 40
0.6
 40
1.0
 40
1.0
 40
1.0
 40
1.0
 10
95.9999
 20
18.9999
 30
0.0
 10
95.9999
 20
18.9999
 30
0.0
 10
93.9999
 20
18.9999
 30
0.0
 10
93.9999
 20
18.9999
 30
0.0
 10
93.9999
 20
18.9999
 30
0.0
 10
93.9999
 20
18.9999
 30
0.0
 10
93.9999
 20
13.9999
 30
0.0
 10
93.9999
 20
13.9999
 30
0.0
 10
93.9999
 20
13.9999
 30
0.0
 10
93.9999
 20
13.9999
 30
0.0
 10
95.9999
 20
13.9999
 30
0.0
 10
95.9999
 20
13.9999
 30
0.0
 10
95.9999
 20
13.9999
 30
0.0
 10
95.9999
 20
13.9999
 30
0.0
 10
95.9999
 20
18.9999
 30
0.0
 10
95.9999
 20
18.9999
 30
0.0
  0
SPLINE
  5
44
330
1F
100
AcDbEntity
  8
0
100
AcDbSpline
210
0.0
220
0.0
230
1.0
 70
     8
 71
     3
 72
    20
 73
    16
 74
     0
 42
0.0000000001
 43
0.0000000001
 40
0.0
 40
0.0
 40
0.0
 40
0.0
 40
0.2
 40
0.2
 40
0.2
 40
0.2
 40
0.4
 40
0.4
 40
0.4
 40
0.4
 40
0.6
 40
0.6
 40
0.6
 40
0.6
 40
1.0
 40
1.0
 40
1.0
 40
1.0
 10
96.45
 20
-150.9999
 30
0.0
 10
96.45
 20
-150.1991
 30
0.0
 10
95.8008
 20
-149.55
 30
0.0
 10
95.0
 20
-149.5499
 30
0.0
 10
95.0
 20
-149.5499
 30
0.0
 10
94.1991
 20
-149.5499
 30
0.0
 10
93.55
 20
-150.1991
 30
0.0
 10
93.55
 20
-150.9999
 30
0.0
 10
93.55
 20
-150.9999
 30
0.0
 10
93.5499
 20
-151.8008
 30
0.0
 10
94.1991
 20
-152.4499
 30
0.0
 10
94.9999
 20
-152.4499
 30
0.0
 10
94.9999
 20
-152.4499
 30
0.0
 10
95.8008
 20
-152.45
 30
0.0
 10
96.4499
 20
-151.8008
 30
0.0
 10
96.4499
 20
-151.0
 30
0.0
  0
SPLINE
  5
45
330
1F
100
AcDbEntity
  8
0
100
AcDbSpline
210
0.0
220
0.0
230
1.0
 70
     8
 71
     3
 72
    20
 73
    16
 74
     0
 42
0.0000000001
 43
0.0000000001
 40
0.0
 40
0.0
 40
0.0
 40
0.0
 40
0.2
 40
0.2
 40
0.2
 40
0.2
 40
0.4
 40
0.4
 40
0.4
 40
0.4
 40
0.6
 40
0.6
 40
0.6
 40
0.6
 40
1.0
 40
1.0
 40
1.0
 40
1.0
 10
95.9499
 20
146.5
 30
0.0
 10
95.9499
 20
147.3008
 30
0.0
 10
95.3008
 20
147.9499
 30
0.0
 10
94.5
 20
147.95
 30
0.0
 10
94.5
 20
147.95
 30
0.0
 10
93.6991
 20
147.95
 30
0.0
 10
93.05
 20
147.3008
 30
0.0
 10
93.0499
 20
146.5
 30
0.0
 10
93.0499
 20
146.5
 30
0.0
 10
93.0499
 20
145.6991
 30
0.0
 10
93.6991
 20
145.05
 30
0.0
 10
94.4999
 20
145.05
 30
0.0
 10
94.4999
 20
145.05
 30
0.0
 10
95.3008
 20
145.0499
 30
0.0
 10
95.9499
 20
145.6991
 30
0.0
 10
95.9499
 20
146.4999
 30
0.0
  0
SPLINE
  5
46
330
1F
100
AcDbEntity
  8
0
100
AcDbSpline
210
0.0
220
0.0
230
1.0
 70
     8
 71
     3
 72
    20
 73
    16
 74
     0
 42
0.0000000001
 43
0.0000000001
 40
0.0
 40
0.0
 40
0.0
 40
0.0
 40
0.2
 40
0.2
 40
0.2
 40
0.2
 40
0.4
 40
0.4
 40
0.4
 40
0.4
 40
0.6
 40
0.6
 40
0.6
 40
0.6
 40
1.0
 40
1.0
 40
1.0
 40
1.0
 10
-8.0499
 20
-159.9999
 30
0.0
 10
-8.0499
 20
-158.923
 30
0.0
 10
-8.923
 20
-158.05
 30
0.0
 10
-9.9999
 20
-158.05
 30
0.0
 10
-9.9999
 20
-158.05
 30
0.0
 10
-11.0769
 20
-158.0499
 30
0.0
 10
-11.9499
 20
-158.923
 30
0.0
 10
-11.9499
 20
-159.9999
 30
0.0
 10
-11.9499
 20
-159.9999
 30
0.0
 10
-11.95
 20
-161.0769
 30
0.0
 10
-11.0769
 20
-161.9499
 30
0.0
 10
-10.0
 20
-161.9499
 30
0.0
 10
-10.0
 20
-161.9499
 30
0.0
 10
-8.923
 20
-161.95
 30
0.0
 10
-8.05
 20
-161.0769
 30
0.0
 10
-8.05
 20
-160.0
 30
0.0
  0
SPLINE
  5
47
330
1F
100
AcDbEntity
  8
0
100
AcDbSpline
210
0.0
220
0.0
230
1.0
 70
     8
 71
     3
 72
    20
 73
    16
 74
     0
 42
0.0000000001
 43
0.0000000001
 40
0.0
 40
0.0
 40
0.0
 40
0.0
 40
0.2
 40
0.2
 40
0.2
 40
0.2
 40
0.4
 40
0.4
 40
0.4
 40
0.4
 40
0.6
 40
0.6
 40
0.6
 40
0.6
 40
1.0
 40
1.0
 40
1.0
 40
1.0
 10
96.2999
 20
39.5
 30
0.0
 10
96.2999
 20
40.5769
 30
0.0
 10
95.4269
 20
41.4499
 30
0.0
 10
94.35
 20
41.45
 30
0.0
 10
94.35
 20
41.45
 30
0.0
 10
93.273
 20
41.45
 30
0.0
 10
92.4
 20
40.5769
 30
0.0
 10
92.4
 20
39.5
 30
0.0
 10
92.4
 20
39.5
 30
0.0
 10
92.3999
 20
38.423
 30
0.0
 10
93.273
 20
37.55
 30
0.0
 10
94.3499
 20
37.55
 30
0.0
 10
94.3499
 20
37.55
 30
0.0
 10
95.4269
 20
37.5499
 30
0.0
 10
96.2999
 20
38.423
 30
0.0
 10
96.2999
 20
39.4999
 30
0.0
  0
SPLINE
  5
48
330
1F
100
AcDbEntity
  8
0
100
AcDbSpline
210
0.0
220
0.0
230
1.0
 70
     8
 71
     3
 72
    20
 73
    16
 74
     0
 42
0.0000000001
 43
0.0000000001
 40
0.0
 40
0.0
 40
0.0
 40
0.0
 40
0.2
 40
0.2
 40
0.2
 40
0.2
 40
0.4
 40
0.4
 40
0.4
 40
0.4
 40
0.6
 40
0.6
 40
0.6
 40
0.6
 40
1.0
 40
1.0
 40
1.0
 40
1.0
 10
65.2999
 20
70.5
 30
0.0
 10
65.2999
 20
71.5769
 30
0.0
 10
64.4269
 20
72.4499
 30
0.0
 10
63.35
 20
72.4499
 30
0.0
 10
63.35
 20
72.4499
 30
0.0
 10
62.273
 20
72.45
 30
0.0
 10
61.4
 20
71.5769
 30
0.0
 10
61.4
 20
70.5
 30
0.0
 10
61.4
 20
70.5
 30
0.0
 10
61.3999
 20
69.423
 30
0.0
 10
62.273
 20
68.55
 30
0.0
 10
63.3499
 20
68.55
 30
0.0
 10
63.3499
 20
68.55
 30
0.0
 10
64.4269
 20
68.5499
 30
0.0
 10
65.2999
 20
69.423
 30
0.0
 10
65.2999
 20
70.4999
 30
0.0
  0
SPLINE
  5
49
330
1F
100
AcDbEntity
  8
0
100
AcDbSpline
210
0.0
220
0.0
230
1.0
 70
    11
 71
     3
 72
    20
 73
    16
 74
     0
 42
0.0000000001
 43
0.0000000001
 40
0.0
 40
0.0
 40
0.0
 40
0.0
 40
0.2
 40
0.2
 40
0.2
 40
0.2
 40
0.4
 40
0.4
 40
0.4
 40
0.4
 40
0.6
 40
0.6
 40
0.6
 40
0.6
 40
1.0
 40
1.0
 40
1.0
 40
1.0
 10
11.9499
 20
159.9999
 30
0.0
 10
11.9499
 20
161.0769
 30
0.0
 10
11.0769
 20
161.9499
 30
0.0
 10
10.0
 20
161.9499
 30
0.0
 10
10.0
 20
161.9499
 30
0.0
 10
8.923
 20
161.95
 30
0.0
 10
8.05
 20
161.0769
 30
0.0
 10
8.05
 20
160.0
 30
0.0
 10
8.05
 20
160.0
 30
0.0
 10
8.0499
 20
158.923
 30
0.0
 10
8.923
 20
158.05
 30
0.0
 10
9.9999
 20
158.05
 30
0.0
 10
9.9999
 20
158.05
 30
0.0
 10
11.0769
 20
158.0499
 30
0.0
 10
11.9499
 20
158.923
 30
0.0
 10
11.9499
 20
159.9999
 30
0.0
  0
SPLINE
  5
4A
330
1F
100
AcDbEntity
  8
0
100
AcDbSpline
210
0.0
220
0.0
230
1.0
 70
    11
 71
     3
 72
    20
 73
    16
 74
     0
 42
0.0000000001
 43
0.0000000001
 40
0.0
 40
0.0
 40
0.0
 40
0.0
 40
0.2
 40
0.2
 40
0.2
 40
0.2
 40
0.4
 40
0.4
 40
0.4
 40
0.4
 40
0.6
 40
0.6
 40
0.6
 40
0.6
 40
1.0
 40
1.0
 40
1.0
 40
1.0
 10
-53.05
 20
159.9999
 30
0.0
 10
-53.05
 20
161.0769
 30
0.0
 10
-53.923
 20
161.9499
 30
0.0
 10
-54.9999
 20
161.9499
 30
0.0
 10
-54.9999
 20
161.9499
 30
0.0
 10
-56.0769
 20
161.95
 30
0.0
 10
-56.9499
 20
161.0769
 30
0.0
 10
-56.9499
 20
160.0
 30
0.0
 10
-56.9499
 20
160.0
 30
0.0
 10
-56.95
 20
158.923
 30
0.0
 10
-56.0769
 20
158.05
 30
0.0
 10
-55.0
 20
158.05
 30
0.0
 10
-55.0
 20
158.05
 30
0.0
 10
-53.923
 20
158.0499
 30
0.0
 10
-53.05
 20
158.923
 30
0.0
 10
-53.05
 20
159.9999
 30
0.0
  0
SPLINE
  5
4B
330
1F
100
AcDbEntity
  8
0
100
AcDbSpline
210
0.0
220
0.0
230
1.0
 70
     8
 71
     3
 72
    20
 73
    16
 74
     0
 42
0.0000000001
 43
0.0000000001
 40
0.0
 40
0.0
 40
0.0
 40
0.0
 40
0.2
 40
0.2
 40
0.2
 40
0.2
 40
0.4
 40
0.4
 40
0.4
 40
0.4
 40
0.6
 40
0.6
 40
0.6
 40
0.6
 40
1.0
 40
1.0
 40
1.0
 40
1.0
 10
-98.0499
 20
-160.0
 30
0.0
 10
-98.0499
 20
-158.923
 30
0.0
 10
-98.923
 20
-158.05
 30
0.0
 10
-99.9999
 20
-158.05
 30
0.0
 10
-99.9999
 20
-158.05
 30
0.0
 10
-101.0769
 20
-158.0499
 30
0.0
 10
-101.9499
 20
-158.923
 30
0.0
 10
-101.9499
 20
-159.9999
 30
0.0
 10
-101.9499
 20
-159.9999
 30
0.0
 10
-101.95
 20
-161.0769
 30
0.0
 10
-101.0769
 20
-161.9499
 30
0.0
 10
-100.0
 20
-161.9499
 30
0.0
 10
-100.0
 20
-161.9499
 30
0.0
 10
-98.923
 20
-161.95
 30
0.0
 10
-98.05
 20
-161.0769
 30
0.0
 10
-98.05
 20
-160.0
 30
0.0
  0
SPLINE
  5
4C
330
1F
100
AcDbEntity
  8
0
100
AcDbSpline
210
0.0
220
0.0
230
1.0
 70
    11
 71
     3
 72
    20
 73
    16
 74
     0
 42
0.0000000001
 43
0.0000000001
 40
0.0
 40
0.0
 40
0.0
 40
0.0
 40
0.2
 40
0.2
 40
0.2
 40
0.2
 40
0.4
 40
0.4
 40
0.4
 40
0.4
 40
0.6
 40
0.6
 40
0.6
 40
0.6
 40
1.0
 40
1.0
 40
1.0
 40
1.0
 10
-84.025
 20
114.9999
 30
0.0
 10
-84.025
 20
119.4044
 30
0.0
 10
-87.5955
 20
122.9749
 30
0.0
 10
-91.9999
 20
122.9749
 30
0.0
 10
-91.9999
 20
122.9749
 30
0.0
 10
-96.4044
 20
122.975
 30
0.0
 10
-99.9749
 20
119.4044
 30
0.0
 10
-99.9749
 20
115.0
 30
0.0
 10
-99.9749
 20
115.0
 30
0.0
 10
-99.975
 20
110.5955
 30
0.0
 10
-96.4044
 20
107.025
 30
0.0
 10
-92.0
 20
107.025
 30
0.0
 10
-92.0
 20
107.025
 30
0.0
 10
-87.5955
 20
107.0249
 30
0.0
 10
-84.025
 20
110.5954
 30
0.0
 10
-84.025
 20
114.9999
 30
0.0
  0
SPLINE
  5
4D
330
1F
100
AcDbEntity
  8
0
100
AcDbSpline
210
0.0
220
0.0
230
1.0
 70
    11
 71
     3
 72
    20
 73
    16
 74
     0
 42
0.0000000001
 43
0.0000000001
 40
0.0
 40
0.0
 40
0.0
 40
0.0
 40
0.2
 40
0.2
 40
0.2
 40
0.2
 40
0.4
 40
0.4
 40
0.4
 40
0.4
 40
0.6
 40
0.6
 40
0.6
 40
0.6
 40
1.0
 40
1.0
 40
1.0
 40
1.0
 10
-98.05
 20
159.9999
 30
0.0
 10
-98.05
 20
161.0769
 30
0.0
 10
-98.923
 20
161.9499
 30
0.0
 10
-99.9999
 20
161.9499
 30
0.0
 10
-99.9999
 20
161.9499
 30
0.0
 10
-101.0769
 20
161.95
 30
0.0
 10
-101.9499
 20
161.0769
 30
0.0
 10
-101.95
 20
160.0
 30
0.0
 10
-101.95
 20
160.0
 30
0.0
 10
-101.95
 20
158.923
 30
0.0
 10
-101.0769
 20
158.05
 30
0.0
 10
-100.0
 20
158.05
 30
0.0
 10
-100.0
 20
158.05
 30
0.0
 10
-98.923
 20
158.0499
 30
0.0
 10
-98.05
 20
158.923
 30
0.0
 10
-98.05
 20
159.9999
 30
0.0
  0
SPLINE
  5
4E
330
1F
100
AcDbEntity
  8
0
100
AcDbSpline
210
0.0
220
0.0
230
1.0
 70
     8
 71
     3
 72
    20
 73
    16
 74
     0
 42
0.0000000001
 43
0.0000000001
 40
0.0
 40
0.0
 40
0.0
 40
0.0
 40
0.2
 40
0.2
 40
0.2
 40
0.2
 40
0.4
 40
0.4
 40
0.4
 40
0.4
 40
0.6
 40
0.6
 40
0.6
 40
0.6
 40
1.0
 40
1.0
 40
1.0
 40
1.0
 10
-18.0499
 20
-90.0
 30
0.0
 10
-18.0499
 20
-88.923
 30
0.0
 10
-18.923
 20
-88.05
 30
0.0
 10
-19.9999
 20
-88.05
 30
0.0
 10
-19.9999
 20
-88.05
 30
0.0
 10
-21.0769
 20
-88.0499
 30
0.0
 10
-21.9499
 20
-88.923
 30
0.0
 10
-21.9499
 20
-89.9999
 30
0.0
 10
-21.9499
 20
-89.9999
 30
0.0
 10
-21.95
 20
-91.0769
 30
0.0
 10
-21.0769
 20
-91.9499
 30
0.0
 10
-20.0
 20
-91.9499
 30
0.0
 10
-20.0
 20
-91.9499
 30
0.0
 10
-18.923
 20
-91.95
 30
0.0
 10
-18.05
 20
-91.0769
 30
0.0
 10
-18.05
 20
-90.0
 30
0.0
  0
SPLINE
  5
4F
330
1F
100
AcDbEntity
  8
0
100
AcDbSpline
210
0.0
220
0.0
230
1.0
 70
     8
 71
     3
 72
    20
 73
    16
 74
     0
 42
0.0000000001
 43
0.0000000001
 40
0.0
 40
0.0
 40
0.0
 40
0.0
 40
0.2
 40
0.2
 40
0.2
 40
0.2
 40
0.4
 40
0.4
 40
0.4
 40
0.4
 40
0.6
 40
0.6
 40
0.6
 40
0.6
 40
1.0
 40
1.0
 40
1.0
 40
1.0
 10
56.9499
 20
160.0
 30
0.0
 10
56.9499
 20
161.0769
 30
0.0
 10
56.0769
 20
161.9499
 30
0.0
 10
55.0
 20
161.9499
 30
0.0
 10
55.0
 20
161.9499
 30
0.0
 10
53.923
 20
161.95
 30
0.0
 10
53.05
 20
161.0769
 30
0.0
 10
53.05
 20
160.0
 30
0.0
 10
53.05
 20
160.0
 30
0.0
 10
53.0499
 20
158.923
 30
0.0
 10
53.923
 20
158.05
 30
0.0
 10
54.9999
 20
158.05
 30
0.0
 10
54.9999
 20
158.05
 30
0.0
 10
56.0769
 20
158.0499
 30
0.0
 10
56.9499
 20
158.923
 30
0.0
 10
56.9499
 20
159.9999
 30
0.0
  0
SPLINE
  5
50
330
1F
100
AcDbEntity
  8
0
100
AcDbSpline
210
0.0
220
0.0
230
1.0
 70
    11
 71
     3
 72
    20
 73
    16
 74
     0
 42
0.0000000001
 43
0.0000000001
 40
0.0
 40
0.0
 40
0.0
 40
0.0
 40
0.2
 40
0.2
 40
0.2
 40
0.2
 40
0.4
 40
0.4
 40
0.4
 40
0.4
 40
0.6
 40
0.6
 40
0.6
 40
0.6
 40
1.0
 40
1.0
 40
1.0
 40
1.0
 10
-8.05
 20
159.9999
 30
0.0
 10
-8.05
 20
161.0769
 30
0.0
 10
-8.923
 20
161.9499
 30
0.0
 10
-9.9999
 20
161.9499
 30
0.0
 10
-9.9999
 20
161.9499
 30
0.0
 10
-11.0769
 20
161.95
 30
0.0
 10
-11.9499
 20
161.0769
 30
0.0
 10
-11.9499
 20
160.0
 30
0.0
 10
-11.9499
 20
160.0
 30
0.0
 10
-11.95
 20
158.923
 30
0.0
 10
-11.0769
 20
158.05
 30
0.0
 10
-10.0
 20
158.05
 30
0.0
 10
-10.0
 20
158.05
 30
0.0
 10
-8.923
 20
158.0499
 30
0.0
 10
-8.05
 20
158.923
 30
0.0
 10
-8.05
 20
159.9999
 30
0.0
  0
SPLINE
  5
51
330
1F
100
AcDbEntity
  8
0
100
AcDbSpline
210
0.0
220
0.0
230
1.0
 70
     8
 71
     3
 72
    20
 73
    16
 74
     0
 42
0.0000000001
 43
0.0000000001
 40
0.0
 40
0.0
 40
0.0
 40
0.0
 40
0.2
 40
0.2
 40
0.2
 40
0.2
 40
0.4
 40
0.4
 40
0.4
 40
0.4
 40
0.6
 40
0.6
 40
0.6
 40
0.6
 40
1.0
 40
1.0
 40
1.0
 40
1.0
 10
96.2999
 20
70.5
 30
0.0
 10
96.2999
 20
71.5769
 30
0.0
 10
95.4269
 20
72.4499
 30
0.0
 10
94.35
 20
72.45
 30
0.0
 10
94.35
 20
72.45
 30
0.0
 10
93.273
 20
72.45
 30
0.0
 10
92.4
 20
71.5769
 30
0.0
 10
92.4
 20
70.5
 30
0.0
 10
92.4
 20
70.5
 30
0.0
 10
92.3999
 20
69.423
 30
0.0
 10
93.273
 20
68.55
 30
0.0
 10
94.3499
 20
68.55
 30
0.0
 10
94.3499
 20
68.55
 30
0.0
 10
95.4269
 20
68.5499
 30
0.0
 10
96.2999
 20
69.423
 30
0.0
 10
96.2999
 20
70.4999
 30
0.0
  0
SPLINE
  5
52
330
1F
100
AcDbEntity
  8
0
100
AcDbSpline
210
0.0
220
0.0
230
1.0
 70
    11
 71
     3
 72
    20
 73
    16
 74
     0
 42
0.0000000001
 43
0.0000000001
 40
0.0
 40
0.0
 40
0.0
 40
0.0
 40
0.2
 40
0.2
 40
0.2
 40
0.2
 40
0.4
 40
0.4
 40
0.4
 40
0.4
 40
0.6
 40
0.6
 40
0.6
 40
0.6
 40
1.0
 40
1.0
 40
1.0
 40
1.0
 10
-43.55
 20
109.9999
 30
0.0
 10
-43.55
 20
111.0769
 30
0.0
 10
-44.423
 20
111.9499
 30
0.0
 10
-45.4999
 20
111.9499
 30
0.0
 10
-45.4999
 20
111.9499
 30
0.0
 10
-46.5769
 20
111.95
 30
0.0
 10
-47.4499
 20
111.0769
 30
0.0
 10
-47.4499
 20
110.0
 30
0.0
 10
-47.4499
 20
110.0
 30
0.0
 10
-47.45
 20
108.923
 30
0.0
 10
-46.5769
 20
108.05
 30
0.0
 10
-45.5
 20
108.05
 30
0.0
 10
-45.5
 20
108.05
 30
0.0
 10
-44.423
 20
108.0499
 30
0.0
 10
-43.55
 20
108.923
 30
0.0
 10
-43.55
 20
109.9999
 30
0.0
  0
SPLINE
  5
53
330
1F
100
AcDbEntity
  8
0
100
AcDbSpline
210
0.0
220
0.0
230
1.0
 70
     8
 71
     3
 72
    20
 73
    16
 74
     0
 42
0.0000000001
 43
0.0000000001
 40
0.0
 40
0.0
 40
0.0
 40
0.0
 40
0.2
 40
0.2
 40
0.2
 40
0.2
 40
0.4
 40
0.4
 40
0.4
 40
0.4
 40
0.6
 40
0.6
 40
0.6
 40
0.6
 40
1.0
 40
1.0
 40
1.0
 40
1.0
 10
11.95
 20
-159.9999
 30
0.0
 10
11.95
 20
-158.923
 30
0.0
 10
11.0769
 20
-158.05
 30
0.0
 10
10.0
 20
-158.05
 30
0.0
 10
10.0
 20
-158.05
 30
0.0
 10
8.923
 20
-158.0499
 30
0.0
 10
8.05
 20
-158.923
 30
0.0
 10
8.05
 20
-159.9999
 30
0.0
 10
8.05
 20
-159.9999
 30
0.0
 10
8.0499
 20
-161.0769
 30
0.0
 10
8.923
 20
-161.9499
 30
0.0
 10
9.9999
 20
-161.9499
 30
0.0
 10
9.9999
 20
-161.9499
 30
0.0
 10
11.0769
 20
-161.95
 30
0.0
 10
11.9499
 20
-161.0769
 30
0.0
 10
11.9499
 20
-160.0
 30
0.0
  0
SPLINE
  5
54
330
1F
100
AcDbEntity
  8
0
100
AcDbSpline
210
0.0
220
0.0
230
1.0
 70
     8
 71
     3
 72
    20
 73
    16
 74
     0
 42
0.0000000001
 43
0.0000000001
 40
0.0
 40
0.0
 40
0.0
 40
0.0
 40
0.2
 40
0.2
 40
0.2
 40
0.2
 40
0.4
 40
0.4
 40
0.4
 40
0.4
 40
0.6
 40
0.6
 40
0.6
 40
0.6
 40
1.0
 40
1.0
 40
1.0
 40
1.0
 10
95.9499
 20
88.5
 30
0.0
 10
95.9499
 20
89.3008
 30
0.0
 10
95.3008
 20
89.9499
 30
0.0
 10
94.5
 20
89.95
 30
0.0
 10
94.5
 20
89.95
 30
0.0
 10
93.6991
 20
89.95
 30
0.0
 10
93.05
 20
89.3008
 30
0.0
 10
93.05
 20
88.5
 30
0.0
 10
93.05
 20
88.5
 30
0.0
 10
93.0499
 20
87.6991
 30
0.0
 10
93.6991
 20
87.05
 30
0.0
 10
94.4999
 20
87.05
 30
0.0
 10
94.4999
 20
87.05
 30
0.0
 10
95.3008
 20
87.0499
 30
0.0
 10
95.9499
 20
87.6991
 30
0.0
 10
95.9499
 20
88.4999
 30
0.0
  0
SPLINE
  5
55
330
1F
100
AcDbEntity
  8
0
100
AcDbSpline
210
0.0
220
0.0
230
1.0
 70
     8
 71
     3
 72
    20
 73
    16
 74
     0
 42
0.0000000001
 43
0.0000000001
 40
0.0
 40
0.0
 40
0.0
 40
0.0
 40
0.2
 40
0.2
 40
0.2
 40
0.2
 40
0.4
 40
0.4
 40
0.4
 40
0.4
 40
0.6
 40
0.6
 40
0.6
 40
0.6
 40
1.0
 40
1.0
 40
1.0
 40
1.0
 10
96.45
 20
-110.9999
 30
0.0
 10
96.45
 20
-110.1991
 30
0.0
 10
95.8008
 20
-109.55
 30
0.0
 10
95.0
 20
-109.5499
 30
0.0
 10
95.0
 20
-109.5499
 30
0.0
 10
94.1991
 20
-109.5499
 30
0.0
 10
93.55
 20
-110.1991
 30
0.0
 10
93.55
 20
-110.9999
 30
0.0
 10
93.55
 20
-110.9999
 30
0.0
 10
93.5499
 20
-111.8008
 30
0.0
 10
94.1991
 20
-112.4499
 30
0.0
 10
94.9999
 20
-112.4499
 30
0.0
 10
94.9999
 20
-112.4499
 30
0.0
 10
95.8008
 20
-112.45
 30
0.0
 10
96.4499
 20
-111.8008
 30
0.0
 10
96.4499
 20
-111.0
 30
0.0
  0
SPLINE
  5
56
330
1F
100
AcDbEntity
  8
0
100
AcDbSpline
210
0.0
220
0.0
230
1.0
 70
    11
 71
     3
 72
    20
 73
    16
 74
     0
 42
0.0000000001
 43
0.0000000001
 40
0.0
 40
0.0
 40
0.0
 40
0.0
 40
0.2
 40
0.2
 40
0.2
 40
0.2
 40
0.4
 40
0.4
 40
0.4
 40
0.4
 40
0.6
 40
0.6
 40
0.6
 40
0.6
 40
1.0
 40
1.0
 40
1.0
 40
1.0
 10
107.9999
 20
18.9999
 30
0.0
 10
107.9999
 20
18.9999
 30
0.0
 10
105.9999
 20
18.9999
 30
0.0
 10
105.9999
 20
18.9999
 30
0.0
 10
105.9999
 20
18.9999
 30
0.0
 10
105.9999
 20
18.9999
 30
0.0
 10
105.9999
 20
13.9999
 30
0.0
 10
105.9999
 20
13.9999
 30
0.0
 10
105.9999
 20
13.9999
 30
0.0
 10
105.9999
 20
13.9999
 30
0.0
 10
107.9999
 20
13.9999
 30
0.0
 10
107.9999
 20
13.9999
 30
0.0
 10
107.9999
 20
13.9999
 30
0.0
 10
107.9999
 20
13.9999
 30
0.0
 10
107.9999
 20
18.9999
 30
0.0
 10
107.9999
 20
18.9999
 30
0.0
  0
SPLINE
  5
57
330
1F
100
AcDbEntity
  8
0
100
AcDbSpline
210
0.0
220
0.0
230
1.0
 70
    11
 71
     3
 72
    20
 73
    16
 74
     0
 42
0.0000000001
 43
0.0000000001
 40
0.0
 40
0.0
 40
0.0
 40
0.0
 40
0.2
 40
0.2
 40
0.2
 40
0.2
 40
0.4
 40
0.4
 40
0.4
 40
0.4
 40
0.6
 40
0.6
 40
0.6
 40
0.6
 40
1.0
 40
1.0
 40
1.0
 40
1.0
 10
2.4999
 20
79.9999
 30
0.0
 10
2.4999
 20
79.9999
 30
0.0
 10
-2.5
 20
79.9999
 30
0.0
 10
-2.5
 20
79.9999
 30
0.0
 10
-2.5
 20
79.9999
 30
0.0
 10
-2.5
 20
79.9999
 30
0.0
 10
-2.5
 20
77.9999
 30
0.0
 10
-2.5
 20
77.9999
 30
0.0
 10
-2.5
 20
77.9999
 30
0.0
 10
-2.5
 20
77.9999
 30
0.0
 10
2.4999
 20
77.9999
 30
0.0
 10
2.4999
 20
77.9999
 30
0.0
 10
2.4999
 20
77.9999
 30
0.0
 10
2.4999
 20
77.9999
 30
0.0
 10
2.4999
 20
79.9999
 30
0.0
 10
2.4999
 20
79.9999
 30
0.0
  0
SPLINE
  5
58
330
1F
100
AcDbEntity
  8
0
100
AcDbSpline
210
0.0
220
0.0
230
1.0
 70
    11
 71
     3
 72
    36
 73
    32
 74
     0
 42
0.0000000001
 43
0.0000000001
 40
0.0
 40
0.0
 40
0.0
 40
0.0
 40
0.1111111111111111
 40
0.1111111111111111
 40
0.1111111111111111
 40
0.1111111111111111
 40
0.2222222222222222
 40
0.2222222222222222
 40
0.2222222222222222
 40
0.2222222222222222
 40
0.3333333333333333
 40
0.3333333333333333
 40
0.3333333333333333
 40
0.3333333333333333
 40
0.4444444444444444
 40
0.4444444444444444
 40
0.4444444444444444
 40
0.4444444444444444
 40
0.5555555555555556
 40
0.5555555555555556
 40
0.5555555555555556
 40
0.5555555555555556
 40
0.6666666666666666
 40
0.6666666666666666
 40
0.6666666666666666
 40
0.6666666666666666
 40
0.7777777777777778
 40
0.7777777777777778
 40
0.7777777777777778
 40
0.7777777777777778
 40
1.0
 40
1.0
 40
1.0
 40
1.0
 10
-100.9
 20
44.4999
 30
0.0
 10
-100.9
 20
44.4999
 30
0.0
 10
-100.9
 20
54.4999
 30
0.0
 10
-100.9
 20
54.4999
 30
0.0
 10
-100.9
 20
54.4999
 30
0.0
 10
-100.9
 20
55.018
 30
0.0
 10
-101.1763
 20
55.4967
 30
0.0
 10
-101.625
 20
55.7557
 30
0.0
 10
-101.625
 20
55.7557
 30
0.0
 10
-102.0736
 20
56.0147
 30
0.0
 10
-102.6263
 20
56.0147
 30
0.0
 10
-103.075
 20
55.7557
 30
0.0
 10
-103.075
 20
55.7557
 30
0.0
 10
-103.5236
 20
55.4967
 30
0.0
 10
-103.8
 20
55.018
 30
0.0
 10
-103.8
 20
54.4999
 30
0.0
 10
-103.8
 20
54.4999
 30
0.0
 10
-103.8
 20
54.4999
 30
0.0
 10
-103.8
 20
44.4999
 30
0.0
 10
-103.8
 20
44.4999
 30
0.0
 10
-103.8
 20
44.4999
 30
0.0
 10
-103.8
 20
43.9819
 30
0.0
 10
-103.5236
 20
43.5032
 30
0.0
 10
-103.075
 20
43.2442
 30
0.0
 10
-103.075
 20
43.2442
 30
0.0
 10
-102.6263
 20
42.9852
 30
0.0
 10
-102.0736
 20
42.9852
 30
0.0
 10
-101.625
 20
43.2442
 30
0.0
 10
-101.625
 20
43.2442
 30
0.0
 10
-101.1763
 20
43.5032
 30
0.0
 10
-100.9
 20
43.9819
 30
0.0
 10
-100.9
 20
44.4999
 30
0.0
  0
SPLINE
  5
59
330
1F
100
AcDbEntity
  8
0
100
AcDbSpline
210
0.0
220
0.0
230
1.0
 70
    11
 71
     3
 72
    52
 73
    48
 74
     0
 42
0.0000000001
 43
0.0000000001
 40
0.0
 40
0.0
 40
0.0
 40
0.0
 40
0.0769230769230769
 40
0.0769230769230769
 40
0.0769230769230769
 40
0.0769230769230769
 40
0.1538461538461539
 40
0.1538461538461539
 40
0.1538461538461539
 40
0.1538461538461539
 40
0.2307692307692308
 40
0.2307692307692308
 40
0.2307692307692308
 40
0.2307692307692308
 40
0.3076923076923077
 40
0.3076923076923077
 40
0.3076923076923077
 40
0.3076923076923077
 40
0.3846153846153846
 40
0.3846153846153846
 40
0.3846153846153846
 40
0.3846153846153846
 40
0.4615384615384616
 40
0.4615384615384616
 40
0.4615384615384616
 40
0.4615384615384616
 40
0.5384615384615384
 40
0.5384615384615384
 40
0.5384615384615384
 40
0.5384615384615384
 40
0.6153846153846154
 40
0.6153846153846154
 40
0.6153846153846154
 40
0.6153846153846154
 40
0.6923076923076923
 40
0.6923076923076923
 40
0.6923076923076923
 40
0.6923076923076923
 40
0.7692307692307693
 40
0.7692307692307693
 40
0.7692307692307693
 40
0.7692307692307693
 40
0.8461538461538461
 40
0.8461538461538461
 40
0.8461538461538461
 40
0.8461538461538461
 40
1.0
 40
1.0
 40
1.0
 40
1.0
 10
87.0
 20
-145.0
 30
0.0
 10
87.0
 20
-145.0
 30
0.0
 10
103.0
 20
-145.0
 30
0.0
 10
103.0
 20
-145.0
 30
0.0
 10
103.0
 20
-145.0
 30
0.0
 10
103.5307
 20
-144.9996
 30
0.0
 10
104.0396
 20
-144.7884
 30
0.0
 10
104.4147
 20
-144.4129
 30
0.0
 10
104.4147
 20
-144.4129
 30
0.0
 10
104.7898
 20
-144.0374
 30
0.0
 10
105.0003
 20
-143.5307
 30
0.0
 10
105.0
 20
-143.0
 30
0.0
 10
105.0
 20
-143.0
 30
0.0
 10
105.0
 20
-143.0
 30
0.0
 10
105.0
 20
-119.0
 30
0.0
 10
105.0
 20
-119.0
 30
0.0
 10
105.0
 20
-119.0
 30
0.0
 10
104.9996
 20
-118.4692
 30
0.0
 10
104.7884
 20
-117.9603
 30
0.0
 10
104.4129
 20
-117.5852
 30
0.0
 10
104.4129
 20
-117.5852
 30
0.0
 10
104.0374
 20
-117.2101
 30
0.0
 10
103.5307
 20
-116.9996
 30
0.0
 10
103.0
 20
-117.0
 30
0.0
 10
103.0
 20
-117.0
 30
0.0
 10
103.0
 20
-117.0
 30
0.0
 10
87.0
 20
-117.0
 30
0.0
 10
87.0
 20
-117.0
 30
0.0
 10
87.0
 20
-117.0
 30
0.0
 10
86.4692
 20
-117.0003
 30
0.0
 10
85.9603
 20
-117.2115
 30
0.0
 10
85.5852
 20
-117.587
 30
0.0
 10
85.5852
 20
-117.587
 30
0.0
 10
85.2101
 20
-117.9625
 30
0.0
 10
84.9996
 20
-118.4692
 30
0.0
 10
85.0
 20
-119.0
 30
0.0
 10
85.0
 20
-119.0
 30
0.0
 10
85.0
 20
-119.0
 30
0.0
 10
85.0
 20
-143.0
 30
0.0
 10
85.0
 20
-143.0
 30
0.0
 10
85.0
 20
-143.0
 30
0.0
 10
85.0003
 20
-143.5307
 30
0.0
 10
85.2115
 20
-144.0396
 30
0.0
 10
85.587
 20
-144.4147
 30
0.0
 10
85.587
 20
-144.4147
 30
0.0
 10
85.9625
 20
-144.7898
 30
0.0
 10
86.4692
 20
-145.0003
 30
0.0
 10
87.0
 20
-145.0
 30
0.0
  0
SPLINE
  5
5A
330
1F
100
AcDbEntity
  8
0
100
AcDbSpline
210
0.0
220
0.0
230
1.0
 70
    11
 71
     3
 72
    52
 73
    48
 74
     0
 42
0.0000000001
 43
0.0000000001
 40
0.0
 40
0.0
 40
0.0
 40
0.0
 40
0.0769230769230769
 40
0.0769230769230769
 40
0.0769230769230769
 40
0.0769230769230769
 40
0.1538461538461539
 40
0.1538461538461539
 40
0.1538461538461539
 40
0.1538461538461539
 40
0.2307692307692308
 40
0.2307692307692308
 40
0.2307692307692308
 40
0.2307692307692308
 40
0.3076923076923077
 40
0.3076923076923077
 40
0.3076923076923077
 40
0.3076923076923077
 40
0.3846153846153846
 40
0.3846153846153846
 40
0.3846153846153846
 40
0.3846153846153846
 40
0.4615384615384616
 40
0.4615384615384616
 40
0.4615384615384616
 40
0.4615384615384616
 40
0.5384615384615384
 40
0.5384615384615384
 40
0.5384615384615384
 40
0.5384615384615384
 40
0.6153846153846154
 40
0.6153846153846154
 40
0.6153846153846154
 40
0.6153846153846154
 40
0.6923076923076923
 40
0.6923076923076923
 40
0.6923076923076923
 40
0.6923076923076923
 40
0.7692307692307693
 40
0.7692307692307693
 40
0.7692307692307693
 40
0.7692307692307693
 40
0.8461538461538461
 40
0.8461538461538461
 40
0.8461538461538461
 40
0.8461538461538461
 40
1.0
 40
1.0
 40
1.0
 40
1.0
 10
-70.0
 20
121.9999
 30
0.0
 10
-70.0
 20
121.9999
 30
0.0
 10
-70.0
 20
152.9999
 30
0.0
 10
-70.0
 20
152.9999
 30
0.0
 10
-70.0
 20
152.9999
 30
0.0
 10
-70.0003
 20
153.5307
 30
0.0
 10
-70.2115
 20
154.0396
 30
0.0
 10
-70.587
 20
154.4147
 30
0.0
 10
-70.587
 20
154.4147
 30
0.0
 10
-70.9625
 20
154.7898
 30
0.0
 10
-71.4692
 20
155.0003
 30
0.0
 10
-72.0
 20
154.9999
 30
0.0
 10
-72.0
 20
154.9999
 30
0.0
 10
-72.0
 20
154.9999
 30
0.0
 10
-79.0
 20
154.9999
 30
0.0
 10
-79.0
 20
154.9999
 30
0.0
 10
-79.0
 20
154.9999
 30
0.0
 10
-79.5307
 20
154.9996
 30
0.0
 10
-80.0396
 20
154.7884
 30
0.0
 10
-80.4147
 20
154.4129
 30
0.0
 10
-80.4147
 20
154.4129
 30
0.0
 10
-80.7898
 20
154.0374
 30
0.0
 10
-81.0003
 20
153.5307
 30
0.0
 10
-81.0
 20
152.9999
 30
0.0
 10
-81.0
 20
152.9999
 30
0.0
 10
-81.0
 20
152.9999
 30
0.0
 10
-81.0
 20
121.9999
 30
0.0
 10
-81.0
 20
121.9999
 30
0.0
 10
-81.0
 20
121.9999
 30
0.0
 10
-80.9996
 20
121.4692
 30
0.0
 10
-80.7884
 20
120.9603
 30
0.0
 10
-80.4129
 20
120.5852
 30
0.0
 10
-80.4129
 20
120.5852
 30
0.0
 10
-80.0374
 20
120.2101
 30
0.0
 10
-79.5307
 20
119.9996
 30
0.0
 10
-79.0
 20
119.9999
 30
0.0
 10
-79.0
 20
119.9999
 30
0.0
 10
-79.0
 20
119.9999
 30
0.0
 10
-72.0
 20
119.9999
 30
0.0
 10
-72.0
 20
119.9999
 30
0.0
 10
-72.0
 20
119.9999
 30
0.0
 10
-71.4692
 20
120.0003
 30
0.0
 10
-70.9603
 20
120.2115
 30
0.0
 10
-70.5852
 20
120.587
 30
0.0
 10
-70.5852
 20
120.587
 30
0.0
 10
-70.2101
 20
120.9625
 30
0.0
 10
-69.9996
 20
121.4692
 30
0.0
 10
-70.0
 20
121.9999
 30
0.0
  0
SPLINE
  5
5B
330
1F
100
AcDbEntity
  8
0
100
AcDbSpline
210
0.0
220
0.0
230
1.0
 70
    11
 71
     3
 72
    36
 73
    32
 74
     0
 42
0.0000000001
 43
0.0000000001
 40
0.0
 40
0.0
 40
0.0
 40
0.0
 40
0.1111111111111111
 40
0.1111111111111111
 40
0.1111111111111111
 40
0.1111111111111111
 40
0.2222222222222222
 40
0.2222222222222222
 40
0.2222222222222222
 40
0.2222222222222222
 40
0.3333333333333333
 40
0.3333333333333333
 40
0.3333333333333333
 40
0.3333333333333333
 40
0.4444444444444444
 40
0.4444444444444444
 40
0.4444444444444444
 40
0.4444444444444444
 40
0.5555555555555556
 40
0.5555555555555556
 40
0.5555555555555556
 40
0.5555555555555556
 40
0.6666666666666666
 40
0.6666666666666666
 40
0.6666666666666666
 40
0.6666666666666666
 40
0.7777777777777778
 40
0.7777777777777778
 40
0.7777777777777778
 40
0.7777777777777778
 40
1.0
 40
1.0
 40
1.0
 40
1.0
 10
-72.8
 20
85.4999
 30
0.0
 10
-72.8
 20
86.018
 30
0.0
 10
-72.5236
 20
86.4967
 30
0.0
 10
-72.075
 20
86.7557
 30
0.0
 10
-72.075
 20
86.7557
 30
0.0
 10
-71.6263
 20
87.0147
 30
0.0
 10
-71.0736
 20
87.0147
 30
0.0
 10
-70.625
 20
86.7557
 30
0.0
 10
-70.625
 20
86.7557
 30
0.0
 10
-70.1763
 20
86.4967
 30
0.0
 10
-69.9
 20
86.018
 30
0.0
 10
-69.9
 20
85.4999
 30
0.0
 10
-69.9
 20
85.4999
 30
0.0
 10
-69.9
 20
85.4999
 30
0.0
 10
-69.9
 20
75.4999
 30
0.0
 10
-69.9
 20
75.4999
 30
0.0
 10
-69.9
 20
75.4999
 30
0.0
 10
-69.9
 20
74.9819
 30
0.0
 10
-70.1763
 20
74.5032
 30
0.0
 10
-70.625
 20
74.2442
 30
0.0
 10
-70.625
 20
74.2442
 30
0.0
 10
-71.0736
 20
73.9852
 30
0.0
 10
-71.6263
 20
73.9852
 30
0.0
 10
-72.075
 20
74.2442
 30
0.0
 10
-72.075
 20
74.2442
 30
0.0
 10
-72.5236
 20
74.5032
 30
0.0
 10
-72.8
 20
74.9819
 30
0.0
 10
-72.8
 20
75.4999
 30
0.0
 10
-72.8
 20
75.4999
 30
0.0
 10
-72.8
 20
75.4999
 30
0.0
 10
-72.8
 20
85.4999
 30
0.0
 10
-72.8
 20
85.4999
 30
0.0
  0
SPLINE
  5
5C
330
1F
100
AcDbEntity
  8
0
100
AcDbSpline
210
0.0
220
0.0
230
1.0
 70
    11
 71
     3
 72
    20
 73
    16
 74
     0
 42
0.0000000001
 43
0.0000000001
 40
0.0
 40
0.0
 40
0.0
 40
0.0
 40
0.2
 40
0.2
 40
0.2
 40
0.2
 40
0.4
 40
0.4
 40
0.4
 40
0.4
 40
0.6
 40
0.6
 40
0.6
 40
0.6
 40
1.0
 40
1.0
 40
1.0
 40
1.0
 10
96.0
 20
-16.0
 30
0.0
 10
96.0
 20
-16.0
 30
0.0
 10
94.0
 20
-16.0
 30
0.0
 10
94.0
 20
-16.0
 30
0.0
 10
94.0
 20
-16.0
 30
0.0
 10
94.0
 20
-16.0
 30
0.0
 10
94.0
 20
-21.0
 30
0.0
 10
94.0
 20
-21.0
 30
0.0
 10
94.0
 20
-21.0
 30
0.0
 10
94.0
 20
-21.0
 30
0.0
 10
96.0
 20
-21.0
 30
0.0
 10
96.0
 20
-21.0
 30
0.0
 10
96.0
 20
-21.0
 30
0.0
 10
96.0
 20
-21.0
 30
0.0
 10
96.0
 20
-16.0
 30
0.0
 10
96.0
 20
-16.0
 30
0.0
  0
SPLINE
  5
5D
330
1F
100
AcDbEntity
  8
0
100
AcDbSpline
210
0.0
220
0.0
230
1.0
 70
    11
 71
     3
 72
    20
 73
    16
 74
     0
 42
0.0000000001
 43
0.0000000001
 40
0.0
 40
0.0
 40
0.0
 40
0.0
 40
0.2
 40
0.2
 40
0.2
 40
0.2
 40
0.4
 40
0.4
 40
0.4
 40
0.4
 40
0.6
 40
0.6
 40
0.6
 40
0.6
 40
1.0
 40
1.0
 40
1.0
 40
1.0
 10
108.0
 20
-86.0
 30
0.0
 10
108.0
 20
-86.0
 30
0.0
 10
106.0
 20
-86.0
 30
0.0
 10
106.0
 20
-86.0
 30
0.0
 10
106.0
 20
-86.0
 30
0.0
 10
106.0
 20
-86.0
 30
0.0
 10
106.0
 20
-91.0
 30
0.0
 10
106.0
 20
-91.0
 30
0.0
 10
106.0
 20
-91.0
 30
0.0
 10
106.0
 20
-91.0
 30
0.0
 10
108.0
 20
-91.0
 30
0.0
 10
108.0
 20
-91.0
 30
0.0
 10
108.0
 20
-91.0
 30
0.0
 10
108.0
 20
-91.0
 30
0.0
 10
108.0
 20
-86.0
 30
0.0
 10
108.0
 20
-86.0
 30
0.0
  0
SPLINE
  5
5E
330
1F
100
AcDbEntity
  8
0
100
AcDbSpline
210
0.0
220
0.0
230
1.0
 70
    11
 71
     3
 72
    20
 73
    16
 74
     0
 42
0.0000000001
 43
0.0000000001
 40
0.0
 40
0.0
 40
0.0
 40
0.0
 40
0.2
 40
0.2
 40
0.2
 40
0.2
 40
0.4
 40
0.4
 40
0.4
 40
0.4
 40
0.6
 40
0.6
 40
0.6
 40
0.6
 40
1.0
 40
1.0
 40
1.0
 40
1.0
 10
84.8
 20
-152.0
 30
0.0
 10
84.8
 20
-152.0
 30
0.0
 10
65.0
 20
-152.0
 30
0.0
 10
65.0
 20
-152.0
 30
0.0
 10
65.0
 20
-152.0
 30
0.0
 10
65.0
 20
-152.0
 30
0.0
 10
65.0
 20
-165.0
 30
0.0
 10
65.0
 20
-165.0
 30
0.0
 10
65.0
 20
-165.0
 30
0.0
 10
65.0
 20
-165.0
 30
0.0
 10
84.8
 20
-165.0
 30
0.0
 10
84.8
 20
-165.0
 30
0.0
 10
84.8
 20
-165.0
 30
0.0
 10
84.8
 20
-165.0
 30
0.0
 10
84.8
 20
-152.0
 30
0.0
 10
84.8
 20
-152.0
 30
0.0
  0
SPLINE
  5
5F
330
1F
100
AcDbEntity
  8
0
100
AcDbSpline
210
0.0
220
0.0
230
1.0
 70
     8
 71
     3
 72
    20
 73
    16
 74
     0
 42
0.0000000001
 43
0.0000000001
 40
0.0
 40
0.0
 40
0.0
 40
0.0
 40
0.2
 40
0.2
 40
0.2
 40
0.2
 40
0.4
 40
0.4
 40
0.4
 40
0.4
 40
0.6
 40
0.6
 40
0.6
 40
0.6
 40
1.0
 40
1.0
 40
1.0
 40
1.0
 10
46.9499
 20
146.5
 30
0.0
 10
46.9499
 20
147.3008
 30
0.0
 10
46.3008
 20
147.9499
 30
0.0
 10
45.5
 20
147.9499
 30
0.0
 10
45.5
 20
147.9499
 30
0.0
 10
44.6991
 20
147.95
 30
0.0
 10
44.05
 20
147.3008
 30
0.0
 10
44.0499
 20
146.5
 30
0.0
 10
44.0499
 20
146.5
 30
0.0
 10
44.0499
 20
145.6991
 30
0.0
 10
44.6991
 20
145.05
 30
0.0
 10
45.4999
 20
145.05
 30
0.0
 10
45.4999
 20
145.05
 30
0.0
 10
46.3008
 20
145.0499
 30
0.0
 10
46.9499
 20
145.6991
 30
0.0
 10
46.9499
 20
146.4999
 30
0.0
  0
SPLINE
  5
60
330
1F
100
AcDbEntity
  8
0
100
AcDbSpline
210
0.0
220
0.0
230
1.0
 70
    11
 71
     3
 72
    20
 73
    16
 74
     0
 42
0.0000000001
 43
0.0000000001
 40
0.0
 40
0.0
 40
0.0
 40
0.0
 40
0.2
 40
0.2
 40
0.2
 40
0.2
 40
0.4
 40
0.4
 40
0.4
 40
0.4
 40
0.6
 40
0.6
 40
0.6
 40
0.6
 40
1.0
 40
1.0
 40
1.0
 40
1.0
 10
-73.55
 20
159.9999
 30
0.0
 10
-73.55
 20
161.0769
 30
0.0
 10
-74.423
 20
161.9499
 30
0.0
 10
-75.4999
 20
161.9499
 30
0.0
 10
-75.4999
 20
161.9499
 30
0.0
 10
-76.5769
 20
161.95
 30
0.0
 10
-77.4499
 20
161.0769
 30
0.0
 10
-77.45
 20
160.0
 30
0.0
 10
-77.45
 20
160.0
 30
0.0
 10
-77.45
 20
158.923
 30
0.0
 10
-76.5769
 20
158.05
 30
0.0
 10
-75.5
 20
158.05
 30
0.0
 10
-75.5
 20
158.05
 30
0.0
 10
-74.423
 20
158.0499
 30
0.0
 10
-73.55
 20
158.923
 30
0.0
 10
-73.55
 20
159.9999
 30
0.0
  0
SPLINE
  5
61
330
1F
100
AcDbEntity
  8
0
100
AcDbSpline
210
0.0
220
0.0
230
1.0
 70
     8
 71
     3
 72
    20
 73
    16
 74
     0
 42
0.0000000001
 43
0.0000000001
 40
0.0
 40
0.0
 40
0.0
 40
0.0
 40
0.2
 40
0.2
 40
0.2
 40
0.2
 40
0.4
 40
0.4
 40
0.4
 40
0.4
 40
0.6
 40
0.6
 40
0.6
 40
0.6
 40
1.0
 40
1.0
 40
1.0
 40
1.0
 10
65.2999
 20
39.5
 30
0.0
 10
65.2999
 20
40.5769
 30
0.0
 10
64.4269
 20
41.4499
 30
0.0
 10
63.35
 20
41.4499
 30
0.0
 10
63.35
 20
41.4499
 30
0.0
 10
62.273
 20
41.45
 30
0.0
 10
61.4
 20
40.5769
 30
0.0
 10
61.4
 20
39.5
 30
0.0
 10
61.4
 20
39.5
 30
0.0
 10
61.3999
 20
38.423
 30
0.0
 10
62.273
 20
37.55
 30
0.0
 10
63.3499
 20
37.55
 30
0.0
 10
63.3499
 20
37.55
 30
0.0
 10
64.4269
 20
37.5499
 30
0.0
 10
65.2999
 20
38.423
 30
0.0
 10
65.2999
 20
39.4999
 30
0.0
  0
SPLINE
  5
62
330
1F
100
AcDbEntity
  8
0
100
AcDbSpline
210
0.0
220
0.0
230
1.0
 70
     8
 71
     3
 72
    20
 73
    16
 74
     0
 42
0.0000000001
 43
0.0000000001
 40
0.0
 40
0.0
 40
0.0
 40
0.0
 40
0.2
 40
0.2
 40
0.2
 40
0.2
 40
0.4
 40
0.4
 40
0.4
 40
0.4
 40
0.6
 40
0.6
 40
0.6
 40
0.6
 40
1.0
 40
1.0
 40
1.0
 40
1.0
 10
35.9499
 20
144.5
 30
0.0
 10
35.9499
 20
145.5769
 30
0.0
 10
35.0769
 20
146.4499
 30
0.0
 10
34.0
 20
146.4499
 30
0.0
 10
34.0
 20
146.4499
 30
0.0
 10
32.923
 20
146.45
 30
0.0
 10
32.05
 20
145.5769
 30
0.0
 10
32.05
 20
144.5
 30
0.0
 10
32.05
 20
144.5
 30
0.0
 10
32.0499
 20
143.423
 30
0.0
 10
32.923
 20
142.55
 30
0.0
 10
33.9999
 20
142.55
 30
0.0
 10
33.9999
 20
142.55
 30
0.0
 10
35.0769
 20
142.5499
 30
0.0
 10
35.9499
 20
143.423
 30
0.0
 10
35.9499
 20
144.4999
 30
0.0
  0
SPLINE
  5
63
330
1F
100
AcDbEntity
  8
0
100
AcDbSpline
210
0.0
220
0.0
230
1.0
 70
     8
 71
     3
 72
    20
 73
    16
 74
     0
 42
0.0000000001
 43
0.0000000001
 40
0.0
 40
0.0
 40
0.0
 40
0.0
 40
0.2
 40
0.2
 40
0.2
 40
0.2
 40
0.4
 40
0.4
 40
0.4
 40
0.4
 40
0.6
 40
0.6
 40
0.6
 40
0.6
 40
1.0
 40
1.0
 40
1.0
 40
1.0
 10
56.95
 20
-159.9999
 30
0.0
 10
56.95
 20
-158.923
 30
0.0
 10
56.0769
 20
-158.05
 30
0.0
 10
55.0
 20
-158.05
 30
0.0
 10
55.0
 20
-158.05
 30
0.0
 10
53.923
 20
-158.0499
 30
0.0
 10
53.05
 20
-158.923
 30
0.0
 10
53.05
 20
-159.9999
 30
0.0
 10
53.05
 20
-159.9999
 30
0.0
 10
53.0499
 20
-161.0769
 30
0.0
 10
53.923
 20
-161.9499
 30
0.0
 10
54.9999
 20
-161.9499
 30
0.0
 10
54.9999
 20
-161.9499
 30
0.0
 10
56.0769
 20
-161.95
 30
0.0
 10
56.9499
 20
-161.0769
 30
0.0
 10
56.9499
 20
-160.0
 30
0.0
  0
SPLINE
  5
64
330
1F
100
AcDbEntity
  8
0
100
AcDbSpline
210
0.0
220
0.0
230
1.0
 70
     8
 71
     3
 72
    20
 73
    16
 74
     0
 42
0.0000000001
 43
0.0000000001
 40
0.0
 40
0.0
 40
0.0
 40
0.0
 40
0.2
 40
0.2
 40
0.2
 40
0.2
 40
0.4
 40
0.4
 40
0.4
 40
0.4
 40
0.6
 40
0.6
 40
0.6
 40
0.6
 40
1.0
 40
1.0
 40
1.0
 40
1.0
 10
1.95
 20
-29.9999
 30
0.0
 10
1.95
 20
-28.923
 30
0.0
 10
1.0769
 20
-28.05
 30
0.0
 10
0.0
 20
-28.05
 30
0.0
 10
0.0
 20
-28.05
 30
0.0
 10
-1.0769
 20
-28.0499
 30
0.0
 10
-1.9499
 20
-28.923
 30
0.0
 10
-1.9499
 20
-29.9999
 30
0.0
 10
-1.9499
 20
-29.9999
 30
0.0
 10
-1.95
 20
-31.0769
 30
0.0
 10
-1.0769
 20
-31.9499
 30
0.0
 10
0.0
 20
-31.9499
 30
0.0
 10
0.0
 20
-31.9499
 30
0.0
 10
1.0769
 20
-31.95
 30
0.0
 10
1.9499
 20
-31.0769
 30
0.0
 10
1.9499
 20
-30.0
 30
0.0
  0
SPLINE
  5
65
330
1F
100
AcDbEntity
  8
0
100
AcDbSpline
210
0.0
220
0.0
230
1.0
 70
     8
 71
     3
 72
    20
 73
    16
 74
     0
 42
0.0000000001
 43
0.0000000001
 40
0.0
 40
0.0
 40
0.0
 40
0.0
 40
0.2
 40
0.2
 40
0.2
 40
0.2
 40
0.4
 40
0.4
 40
0.4
 40
0.4
 40
0.6
 40
0.6
 40
0.6
 40
0.6
 40
1.0
 40
1.0
 40
1.0
 40
1.0
 10
101.95
 20
-159.9999
 30
0.0
 10
101.95
 20
-158.923
 30
0.0
 10
101.0769
 20
-158.05
 30
0.0
 10
100.0
 20
-158.0499
 30
0.0
 10
100.0
 20
-158.0499
 30
0.0
 10
98.923
 20
-158.0499
 30
0.0
 10
98.05
 20
-158.923
 30
0.0
 10
98.05
 20
-159.9999
 30
0.0
 10
98.05
 20
-159.9999
 30
0.0
 10
98.0499
 20
-161.0769
 30
0.0
 10
98.923
 20
-161.9499
 30
0.0
 10
99.9999
 20
-161.9499
 30
0.0
 10
99.9999
 20
-161.9499
 30
0.0
 10
101.0769
 20
-161.95
 30
0.0
 10
101.9499
 20
-161.0769
 30
0.0
 10
101.9499
 20
-160.0
 30
0.0
  0
SPLINE
  5
66
330
1F
100
AcDbEntity
  8
0
100
AcDbSpline
210
0.0
220
0.0
230
1.0
 70
     8
 71
     3
 72
    20
 73
    16
 74
     0
 42
0.0000000001
 43
0.0000000001
 40
0.0
 40
0.0
 40
0.0
 40
0.0
 40
0.2
 40
0.2
 40
0.2
 40
0.2
 40
0.4
 40
0.4
 40
0.4
 40
0.4
 40
0.6
 40
0.6
 40
0.6
 40
0.6
 40
1.0
 40
1.0
 40
1.0
 40
1.0
 10
99.9749
 20
115.0
 30
0.0
 10
99.9749
 20
119.4044
 30
0.0
 10
96.4044
 20
122.9749
 30
0.0
 10
92.0
 20
122.9749
 30
0.0
 10
92.0
 20
122.9749
 30
0.0
 10
87.5955
 20
122.975
 30
0.0
 10
84.025
 20
119.4044
 30
0.0
 10
84.025
 20
115.0
 30
0.0
 10
84.025
 20
115.0
 30
0.0
 10
84.0249
 20
110.5955
 30
0.0
 10
87.5955
 20
107.025
 30
0.0
 10
91.9999
 20
107.025
 30
0.0
 10
91.9999
 20
107.025
 30
0.0
 10
96.4044
 20
107.0249
 30
0.0
 10
99.9749
 20
110.5954
 30
0.0
 10
99.9749
 20
114.9999
 30
0.0
  0
SPLINE
  5
67
330
1F
100
AcDbEntity
  8
0
100
AcDbSpline
210
0.0
220
0.0
230
1.0
 70
     8
 71
     3
 72
    20
 73
    16
 74
     0
 42
0.0000000001
 43
0.0000000001
 40
0.0
 40
0.0
 40
0.0
 40
0.0
 40
0.2
 40
0.2
 40
0.2
 40
0.2
 40
0.4
 40
0.4
 40
0.4
 40
0.4
 40
0.6
 40
0.6
 40
0.6
 40
0.6
 40
1.0
 40
1.0
 40
1.0
 40
1.0
 10
101.9499
 20
160.0
 30
0.0
 10
101.9499
 20
161.0769
 30
0.0
 10
101.0769
 20
161.9499
 30
0.0
 10
100.0
 20
161.95
 30
0.0
 10
100.0
 20
161.95
 30
0.0
 10
98.923
 20
161.95
 30
0.0
 10
98.05
 20
161.0769
 30
0.0
 10
98.0499
 20
160.0
 30
0.0
 10
98.0499
 20
160.0
 30
0.0
 10
98.0499
 20
158.923
 30
0.0
 10
98.923
 20
158.05
 30
0.0
 10
99.9999
 20
158.05
 30
0.0
 10
99.9999
 20
158.05
 30
0.0
 10
101.0769
 20
158.0499
 30
0.0
 10
101.9499
 20
158.923
 30
0.0
 10
101.9499
 20
159.9999
 30
0.0
  0
SPLINE
  5
68
330
1F
100
AcDbEntity
  8
0
100
AcDbSpline
210
0.0
220
0.0
230
1.0
 70
     8
 71
     3
 72
    20
 73
    16
 74
     0
 42
0.0000000001
 43
0.0000000001
 40
0.0
 40
0.0
 40
0.0
 40
0.0
 40
0.2
 40
0.2
 40
0.2
 40
0.2
 40
0.4
 40
0.4
 40
0.4
 40
0.4
 40
0.6
 40
0.6
 40
0.6
 40
0.6
 40
1.0
 40
1.0
 40
1.0
 40
1.0
 10
21.95
 20
-89.9999
 30
0.0
 10
21.95
 20
-88.923
 30
0.0
 10
21.0769
 20
-88.05
 30
0.0
 10
20.0
 20
-88.05
 30
0.0
 10
20.0
 20
-88.05
 30
0.0
 10
18.923
 20
-88.0499
 30
0.0
 10
18.05
 20
-88.923
 30
0.0
 10
18.05
 20
-89.9999
 30
0.0
 10
18.05
 20
-89.9999
 30
0.0
 10
18.0499
 20
-91.0769
 30
0.0
 10
18.923
 20
-91.9499
 30
0.0
 10
19.9999
 20
-91.9499
 30
0.0
 10
19.9999
 20
-91.9499
 30
0.0
 10
21.0769
 20
-91.95
 30
0.0
 10
21.9499
 20
-91.0769
 30
0.0
 10
21.9499
 20
-90.0
 30
0.0
  0
SPLINE
  5
69
330
1F
100
AcDbEntity
  8
0
100
AcDbSpline
210
0.0
220
0.0
230
1.0
 70
     8
 71
     3
 72
    20
 73
    16
 74
     0
 42
0.0000000001
 43
0.0000000001
 40
0.0
 40
0.0
 40
0.0
 40
0.0
 40
0.2
 40
0.2
 40
0.2
 40
0.2
 40
0.4
 40
0.4
 40
0.4
 40
0.4
 40
0.6
 40
0.6
 40
0.6
 40
0.6
 40
1.0
 40
1.0
 40
1.0
 40
1.0
 10
-53.0499
 20
-160.0
 30
0.0
 10
-53.0499
 20
-158.923
 30
0.0
 10
-53.923
 20
-158.05
 30
0.0
 10
-54.9999
 20
-158.05
 30
0.0
 10
-54.9999
 20
-158.05
 30
0.0
 10
-56.0769
 20
-158.0499
 30
0.0
 10
-56.9499
 20
-158.923
 30
0.0
 10
-56.9499
 20
-159.9999
 30
0.0
 10
-56.9499
 20
-159.9999
 30
0.0
 10
-56.95
 20
-161.0769
 30
0.0
 10
-56.0769
 20
-161.9499
 30
0.0
 10
-55.0
 20
-161.9499
 30
0.0
 10
-55.0
 20
-161.9499
 30
0.0
 10
-53.923
 20
-161.95
 30
0.0
 10
-53.05
 20
-161.0769
 30
0.0
 10
-53.05
 20
-160.0
 30
0.0
  0
SPLINE
  5
6A
330
1F
100
AcDbEntity
  8
0
100
AcDbSpline
210
0.0
220
0.0
230
1.0
 70
    11
 71
     3
 72
    20
 73
    16
 74
     0
 42
0.0000000001
 43
0.0000000001
 40
0.0
 40
0.0
 40
0.0
 40
0.0
 40
0.2
 40
0.2
 40
0.2
 40
0.2
 40
0.4
 40
0.4
 40
0.4
 40
0.4
 40
0.6
 40
0.6
 40
0.6
 40
0.6
 40
1.0
 40
1.0
 40
1.0
 40
1.0
 10
-14.05
 20
144.4999
 30
0.0
 10
-14.05
 20
145.5769
 30
0.0
 10
-14.923
 20
146.4499
 30
0.0
 10
-15.9999
 20
146.4499
 30
0.0
 10
-15.9999
 20
146.4499
 30
0.0
 10
-17.0769
 20
146.45
 30
0.0
 10
-17.9499
 20
145.5769
 30
0.0
 10
-17.9499
 20
144.5
 30
0.0
 10
-17.9499
 20
144.5
 30
0.0
 10
-17.95
 20
143.423
 30
0.0
 10
-17.0769
 20
142.55
 30
0.0
 10
-16.0
 20
142.55
 30
0.0
 10
-16.0
 20
142.55
 30
0.0
 10
-14.923
 20
142.5499
 30
0.0
 10
-14.05
 20
143.423
 30
0.0
 10
-14.05
 20
144.4999
 30
0.0
  0
SPLINE
  5
6B
330
1F
100
AcDbEntity
  8
0
100
AcDbSpline
210
0.0
220
0.0
230
1.0
 70
     8
 71
     3
 72
    20
 73
    16
 74
     0
 42
0.0000000001
 43
0.0000000001
 40
0.0
 40
0.0
 40
0.0
 40
0.0
 40
0.2
 40
0.2
 40
0.2
 40
0.2
 40
0.4
 40
0.4
 40
0.4
 40
0.4
 40
0.6
 40
0.6
 40
0.6
 40
0.6
 40
1.0
 40
1.0
 40
1.0
 40
1.0
 10
82.3499
 20
55.0
 30
0.0
 10
82.3499
 20
56.9329
 30
0.0
 10
80.7829
 20
58.4999
 30
0.0
 10
78.85
 20
58.4999
 30
0.0
 10
78.85
 20
58.4999
 30
0.0
 10
76.917
 20
58.5
 30
0.0
 10
75.35
 20
56.933
 30
0.0
 10
75.35
 20
55.0
 30
0.0
 10
75.35
 20
55.0
 30
0.0
 10
75.3499
 20
53.067
 30
0.0
 10
76.9169
 20
51.5
 30
0.0
 10
78.8499
 20
51.5
 30
0.0
 10
78.8499
 20
51.5
 30
0.0
 10
80.7829
 20
51.4999
 30
0.0
 10
82.3499
 20
53.0669
 30
0.0
 10
82.3499
 20
54.9999
 30
0.0
  0
SPLINE
  5
6C
330
1F
100
AcDbEntity
  8
0
100
AcDbSpline
210
0.0
220
0.0
230
1.0
 70
    11
 71
     3
 72
    20
 73
    16
 74
     0
 42
0.0000000001
 43
0.0000000001
 40
0.0
 40
0.0
 40
0.0
 40
0.0
 40
0.2
 40
0.2
 40
0.2
 40
0.2
 40
0.4
 40
0.4
 40
0.4
 40
0.4
 40
0.6
 40
0.6
 40
0.6
 40
0.6
 40
1.0
 40
1.0
 40
1.0
 40
1.0
 10
-73.55
 20
109.9999
 30
0.0
 10
-73.55
 20
111.0769
 30
0.0
 10
-74.423
 20
111.9499
 30
0.0
 10
-75.4999
 20
111.9499
 30
0.0
 10
-75.4999
 20
111.9499
 30
0.0
 10
-76.5769
 20
111.95
 30
0.0
 10
-77.4499
 20
111.0769
 30
0.0
 10
-77.4499
 20
110.0
 30
0.0
 10
-77.4499
 20
110.0
 30
0.0
 10
-77.45
 20
108.923
 30
0.0
 10
-76.5769
 20
108.05
 30
0.0
 10
-75.5
 20
108.05
 30
0.0
 10
-75.5
 20
108.05
 30
0.0
 10
-74.423
 20
108.0499
 30
0.0
 10
-73.55
 20
108.923
 30
0.0
 10
-73.55
 20
109.9999
 30
0.0
  0
SPLINE
  5
6D
330
1F
100
AcDbEntity
  8
0
100
AcDbSpline
210
0.0
220
0.0
230
1.0
 70
     8
 71
     3
 72
    20
 73
    16
 74
     0
 42
0.0000000001
 43
0.0000000001
 40
0.0
 40
0.0
 40
0.0
 40
0.0
 40
0.2
 40
0.2
 40
0.2
 40
0.2
 40
0.4
 40
0.4
 40
0.4
 40
0.4
 40
0.6
 40
0.6
 40
0.6
 40
0.6
 40
1.0
 40
1.0
 40
1.0
 40
1.0
 10
35.9499
 20
114.5
 30
0.0
 10
35.9499
 20
115.5769
 30
0.0
 10
35.0769
 20
116.4499
 30
0.0
 10
34.0
 20
116.4499
 30
0.0
 10
34.0
 20
116.4499
 30
0.0
 10
32.923
 20
116.45
 30
0.0
 10
32.05
 20
115.5769
 30
0.0
 10
32.05
 20
114.5
 30
0.0
 10
32.05
 20
114.5
 30
0.0
 10
32.0499
 20
113.423
 30
0.0
 10
32.923
 20
112.55
 30
0.0
 10
33.9999
 20
112.55
 30
0.0
 10
33.9999
 20
112.55
 30
0.0
 10
35.0769
 20
112.5499
 30
0.0
 10
35.9499
 20
113.423
 30
0.0
 10
35.9499
 20
114.4999
 30
0.0
  0
SPLINE
  5
6E
330
1F
100
AcDbEntity
  8
0
100
AcDbSpline
210
0.0
220
0.0
230
1.0
 70
     8
 71
     3
 72
    20
 73
    16
 74
     0
 42
0.0000000001
 43
0.0000000001
 40
0.0
 40
0.0
 40
0.0
 40
0.0
 40
0.2
 40
0.2
 40
0.2
 40
0.2
 40
0.4
 40
0.4
 40
0.4
 40
0.4
 40
0.6
 40
0.6
 40
0.6
 40
0.6
 40
1.0
 40
1.0
 40
1.0
 40
1.0
 10
46.9499
 20
88.5
 30
0.0
 10
46.9499
 20
89.3008
 30
0.0
 10
46.3008
 20
89.9499
 30
0.0
 10
45.5
 20
89.9499
 30
0.0
 10
45.5
 20
89.9499
 30
0.0
 10
44.6991
 20
89.95
 30
0.0
 10
44.05
 20
89.3008
 30
0.0
 10
44.05
 20
88.5
 30
0.0
 10
44.05
 20
88.5
 30
0.0
 10
44.0499
 20
87.6991
 30
0.0
 10
44.6991
 20
87.05
 30
0.0
 10
45.4999
 20
87.05
 30
0.0
 10
45.4999
 20
87.05
 30
0.0
 10
46.3008
 20
87.0499
 30
0.0
 10
46.9499
 20
87.6991
 30
0.0
 10
46.9499
 20
88.4999
 30
0.0
  0
SPLINE
  5
6F
330
1F
100
AcDbEntity
  8
0
100
AcDbSpline
210
0.0
220
0.0
230
1.0
 70
    11
 71
     3
 72
    20
 73
    16
 74
     0
 42
0.0000000001
 43
0.0000000001
 40
0.0
 40
0.0
 40
0.0
 40
0.0
 40
0.2
 40
0.2
 40
0.2
 40
0.2
 40
0.4
 40
0.4
 40
0.4
 40
0.4
 40
0.6
 40
0.6
 40
0.6
 40
0.6
 40
1.0
 40
1.0
 40
1.0
 40
1.0
 10
96.0
 20
-86.0
 30
0.0
 10
96.0
 20
-86.0
 30
0.0
 10
94.0
 20
-86.0
 30
0.0
 10
94.0
 20
-86.0
 30
0.0
 10
94.0
 20
-86.0
 30
0.0
 10
94.0
 20
-86.0
 30
0.0
 10
94.0
 20
-91.0
 30
0.0
 10
94.0
 20
-91.0
 30
0.0
 10
94.0
 20
-91.0
 30
0.0
 10
94.0
 20
-91.0
 30
0.0
 10
96.0
 20
-91.0
 30
0.0
 10
96.0
 20
-91.0
 30
0.0
 10
96.0
 20
-91.0
 30
0.0
 10
96.0
 20
-91.0
 30
0.0
 10
96.0
 20
-86.0
 30
0.0
 10
96.0
 20
-86.0
 30
0.0
  0
SPLINE
  5
70
330
1F
100
AcDbEntity
  8
0
100
AcDbSpline
210
0.0
220
0.0
230
1.0
 70
    11
 71
     3
 72
    20
 73
    16
 74
     0
 42
0.0000000001
 43
0.0000000001
 40
0.0
 40
0.0
 40
0.0
 40
0.0
 40
0.2
 40
0.2
 40
0.2
 40
0.2
 40
0.4
 40
0.4
 40
0.4
 40
0.4
 40
0.6
 40
0.6
 40
0.6
 40
0.6
 40
1.0
 40
1.0
 40
1.0
 40
1.0
 10
108.0
 20
-16.0
 30
0.0
 10
108.0
 20
-16.0
 30
0.0
 10
106.0
 20
-16.0
 30
0.0
 10
106.0
 20
-16.0
 30
0.0
 10
106.0
 20
-16.0
 30
0.0
 10
106.0
 20
-16.0
 30
0.0
 10
106.0
 20
-21.0
 30
0.0
 10
106.0
 20
-21.0
 30
0.0
 10
106.0
 20
-21.0
 30
0.0
 10
106.0
 20
-21.0
 30
0.0
 10
108.0
 20
-21.0
 30
0.0
 10
108.0
 20
-21.0
 30
0.0
 10
108.0
 20
-21.0
 30
0.0
 10
108.0
 20
-21.0
 30
0.0
 10
108.0
 20
-16.0
 30
0.0
 10
108.0
 20
-16.0
 30
0.0
  0
SPLINE
  5
71
330
1F
100
AcDbEntity
  8
0
100
AcDbSpline
210
0.0
220
0.0
230
1.0
 70
    11
 71
     3
 72
    36
 73
    32
 74
     0
 42
0.0000000001
 43
0.0000000001
 40
0.0
 40
0.0
 40
0.0
 40
0.0
 40
0.1111111111111111
 40
0.1111111111111111
 40
0.1111111111111111
 40
0.1111111111111111
 40
0.2222222222222222
 40
0.2222222222222222
 40
0.2222222222222222
 40
0.2222222222222222
 40
0.3333333333333333
 40
0.3333333333333333
 40
0.3333333333333333
 40
0.3333333333333333
 40
0.4444444444444444
 40
0.4444444444444444
 40
0.4444444444444444
 40
0.4444444444444444
 40
0.5555555555555556
 40
0.5555555555555556
 40
0.5555555555555556
 40
0.5555555555555556
 40
0.6666666666666666
 40
0.6666666666666666
 40
0.6666666666666666
 40
0.6666666666666666
 40
0.7777777777777778
 40
0.7777777777777778
 40
0.7777777777777778
 40
0.7777777777777778
 40
1.0
 40
1.0
 40
1.0
 40
1.0
 10
-99.85
 20
69.9999
 30
0.0
 10
-99.85
 20
74.6444
 30
0.0
 10
-97.3722
 20
78.9361
 30
0.0
 10
-93.35
 20
81.2583
 30
0.0
 10
-93.35
 20
81.2583
 30
0.0
 10
-89.3277
 20
83.5805
 30
0.0
 10
-84.3722
 20
83.5805
 30
0.0
 10
-80.35
 20
81.2583
 30
0.0
 10
-80.35
 20
81.2583
 30
0.0
 10
-76.3277
 20
78.9361
 30
0.0
 10
-73.85
 20
74.6444
 30
0.0
 10
-73.85
 20
69.9999
 30
0.0
 10
-73.85
 20
69.9999
 30
0.0
 10
-73.85
 20
69.9999
 30
0.0
 10
-73.85
 20
59.9999
 30
0.0
 10
-73.85
 20
59.9999
 30
0.0
 10
-73.85
 20
59.9999
 30
0.0
 10
-73.85
 20
55.3555
 30
0.0
 10
-76.3277
 20
51.0638
 30
0.0
 10
-80.35
 20
48.7416
 30
0.0
 10
-80.35
 20
48.7416
 30
0.0
 10
-84.3722
 20
46.4194
 30
0.0
 10
-89.3277
 20
46.4194
 30
0.0
 10
-93.35
 20
48.7416
 30
0.0
 10
-93.35
 20
48.7416
 30
0.0
 10
-97.3722
 20
51.0638
 30
0.0
 10
-99.85
 20
55.3555
 30
0.0
 10
-99.85
 20
59.9999
 30
0.0
 10
-99.85
 20
59.9999
 30
0.0
 10
-99.85
 20
59.9999
 30
0.0
 10
-99.85
 20
69.9999
 30
0.0
 10
-99.85
 20
69.9999
 30
0.0
  0
SPLINE
  5
72
330
1F
100
AcDbEntity
  8
0
100
AcDbSpline
210
0.0
220
0.0
230
1.0
 70
    11
 71
     3
 72
    36
 73
    32
 74
     0
 42
0.0000000001
 43
0.0000000001
 40
0.0
 40
0.0
 40
0.0
 40
0.0
 40
0.1111111111111111
 40
0.1111111111111111
 40
0.1111111111111111
 40
0.1111111111111111
 40
0.2222222222222222
 40
0.2222222222222222
 40
0.2222222222222222
 40
0.2222222222222222
 40
0.3333333333333333
 40
0.3333333333333333
 40
0.3333333333333333
 40
0.3333333333333333
 40
0.4444444444444444
 40
0.4444444444444444
 40
0.4444444444444444
 40
0.4444444444444444
 40
0.5555555555555556
 40
0.5555555555555556
 40
0.5555555555555556
 40
0.5555555555555556
 40
0.6666666666666666
 40
0.6666666666666666
 40
0.6666666666666666
 40
0.6666666666666666
 40
0.7777777777777778
 40
0.7777777777777778
 40
0.7777777777777778
 40
0.7777777777777778
 40
1.0
 40
1.0
 40
1.0
 40
1.0
 10
-72.8
 20
54.4999
 30
0.0
 10
-72.8
 20
55.018
 30
0.0
 10
-72.5236
 20
55.4967
 30
0.0
 10
-72.075
 20
55.7557
 30
0.0
 10
-72.075
 20
55.7557
 30
0.0
 10
-71.6263
 20
56.0147
 30
0.0
 10
-71.0736
 20
56.0147
 30
0.0
 10
-70.625
 20
55.7557
 30
0.0
 10
-70.625
 20
55.7557
 30
0.0
 10
-70.1763
 20
55.4967
 30
0.0
 10
-69.9
 20
55.018
 30
0.0
 10
-69.9
 20
54.4999
 30
0.0
 10
-69.9
 20
54.4999
 30
0.0
 10
-69.9
 20
54.4999
 30
0.0
 10
-69.9
 20
44.4999
 30
0.0
 10
-69.9
 20
44.4999
 30
0.0
 10
-69.9
 20
44.4999
 30
0.0
 10
-69.9
 20
43.9819
 30
0.0
 10
-70.1763
 20
43.5032
 30
0.0
 10
-70.625
 20
43.2442
 30
0.0
 10
-70.625
 20
43.2442
 30
0.0
 10
-71.0736
 20
42.9852
 30
0.0
 10
-71.6263
 20
42.9852
 30
0.0
 10
-72.075
 20
43.2442
 30
0.0
 10
-72.075
 20
43.2442
 30
0.0
 10
-72.5236
 20
43.5032
 30
0.0
 10
-72.8
 20
43.9819
 30
0.0
 10
-72.8
 20
44.4999
 30
0.0
 10
-72.8
 20
44.4999
 30
0.0
 10
-72.8
 20
44.4999
 30
0.0
 10
-72.8
 20
54.4999
 30
0.0
 10
-72.8
 20
54.4999
 30
0.0
  0
SPLINE
  5
73
330
1F
100
AcDbEntity
  8
0
100
AcDbSpline
210
0.0
220
0.0
230
1.0
 70
    11
 71
     3
 72
    36
 73
    32
 74
     0
 42
0.0000000001
 43
0.0000000001
 40
0.0
 40
0.0
 40
0.0
 40
0.0
 40
0.1111111111111111
 40
0.1111111111111111
 40
0.1111111111111111
 40
0.1111111111111111
 40
0.2222222222222222
 40
0.2222222222222222
 40
0.2222222222222222
 40
0.2222222222222222
 40
0.3333333333333333
 40
0.3333333333333333
 40
0.3333333333333333
 40
0.3333333333333333
 40
0.4444444444444444
 40
0.4444444444444444
 40
0.4444444444444444
 40
0.4444444444444444
 40
0.5555555555555556
 40
0.5555555555555556
 40
0.5555555555555556
 40
0.5555555555555556
 40
0.6666666666666666
 40
0.6666666666666666
 40
0.6666666666666666
 40
0.6666666666666666
 40
0.7777777777777778
 40
0.7777777777777778
 40
0.7777777777777778
 40
0.7777777777777778
 40
1.0
 40
1.0
 40
1.0
 40
1.0
 10
95.9999
 20
3.9999
 30
0.0
 10
95.9999
 20
5.7863
 30
0.0
 10
96.9529
 20
7.4369
 30
0.0
 10
98.4999
 20
8.3301
 30
0.0
 10
98.4999
 20
8.3301
 30
0.0
 10
100.047
 20
9.2232
 30
0.0
 10
101.9529
 20
9.2232
 30
0.0
 10
103.4999
 20
8.3301
 30
0.0
 10
103.4999
 20
8.3301
 30
0.0
 10
105.047
 20
7.4369
 30
0.0
 10
105.9999
 20
5.7863
 30
0.0
 10
105.9999
 20
3.9999
 30
0.0
 10
105.9999
 20
3.9999
 30
0.0
 10
105.9999
 20
3.9999
 30
0.0
 10
105.9999
 20
-6.0
 30
0.0
 10
105.9999
 20
-6.0
 30
0.0
 10
105.9999
 20
-6.0
 30
0.0
 10
105.9999
 20
-7.7863
 30
0.0
 10
105.047
 20
-9.4369
 30
0.0
 10
103.5
 20
-10.3301
 30
0.0
 10
103.5
 20
-10.3301
 30
0.0
 10
101.9529
 20
-11.2232
 30
0.0
 10
100.047
 20
-11.2232
 30
0.0
 10
98.5
 20
-10.3301
 30
0.0
 10
98.5
 20
-10.3301
 30
0.0
 10
96.9529
 20
-9.4369
 30
0.0
 10
96.0
 20
-7.7863
 30
0.0
 10
95.9999
 20
-6.0
 30
0.0
 10
95.9999
 20
-6.0
 30
0.0
 10
95.9999
 20
-6.0
 30
0.0
 10
95.9999
 20
3.9999
 30
0.0
 10
95.9999
 20
3.9999
 30
0.0
  0
SPLINE
  5
74
330
1F
100
AcDbEntity
  8
0
100
AcDbSpline
210
0.0
220
0.0
230
1.0
 70
    11
 71
     3
 72
   532
 73
   528
 74
     0
 42
0.0000000001
 43
0.0000000001
 40
0.0
 40
0.0
 40
0.0
 40
0.0
 40
0.0075187969924812
 40
0.0075187969924812
 40
0.0075187969924812
 40
0.0075187969924812
 40
0.0150375939849624
 40
0.0150375939849624
 40
0.0150375939849624
 40
0.0150375939849624
 40
0.0225563909774436
 40
0.0225563909774436
 40
0.0225563909774436
 40
0.0225563909774436
 40
0.0300751879699248
 40
0.0300751879699248
 40
0.0300751879699248
 40
0.0300751879699248
 40
0.037593984962406
 40
0.037593984962406
 40
0.037593984962406
 40
0.037593984962406
 40
0.0451127819548872
 40
0.0451127819548872
 40
0.0451127819548872
 40
0.0451127819548872
 40
0.0526315789473684
 40
0.0526315789473684
 40
0.0526315789473684
 40
0.0526315789473684
 40
0.0601503759398496
 40
0.0601503759398496
 40
0.0601503759398496
 40
0.0601503759398496
 40
0.0676691729323308
 40
0.0676691729323308
 40
0.0676691729323308
 40
0.0676691729323308
 40
0.075187969924812
 40
0.075187969924812
 40
0.075187969924812
 40
0.075187969924812
 40
0.0827067669172932
 40
0.0827067669172932
 40
0.0827067669172932
 40
0.0827067669172932
 40
0.0902255639097744
 40
0.0902255639097744
 40
0.0902255639097744
 40
0.0902255639097744
 40
0.0977443609022556
 40
0.0977443609022556
 40
0.0977443609022556
 40
0.0977443609022556
 40
0.1052631578947368
 40
0.1052631578947368
 40
0.1052631578947368
 40
0.1052631578947368
 40
0.112781954887218
 40
0.112781954887218
 40
0.112781954887218
 40
0.112781954887218
 40
0.1203007518796992
 40
0.1203007518796992
 40
0.1203007518796992
 40
0.1203007518796992
 40
0.1278195488721804
 40
0.1278195488721804
 40
0.1278195488721804
 40
0.1278195488721804
 40
0.1353383458646616
 40
0.1353383458646616
 40
0.1353383458646616
 40
0.1353383458646616
 40
0.1428571428571428
 40
0.1428571428571428
 40
0.1428571428571428
 40
0.1428571428571428
 40
0.1503759398496241
 40
0.1503759398496241
 40
0.1503759398496241
 40
0.1503759398496241
 40
0.1578947368421053
 40
0.1578947368421053
 40
0.1578947368421053
 40
0.1578947368421053
 40
0.1654135338345865
 40
0.1654135338345865
 40
0.1654135338345865
 40
0.1654135338345865
 40
0.1729323308270677
 40
0.1729323308270677
 40
0.1729323308270677
 40
0.1729323308270677
 40
0.1804511278195489
 40
0.1804511278195489
 40
0.1804511278195489
 40
0.1804511278195489
 40
0.1879699248120301
 40
0.1879699248120301
 40
0.1879699248120301
 40
0.1879699248120301
 40
0.1954887218045113
 40
0.1954887218045113
 40
0.1954887218045113
 40
0.1954887218045113
 40
0.2030075187969925
 40
0.2030075187969925
 40
0.2030075187969925
 40
0.2030075187969925
 40
0.2105263157894737
 40
0.2105263157894737
 40
0.2105263157894737
 40
0.2105263157894737
 40
0.2180451127819549
 40
0.2180451127819549
 40
0.2180451127819549
 40
0.2180451127819549
 40
0.2255639097744361
 40
0.2255639097744361
 40
0.2255639097744361
 40
0.2255639097744361
 40
0.2330827067669173
 40
0.2330827067669173
 40
0.2330827067669173
 40
0.2330827067669173
 40
0.2406015037593985
 40
0.2406015037593985
 40
0.2406015037593985
 40
0.2406015037593985
 40
0.2481203007518797
 40
0.2481203007518797
 40
0.2481203007518797
 40
0.2481203007518797
 40
0.2556390977443609
 40
0.2556390977443609
 40
0.2556390977443609
 40
0.2556390977443609
 40
0.2631578947368421
 40
0.2631578947368421
 40
0.2631578947368421
 40
0.2631578947368421
 40
0.2706766917293233
 40
0.2706766917293233
 40
0.2706766917293233
 40
0.2706766917293233
 40
0.2781954887218045
 40
0.2781954887218045
 40
0.2781954887218045
 40
0.2781954887218045
 40
0.2857142857142857
 40
0.2857142857142857
 40
0.2857142857142857
 40
0.2857142857142857
 40
0.2932330827067669
 40
0.2932330827067669
 40
0.2932330827067669
 40
0.2932330827067669
 40
0.3007518796992481
 40
0.3007518796992481
 40
0.3007518796992481
 40
0.3007518796992481
 40
0.3082706766917293
 40
0.3082706766917293
 40
0.3082706766917293
 40
0.3082706766917293
 40
0.3157894736842105
 40
0.3157894736842105
 40
0.3157894736842105
 40
0.3157894736842105
 40
0.3233082706766917
 40
0.3233082706766917
 40
0.3233082706766917
 40
0.3233082706766917
 40
0.3308270676691729
 40
0.3308270676691729
 40
0.3308270676691729
 40
0.3308270676691729
 40
0.3383458646616541
 40
0.3383458646616541
 40
0.3383458646616541
 40
0.3383458646616541
 40
0.3458646616541353
 40
0.3458646616541353
 40
0.3458646616541353
 40
0.3458646616541353
 40
0.3533834586466165
 40
0.3533834586466165
 40
0.3533834586466165
 40
0.3533834586466165
 40
0.3609022556390977
 40
0.3609022556390977
 40
0.3609022556390977
 40
0.3609022556390977
 40
0.3684210526315789
 40
0.3684210526315789
 40
0.3684210526315789
 40
0.3684210526315789
 40
0.3759398496240601
 40
0.3759398496240601
 40
0.3759398496240601
 40
0.3759398496240601
 40
0.3834586466165413
 40
0.3834586466165413
 40
0.3834586466165413
 40
0.3834586466165413
 40
0.3909774436090225
 40
0.3909774436090225
 40
0.3909774436090225
 40
0.3909774436090225
 40
0.3984962406015037
 40
0.3984962406015037
 40
0.3984962406015037
 40
0.3984962406015037
 40
0.4060150375939849
 40
0.4060150375939849
 40
0.4060150375939849
 40
0.4060150375939849
 40
0.4135338345864661
 40
0.4135338345864661
 40
0.4135338345864661
 40
0.4135338345864661
 40
0.4210526315789473
 40
0.4210526315789473
 40
0.4210526315789473
 40
0.4210526315789473
 40
0.4285714285714285
 40
0.4285714285714285
 40
0.4285714285714285
 40
0.4285714285714285
 40
0.4360902255639098
 40
0.4360902255639098
 40
0.4360902255639098
 40
0.4360902255639098
 40
0.443609022556391
 40
0.443609022556391
 40
0.443609022556391
 40
0.443609022556391
 40
0.4511278195488722
 40
0.4511278195488722
 40
0.4511278195488722
 40
0.4511278195488722
 40
0.4586466165413534
 40
0.4586466165413534
 40
0.4586466165413534
 40
0.4586466165413534
 40
0.4661654135338346
 40
0.4661654135338346
 40
0.4661654135338346
 40
0.4661654135338346
 40
0.4736842105263158
 40
0.4736842105263158
 40
0.4736842105263158
 40
0.4736842105263158
 40
0.481203007518797
 40
0.481203007518797
 40
0.481203007518797
 40
0.481203007518797
 40
0.4887218045112782
 40
0.4887218045112782
 40
0.4887218045112782
 40
0.4887218045112782
 40
0.4962406015037594
 40
0.4962406015037594
 40
0.4962406015037594
 40
0.4962406015037594
 40
0.5037593984962406
 40
0.5037593984962406
 40
0.5037593984962406
 40
0.5037593984962406
 40
0.5112781954887218
 40
0.5112781954887218
 40
0.5112781954887218
 40
0.5112781954887218
 40
0.518796992481203
 40
0.518796992481203
 40
0.518796992481203
 40
0.518796992481203
 40
0.5263157894736842
 40
0.5263157894736842
 40
0.5263157894736842
 40
0.5263157894736842
 40
0.5338345864661654
 40
0.5338345864661654
 40
0.5338345864661654
 40
0.5338345864661654
 40
0.5413533834586466
 40
0.5413533834586466
 40
0.5413533834586466
 40
0.5413533834586466
 40
0.5488721804511278
 40
0.5488721804511278
 40
0.5488721804511278
 40
0.5488721804511278
 40
0.556390977443609
 40
0.556390977443609
 40
0.556390977443609
 40
0.556390977443609
 40
0.5639097744360902
 40
0.5639097744360902
 40
0.5639097744360902
 40
0.5639097744360902
 40
0.5714285714285714
 40
0.5714285714285714
 40
0.5714285714285714
 40
0.5714285714285714
 40
0.5789473684210527
 40
0.5789473684210527
 40
0.5789473684210527
 40
0.5789473684210527
 40
0.5864661654135338
 40
0.5864661654135338
 40
0.5864661654135338
 40
0.5864661654135338
 40
0.5939849624060151
 40
0.5939849624060151
 40
0.5939849624060151
 40
0.5939849624060151
 40
0.6015037593984962
 40
0.6015037593984962
 40
0.6015037593984962
 40
0.6015037593984962
 40
0.6090225563909775
 40
0.6090225563909775
 40
0.6090225563909775
 40
0.6090225563909775
 40
0.6165413533834586
 40
0.6165413533834586
 40
0.6165413533834586
 40
0.6165413533834586
 40
0.6240601503759399
 40
0.6240601503759399
 40
0.6240601503759399
 40
0.6240601503759399
 40
0.631578947368421
 40
0.631578947368421
 40
0.631578947368421
 40
0.631578947368421
 40
0.6390977443609023
 40
0.6390977443609023
 40
0.6390977443609023
 40
0.6390977443609023
 40
0.6466165413533834
 40
0.6466165413533834
 40
0.6466165413533834
 40
0.6466165413533834
 40
0.6541353383458647
 40
0.6541353383458647
 40
0.6541353383458647
 40
0.6541353383458647
 40
0.6616541353383458
 40
0.6616541353383458
 40
0.6616541353383458
 40
0.6616541353383458
 40
0.6691729323308271
 40
0.6691729323308271
 40
0.6691729323308271
 40
0.6691729323308271
 40
0.6766917293233082
 40
0.6766917293233082
 40
0.6766917293233082
 40
0.6766917293233082
 40
0.6842105263157895
 40
0.6842105263157895
 40
0.6842105263157895
 40
0.6842105263157895
 40
0.6917293233082706
 40
0.6917293233082706
 40
0.6917293233082706
 40
0.6917293233082706
 40
0.6992481203007519
 40
0.6992481203007519
 40
0.6992481203007519
 40
0.6992481203007519
 40
0.706766917293233
 40
0.706766917293233
 40
0.706766917293233
 40
0.706766917293233
 40
0.7142857142857143
 40
0.7142857142857143
 40
0.7142857142857143
 40
0.7142857142857143
 40
0.7218045112781954
 40
0.7218045112781954
 40
0.7218045112781954
 40
0.7218045112781954
 40
0.7293233082706767
 40
0.7293233082706767
 40
0.7293233082706767
 40
0.7293233082706767
 40
0.7368421052631579
 40
0.7368421052631579
 40
0.7368421052631579
 40
0.7368421052631579
 40
0.7443609022556391
 40
0.7443609022556391
 40
0.7443609022556391
 40
0.7443609022556391
 40
0.7518796992481203
 40
0.7518796992481203
 40
0.7518796992481203
 40
0.7518796992481203
 40
0.7593984962406015
 40
0.7593984962406015
 40
0.7593984962406015
 40
0.7593984962406015
 40
0.7669172932330827
 40
0.7669172932330827
 40
0.7669172932330827
 40
0.7669172932330827
 40
0.7744360902255639
 40
0.7744360902255639
 40
0.7744360902255639
 40
0.7744360902255639
 40
0.7819548872180451
 40
0.7819548872180451
 40
0.7819548872180451
 40
0.7819548872180451
 40
0.7894736842105263
 40
0.7894736842105263
 40
0.7894736842105263
 40
0.7894736842105263
 40
0.7969924812030075
 40
0.7969924812030075
 40
0.7969924812030075
 40
0.7969924812030075
 40
0.8045112781954887
 40
0.8045112781954887
 40
0.8045112781954887
 40
0.8045112781954887
 40
0.8120300751879699
 40
0.8120300751879699
 40
0.8120300751879699
 40
0.8120300751879699
 40
0.8195488721804511
 40
0.8195488721804511
 40
0.8195488721804511
 40
0.8195488721804511
 40
0.8270676691729323
 40
0.8270676691729323
 40
0.8270676691729323
 40
0.8270676691729323
 40
0.8345864661654135
 40
0.8345864661654135
 40
0.8345864661654135
 40
0.8345864661654135
 40
0.8421052631578947
 40
0.8421052631578947
 40
0.8421052631578947
 40
0.8421052631578947
 40
0.849624060150376
 40
0.849624060150376
 40
0.849624060150376
 40
0.849624060150376
 40
0.8571428571428571
 40
0.8571428571428571
 40
0.8571428571428571
 40
0.8571428571428571
 40
0.8646616541353384
 40
0.8646616541353384
 40
0.8646616541353384
 40
0.8646616541353384
 40
0.8721804511278195
 40
0.8721804511278195
 40
0.8721804511278195
 40
0.8721804511278195
 40
0.8796992481203008
 40
0.8796992481203008
 40
0.8796992481203008
 40
0.8796992481203008
 40
0.8872180451127819
 40
0.8872180451127819
 40
0.8872180451127819
 40
0.8872180451127819
 40
0.8947368421052632
 40
0.8947368421052632
 40
0.8947368421052632
 40
0.8947368421052632
 40
0.9022556390977443
 40
0.9022556390977443
 40
0.9022556390977443
 40
0.9022556390977443
 40
0.9097744360902256
 40
0.9097744360902256
 40
0.9097744360902256
 40
0.9097744360902256
 40
0.9172932330827067
 40
0.9172932330827067
 40
0.9172932330827067
 40
0.9172932330827067
 40
0.924812030075188
 40
0.924812030075188
 40
0.924812030075188
 40
0.924812030075188
 40
0.9323308270676691
 40
0.9323308270676691
 40
0.9323308270676691
 40
0.9323308270676691
 40
0.9398496240601504
 40
0.9398496240601504
 40
0.9398496240601504
 40
0.9398496240601504
 40
0.9473684210526315
 40
0.9473684210526315
 40
0.9473684210526315
 40
0.9473684210526315
 40
0.9548872180451128
 40
0.9548872180451128
 40
0.9548872180451128
 40
0.9548872180451128
 40
0.9624060150375939
 40
0.9624060150375939
 40
0.9624060150375939
 40
0.9624060150375939
 40
0.9699248120300752
 40
0.9699248120300752
 40
0.9699248120300752
 40
0.9699248120300752
 40
0.9774436090225563
 40
0.9774436090225563
 40
0.9774436090225563
 40
0.9774436090225563
 40
0.9849624060150376
 40
0.9849624060150376
 40
0.9849624060150376
 40
0.9849624060150376
 40
1.0
 40
1.0
 40
1.0
 40
1.0
 10
92.9769
 20
169.9999
 30
0.0
 10
92.9769
 20
169.9999
 30
0.0
 10
109.9999
 20
169.9999
 30
0.0
 10
109.9999
 20
169.9999
 30
0.0
 10
109.9999
 20
169.9999
 30
0.0
 10
109.9999
 20
169.9999
 30
0.0
 10
109.9999
 20
152.8999
 30
0.0
 10
109.9999
 20
152.8999
 30
0.0
 10
109.9999
 20
152.8999
 30
0.0
 10
109.9999
 20
152.8999
 30
0.0
 10
116.0999
 20
152.8999
 30
0.0
 10
116.0999
 20
152.8999
 30
0.0
 10
116.0999
 20
152.8999
 30
0.0
 10
116.0999
 20
152.8999
 30
0.0
 10
116.0999
 20
136.0999
 30
0.0
 10
116.0999
 20
136.0999
 30
0.0
 10
116.0999
 20
136.0999
 30
0.0
 10
116.0999
 20
136.0999
 30
0.0
 10
109.9999
 20
136.0999
 30
0.0
 10
109.9999
 20
136.0999
 30
0.0
 10
109.9999
 20
136.0999
 30
0.0
 10
109.9999
 20
136.0999
 30
0.0
 10
109.9999
 20
118.8999
 30
0.0
 10
109.9999
 20
118.8999
 30
0.0
 10
109.9999
 20
118.8999
 30
0.0
 10
109.9999
 20
118.8999
 30
0.0
 10
116.0999
 20
118.8999
 30
0.0
 10
116.0999
 20
118.8999
 30
0.0
 10
116.0999
 20
118.8999
 30
0.0
 10
116.0999
 20
118.8999
 30
0.0
 10
116.0999
 20
102.0999
 30
0.0
 10
116.0999
 20
102.0999
 30
0.0
 10
116.0999
 20
102.0999
 30
0.0
 10
116.0999
 20
102.0999
 30
0.0
 10
109.9999
 20
102.0999
 30
0.0
 10
109.9999
 20
102.0999
 30
0.0
 10
109.9999
 20
102.0999
 30
0.0
 10
109.9999
 20
102.0999
 30
0.0
 10
109.9999
 20
84.8999
 30
0.0
 10
109.9999
 20
84.8999
 30
0.0
 10
109.9999
 20
84.8999
 30
0.0
 10
109.9999
 20
84.8999
 30
0.0
 10
116.0999
 20
84.8999
 30
0.0
 10
116.0999
 20
84.8999
 30
0.0
 10
116.0999
 20
84.8999
 30
0.0
 10
116.0999
 20
84.8999
 30
0.0
 10
116.0999
 20
68.0999
 30
0.0
 10
116.0999
 20
68.0999
 30
0.0
 10
116.0999
 20
68.0999
 30
0.0
 10
116.0999
 20
68.0999
 30
0.0
 10
109.9999
 20
68.0999
 30
0.0
 10
109.9999
 20
68.0999
 30
0.0
 10
109.9999
 20
68.0999
 30
0.0
 10
109.9999
 20
68.0999
 30
0.0
 10
109.9999
 20
50.8999
 30
0.0
 10
109.9999
 20
50.8999
 30
0.0
 10
109.9999
 20
50.8999
 30
0.0
 10
109.9999
 20
50.8999
 30
0.0
 10
116.0999
 20
50.8999
 30
0.0
 10
116.0999
 20
50.8999
 30
0.0
 10
116.0999
 20
50.8999
 30
0.0
 10
116.0999
 20
50.8999
 30
0.0
 10
116.0999
 20
34.0999
 30
0.0
 10
116.0999
 20
34.0999
 30
0.0
 10
116.0999
 20
34.0999
 30
0.0
 10
116.0999
 20
34.0999
 30
0.0
 10
109.9999
 20
34.0999
 30
0.0
 10
109.9999
 20
34.0999
 30
0.0
 10
109.9999
 20
34.0999
 30
0.0
 10
109.9999
 20
34.0999
 30
0.0
 10
109.9999
 20
16.8999
 30
0.0
 10
109.9999
 20
16.8999
 30
0.0
 10
109.9999
 20
16.8999
 30
0.0
 10
109.9999
 20
16.8999
 30
0.0
 10
116.0999
 20
16.8999
 30
0.0
 10
116.0999
 20
16.8999
 30
0.0
 10
116.0999
 20
16.8999
 30
0.0
 10
116.0999
 20
16.8999
 30
0.0
 10
116.0999
 20
0.0999
 30
0.0
 10
116.0999
 20
0.0999
 30
0.0
 10
116.0999
 20
0.0999
 30
0.0
 10
116.0999
 20
0.0999
 30
0.0
 10
109.9999
 20
0.0999
 30
0.0
 10
109.9999
 20
0.0999
 30
0.0
 10
109.9999
 20
0.0999
 30
0.0
 10
109.9999
 20
0.0999
 30
0.0
 10
110.0
 20
-17.1
 30
0.0
 10
110.0
 20
-17.1
 30
0.0
 10
110.0
 20
-17.1
 30
0.0
 10
110.0
 20
-17.1
 30
0.0
 10
116.1
 20
-17.1
 30
0.0
 10
116.1
 20
-17.1
 30
0.0
 10
116.1
 20
-17.1
 30
0.0
 10
116.1
 20
-17.1
 30
0.0
 10
116.1
 20
-33.9
 30
0.0
 10
116.1
 20
-33.9
 30
0.0
 10
116.1
 20
-33.9
 30
0.0
 10
116.1
 20
-33.9
 30
0.0
 10
110.0
 20
-33.9
 30
0.0
 10
110.0
 20
-33.9
 30
0.0
 10
110.0
 20
-33.9
 30
0.0
 10
110.0
 20
-33.9
 30
0.0
 10
110.0
 20
-51.1
 30
0.0
 10
110.0
 20
-51.1
 30
0.0
 10
110.0
 20
-51.1
 30
0.0
 10
110.0
 20
-51.1
 30
0.0
 10
116.1
 20
-51.1
 30
0.0
 10
116.1
 20
-51.1
 30
0.0
 10
116.1
 20
-51.1
 30
0.0
 10
116.1
 20
-51.1
 30
0.0
 10
116.1
 20
-67.9
 30
0.0
 10
116.1
 20
-67.9
 30
0.0
 10
116.1
 20
-67.9
 30
0.0
 10
116.1
 20
-67.9
 30
0.0
 10
110.0
 20
-67.9
 30
0.0
 10
110.0
 20
-67.9
 30
0.0
 10
110.0
 20
-67.9
 30
0.0
 10
110.0
 20
-67.9
 30
0.0
 10
110.0
 20
-85.1
 30
0.0
 10
110.0
 20
-85.1
 30
0.0
 10
110.0
 20
-85.1
 30
0.0
 10
110.0
 20
-85.1
 30
0.0
 10
116.1
 20
-85.1
 30
0.0
 10
116.1
 20
-85.1
 30
0.0
 10
116.1
 20
-85.1
 30
0.0
 10
116.1
 20
-85.1
 30
0.0
 10
116.1
 20
-101.9
 30
0.0
 10
116.1
 20
-101.9
 30
0.0
 10
116.1
 20
-101.9
 30
0.0
 10
116.1
 20
-101.9
 30
0.0
 10
110.0
 20
-101.9
 30
0.0
 10
110.0
 20
-101.9
 30
0.0
 10
110.0
 20
-101.9
 30
0.0
 10
110.0
 20
-101.9
 30
0.0
 10
110.0
 20
-119.1
 30
0.0
 10
110.0
 20
-119.1
 30
0.0
 10
110.0
 20
-119.1
 30
0.0
 10
110.0
 20
-119.1
 30
0.0
 10
116.1
 20
-119.1
 30
0.0
 10
116.1
 20
-119.1
 30
0.0
 10
116.1
 20
-119.1
 30
0.0
 10
116.1
 20
-119.1
 30
0.0
 10
116.1
 20
-135.9
 30
0.0
 10
116.1
 20
-135.9
 30
0.0
 10
116.1
 20
-135.9
 30
0.0
 10
116.1
 20
-135.9
 30
0.0
 10
110.0
 20
-135.9
 30
0.0
 10
110.0
 20
-135.9
 30
0.0
 10
110.0
 20
-135.9
 30
0.0
 10
110.0
 20
-135.9
 30
0.0
 10
110.0
 20
-153.1
 30
0.0
 10
110.0
 20
-153.1
 30
0.0
 10
110.0
 20
-153.1
 30
0.0
 10
110.0
 20
-153.1
 30
0.0
 10
116.1
 20
-153.1
 30
0.0
 10
116.1
 20
-153.1
 30
0.0
 10
116.1
 20
-153.1
 30
0.0
 10
116.1
 20
-153.1
 30
0.0
 10
116.1
 20
-169.8999
 30
0.0
 10
116.1
 20
-169.8999
 30
0.0
 10
116.1
 20
-169.8999
 30
0.0
 10
116.1
 20
-169.8999
 30
0.0
 10
110.0
 20
-169.8999
 30
0.0
 10
110.0
 20
-169.8999
 30
0.0
 10
110.0
 20
-169.8999
 30
0.0
 10
110.0
 20
-169.8999
 30
0.0
 10
110.0
 20
-169.9999
 30
0.0
 10
110.0
 20
-169.9999
 30
0.0
 10
110.0
 20
-169.9999
 30
0.0
 10
110.0
 20
-169.9999
 30
0.0
 10
92.9769
 20
-170.0
 30
0.0
 10
92.9769
 20
-170.0
 30
0.0
 10
92.9769
 20
-170.0
 30
0.0
 10
92.9769
 20
-170.0
 30
0.0
 10
92.9769
 20
-176.0999
 30
0.0
 10
92.9769
 20
-176.0999
 30
0.0
 10
92.9769
 20
-176.0999
 30
0.0
 10
92.9769
 20
-176.0999
 30
0.0
 10
76.2538
 20
-176.0999
 30
0.0
 10
76.2538
 20
-176.0999
 30
0.0
 10
76.2538
 20
-176.0999
 30
0.0
 10
76.2538
 20
-176.0999
 30
0.0
 10
76.2538
 20
-170.0
 30
0.0
 10
76.2538
 20
-170.0
 30
0.0
 10
76.2538
 20
-170.0
 30
0.0
 10
76.2538
 20
-170.0
 30
0.0
 10
59.1307
 20
-170.0
 30
0.0
 10
59.1307
 20
-170.0
 30
0.0
 10
59.1307
 20
-170.0
 30
0.0
 10
59.1307
 20
-170.0
 30
0.0
 10
59.1307
 20
-176.0999
 30
0.0
 10
59.1307
 20
-176.0999
 30
0.0
 10
59.1307
 20
-176.0999
 30
0.0
 10
59.1307
 20
-176.0999
 30
0.0
 10
42.4076
 20
-176.0999
 30
0.0
 10
42.4076
 20
-176.0999
 30
0.0
 10
42.4076
 20
-176.0999
 30
0.0
 10
42.4076
 20
-176.0999
 30
0.0
 10
42.4076
 20
-170.0
 30
0.0
 10
42.4076
 20
-170.0
 30
0.0
 10
42.4076
 20
-170.0
 30
0.0
 10
42.4076
 20
-170.0
 30
0.0
 10
25.2846
 20
-170.0
 30
0.0
 10
25.2846
 20
-170.0
 30
0.0
 10
25.2846
 20
-170.0
 30
0.0
 10
25.2846
 20
-170.0
 30
0.0
 10
25.2846
 20
-176.0999
 30
0.0
 10
25.2846
 20
-176.0999
 30
0.0
 10
25.2846
 20
-176.0999
 30
0.0
 10
25.2846
 20
-176.0999
 30
0.0
 10
8.5615
 20
-176.0999
 30
0.0
 10
8.5615
 20
-176.0999
 30
0.0
 10
8.5615
 20
-176.0999
 30
0.0
 10
8.5615
 20
-176.0999
 30
0.0
 10
8.5615
 20
-170.0
 30
0.0
 10
8.5615
 20
-170.0
 30
0.0
 10
8.5615
 20
-170.0
 30
0.0
 10
8.5615
 20
-170.0
 30
0.0
 10
-8.5615
 20
-170.0
 30
0.0
 10
-8.5615
 20
-170.0
 30
0.0
 10
-8.5615
 20
-170.0
 30
0.0
 10
-8.5615
 20
-170.0
 30
0.0
 10
-8.5615
 20
-176.0999
 30
0.0
 10
-8.5615
 20
-176.0999
 30
0.0
 10
-8.5615
 20
-176.0999
 30
0.0
 10
-8.5615
 20
-176.0999
 30
0.0
 10
-25.2846
 20
-176.0999
 30
0.0
 10
-25.2846
 20
-176.0999
 30
0.0
 10
-25.2846
 20
-176.0999
 30
0.0
 10
-25.2846
 20
-176.0999
 30
0.0
 10
-25.2846
 20
-170.0
 30
0.0
 10
-25.2846
 20
-170.0
 30
0.0
 10
-25.2846
 20
-170.0
 30
0.0
 10
-25.2846
 20
-170.0
 30
0.0
 10
-42.4076
 20
-170.0
 30
0.0
 10
-42.4076
 20
-170.0
 30
0.0
 10
-42.4076
 20
-170.0
 30
0.0
 10
-42.4076
 20
-170.0
 30
0.0
 10
-42.4076
 20
-176.1
 30
0.0
 10
-42.4076
 20
-176.1
 30
0.0
 10
-42.4076
 20
-176.1
 30
0.0
 10
-42.4076
 20
-176.1
 30
0.0
 10
-59.1307
 20
-176.1
 30
0.0
 10
-59.1307
 20
-176.1
 30
0.0
 10
-59.1307
 20
-176.1
 30
0.0
 10
-59.1307
 20
-176.1
 30
0.0
 10
-59.1307
 20
-170.0
 30
0.0
 10
-59.1307
 20
-170.0
 30
0.0
 10
-59.1307
 20
-170.0
 30
0.0
 10
-59.1307
 20
-170.0
 30
0.0
 10
-76.2538
 20
-170.0
 30
0.0
 10
-76.2538
 20
-170.0
 30
0.0
 10
-76.2538
 20
-170.0
 30
0.0
 10
-76.2538
 20
-170.0
 30
0.0
 10
-76.2538
 20
-176.1
 30
0.0
 10
-76.2538
 20
-176.1
 30
0.0
 10
-76.2538
 20
-176.1
 30
0.0
 10
-76.2538
 20
-176.1
 30
0.0
 10
-92.9769
 20
-176.1
 30
0.0
 10
-92.9769
 20
-176.1
 30
0.0
 10
-92.9769
 20
-176.1
 30
0.0
 10
-92.9769
 20
-176.1
 30
0.0
 10
-92.9769
 20
-170.0
 30
0.0
 10
-92.9769
 20
-170.0
 30
0.0
 10
-92.9769
 20
-170.0
 30
0.0
 10
-92.9769
 20
-170.0
 30
0.0
 10
-109.9999
 20
-170.0
 30
0.0
 10
-109.9999
 20
-170.0
 30
0.0
 10
-109.9999
 20
-170.0
 30
0.0
 10
-109.9999
 20
-170.0
 30
0.0
 10
-109.9999
 20
-169.9
 30
0.0
 10
-109.9999
 20
-169.9
 30
0.0
 10
-109.9999
 20
-169.9
 30
0.0
 10
-109.9999
 20
-169.9
 30
0.0
 10
-116.0999
 20
-169.9
 30
0.0
 10
-116.0999
 20
-169.9
 30
0.0
 10
-116.0999
 20
-169.9
 30
0.0
 10
-116.0999
 20
-169.9
 30
0.0
 10
-116.0999
 20
-153.1
 30
0.0
 10
-116.0999
 20
-153.1
 30
0.0
 10
-116.0999
 20
-153.1
 30
0.0
 10
-116.0999
 20
-153.1
 30
0.0
 10
-109.9999
 20
-153.1
 30
0.0
 10
-109.9999
 20
-153.1
 30
0.0
 10
-109.9999
 20
-153.1
 30
0.0
 10
-109.9999
 20
-153.1
 30
0.0
 10
-109.9999
 20
-136.0
 30
0.0
 10
-109.9999
 20
-136.0
 30
0.0
 10
-109.9999
 20
-136.0
 30
0.0
 10
-109.9999
 20
-136.0
 30
0.0
 10
-116.0999
 20
-136.0
 30
0.0
 10
-116.0999
 20
-136.0
 30
0.0
 10
-116.0999
 20
-136.0
 30
0.0
 10
-116.0999
 20
-136.0
 30
0.0
 10
-116.0999
 20
-119.0
 30
0.0
 10
-116.0999
 20
-119.0
 30
0.0
 10
-116.0999
 20
-119.0
 30
0.0
 10
-116.0999
 20
-119.0
 30
0.0
 10
-109.9999
 20
-119.0
 30
0.0
 10
-109.9999
 20
-119.0
 30
0.0
 10
-109.9999
 20
-119.0
 30
0.0
 10
-109.9999
 20
-119.0
 30
0.0
 10
-109.9999
 20
-102.0
 30
0.0
 10
-109.9999
 20
-102.0
 30
0.0
 10
-109.9999
 20
-102.0
 30
0.0
 10
-109.9999
 20
-102.0
 30
0.0
 10
-116.0999
 20
-102.0
 30
0.0
 10
-116.0999
 20
-102.0
 30
0.0
 10
-116.0999
 20
-102.0
 30
0.0
 10
-116.0999
 20
-102.0
 30
0.0
 10
-116.0999
 20
-85.0
 30
0.0
 10
-116.0999
 20
-85.0
 30
0.0
 10
-116.0999
 20
-85.0
 30
0.0
 10
-116.0999
 20
-85.0
 30
0.0
 10
-109.9999
 20
-85.0
 30
0.0
 10
-109.9999
 20
-85.0
 30
0.0
 10
-109.9999
 20
-85.0
 30
0.0
 10
-109.9999
 20
-85.0
 30
0.0
 10
-109.9999
 20
-68.0
 30
0.0
 10
-109.9999
 20
-68.0
 30
0.0
 10
-109.9999
 20
-68.0
 30
0.0
 10
-109.9999
 20
-68.0
 30
0.0
 10
-116.0999
 20
-68.0
 30
0.0
 10
-116.0999
 20
-68.0
 30
0.0
 10
-116.0999
 20
-68.0
 30
0.0
 10
-116.0999
 20
-68.0
 30
0.0
 10
-116.0999
 20
-51.0
 30
0.0
 10
-116.0999
 20
-51.0
 30
0.0
 10
-116.0999
 20
-51.0
 30
0.0
 10
-116.0999
 20
-51.0
 30
0.0
 10
-109.9999
 20
-51.0
 30
0.0
 10
-109.9999
 20
-51.0
 30
0.0
 10
-109.9999
 20
-51.0
 30
0.0
 10
-109.9999
 20
-51.0
 30
0.0
 10
-109.9999
 20
-34.0
 30
0.0
 10
-109.9999
 20
-34.0
 30
0.0
 10
-109.9999
 20
-34.0
 30
0.0
 10
-109.9999
 20
-34.0
 30
0.0
 10
-116.0999
 20
-34.0
 30
0.0
 10
-116.0999
 20
-34.0
 30
0.0
 10
-116.0999
 20
-34.0
 30
0.0
 10
-116.0999
 20
-34.0
 30
0.0
 10
-116.0999
 20
-17.0
 30
0.0
 10
-116.0999
 20
-17.0
 30
0.0
 10
-116.0999
 20
-17.0
 30
0.0
 10
-116.0999
 20
-17.0
 30
0.0
 10
-109.9999
 20
-17.0
 30
0.0
 10
-109.9999
 20
-17.0
 30
0.0
 10
-109.9999
 20
-17.0
 30
0.0
 10
-109.9999
 20
-17.0
 30
0.0
 10
-110.0
 20
0.0
 30
0.0
 10
-110.0
 20
0.0
 30
0.0
 10
-110.0
 20
0.0
 30
0.0
 10
-110.0
 20
0.0
 30
0.0
 10
-116.1
 20
0.0
 30
0.0
 10
-116.1
 20
0.0
 30
0.0
 10
-116.1
 20
0.0
 30
0.0
 10
-116.1
 20
0.0
 30
0.0
 10
-116.1
 20
16.9999
 30
0.0
 10
-116.1
 20
16.9999
 30
0.0
 10
-116.1
 20
16.9999
 30
0.0
 10
-116.1
 20
16.9999
 30
0.0
 10
-110.0
 20
16.9999
 30
0.0
 10
-110.0
 20
16.9999
 30
0.0
 10
-110.0
 20
16.9999
 30
0.0
 10
-110.0
 20
16.9999
 30
0.0
 10
-110.0
 20
33.9999
 30
0.0
 10
-110.0
 20
33.9999
 30
0.0
 10
-110.0
 20
33.9999
 30
0.0
 10
-110.0
 20
33.9999
 30
0.0
 10
-116.1
 20
33.9999
 30
0.0
 10
-116.1
 20
33.9999
 30
0.0
 10
-116.1
 20
33.9999
 30
0.0
 10
-116.1
 20
33.9999
 30
0.0
 10
-116.1
 20
50.9999
 30
0.0
 10
-116.1
 20
50.9999
 30
0.0
 10
-116.1
 20
50.9999
 30
0.0
 10
-116.1
 20
50.9999
 30
0.0
 10
-110.0
 20
50.9999
 30
0.0
 10
-110.0
 20
50.9999
 30
0.0
 10
-110.0
 20
50.9999
 30
0.0
 10
-110.0
 20
50.9999
 30
0.0
 10
-110.0
 20
67.9999
 30
0.0
 10
-110.0
 20
67.9999
 30
0.0
 10
-110.0
 20
67.9999
 30
0.0
 10
-110.0
 20
67.9999
 30
0.0
 10
-116.1
 20
67.9999
 30
0.0
 10
-116.1
 20
67.9999
 30
0.0
 10
-116.1
 20
67.9999
 30
0.0
 10
-116.1
 20
67.9999
 30
0.0
 10
-116.1
 20
84.9999
 30
0.0
 10
-116.1
 20
84.9999
 30
0.0
 10
-116.1
 20
84.9999
 30
0.0
 10
-116.1
 20
84.9999
 30
0.0
 10
-110.0
 20
84.9999
 30
0.0
 10
-110.0
 20
84.9999
 30
0.0
 10
-110.0
 20
84.9999
 30
0.0
 10
-110.0
 20
84.9999
 30
0.0
 10
-110.0
 20
101.9999
 30
0.0
 10
-110.0
 20
101.9999
 30
0.0
 10
-110.0
 20
101.9999
 30
0.0
 10
-110.0
 20
101.9999
 30
0.0
 10
-116.1
 20
101.9999
 30
0.0
 10
-116.1
 20
101.9999
 30
0.0
 10
-116.1
 20
101.9999
 30
0.0
 10
-116.1
 20
101.9999
 30
0.0
 10
-116.1
 20
118.9999
 30
0.0
 10
-116.1
 20
118.9999
 30
0.0
 10
-116.1
 20
118.9999
 30
0.0
 10
-116.1
 20
118.9999
 30
0.0
 10
-110.0
 20
118.9999
 30
0.0
 10
-110.0
 20
118.9999
 30
0.0
 10
-110.0
 20
118.9999
 30
0.0
 10
-110.0
 20
118.9999
 30
0.0
 10
-110.0
 20
135.9999
 30
0.0
 10
-110.0
 20
135.9999
 30
0.0
 10
-110.0
 20
135.9999
 30
0.0
 10
-110.0
 20
135.9999
 30
0.0
 10
-116.1
 20
135.9999
 30
0.0
 10
-116.1
 20
135.9999
 30
0.0
 10
-116.1
 20
135.9999
 30
0.0
 10
-116.1
 20
135.9999
 30
0.0
 10
-116.1
 20
152.9999
 30
0.0
 10
-116.1
 20
152.9999
 30
0.0
 10
-116.1
 20
152.9999
 30
0.0
 10
-116.1
 20
152.9999
 30
0.0
 10
-110.0
 20
152.9999
 30
0.0
 10
-110.0
 20
152.9999
 30
0.0
 10
-110.0
 20
152.9999
 30
0.0
 10
-110.0
 20
152.9999
 30
0.0
 10
-110.0
 20
169.9999
 30
0.0
 10
-110.0
 20
169.9999
 30
0.0
 10
-110.0
 20
169.9999
 30
0.0
 10
-110.0
 20
169.9999
 30
0.0
 10
-92.9769
 20
169.9999
 30
0.0
 10
-92.9769
 20
169.9999
 30
0.0
 10
-92.9769
 20
169.9999
 30
0.0
 10
-92.9769
 20
169.9999
 30
0.0
 10
-92.9769
 20
176.0999
 30
0.0
 10
-92.9769
 20
176.0999
 30
0.0
 10
-92.9769
 20
176.0999
 30
0.0
 10
-92.9769
 20
176.0999
 30
0.0
 10
-76.2538
 20
176.0999
 30
0.0
 10
-76.2538
 20
176.0999
 30
0.0
 10
-76.2538
 20
176.0999
 30
0.0
 10
-76.2538
 20
176.0999
 30
0.0
 10
-76.2538
 20
169.9999
 30
0.0
 10
-76.2538
 20
169.9999
 30
0.0
 10
-76.2538
 20
169.9999
 30
0.0
 10
-76.2538
 20
169.9999
 30
0.0
 10
-59.1307
 20
169.9999
 30
0.0
 10
-59.1307
 20
169.9999
 30
0.0
 10
-59.1307
 20
169.9999
 30
0.0
 10
-59.1307
 20
169.9999
 30
0.0
 10
-59.1307
 20
176.0999
 30
0.0
 10
-59.1307
 20
176.0999
 30
0.0
 10
-59.1307
 20
176.0999
 30
0.0
 10
-59.1307
 20
176.0999
 30
0.0
 10
-42.4076
 20
176.0999
 30
0.0
 10
-42.4076
 20
176.0999
 30
0.0
 10
-42.4076
 20
176.0999
 30
0.0
 10
-42.4076
 20
176.0999
 30
0.0
 10
-42.4076
 20
169.9999
 30
0.0
 10
-42.4076
 20
169.9999
 30
0.0
 10
-42.4076
 20
169.9999
 30
0.0
 10
-42.4076
 20
169.9999
 30
0.0
 10
-25.2846
 20
169.9999
 30
0.0
 10
-25.2846
 20
169.9999
 30
0.0
 10
-25.2846
 20
169.9999
 30
0.0
 10
-25.2846
 20
169.9999
 30
0.0
 10
-25.2846
 20
176.0999
 30
0.0
 10
-25.2846
 20
176.0999
 30
0.0
 10
-25.2846
 20
176.0999
 30
0.0
 10
-25.2846
 20
176.0999
 30
0.0
 10
-8.5615
 20
176.0999
 30
0.0
 10
-8.5615
 20
176.0999
 30
0.0
 10
-8.5615
 20
176.0999
 30
0.0
 10
-8.5615
 20
176.0999
 30
0.0
 10
-8.5615
 20
169.9999
 30
0.0
 10
-8.5615
 20
169.9999
 30
0.0
 10
-8.5615
 20
169.9999
 30
0.0
 10
-8.5615
 20
169.9999
 30
0.0
 10
8.5615
 20
169.9999
 30
0.0
 10
8.5615
 20
169.9999
 30
0.0
 10
8.5615
 20
169.9999
 30
0.0
 10
8.5615
 20
169.9999
 30
0.0
 10
8.5615
 20
176.0999
 30
0.0
 10
8.5615
 20
176.0999
 30
0.0
 10
8.5615
 20
176.0999
 30
0.0
 10
8.5615
 20
176.0999
 30
0.0
 10
25.2846
 20
176.0999
 30
0.0
 10
25.2846
 20
176.0999
 30
0.0
 10
25.2846
 20
176.0999
 30
0.0
 10
25.2846
 20
176.0999
 30
0.0
 10
25.2846
 20
169.9999
 30
0.0
 10
25.2846
 20
169.9999
 30
0.0
 10
25.2846
 20
169.9999
 30
0.0
 10
25.2846
 20
169.9999
 30
0.0
 10
42.4076
 20
169.9999
 30
0.0
 10
42.4076
 20
169.9999
 30
0.0
 10
42.4076
 20
169.9999
 30
0.0
 10
42.4076
 20
169.9999
 30
0.0
 10
42.4076
 20
176.0999
 30
0.0
 10
42.4076
 20
176.0999
 30
0.0
 10
42.4076
 20
176.0999
 30
0.0
 10
42.4076
 20
176.0999
 30
0.0
 10
59.1307
 20
176.0999
 30
0.0
 10
59.1307
 20
176.0999
 30
0.0
 10
59.1307
 20
176.0999
 30
0.0
 10
59.1307
 20
176.0999
 30
0.0
 10
59.1307
 20
169.9999
 30
0.0
 10
59.1307
 20
169.9999
 30
0.0
 10
59.1307
 20
169.9999
 30
0.0
 10
59.1307
 20
169.9999
 30
0.0
 10
76.2538
 20
169.9999
 30
0.0
 10
76.2538
 20
169.9999
 30
0.0
 10
76.2538
 20
169.9999
 30
0.0
 10
76.2538
 20
169.9999
 30
0.0
 10
76.2538
 20
176.0999
 30
0.0
 10
76.2538
 20
176.0999
 30
0.0
 10
76.2538
 20
176.0999
 30
0.0
 10
76.2538
 20
176.0999
 30
0.0
 10
92.9769
 20
176.0999
 30
0.0
 10
92.9769
 20
176.0999
 30
0.0
 10
92.9769
 20
176.0999
 30
0.0
 10
92.9769
 20
176.0999
 30
0.0
 10
92.9769
 20
169.9999
 30
0.0
 10
92.9769
 20
169.9999
 30
0.0
  0
ENDSEC
  0
SECTION
  2
OBJECTS
  0
DICTIONARY
  5
C
330
0
100
AcDbDictionary
  3
ACAD_GROUP
350
D
  3
ACAD_LAYOUT
350
1A
  3
ACAD_MATERIAL
350
3B
  3
ACAD_MLEADERSTYLE
350
77
  3
ACAD_MLINESTYLE
350
17
  3
ACAD_PLOTSETTINGS
350
19
  3
ACAD_VISUALSTYLE
350
2A
  3
ACDBVARIABLEDICTIONARY
350
75
1001
ACAD
1000
TREAT_AS_HARD
1070
     0
  0
DICTIONARY
  5
D
102
{ACAD_REACTORS
330
C
102
}
330
C
100
AcDbDictionary
1001
ACAD
1000
TREAT_AS_HARD
1070
     0
  0
DICTIONARY
  5
1A
102
{ACAD_REACTORS
330
C
102
}
330
C
100
AcDbDictionary
1001
ACAD
1000
TREAT_AS_HARD
1070
     0
  0
DICTIONARY
  5
3B
102
{ACAD_REACTORS
330
C
102
}
330
C
100
AcDbDictionary
  3
BYBLOCK
350
3D
  3
BYLAYER
350
3C
  3
GLOBAL
350
3E
1001
ACAD
1000
TREAT_AS_HARD
1070
     0
  0
DICTIONARY
  5
77
102
{ACAD_REACTORS
330
C
102
}
330
C
100
AcDbDictionary
1001
ACAD
1000
TREAT_AS_HARD
1070
     0
  0
DICTIONARY
  5
17
102
{ACAD_REACTORS
330
C
102
}
330
C
100
AcDbDictionary
  3
STANDARD
350
18
1001
ACAD
1000
TREAT_AS_HARD
1070
     0
  0
DICTIONARY
  5
19
102
{ACAD_REACTORS
330
C
102
}
330
C
100
AcDbDictionary
1001
ACAD
1000
TREAT_AS_HARD
1070
     0
  0
DICTIONARY
  5
2A
102
{ACAD_REACTORS
330
C
102
}
330
C
100
AcDbDictionary
  3
2DWIREFRAME
350
2F
  3
3D_HIDDEN
350
31
  3
3DWIREFRAME
350
30
  3
BASIC
350
32
  3
BRIGHTEN
350
36
  3
COLORCHANGE
350
3A
  3
CONCEPTUAL
350
34
  3
DIM
350
35
  3
FACEPATTERN
350
39
  3
FLAT
350
2B
  3
FLATWITHEDGES
350
2C
  3
GOURAUD
350
2D
  3
GOURAUDWITHEDGES
350
2E
  3
LINEPATTERN
350
38
  3
REALISTIC
350
33
  3
THICKEN
350
37
1001
ACAD
1000
TREAT_AS_HARD
1070
     0
  0
DICTIONARY
  5
75
102
{ACAD_REACTORS
330
C
102
}
330
C
100
AcDbDictionary
  3
DIMASSOC
350
78
  3
HIDETEXT
350
79
1001
ACAD
1000
TREAT_AS_HARD
1070
     0
  0
MATERIAL
  5
3D
102
{ACAD_REACTORS
330
3B
102
}
102
{ACAD_XDICTIONARY
360
7C
102
}
330
3B
100
AcDbMaterial
  1
ByBlock
  0
MATERIAL
  5
3C
102
{ACAD_REACTORS
330
3B
102
}
102
{ACAD_XDICTIONARY
360
7A
102
}
330
3B
100
AcDbMaterial
  1
ByLayer
  0
MATERIAL
  5
3E
102
{ACAD_REACTORS
330
3B
102
}
102
{ACAD_XDICTIONARY
360
7E
102
}
330
3B
100
AcDbMaterial
  1
Global
  0
MLINESTYLE
  5
18
102
{ACAD_REACTORS
330
17
102
}
330
17
100
AcDbMlineStyle
  2
Standard
 70
     0
  3

 62
   256
 51
90.0
 52
90.0
 71
     2
 49
0.5
 62
   256
  6
BYLAYER
 49
-0.5
 62
   256
  6
BYLAYER
  0
ACAD_PROXY_OBJECT
  5
2F
102
{ACAD_REACTORS
330
2A
102
}
330
2A
100
AcDbZombieObject
 90
      499
 91
      501
 93
      436
310
42CC9915DA5C99599C985B595049028333333333333E3BF0000000000000FB0107901411070040501600405405064090741402480A0340
1001
ACAD
1000
AcDbSavedByObjectVersion
1070
     0
  0
ACAD_PROXY_OBJECT
  5
31
102
{ACAD_REACTORS
330
2A
102
}
330
2A
100
AcDbZombieObject
 90
      499
 91
      501
 93
      500
310
424CD108121A5919195B90640502408333333333333E3BF0000000000000FB01079024090700405020000000000001110200405405064090740C02480A0340
1001
ACAD
1000
AcDbSavedByObjectVersion
1070
     0
  0
ACAD_PROXY_OBJECT
  5
30
102
{ACAD_REACTORS
330
2A
102
}
330
2A
100
AcDbZombieObject
 90
      499
 91
      501
 93
      436
310
42CCD915DA5C99599C985B595059028333333333333E3BF0000000000000FB0107901411070040501600405405064090741402480A0340
1001
ACAD
1000
AcDbSavedByObjectVersion
1070
     0
  0
ACAD_PROXY_OBJECT
  5
32
102
{ACAD_REACTORS
330
2A
102
}
330
2A
100
AcDbZombieObject
 90
      499
 91
      501
 93
      388
310
4150985CDA58D07406404333333333333E3BF0000000000000FB0107A41107004050150841D405064090741402480A0350
1001
ACAD
1000
AcDbSavedByObjectVersion
1070
     0
  0
ACAD_PROXY_OBJECT
  5
36
102
{ACAD_REACTORS
330
2A
102
}
330
2A
100
AcDbZombieObject
 90
      499
 91
      501
 93
      428
310
42109C9A59DA1D195B90C409028333333333333E3BF0000000000000FB010790141107004050150841D405064090741402480A029950
1001
ACAD
1000
AcDbSavedByObjectVersion
1070
     0
  0
ACAD_PROXY_OBJECT
  5
3A
102
{ACAD_REACTORS
330
2A
102
}
330
2A
100
AcDbZombieObject
 90
      499
 91
      501
 93
      452
310
42D0DBDB1BDC90DA185B99D95104090240C333333333333E3BF0000000000000FB0108901411070040501508421405064090741402480A0350
1001
ACAD
1000
AcDbSavedByObjectVersion
1070
     0
  0
ACAD_PROXY_OBJECT
  5
34
102
{ACAD_REACTORS
330
2A
102
}
330
2A
100
AcDbZombieObject
 90
      499
 91
      501
 93
      500
310
4290DBDB98D95C1D1D585B10940D028333333333333E3BF0000000000000FB0107902409070040501000000000000111010841D405064090740C02480A0340
1001
ACAD
1000
AcDbSavedByObjectVersion
1070
     0
  0
ACAD_PROXY_OBJECT
  5
35
102
{ACAD_REACTORS
330
2A
102
}
330
2A
100
AcDbZombieObject
 90
      499
 91
      501
 93
      412
310
40D11A5B50B409028333333333333E3BF0000000000000FB010790141107004050150841D405064090741402480A02677FFFFFD0
1001
ACAD
1000
AcDbSavedByObjectVersion
1070
     0
  0
ACAD_PROXY_OBJECT
  5
39
102
{ACAD_REACTORS
330
2A
102
}
330
2A
100
AcDbZombieObject
 90
      499
 91
      501
 93
      444
310
42D19858D95C185D1D195C9B90F409028333333333333E3BF0000000000000FB010790141107004050150841D405064090741402480A0350
1001
ACAD
1000
AcDbSavedByObjectVersion
1070
     0
  0
ACAD_PROXY_OBJECT
  5
2B
102
{ACAD_REACTORS
330
2A
102
}
330
2A
100
AcDbZombieObject
 90
      499
 91
      501
 93
      388
310
41119B185D240901404333333333333E3BF0000000000000F9010740A41107004050150841D405064090741402480A1B50
1001
ACAD
1000
AcDbSavedByObjectVersion
1070
     0
  0
ACAD_PROXY_OBJECT
  5
2C
102
{ACAD_REACTORS
330
2A
102
}
330
2A
100
AcDbZombieObject
 90
      499
 91
      501
 93
      476
310
43519B185D15DA5D1A115919D95CD0140901404333333333333E3BF0000000000000F9010740901411070040501600405405064090741402480A1B50
1001
ACAD
1000
AcDbSavedByObjectVersion
1070
     0
  0
ACAD_PROXY_OBJECT
  5
2D
102
{ACAD_REACTORS
330
2A
102
}
330
2A
100
AcDbZombieObject
 90
      499
 91
      501
 93
      412
310
41D1DBDD5C985D5910240902404333333333333E3BF0000000000000F9010740A411070040501641D405064090741402480A1B50
1001
ACAD
1000
AcDbSavedByObjectVersion
1070
     0
  0
ACAD_PROXY_OBJECT
  5
2E
102
{ACAD_REACTORS
330
2A
102
}
330
2A
100
AcDbZombieObject
 90
      499
 91
      501
 93
      500
310
4411DBDD5C985D5915DA5D1A115919D95CD0340902404333333333333E3BF0000000000000F9010740901411070040501600405405064090741402480A1B50
1001
ACAD
1000
AcDbSavedByObjectVersion
1070
     0
  0
ACAD_PROXY_OBJECT
  5
38
102
{ACAD_REACTORS
330
2A
102
}
330
2A
100
AcDbZombieObject
 90
      499
 91
      501
 93
      444
310
42D31A5B995C185D1D195C9B90E409028333333333333E3BF0000000000000FB010790141107004050750841D405064090741402483A0350
1001
ACAD
1000
AcDbSavedByObjectVersion
1070
     0
  0
ACAD_PROXY_OBJECT
  5
33
102
{ACAD_REACTORS
330
2A
102
}
330
2A
100
AcDbZombieObject
 90
      499
 91
      501
 93
      420
310
425499585B1A5CDD1A58D08409028333333333333E3BF0000000000000FB01079019070040501508421405064090741402480A1B40
1001
ACAD
1000
AcDbSavedByObjectVersion
1070
     0
  0
ACAD_PROXY_OBJECT
  5
37
102
{ACAD_REACTORS
330
2A
102
}
330
2A
100
AcDbZombieObject
 90
      499
 91
      501
 93
      412
310
41D51A1A58DAD95B90D409028333333333333E3BF0000000000000FB010790141107004050150C41D405064090741402480A0350
1001
ACAD
1000
AcDbSavedByObjectVersion
1070
     0
  0
DICTIONARYVAR
  5
78
102
{ACAD_REACTORS
330
75
102
}
330
75
100
DictionaryVariables
280
     0
  1
2
  0
DICTIONARYVAR
  5
79
102
{ACAD_REACTORS
330
75
102
}
330
75
100
DictionaryVariables
280
     0
  1
1
  0
DICTIONARY
  5
7C
330
3D
100
AcDbDictionary
  3
ACAD_XREC_ROUNDTRIP
360
7D
1001
ACAD
1000
TREAT_AS_HARD
1070
     1
  0
DICTIONARY
  5
7A
330
3C
100
AcDbDictionary
  3
ACAD_XREC_ROUNDTRIP
360
7B
1001
ACAD
1000
TREAT_AS_HARD
1070
     1
  0
DICTIONARY
  5
7E
330
3E
100
AcDbDictionary
  3
ACAD_XREC_ROUNDTRIP
360
7F
1001
ACAD
1000
TREAT_AS_HARD
1070
     1
  0
XRECORD
  5
7D
102
{ACAD_REACTORS
330
7C
102
}
330
7C
100
AcDbXrecord
102
MATERIAL
148
0.0
149
0.0
149
0.0
 93
        0
 94
      127
282
     0
 72
     1
 77
     1
171
     1
175
     1
179
     1
273
     0
  0
XRECORD
  5
7B
102
{ACAD_REACTORS
330
7A
102
}
330
7A
100
AcDbXrecord
102
MATERIAL
148
0.0
149
0.0
149
0.0
 93
        0
 94
      127
282
     0
 72
     1
 77
     1
171
     1
175
     1
179
     1
273
     0
  0
XRECORD
  5
7F
102
{ACAD_REACTORS
330
7E
102
}
330
7E
100
AcDbXrecord
102
MATERIAL
148
0.0
149
0.0
149
0.0
 93
        0
 94
      127
282
     0
 72
     1
 77
     1
171
     1
175
     1
179
     1
273
     0
  0
ENDSEC
  0
EOF
