  0
SECTION
  2
HEADER
  9
$ACADVER
  1
AC1012
  9
$DWGCODEPAGE
  3
ansi_1252
  9
$INSBASE
 10
0.0
 20
0.0
 30
0.0
  9
$EXTMIN
 10
-36.8842
 20
-39.8842
 30
0.0
  9
$EXTMAX
 10
36.8842
 20
39.8842
 30
0.0
  9
$LIMMIN
 10
0.0
 20
0.0
  9
$LIMMAX
 10
12.0
 20
9.0
  9
$ORTHOMODE
 70
     0
  9
$REGENMODE
 70
     1
  9
$FILLMODE
 70
     1
  9
$QTEXTMODE
 70
     0
  9
$MIRRTEXT
 70
     1
  9
$DRAGMODE
 70
     2
  9
$LTSCALE
 40
1.0
  9
$OSMODE
 70
    37
  9
$ATTMODE
 70
     1
  9
$TEXTSIZE
 40
0.2
  9
$TRACEWID
 40
0.05
  9
$TEXTSTYLE
  7
STANDARD
  9
$CLAYER
  8
0
  9
$CELTYPE
  6
BYLAYER
  9
$CECOLOR
 62
   256
  9
$CELTSCALE
 40
1.0
  9
$DELOBJ
 70
     1
  9
$DISPSILH
 70
     0
  9
$DIMSCALE
 40
1.0
  9
$DIMASZ
 40
0.18
  9
$DIMEXO
 40
0.0625
  9
$DIMDLI
 40
0.38
  9
$DIMRND
 40
0.0
  9
$DIMDLE
 40
0.0
  9
$DIMEXE
 40
0.18
  9
$DIMTP
 40
0.0
  9
$DIMTM
 40
0.0
  9
$DIMTXT
 40
0.18
  9
$DIMCEN
 40
0.09
  9
$DIMTSZ
 40
0.0
  9
$DIMTOL
 70
     0
  9
$DIMLIM
 70
     0
  9
$DIMTIH
 70
     1
  9
$DIMTOH
 70
     1
  9
$DIMSE1
 70
     0
  9
$DIMSE2
 70
     0
  9
$DIMTAD
 70
     0
  9
$DIMZIN
 70
     0
  9
$DIMBLK
  1

  9
$DIMASO
 70
     1
  9
$DIMSHO
 70
     1
  9
$DIMPOST
  1

  9
$DIMAPOST
  1

  9
$DIMALT
 70
     0
  9
$DIMALTD
 70
     2
  9
$DIMALTF
 40
25.4
  9
$DIMLFAC
 40
1.0
  9
$DIMTOFL
 70
     0
  9
$DIMTVP
 40
0.0
  9
$DIMTIX
 70
     0
  9
$DIMSOXD
 70
     0
  9
$DIMSAH
 70
     0
  9
$DIMBLK1
  1

  9
$DIMBLK2
  1

  9
$DIMSTYLE
  2
STANDARD
  9
$DIMCLRD
 70
     0
  9
$DIMCLRE
 70
     0
  9
$DIMCLRT
 70
     0
  9
$DIMTFAC
 40
1.0
  9
$DIMGAP
 40
0.09
  9
$DIMJUST
 70
     0
  9
$DIMSD1
 70
     0
  9
$DIMSD2
 70
     0
  9
$DIMTOLJ
 70
     1
  9
$DIMTZIN
 70
     0
  9
$DIMALTZ
 70
     0
  9
$DIMALTTZ
 70
     0
  9
$DIMFIT
 70
     3
  9
$DIMUPT
 70
     0
  9
$DIMUNIT
 70
     2
  9
$DIMDEC
 70
     4
  9
$DIMTDEC
 70
     4
  9
$DIMALTU
 70
     2
  9
$DIMALTTD
 70
     2
  9
$DIMTXSTY
  7
STANDARD
  9
$DIMAUNIT
 70
     0
  9
$LUNITS
 70
     2
  9
$LUPREC
 70
     4
  9
$SKETCHINC
 40
0.1
  9
$FILLETRAD
 40
0.5
  9
$AUNITS
 70
     0
  9
$AUPREC
 70
     0
  9
$MENU
  1
.
  9
$ELEVATION
 40
0.0
  9
$PELEVATION
 40
0.0
  9
$THICKNESS
 40
0.0
  9
$LIMCHECK
 70
     0
  9
$CHAMFERA
 40
0.5
  9
$CHAMFERB
 40
0.5
  9
$CHAMFERC
 40
1.0
  9
$CHAMFERD
 40
0.0
  9
$SKPOLY
 70
     0
  9
$TDCREATE
 40
2457568.693564606
  9
$TDUPDATE
 40
2457568.693564618
  9
$TDINDWG
 40
0.0000000116
  9
$TDUSRTIMER
 40
0.0000000116
  9
$USRTIMER
 70
     1
  9
$ANGBASE
 50
0.0
  9
$ANGDIR
 70
     0
  9
$PDMODE
 70
     0
  9
$PDSIZE
 40
0.0
  9
$PLINEWID
 40
0.0
  9
$COORDS
 70
     1
  9
$SPLFRAME
 70
     0
  9
$SPLINETYPE
 70
     6
  9
$SPLINESEGS
 70
     8
  9
$ATTDIA
 70
     0
  9
$ATTREQ
 70
     1
  9
$HANDLING
 70
     1
  9
$HANDSEED
  5
5F
  9
$SURFTAB1
 70
     6
  9
$SURFTAB2
 70
     6
  9
$SURFTYPE
 70
     6
  9
$SURFU
 70
     6
  9
$SURFV
 70
     6
  9
$UCSNAME
  2

  9
$UCSORG
 10
0.0
 20
0.0
 30
0.0
  9
$UCSXDIR
 10
1.0
 20
0.0
 30
0.0
  9
$UCSYDIR
 10
0.0
 20
1.0
 30
0.0
  9
$PUCSNAME
  2

  9
$PUCSORG
 10
0.0
 20
0.0
 30
0.0
  9
$PUCSXDIR
 10
1.0
 20
0.0
 30
0.0
  9
$PUCSYDIR
 10
0.0
 20
1.0
 30
0.0
  9
$USERI1
 70
     0
  9
$USERI2
 70
     0
  9
$USERI3
 70
     0
  9
$USERI4
 70
     0
  9
$USERI5
 70
     0
  9
$USERR1
 40
0.0
  9
$USERR2
 40
0.0
  9
$USERR3
 40
0.0
  9
$USERR4
 40
0.0
  9
$USERR5
 40
0.0
  9
$WORLDVIEW
 70
     1
  9
$SHADEDGE
 70
     3
  9
$SHADEDIF
 70
    70
  9
$TILEMODE
 70
     1
  9
$MAXACTVP
 70
    64
  9
$PINSBASE
 10
0.0
 20
0.0
 30
0.0
  9
$PLIMCHECK
 70
     0
  9
$PEXTMIN
 10
1.000000000000000E+20
 20
1.000000000000000E+20
 30
1.000000000000000E+20
  9
$PEXTMAX
 10
-1.000000000000000E+20
 20
-1.000000000000000E+20
 30
-1.000000000000000E+20
  9
$PLIMMIN
 10
0.0
 20
0.0
  9
$PLIMMAX
 10
12.0
 20
9.0
  9
$UNITMODE
 70
     0
  9
$VISRETAIN
 70
     1
  9
$PLINEGEN
 70
     0
  9
$PSLTSCALE
 70
     1
  9
$TREEDEPTH
 70
  3020
  9
$PICKSTYLE
 70
     1
  9
$CMLSTYLE
  2
STANDARD
  9
$CMLJUST
 70
     0
  9
$CMLSCALE
 40
1.0
  9
$SAVEIMAGES
 70
     1
  0
ENDSEC
  0
SECTION
  2
CLASSES
  0
CLASS
  1
ACDBDICTIONARYWDFLT
  2
AcDbDictionaryWithDefault
  3
ObjectDBX Classes
 90
    32768
280
     0
281
     0
  0
CLASS
  1
VISUALSTYLE
  2
AcDbVisualStyle
  3
ObjectDBX Classes
 90
     4095
280
     0
281
     0
  0
CLASS
  1
MATERIAL
  2
AcDbMaterial
  3
ObjectDBX Classes
 90
     1153
280
     0
281
     0
  0
CLASS
  1
DICTIONARYVAR
  2
AcDbDictionaryVar
  3
ObjectDBX Classes
 90
        0
280
     0
281
     0
  0
CLASS
  1
XRECORD
  2
AcDbXrecord
  3
AutoCAD 2000
 90
    32768
280
     0
281
     0
  0
CLASS
  1
LWPOLYLINE
  2
AcDbPolyline
  3
AutoCAD 2000
 90
    32768
280
     0
281
     1
  0
CLASS
  1
HATCH
  2
AcDbHatch
  3
AutoCAD 2000
 90
    32768
280
     0
281
     1
  0
CLASS
  1
ACDBPLACEHOLDER
  2
AcDbPlaceHolder
  3
ObjectDBX Classes
 90
        0
280
     0
281
     0
  0
CLASS
  1
LAYOUT
  2
AcDbLayout
  3
ObjectDBX Classes
 90
        0
280
     0
281
     0
  0
ENDSEC
  0
SECTION
  2
TABLES
  0
TABLE
  2
VPORT
  5
8
330
0
100
AcDbSymbolTable
 70
     1
  0
VPORT
  5
29
330
8
100
AcDbSymbolTableRecord
100
AcDbViewportTableRecord
  2
*ACTIVE
 70
     0
 10
0.0
 20
0.0
 11
1.0
 21
1.0
 12
10.42990654205607
 22
4.5
 13
0.0
 23
0.0
 14
0.5
 24
0.5
 15
0.5
 25
0.5
 16
0.0
 26
0.0
 36
1.0
 17
0.0
 27
0.0
 37
0.0
 40
9.0
 41
1.972972972850329
 42
50.0
 43
0.0
 44
0.0
 50
0.0
 51
0.0
 71
     0
 72
   100
 73
     1
 74
     3
 75
     0
 76
     0
 77
     0
 78
     0
  0
ENDTAB
  0
TABLE
  2
LTYPE
  5
5
330
0
100
AcDbSymbolTable
 70
     1
  0
LTYPE
  5
14
330
5
100
AcDbSymbolTableRecord
100
AcDbLinetypeTableRecord
  2
BYBLOCK
 70
     0
  3

 72
    65
 73
     0
 40
0.0
  0
LTYPE
  5
15
330
5
100
AcDbSymbolTableRecord
100
AcDbLinetypeTableRecord
  2
BYLAYER
 70
     0
  3

 72
    65
 73
     0
 40
0.0
  0
LTYPE
  5
16
330
5
100
AcDbSymbolTableRecord
100
AcDbLinetypeTableRecord
  2
CONTINUOUS
 70
     0
  3
Solid line
 72
    65
 73
     0
 40
0.0
  0
ENDTAB
  0
TABLE
  2
LAYER
  5
2
330
0
100
AcDbSymbolTable
 70
     1
  0
LAYER
  5
10
330
2
100
AcDbSymbolTableRecord
100
AcDbLayerTableRecord
  2
0
 70
     0
 62
     7
  6
CONTINUOUS
  0
ENDTAB
  0
TABLE
  2
STYLE
  5
3
330
0
100
AcDbSymbolTable
 70
     1
  0
STYLE
  5
11
330
3
100
AcDbSymbolTableRecord
100
AcDbTextStyleTableRecord
  2
STANDARD
 70
     0
 40
0.0
 41
1.0
 50
0.0
 71
     0
 42
0.2
  3
txt
  4

  0
ENDTAB
  0
TABLE
  2
VIEW
  5
6
330
0
100
AcDbSymbolTable
 70
     0
  0
ENDTAB
  0
TABLE
  2
UCS
  5
7
330
0
100
AcDbSymbolTable
 70
     0
  0
ENDTAB
  0
TABLE
  2
APPID
  5
9
330
0
100
AcDbSymbolTable
 70
     2
  0
APPID
  5
12
330
9
100
AcDbSymbolTableRecord
100
AcDbRegAppTableRecord
  2
ACAD
 70
     0
  0
APPID
  5
3F
330
9
100
AcDbSymbolTableRecord
100
AcDbRegAppTableRecord
  2
ODA
 70
     0
  0
ENDTAB
  0
TABLE
  2
DIMSTYLE
  5
A
330
0
100
AcDbSymbolTable
 70
     1
  0
DIMSTYLE
105
27
330
A
100
AcDbSymbolTableRecord
100
AcDbDimStyleTableRecord
  2
STANDARD
 70
     0
  3

  4

  5

  6

  7

 40
1.0
 41
0.18
 42
0.0625
 43
0.38
 44
0.18
 45
0.0
 46
0.0
 47
0.0
 48
0.0
140
0.18
141
0.09
142
0.0
143
25.4
144
1.0
145
0.0
146
1.0
147
0.09
 71
     0
 72
     0
 73
     1
 74
     1
 75
     0
 76
     0
 77
     0
 78
     0
170
     0
171
     2
172
     0
173
     0
174
     0
175
     0
176
     0
177
     0
178
     0
270
     2
271
     4
272
     4
273
     2
274
     2
340
11
275
     0
280
     0
281
     0
282
     0
283
     1
284
     0
285
     0
286
     0
287
     3
288
     0
  0
ENDTAB
  0
TABLE
  2
BLOCK_RECORD
  5
1
330
0
100
AcDbSymbolTable
 70
     1
  0
BLOCK_RECORD
  5
1F
330
1
100
AcDbSymbolTableRecord
100
AcDbBlockTableRecord
  2
*MODEL_SPACE
  0
BLOCK_RECORD
  5
1B
330
1
100
AcDbSymbolTableRecord
100
AcDbBlockTableRecord
  2
*PAPER_SPACE
  0
ENDTAB
  0
ENDSEC
  0
SECTION
  2
BLOCKS
  0
BLOCK
  5
20
330
1F
100
AcDbEntity
  8
0
100
AcDbBlockBegin
  2
*MODEL_SPACE
 70
     0
 10
0.0
 20
0.0
 30
0.0
  3
*MODEL_SPACE
  1

  0
ENDBLK
  5
21
330
1F
100
AcDbEntity
  8
0
100
AcDbBlockEnd
  0
BLOCK
  5
1C
330
1B
100
AcDbEntity
 67
     1
  8
0
100
AcDbBlockBegin
  2
*PAPER_SPACE
 70
     0
 10
0.0
 20
0.0
 30
0.0
  3
*PAPER_SPACE
  1

  0
ENDBLK
  5
1D
330
1B
100
AcDbEntity
 67
     1
  8
0
100
AcDbBlockEnd
  0
ENDSEC
  0
SECTION
  2
ENTITIES
  0
SPLINE
  5
40
330
1F
100
AcDbEntity
  8
0
100
AcDbSpline
210
0.0
220
0.0
230
1.0
 70
     8
 71
     3
 72
    20
 73
    16
 74
     0
 42
0.0000000001
 43
0.0000000001
 40
0.0
 40
0.0
 40
0.0
 40
0.0
 40
0.2
 40
0.2
 40
0.2
 40
0.2
 40
0.4
 40
0.4
 40
0.4
 40
0.4
 40
0.6
 40
0.6
 40
0.6
 40
0.6
 40
1.0
 40
1.0
 40
1.0
 40
1.0
 10
12.0
 20
-27.8461
 30
0.0
 10
12.0
 20
-26.7415
 30
0.0
 10
11.1045
 20
-25.8461
 30
0.0
 10
10.0
 20
-25.8461
 30
0.0
 10
10.0
 20
-25.8461
 30
0.0
 10
8.8954
 20
-25.8461
 30
0.0
 10
8.0
 20
-26.7415
 30
0.0
 10
8.0
 20
-27.8461
 30
0.0
 10
8.0
 20
-27.8461
 30
0.0
 10
7.9999
 20
-28.9507
 30
0.0
 10
8.8954
 20
-29.8461
 30
0.0
 10
9.9999
 20
-29.8461
 30
0.0
 10
9.9999
 20
-29.8461
 30
0.0
 10
11.1045
 20
-29.8461
 30
0.0
 10
11.9999
 20
-28.9507
 30
0.0
 10
11.9999
 20
-27.8461
 30
0.0
  0
SPLINE
  5
41
330
1F
100
AcDbEntity
  8
0
100
AcDbSpline
210
0.0
220
0.0
230
1.0
 70
     8
 71
     3
 72
    20
 73
    16
 74
     0
 42
0.0000000001
 43
0.0000000001
 40
0.0
 40
0.0
 40
0.0
 40
0.0
 40
0.2
 40
0.2
 40
0.2
 40
0.2
 40
0.4
 40
0.4
 40
0.4
 40
0.4
 40
0.6
 40
0.6
 40
0.6
 40
0.6
 40
1.0
 40
1.0
 40
1.0
 40
1.0
 10
21.0749
 20
-14.9999
 30
0.0
 10
21.0749
 20
-10.5403
 30
0.0
 10
17.4597
 20
-6.925
 30
0.0
 10
13.0
 20
-6.925
 30
0.0
 10
13.0
 20
-6.925
 30
0.0
 10
8.5403
 20
-6.9249
 30
0.0
 10
4.925
 20
-10.5402
 30
0.0
 10
4.925
 20
-14.9999
 30
0.0
 10
4.925
 20
-14.9999
 30
0.0
 10
4.9249
 20
-19.4596
 30
0.0
 10
8.5402
 20
-23.0749
 30
0.0
 10
12.9999
 20
-23.0749
 30
0.0
 10
12.9999
 20
-23.0749
 30
0.0
 10
17.4596
 20
-23.075
 30
0.0
 10
21.0749
 20
-19.4597
 30
0.0
 10
21.0749
 20
-15.0
 30
0.0
  0
SPLINE
  5
42
330
1F
100
AcDbEntity
  8
0
100
AcDbSpline
210
0.0
220
0.0
230
1.0
 70
    11
 71
     3
 72
    20
 73
    16
 74
     0
 42
0.0000000001
 43
0.0000000001
 40
0.0
 40
0.0
 40
0.0
 40
0.0
 40
0.2
 40
0.2
 40
0.2
 40
0.2
 40
0.4
 40
0.4
 40
0.4
 40
0.4
 40
0.6
 40
0.6
 40
0.6
 40
0.6
 40
1.0
 40
1.0
 40
1.0
 40
1.0
 10
10.9749
 20
0.0
 30
0.0
 10
10.9749
 20
4.4044
 30
0.0
 10
7.4044
 20
7.9749
 30
0.0
 10
3.0
 20
7.9749
 30
0.0
 10
3.0
 20
7.9749
 30
0.0
 10
-1.4044
 20
7.975
 30
0.0
 10
-4.9749
 20
4.4044
 30
0.0
 10
-4.9749
 20
0.0
 30
0.0
 10
-4.9749
 20
0.0
 30
0.0
 10
-4.975
 20
-4.4044
 30
0.0
 10
-1.4044
 20
-7.9749
 30
0.0
 10
2.9999
 20
-7.9749
 30
0.0
 10
2.9999
 20
-7.9749
 30
0.0
 10
7.4044
 20
-7.975
 30
0.0
 10
10.9749
 20
-4.4045
 30
0.0
 10
10.9749
 20
0.0
 30
0.0
  0
SPLINE
  5
43
330
1F
100
AcDbEntity
  8
0
100
AcDbSpline
210
0.0
220
0.0
230
1.0
 70
     8
 71
     3
 72
    20
 73
    16
 74
     0
 42
0.0000000001
 43
0.0000000001
 40
0.0
 40
0.0
 40
0.0
 40
0.0
 40
0.2
 40
0.2
 40
0.2
 40
0.2
 40
0.4
 40
0.4
 40
0.4
 40
0.4
 40
0.6
 40
0.6
 40
0.6
 40
0.6
 40
1.0
 40
1.0
 40
1.0
 40
1.0
 10
20.9249
 20
15.0
 30
0.0
 10
20.9249
 20
19.3768
 30
0.0
 10
17.3768
 20
22.9249
 30
0.0
 10
13.0
 20
22.9249
 30
0.0
 10
13.0
 20
22.9249
 30
0.0
 10
8.6231
 20
22.925
 30
0.0
 10
5.075
 20
19.3768
 30
0.0
 10
5.075
 20
15.0
 30
0.0
 10
5.075
 20
15.0
 30
0.0
 10
5.0749
 20
10.6231
 30
0.0
 10
8.6231
 20
7.075
 30
0.0
 10
12.9999
 20
7.075
 30
0.0
 10
12.9999
 20
7.075
 30
0.0
 10
17.3768
 20
7.0749
 30
0.0
 10
20.9249
 20
10.6231
 30
0.0
 10
20.9249
 20
14.9999
 30
0.0
  0
SPLINE
  5
44
330
1F
100
AcDbEntity
  8
0
100
AcDbSpline
210
0.0
220
0.0
230
1.0
 70
     8
 71
     3
 72
    20
 73
    16
 74
     0
 42
0.0000000001
 43
0.0000000001
 40
0.0
 40
0.0
 40
0.0
 40
0.0
 40
0.2
 40
0.2
 40
0.2
 40
0.2
 40
0.4
 40
0.4
 40
0.4
 40
0.4
 40
0.6
 40
0.6
 40
0.6
 40
0.6
 40
1.0
 40
1.0
 40
1.0
 40
1.0
 10
1.025
 20
-14.9999
 30
0.0
 10
1.025
 20
-10.5679
 30
0.0
 10
-2.5679
 20
-6.975
 30
0.0
 10
-6.9999
 20
-6.975
 30
0.0
 10
-6.9999
 20
-6.975
 30
0.0
 10
-11.432
 20
-6.9749
 30
0.0
 10
-15.0249
 20
-10.5678
 30
0.0
 10
-15.0249
 20
-14.9999
 30
0.0
 10
-15.0249
 20
-14.9999
 30
0.0
 10
-15.025
 20
-19.432
 30
0.0
 10
-11.4321
 20
-23.0249
 30
0.0
 10
-7.0
 20
-23.0249
 30
0.0
 10
-7.0
 20
-23.0249
 30
0.0
 10
-2.5679
 20
-23.025
 30
0.0
 10
1.0249
 20
-19.4321
 30
0.0
 10
1.0249
 20
-15.0
 30
0.0
  0
SPLINE
  5
45
330
1F
100
AcDbEntity
  8
0
100
AcDbSpline
210
0.0
220
0.0
230
1.0
 70
    11
 71
     3
 72
    20
 73
    16
 74
     0
 42
0.0000000001
 43
0.0000000001
 40
0.0
 40
0.0
 40
0.0
 40
0.0
 40
0.2
 40
0.2
 40
0.2
 40
0.2
 40
0.4
 40
0.4
 40
0.4
 40
0.4
 40
0.6
 40
0.6
 40
0.6
 40
0.6
 40
1.0
 40
1.0
 40
1.0
 40
1.0
 10
-2.1
 20
-27.8461
 30
0.0
 10
-2.1
 20
-26.7968
 30
0.0
 10
-2.9506
 20
-25.9461
 30
0.0
 10
-3.9999
 20
-25.9461
 30
0.0
 10
-3.9999
 20
-25.9461
 30
0.0
 10
-5.0493
 20
-25.9461
 30
0.0
 10
-5.8999
 20
-26.7968
 30
0.0
 10
-5.8999
 20
-27.8461
 30
0.0
 10
-5.8999
 20
-27.8461
 30
0.0
 10
-5.9
 20
-28.8954
 30
0.0
 10
-5.0493
 20
-29.7461
 30
0.0
 10
-4.0
 20
-29.7461
 30
0.0
 10
-4.0
 20
-29.7461
 30
0.0
 10
-2.9506
 20
-29.7461
 30
0.0
 10
-2.1
 20
-28.8955
 30
0.0
 10
-2.1
 20
-27.8461
 30
0.0
  0
SPLINE
  5
46
330
1F
100
AcDbEntity
  8
0
100
AcDbSpline
210
0.0
220
0.0
230
1.0
 70
    11
 71
     3
 72
    20
 73
    16
 74
     0
 42
0.0000000001
 43
0.0000000001
 40
0.0
 40
0.0
 40
0.0
 40
0.0
 40
0.2
 40
0.2
 40
0.2
 40
0.2
 40
0.4
 40
0.4
 40
0.4
 40
0.4
 40
0.6
 40
0.6
 40
0.6
 40
0.6
 40
1.0
 40
1.0
 40
1.0
 40
1.0
 10
10.4999
 20
27.8461
 30
0.0
 10
10.4999
 20
28.6745
 30
0.0
 10
9.8284
 20
29.3461
 30
0.0
 10
9.0
 20
29.3461
 30
0.0
 10
9.0
 20
29.3461
 30
0.0
 10
8.1715
 20
29.3461
 30
0.0
 10
7.5
 20
28.6745
 30
0.0
 10
7.5
 20
27.8461
 30
0.0
 10
7.5
 20
27.8461
 30
0.0
 10
7.4999
 20
27.0177
 30
0.0
 10
8.1715
 20
26.3461
 30
0.0
 10
8.9999
 20
26.3461
 30
0.0
 10
8.9999
 20
26.3461
 30
0.0
 10
9.8284
 20
26.3461
 30
0.0
 10
10.4999
 20
27.0177
 30
0.0
 10
10.4999
 20
27.8461
 30
0.0
  0
SPLINE
  5
47
330
1F
100
AcDbEntity
  8
0
100
AcDbSpline
210
0.0
220
0.0
230
1.0
 70
    11
 71
     3
 72
    20
 73
    16
 74
     0
 42
0.0000000001
 43
0.0000000001
 40
0.0
 40
0.0
 40
0.0
 40
0.0
 40
0.2
 40
0.2
 40
0.2
 40
0.2
 40
0.4
 40
0.4
 40
0.4
 40
0.4
 40
0.6
 40
0.6
 40
0.6
 40
0.6
 40
1.0
 40
1.0
 40
1.0
 40
1.0
 10
-7.65
 20
27.8461
 30
0.0
 10
-7.65
 20
28.5917
 30
0.0
 10
-8.2544
 20
29.1961
 30
0.0
 10
-8.9999
 20
29.1961
 30
0.0
 10
-8.9999
 20
29.1961
 30
0.0
 10
-9.7455
 20
29.1961
 30
0.0
 10
-10.3499
 20
28.5917
 30
0.0
 10
-10.3499
 20
27.8461
 30
0.0
 10
-10.3499
 20
27.8461
 30
0.0
 10
-10.35
 20
27.1005
 30
0.0
 10
-9.7455
 20
26.4961
 30
0.0
 10
-9.0
 20
26.4961
 30
0.0
 10
-9.0
 20
26.4961
 30
0.0
 10
-8.2544
 20
26.4961
 30
0.0
 10
-7.65
 20
27.1005
 30
0.0
 10
-7.65
 20
27.8461
 30
0.0
  0
SPLINE
  5
48
330
1F
100
AcDbEntity
  8
0
100
AcDbSpline
210
0.0
220
0.0
230
1.0
 70
     8
 71
     3
 72
    20
 73
    16
 74
     0
 42
0.0000000001
 43
0.0000000001
 40
0.0
 40
0.0
 40
0.0
 40
0.0
 40
0.2
 40
0.2
 40
0.2
 40
0.2
 40
0.4
 40
0.4
 40
0.4
 40
0.4
 40
0.6
 40
0.6
 40
0.6
 40
0.6
 40
1.0
 40
1.0
 40
1.0
 40
1.0
 10
4.45
 20
27.8461
 30
0.0
 10
4.45
 20
28.6469
 30
0.0
 10
3.8008
 20
29.2961
 30
0.0
 10
3.0
 20
29.2961
 30
0.0
 10
3.0
 20
29.2961
 30
0.0
 10
2.1991
 20
29.2961
 30
0.0
 10
1.55
 20
28.6469
 30
0.0
 10
1.55
 20
27.8461
 30
0.0
 10
1.55
 20
27.8461
 30
0.0
 10
1.5499
 20
27.0453
 30
0.0
 10
2.1991
 20
26.3961
 30
0.0
 10
2.9999
 20
26.3961
 30
0.0
 10
2.9999
 20
26.3961
 30
0.0
 10
3.8008
 20
26.3961
 30
0.0
 10
4.4499
 20
27.0453
 30
0.0
 10
4.4499
 20
27.8461
 30
0.0
  0
SPLINE
  5
49
330
1F
100
AcDbEntity
  8
0
100
AcDbSpline
210
0.0
220
0.0
230
1.0
 70
     8
 71
     3
 72
    20
 73
    16
 74
     0
 42
0.0000000001
 43
0.0000000001
 40
0.0
 40
0.0
 40
0.0
 40
0.0
 40
0.2
 40
0.2
 40
0.2
 40
0.2
 40
0.4
 40
0.4
 40
0.4
 40
0.4
 40
0.6
 40
0.6
 40
0.6
 40
0.6
 40
1.0
 40
1.0
 40
1.0
 40
1.0
 10
0.875
 20
15.0
 30
0.0
 10
0.875
 20
19.3492
 30
0.0
 10
-2.6507
 20
22.8749
 30
0.0
 10
-6.9999
 20
22.8749
 30
0.0
 10
-6.9999
 20
22.8749
 30
0.0
 10
-11.3492
 20
22.875
 30
0.0
 10
-14.8749
 20
19.3492
 30
0.0
 10
-14.8749
 20
15.0
 30
0.0
 10
-14.8749
 20
15.0
 30
0.0
 10
-14.875
 20
10.6507
 30
0.0
 10
-11.3492
 20
7.125
 30
0.0
 10
-7.0
 20
7.125
 30
0.0
 10
-7.0
 20
7.125
 30
0.0
 10
-2.6507
 20
7.1249
 30
0.0
 10
0.8749
 20
10.6507
 30
0.0
 10
0.8749
 20
14.9999
 30
0.0
  0
SPLINE
  5
4A
330
1F
100
AcDbEntity
  8
0
100
AcDbSpline
210
0.0
220
0.0
230
1.0
 70
     8
 71
     3
 72
    20
 73
    16
 74
     0
 42
0.0000000001
 43
0.0000000001
 40
0.0
 40
0.0
 40
0.0
 40
0.0
 40
0.2
 40
0.2
 40
0.2
 40
0.2
 40
0.4
 40
0.4
 40
0.4
 40
0.4
 40
0.6
 40
0.6
 40
0.6
 40
0.6
 40
1.0
 40
1.0
 40
1.0
 40
1.0
 10
16.55
 20
27.8461
 30
0.0
 10
16.55
 20
28.7021
 30
0.0
 10
15.856
 20
29.3961
 30
0.0
 10
15.0
 20
29.3961
 30
0.0
 10
15.0
 20
29.3961
 30
0.0
 10
14.1439
 20
29.3961
 30
0.0
 10
13.45
 20
28.7021
 30
0.0
 10
13.45
 20
27.8461
 30
0.0
 10
13.45
 20
27.8461
 30
0.0
 10
13.4499
 20
26.9901
 30
0.0
 10
14.1439
 20
26.2961
 30
0.0
 10
14.9999
 20
26.2961
 30
0.0
 10
14.9999
 20
26.2961
 30
0.0
 10
15.856
 20
26.2961
 30
0.0
 10
16.5499
 20
26.9901
 30
0.0
 10
16.5499
 20
27.8461
 30
0.0
  0
SPLINE
  5
4B
330
1F
100
AcDbEntity
  8
0
100
AcDbSpline
210
0.0
220
0.0
230
1.0
 70
     8
 71
     3
 72
    20
 73
    16
 74
     0
 42
0.0000000001
 43
0.0000000001
 40
0.0
 40
0.0
 40
0.0
 40
0.0
 40
0.2
 40
0.2
 40
0.2
 40
0.2
 40
0.4
 40
0.4
 40
0.4
 40
0.4
 40
0.6
 40
0.6
 40
0.6
 40
0.6
 40
1.0
 40
1.0
 40
1.0
 40
1.0
 10
-9.1499
 20
-27.8461
 30
0.0
 10
-9.1499
 20
-26.8244
 30
0.0
 10
-9.9782
 20
-25.9961
 30
0.0
 10
-10.9999
 20
-25.9961
 30
0.0
 10
-10.9999
 20
-25.9961
 30
0.0
 10
-12.0217
 20
-25.9961
 30
0.0
 10
-12.8499
 20
-26.8244
 30
0.0
 10
-12.8499
 20
-27.8461
 30
0.0
 10
-12.8499
 20
-27.8461
 30
0.0
 10
-12.85
 20
-28.8678
 30
0.0
 10
-12.0217
 20
-29.6961
 30
0.0
 10
-11.0
 20
-29.6961
 30
0.0
 10
-11.0
 20
-29.6961
 30
0.0
 10
-9.9782
 20
-29.6961
 30
0.0
 10
-9.15
 20
-28.8678
 30
0.0
 10
-9.15
 20
-27.8461
 30
0.0
  0
SPLINE
  5
4C
330
1F
100
AcDbEntity
  8
0
100
AcDbSpline
210
0.0
220
0.0
230
1.0
 70
    11
 71
     3
 72
    20
 73
    16
 74
     0
 42
0.0000000001
 43
0.0000000001
 40
0.0
 40
0.0
 40
0.0
 40
0.0
 40
0.2
 40
0.2
 40
0.2
 40
0.2
 40
0.4
 40
0.4
 40
0.4
 40
0.4
 40
0.6
 40
0.6
 40
0.6
 40
0.6
 40
1.0
 40
1.0
 40
1.0
 40
1.0
 10
19.0499
 20
-27.8461
 30
0.0
 10
19.0499
 20
-26.7139
 30
0.0
 10
18.1321
 20
-25.7961
 30
0.0
 10
17.0
 20
-25.7961
 30
0.0
 10
17.0
 20
-25.7961
 30
0.0
 10
15.8678
 20
-25.7961
 30
0.0
 10
14.95
 20
-26.7139
 30
0.0
 10
14.95
 20
-27.8461
 30
0.0
 10
14.95
 20
-27.8461
 30
0.0
 10
14.9499
 20
-28.9783
 30
0.0
 10
15.8678
 20
-29.8961
 30
0.0
 10
16.9999
 20
-29.8961
 30
0.0
 10
16.9999
 20
-29.8961
 30
0.0
 10
18.1321
 20
-29.8961
 30
0.0
 10
19.0499
 20
-28.9783
 30
0.0
 10
19.0499
 20
-27.8461
 30
0.0
  0
SPLINE
  5
4D
330
1F
100
AcDbEntity
  8
0
100
AcDbSpline
210
0.0
220
0.0
230
1.0
 70
     8
 71
     3
 72
    20
 73
    16
 74
     0
 42
0.0000000001
 43
0.0000000001
 40
0.0
 40
0.0
 40
0.0
 40
0.0
 40
0.2
 40
0.2
 40
0.2
 40
0.2
 40
0.4
 40
0.4
 40
0.4
 40
0.4
 40
0.6
 40
0.6
 40
0.6
 40
0.6
 40
1.0
 40
1.0
 40
1.0
 40
1.0
 10
-1.5999
 20
27.8461
 30
0.0
 10
-1.5999
 20
28.6193
 30
0.0
 10
-2.2268
 20
29.2461
 30
0.0
 10
-2.9999
 20
29.2461
 30
0.0
 10
-2.9999
 20
29.2461
 30
0.0
 10
-3.7731
 20
29.2461
 30
0.0
 10
-4.3999
 20
28.6193
 30
0.0
 10
-4.3999
 20
27.8461
 30
0.0
 10
-4.3999
 20
27.8461
 30
0.0
 10
-4.4
 20
27.0729
 30
0.0
 10
-3.7732
 20
26.4461
 30
0.0
 10
-3.0
 20
26.4461
 30
0.0
 10
-3.0
 20
26.4461
 30
0.0
 10
-2.2268
 20
26.4461
 30
0.0
 10
-1.6
 20
27.0729
 30
0.0
 10
-1.6
 20
27.8461
 30
0.0
  0
SPLINE
  5
4E
330
1F
100
AcDbEntity
  8
0
100
AcDbSpline
210
0.0
220
0.0
230
1.0
 70
     8
 71
     3
 72
    20
 73
    16
 74
     0
 42
0.0000000001
 43
0.0000000001
 40
0.0
 40
0.0
 40
0.0
 40
0.0
 40
0.2
 40
0.2
 40
0.2
 40
0.2
 40
0.4
 40
0.4
 40
0.4
 40
0.4
 40
0.6
 40
0.6
 40
0.6
 40
0.6
 40
1.0
 40
1.0
 40
1.0
 40
1.0
 10
4.95
 20
-27.8461
 30
0.0
 10
4.95
 20
-26.7691
 30
0.0
 10
4.0769
 20
-25.8961
 30
0.0
 10
3.0
 20
-25.8961
 30
0.0
 10
3.0
 20
-25.8961
 30
0.0
 10
1.923
 20
-25.8961
 30
0.0
 10
1.05
 20
-26.7691
 30
0.0
 10
1.05
 20
-27.8461
 30
0.0
 10
1.05
 20
-27.8461
 30
0.0
 10
1.0499
 20
-28.9231
 30
0.0
 10
1.923
 20
-29.7961
 30
0.0
 10
2.9999
 20
-29.7961
 30
0.0
 10
2.9999
 20
-29.7961
 30
0.0
 10
4.0769
 20
-29.7961
 30
0.0
 10
4.9499
 20
-28.9231
 30
0.0
 10
4.9499
 20
-27.8461
 30
0.0
  0
SPLINE
  5
4F
330
1F
100
AcDbEntity
  8
0
100
AcDbSpline
210
0.0
220
0.0
230
1.0
 70
    11
 71
     3
 72
    20
 73
    16
 74
     0
 42
0.0000000001
 43
0.0000000001
 40
0.0
 40
0.0
 40
0.0
 40
0.0
 40
0.2
 40
0.2
 40
0.2
 40
0.2
 40
0.4
 40
0.4
 40
0.4
 40
0.4
 40
0.6
 40
0.6
 40
0.6
 40
0.6
 40
1.0
 40
1.0
 40
1.0
 40
1.0
 10
-19.75
 20
27.8461
 30
0.0
 10
-19.75
 20
28.5365
 30
0.0
 10
-20.3096
 20
29.0961
 30
0.0
 10
-20.9999
 20
29.0961
 30
0.0
 10
-20.9999
 20
29.0961
 30
0.0
 10
-21.6903
 20
29.0961
 30
0.0
 10
-22.2499
 20
28.5365
 30
0.0
 10
-22.2499
 20
27.8461
 30
0.0
 10
-22.2499
 20
27.8461
 30
0.0
 10
-22.25
 20
27.1558
 30
0.0
 10
-21.6903
 20
26.5961
 30
0.0
 10
-21.0
 20
26.5961
 30
0.0
 10
-21.0
 20
26.5961
 30
0.0
 10
-20.3096
 20
26.5961
 30
0.0
 10
-19.75
 20
27.1557
 30
0.0
 10
-19.75
 20
27.8461
 30
0.0
  0
SPLINE
  5
50
330
1F
100
AcDbEntity
  8
0
100
AcDbSpline
210
0.0
220
0.0
230
1.0
 70
    11
 71
     3
 72
    20
 73
    16
 74
     0
 42
0.0000000001
 43
0.0000000001
 40
0.0
 40
0.0
 40
0.0
 40
0.0
 40
0.2
 40
0.2
 40
0.2
 40
0.2
 40
0.4
 40
0.4
 40
0.4
 40
0.4
 40
0.6
 40
0.6
 40
0.6
 40
0.6
 40
1.0
 40
1.0
 40
1.0
 40
1.0
 10
-23.25
 20
-27.8461
 30
0.0
 10
-23.25
 20
-26.8796
 30
0.0
 10
-24.0335
 20
-26.0961
 30
0.0
 10
-24.9999
 20
-26.0961
 30
0.0
 10
-24.9999
 20
-26.0961
 30
0.0
 10
-25.9664
 20
-26.0961
 30
0.0
 10
-26.7499
 20
-26.8796
 30
0.0
 10
-26.7499
 20
-27.8461
 30
0.0
 10
-26.7499
 20
-27.8461
 30
0.0
 10
-26.75
 20
-28.8126
 30
0.0
 10
-25.9665
 20
-29.5961
 30
0.0
 10
-25.0
 20
-29.5961
 30
0.0
 10
-25.0
 20
-29.5961
 30
0.0
 10
-24.0335
 20
-29.5961
 30
0.0
 10
-23.25
 20
-28.8126
 30
0.0
 10
-23.25
 20
-27.8461
 30
0.0
  0
SPLINE
  5
51
330
1F
100
AcDbEntity
  8
0
100
AcDbSpline
210
0.0
220
0.0
230
1.0
 70
    11
 71
     3
 72
    20
 73
    16
 74
     0
 42
0.0000000001
 43
0.0000000001
 40
0.0
 40
0.0
 40
0.0
 40
0.0
 40
0.2
 40
0.2
 40
0.2
 40
0.2
 40
0.4
 40
0.4
 40
0.4
 40
0.4
 40
0.6
 40
0.6
 40
0.6
 40
0.6
 40
1.0
 40
1.0
 40
1.0
 40
1.0
 10
-16.2
 20
-27.8461
 30
0.0
 10
-16.2
 20
-26.852
 30
0.0
 10
-17.0058
 20
-26.0461
 30
0.0
 10
-17.9999
 20
-26.0461
 30
0.0
 10
-17.9999
 20
-26.0461
 30
0.0
 10
-18.9941
 20
-26.0461
 30
0.0
 10
-19.7999
 20
-26.852
 30
0.0
 10
-19.7999
 20
-27.8461
 30
0.0
 10
-19.7999
 20
-27.8461
 30
0.0
 10
-19.8
 20
-28.8402
 30
0.0
 10
-18.9941
 20
-29.6461
 30
0.0
 10
-18.0
 20
-29.6461
 30
0.0
 10
-18.0
 20
-29.6461
 30
0.0
 10
-17.0058
 20
-29.6461
 30
0.0
 10
-16.2
 20
-28.8402
 30
0.0
 10
-16.2
 20
-27.8461
 30
0.0
  0
SPLINE
  5
52
330
1F
100
AcDbEntity
  8
0
100
AcDbSpline
210
0.0
220
0.0
230
1.0
 70
    11
 71
     3
 72
    20
 73
    16
 74
     0
 42
0.0000000001
 43
0.0000000001
 40
0.0
 40
0.0
 40
0.0
 40
0.0
 40
0.2
 40
0.2
 40
0.2
 40
0.2
 40
0.4
 40
0.4
 40
0.4
 40
0.4
 40
0.6
 40
0.6
 40
0.6
 40
0.6
 40
1.0
 40
1.0
 40
1.0
 40
1.0
 10
-13.7
 20
27.8461
 30
0.0
 10
-13.7
 20
28.5641
 30
0.0
 10
-14.282
 20
29.1461
 30
0.0
 10
-14.9999
 20
29.1461
 30
0.0
 10
-14.9999
 20
29.1461
 30
0.0
 10
-15.7179
 20
29.1461
 30
0.0
 10
-16.2999
 20
28.5641
 30
0.0
 10
-16.2999
 20
27.8461
 30
0.0
 10
-16.2999
 20
27.8461
 30
0.0
 10
-16.3
 20
27.1281
 30
0.0
 10
-15.7179
 20
26.5461
 30
0.0
 10
-15.0
 20
26.5461
 30
0.0
 10
-15.0
 20
26.5461
 30
0.0
 10
-14.282
 20
26.5461
 30
0.0
 10
-13.7
 20
27.1281
 30
0.0
 10
-13.7
 20
27.8461
 30
0.0
  0
SPLINE
  5
53
330
1F
100
AcDbEntity
  8
0
100
AcDbSpline
210
0.0
220
0.0
230
1.0
 70
    11
 71
     3
 72
   108
 73
   104
 74
     0
 42
0.0000000001
 43
0.0000000001
 40
0.0
 40
0.0
 40
0.0
 40
0.0
 40
0.037037037037037
 40
0.037037037037037
 40
0.037037037037037
 40
0.037037037037037
 40
0.0740740740740741
 40
0.0740740740740741
 40
0.0740740740740741
 40
0.0740740740740741
 40
0.1111111111111111
 40
0.1111111111111111
 40
0.1111111111111111
 40
0.1111111111111111
 40
0.1481481481481481
 40
0.1481481481481481
 40
0.1481481481481481
 40
0.1481481481481481
 40
0.1851851851851852
 40
0.1851851851851852
 40
0.1851851851851852
 40
0.1851851851851852
 40
0.2222222222222222
 40
0.2222222222222222
 40
0.2222222222222222
 40
0.2222222222222222
 40
0.2592592592592592
 40
0.2592592592592592
 40
0.2592592592592592
 40
0.2592592592592592
 40
0.2962962962962963
 40
0.2962962962962963
 40
0.2962962962962963
 40
0.2962962962962963
 40
0.3333333333333333
 40
0.3333333333333333
 40
0.3333333333333333
 40
0.3333333333333333
 40
0.3703703703703703
 40
0.3703703703703703
 40
0.3703703703703703
 40
0.3703703703703703
 40
0.4074074074074074
 40
0.4074074074074074
 40
0.4074074074074074
 40
0.4074074074074074
 40
0.4444444444444444
 40
0.4444444444444444
 40
0.4444444444444444
 40
0.4444444444444444
 40
0.4814814814814815
 40
0.4814814814814815
 40
0.4814814814814815
 40
0.4814814814814815
 40
0.5185185185185185
 40
0.5185185185185185
 40
0.5185185185185185
 40
0.5185185185185185
 40
0.5555555555555556
 40
0.5555555555555556
 40
0.5555555555555556
 40
0.5555555555555556
 40
0.5925925925925926
 40
0.5925925925925926
 40
0.5925925925925926
 40
0.5925925925925926
 40
0.6296296296296297
 40
0.6296296296296297
 40
0.6296296296296297
 40
0.6296296296296297
 40
0.6666666666666666
 40
0.6666666666666666
 40
0.6666666666666666
 40
0.6666666666666666
 40
0.7037037037037037
 40
0.7037037037037037
 40
0.7037037037037037
 40
0.7037037037037037
 40
0.7407407407407407
 40
0.7407407407407407
 40
0.7407407407407407
 40
0.7407407407407407
 40
0.7777777777777778
 40
0.7777777777777778
 40
0.7777777777777778
 40
0.7777777777777778
 40
0.8148148148148148
 40
0.8148148148148148
 40
0.8148148148148148
 40
0.8148148148148148
 40
0.8518518518518519
 40
0.8518518518518519
 40
0.8518518518518519
 40
0.8518518518518519
 40
0.8888888888888888
 40
0.8888888888888888
 40
0.8888888888888888
 40
0.8888888888888888
 40
0.9259259259259259
 40
0.9259259259259259
 40
0.9259259259259259
 40
0.9259259259259259
 40
1.0
 40
1.0
 40
1.0
 40
1.0
 10
36.8461
 20
-33.8461
 30
0.0
 10
36.8461
 20
-33.8461
 30
0.0
 10
19.723
 20
-33.8461
 30
0.0
 10
19.723
 20
-33.8461
 30
0.0
 10
19.723
 20
-33.8461
 30
0.0
 10
19.723
 20
-33.8461
 30
0.0
 10
19.723
 20
-39.8461
 30
0.0
 10
19.723
 20
-39.8461
 30
0.0
 10
19.723
 20
-39.8461
 30
0.0
 10
19.723
 20
-39.8461
 30
0.0
 10
3.2
 20
-39.8461
 30
0.0
 10
3.2
 20
-39.8461
 30
0.0
 10
3.2
 20
-39.8461
 30
0.0
 10
3.2
 20
-39.8461
 30
0.0
 10
3.2
 20
-33.8461
 30
0.0
 10
3.2
 20
-33.8461
 30
0.0
 10
3.2
 20
-33.8461
 30
0.0
 10
3.2
 20
-33.8461
 30
0.0
 10
-14.123
 20
-33.8461
 30
0.0
 10
-14.123
 20
-33.8461
 30
0.0
 10
-14.123
 20
-33.8461
 30
0.0
 10
-14.123
 20
-33.8461
 30
0.0
 10
-14.123
 20
-39.8461
 30
0.0
 10
-14.123
 20
-39.8461
 30
0.0
 10
-14.123
 20
-39.8461
 30
0.0
 10
-14.123
 20
-39.8461
 30
0.0
 10
-30.6461
 20
-39.8461
 30
0.0
 10
-30.6461
 20
-39.8461
 30
0.0
 10
-30.6461
 20
-39.8461
 30
0.0
 10
-30.6461
 20
-39.8461
 30
0.0
 10
-30.6461
 20
-33.8461
 30
0.0
 10
-30.6461
 20
-33.8461
 30
0.0
 10
-30.6461
 20
-33.8461
 30
0.0
 10
-30.6461
 20
-33.8461
 30
0.0
 10
-30.8461
 20
-33.8461
 30
0.0
 10
-30.8461
 20
-33.8461
 30
0.0
 10
-30.8461
 20
-33.8461
 30
0.0
 10
-30.8461
 20
-33.8461
 30
0.0
 10
-30.8461
 20
-16.823
 30
0.0
 10
-30.8461
 20
-16.823
 30
0.0
 10
-30.8461
 20
-16.823
 30
0.0
 10
-30.8461
 20
-16.823
 30
0.0
 10
-36.8461
 20
-16.823
 30
0.0
 10
-36.8461
 20
-16.823
 30
0.0
 10
-36.8461
 20
-16.823
 30
0.0
 10
-36.8461
 20
-16.823
 30
0.0
 10
-36.8461
 20
-0.1
 30
0.0
 10
-36.8461
 20
-0.1
 30
0.0
 10
-36.8461
 20
-0.1
 30
0.0
 10
-36.8461
 20
-0.1
 30
0.0
 10
-30.8461
 20
-0.1
 30
0.0
 10
-30.8461
 20
-0.1
 30
0.0
 10
-30.8461
 20
-0.1
 30
0.0
 10
-30.8461
 20
-0.1
 30
0.0
 10
-30.8461
 20
17.023
 30
0.0
 10
-30.8461
 20
17.023
 30
0.0
 10
-30.8461
 20
17.023
 30
0.0
 10
-30.8461
 20
17.023
 30
0.0
 10
-36.8461
 20
17.023
 30
0.0
 10
-36.8461
 20
17.023
 30
0.0
 10
-36.8461
 20
17.023
 30
0.0
 10
-36.8461
 20
17.023
 30
0.0
 10
-36.8461
 20
33.7461
 30
0.0
 10
-36.8461
 20
33.7461
 30
0.0
 10
-36.8461
 20
33.7461
 30
0.0
 10
-36.8461
 20
33.7461
 30
0.0
 10
-30.8461
 20
33.7461
 30
0.0
 10
-30.8461
 20
33.7461
 30
0.0
 10
-30.8461
 20
33.7461
 30
0.0
 10
-30.8461
 20
33.7461
 30
0.0
 10
-30.8461
 20
33.8461
 30
0.0
 10
-30.8461
 20
33.8461
 30
0.0
 10
-30.8461
 20
33.8461
 30
0.0
 10
-30.8461
 20
33.8461
 30
0.0
 10
-13.923
 20
33.8461
 30
0.0
 10
-13.923
 20
33.8461
 30
0.0
 10
-13.923
 20
33.8461
 30
0.0
 10
-13.923
 20
33.8461
 30
0.0
 10
-13.923
 20
39.8461
 30
0.0
 10
-13.923
 20
39.8461
 30
0.0
 10
-13.923
 20
39.8461
 30
0.0
 10
-13.923
 20
39.8461
 30
0.0
 10
2.9999
 20
39.8461
 30
0.0
 10
2.9999
 20
39.8461
 30
0.0
 10
2.9999
 20
39.8461
 30
0.0
 10
2.9999
 20
39.8461
 30
0.0
 10
2.9999
 20
33.8461
 30
0.0
 10
2.9999
 20
33.8461
 30
0.0
 10
2.9999
 20
33.8461
 30
0.0
 10
2.9999
 20
33.8461
 30
0.0
 10
19.923
 20
33.8461
 30
0.0
 10
19.923
 20
33.8461
 30
0.0
 10
19.923
 20
33.8461
 30
0.0
 10
19.923
 20
33.8461
 30
0.0
 10
19.923
 20
39.8461
 30
0.0
 10
19.923
 20
39.8461
 30
0.0
 10
19.923
 20
39.8461
 30
0.0
 10
19.923
 20
39.8461
 30
0.0
 10
36.8461
 20
39.8461
 30
0.0
 10
36.8461
 20
39.8461
 30
0.0
 10
36.8461
 20
39.8461
 30
0.0
 10
36.8461
 20
39.8461
 30
0.0
 10
36.8461
 20
-33.8461
 30
0.0
 10
36.8461
 20
-33.8461
 30
0.0
  0
ENDSEC
  0
SECTION
  2
OBJECTS
  0
DICTIONARY
  5
C
330
0
100
AcDbDictionary
  3
ACAD_GROUP
350
D
  3
ACAD_LAYOUT
350
1A
  3
ACAD_MATERIAL
350
3B
  3
ACAD_MLEADERSTYLE
350
56
  3
ACAD_MLINESTYLE
350
17
  3
ACAD_PLOTSETTINGS
350
19
  3
ACAD_VISUALSTYLE
350
2A
  3
ACDBVARIABLEDICTIONARY
350
54
1001
ACAD
1000
TREAT_AS_HARD
1070
     0
  0
DICTIONARY
  5
D
102
{ACAD_REACTORS
330
C
102
}
330
C
100
AcDbDictionary
1001
ACAD
1000
TREAT_AS_HARD
1070
     0
  0
DICTIONARY
  5
1A
102
{ACAD_REACTORS
330
C
102
}
330
C
100
AcDbDictionary
1001
ACAD
1000
TREAT_AS_HARD
1070
     0
  0
DICTIONARY
  5
3B
102
{ACAD_REACTORS
330
C
102
}
330
C
100
AcDbDictionary
  3
BYBLOCK
350
3D
  3
BYLAYER
350
3C
  3
GLOBAL
350
3E
1001
ACAD
1000
TREAT_AS_HARD
1070
     0
  0
DICTIONARY
  5
56
102
{ACAD_REACTORS
330
C
102
}
330
C
100
AcDbDictionary
1001
ACAD
1000
TREAT_AS_HARD
1070
     0
  0
DICTIONARY
  5
17
102
{ACAD_REACTORS
330
C
102
}
330
C
100
AcDbDictionary
  3
STANDARD
350
18
1001
ACAD
1000
TREAT_AS_HARD
1070
     0
  0
DICTIONARY
  5
19
102
{ACAD_REACTORS
330
C
102
}
330
C
100
AcDbDictionary
1001
ACAD
1000
TREAT_AS_HARD
1070
     0
  0
DICTIONARY
  5
2A
102
{ACAD_REACTORS
330
C
102
}
330
C
100
AcDbDictionary
  3
2DWIREFRAME
350
2F
  3
3D_HIDDEN
350
31
  3
3DWIREFRAME
350
30
  3
BASIC
350
32
  3
BRIGHTEN
350
36
  3
COLORCHANGE
350
3A
  3
CONCEPTUAL
350
34
  3
DIM
350
35
  3
FACEPATTERN
350
39
  3
FLAT
350
2B
  3
FLATWITHEDGES
350
2C
  3
GOURAUD
350
2D
  3
GOURAUDWITHEDGES
350
2E
  3
LINEPATTERN
350
38
  3
REALISTIC
350
33
  3
THICKEN
350
37
1001
ACAD
1000
TREAT_AS_HARD
1070
     0
  0
DICTIONARY
  5
54
102
{ACAD_REACTORS
330
C
102
}
330
C
100
AcDbDictionary
  3
DIMASSOC
350
57
  3
HIDETEXT
350
58
1001
ACAD
1000
TREAT_AS_HARD
1070
     0
  0
MATERIAL
  5
3D
102
{ACAD_REACTORS
330
3B
102
}
102
{ACAD_XDICTIONARY
360
5B
102
}
330
3B
100
AcDbMaterial
  1
ByBlock
  0
MATERIAL
  5
3C
102
{ACAD_REACTORS
330
3B
102
}
102
{ACAD_XDICTIONARY
360
59
102
}
330
3B
100
AcDbMaterial
  1
ByLayer
  0
MATERIAL
  5
3E
102
{ACAD_REACTORS
330
3B
102
}
102
{ACAD_XDICTIONARY
360
5D
102
}
330
3B
100
AcDbMaterial
  1
Global
  0
MLINESTYLE
  5
18
102
{ACAD_REACTORS
330
17
102
}
330
17
100
AcDbMlineStyle
  2
Standard
 70
     0
  3

 62
   256
 51
90.0
 52
90.0
 71
     2
 49
0.5
 62
   256
  6
BYLAYER
 49
-0.5
 62
   256
  6
BYLAYER
  0
ACAD_PROXY_OBJECT
  5
2F
102
{ACAD_REACTORS
330
2A
102
}
330
2A
100
AcDbZombieObject
 90
      499
 91
      501
 93
      436
310
42CC9915DA5C99599C985B595049028333333333333E3BF0000000000000FB0107901411070040501600405405064090741402480A0340
1001
ACAD
1000
AcDbSavedByObjectVersion
1070
     0
  0
ACAD_PROXY_OBJECT
  5
31
102
{ACAD_REACTORS
330
2A
102
}
330
2A
100
AcDbZombieObject
 90
      499
 91
      501
 93
      500
310
424CD108121A5919195B90640502408333333333333E3BF0000000000000FB01079024090700405020000000000001110200405405064090740C02480A0340
1001
ACAD
1000
AcDbSavedByObjectVersion
1070
     0
  0
ACAD_PROXY_OBJECT
  5
30
102
{ACAD_REACTORS
330
2A
102
}
330
2A
100
AcDbZombieObject
 90
      499
 91
      501
 93
      436
310
42CCD915DA5C99599C985B595059028333333333333E3BF0000000000000FB0107901411070040501600405405064090741402480A0340
1001
ACAD
1000
AcDbSavedByObjectVersion
1070
     0
  0
ACAD_PROXY_OBJECT
  5
32
102
{ACAD_REACTORS
330
2A
102
}
330
2A
100
AcDbZombieObject
 90
      499
 91
      501
 93
      388
310
4150985CDA58D07406404333333333333E3BF0000000000000FB0107A41107004050150841D405064090741402480A0350
1001
ACAD
1000
AcDbSavedByObjectVersion
1070
     0
  0
ACAD_PROXY_OBJECT
  5
36
102
{ACAD_REACTORS
330
2A
102
}
330
2A
100
AcDbZombieObject
 90
      499
 91
      501
 93
      428
310
42109C9A59DA1D195B90C409028333333333333E3BF0000000000000FB010790141107004050150841D405064090741402480A029950
1001
ACAD
1000
AcDbSavedByObjectVersion
1070
     0
  0
ACAD_PROXY_OBJECT
  5
3A
102
{ACAD_REACTORS
330
2A
102
}
330
2A
100
AcDbZombieObject
 90
      499
 91
      501
 93
      452
310
42D0DBDB1BDC90DA185B99D95104090240C333333333333E3BF0000000000000FB0108901411070040501508421405064090741402480A0350
1001
ACAD
1000
AcDbSavedByObjectVersion
1070
     0
  0
ACAD_PROXY_OBJECT
  5
34
102
{ACAD_REACTORS
330
2A
102
}
330
2A
100
AcDbZombieObject
 90
      499
 91
      501
 93
      500
310
4290DBDB98D95C1D1D585B10940D028333333333333E3BF0000000000000FB0107902409070040501000000000000111010841D405064090740C02480A0340
1001
ACAD
1000
AcDbSavedByObjectVersion
1070
     0
  0
ACAD_PROXY_OBJECT
  5
35
102
{ACAD_REACTORS
330
2A
102
}
330
2A
100
AcDbZombieObject
 90
      499
 91
      501
 93
      412
310
40D11A5B50B409028333333333333E3BF0000000000000FB010790141107004050150841D405064090741402480A02677FFFFFD0
1001
ACAD
1000
AcDbSavedByObjectVersion
1070
     0
  0
ACAD_PROXY_OBJECT
  5
39
102
{ACAD_REACTORS
330
2A
102
}
330
2A
100
AcDbZombieObject
 90
      499
 91
      501
 93
      444
310
42D19858D95C185D1D195C9B90F409028333333333333E3BF0000000000000FB010790141107004050150841D405064090741402480A0350
1001
ACAD
1000
AcDbSavedByObjectVersion
1070
     0
  0
ACAD_PROXY_OBJECT
  5
2B
102
{ACAD_REACTORS
330
2A
102
}
330
2A
100
AcDbZombieObject
 90
      499
 91
      501
 93
      388
310
41119B185D240901404333333333333E3BF0000000000000F9010740A41107004050150841D405064090741402480A1B50
1001
ACAD
1000
AcDbSavedByObjectVersion
1070
     0
  0
ACAD_PROXY_OBJECT
  5
2C
102
{ACAD_REACTORS
330
2A
102
}
330
2A
100
AcDbZombieObject
 90
      499
 91
      501
 93
      476
310
43519B185D15DA5D1A115919D95CD0140901404333333333333E3BF0000000000000F9010740901411070040501600405405064090741402480A1B50
1001
ACAD
1000
AcDbSavedByObjectVersion
1070
     0
  0
ACAD_PROXY_OBJECT
  5
2D
102
{ACAD_REACTORS
330
2A
102
}
330
2A
100
AcDbZombieObject
 90
      499
 91
      501
 93
      412
310
41D1DBDD5C985D5910240902404333333333333E3BF0000000000000F9010740A411070040501641D405064090741402480A1B50
1001
ACAD
1000
AcDbSavedByObjectVersion
1070
     0
  0
ACAD_PROXY_OBJECT
  5
2E
102
{ACAD_REACTORS
330
2A
102
}
330
2A
100
AcDbZombieObject
 90
      499
 91
      501
 93
      500
310
4411DBDD5C985D5915DA5D1A115919D95CD0340902404333333333333E3BF0000000000000F9010740901411070040501600405405064090741402480A1B50
1001
ACAD
1000
AcDbSavedByObjectVersion
1070
     0
  0
ACAD_PROXY_OBJECT
  5
38
102
{ACAD_REACTORS
330
2A
102
}
330
2A
100
AcDbZombieObject
 90
      499
 91
      501
 93
      444
310
42D31A5B995C185D1D195C9B90E409028333333333333E3BF0000000000000FB010790141107004050750841D405064090741402483A0350
1001
ACAD
1000
AcDbSavedByObjectVersion
1070
     0
  0
ACAD_PROXY_OBJECT
  5
33
102
{ACAD_REACTORS
330
2A
102
}
330
2A
100
AcDbZombieObject
 90
      499
 91
      501
 93
      420
310
425499585B1A5CDD1A58D08409028333333333333E3BF0000000000000FB01079019070040501508421405064090741402480A1B40
1001
ACAD
1000
AcDbSavedByObjectVersion
1070
     0
  0
ACAD_PROXY_OBJECT
  5
37
102
{ACAD_REACTORS
330
2A
102
}
330
2A
100
AcDbZombieObject
 90
      499
 91
      501
 93
      412
310
41D51A1A58DAD95B90D409028333333333333E3BF0000000000000FB010790141107004050150C41D405064090741402480A0350
1001
ACAD
1000
AcDbSavedByObjectVersion
1070
     0
  0
DICTIONARYVAR
  5
57
102
{ACAD_REACTORS
330
54
102
}
330
54
100
DictionaryVariables
280
     0
  1
2
  0
DICTIONARYVAR
  5
58
102
{ACAD_REACTORS
330
54
102
}
330
54
100
DictionaryVariables
280
     0
  1
1
  0
DICTIONARY
  5
5B
330
3D
100
AcDbDictionary
  3
ACAD_XREC_ROUNDTRIP
360
5C
1001
ACAD
1000
TREAT_AS_HARD
1070
     1
  0
DICTIONARY
  5
59
330
3C
100
AcDbDictionary
  3
ACAD_XREC_ROUNDTRIP
360
5A
1001
ACAD
1000
TREAT_AS_HARD
1070
     1
  0
DICTIONARY
  5
5D
330
3E
100
AcDbDictionary
  3
ACAD_XREC_ROUNDTRIP
360
5E
1001
ACAD
1000
TREAT_AS_HARD
1070
     1
  0
XRECORD
  5
5C
102
{ACAD_REACTORS
330
5B
102
}
330
5B
100
AcDbXrecord
102
MATERIAL
148
0.0
149
0.0
149
0.0
 93
        0
 94
      127
282
     0
 72
     1
 77
     1
171
     1
175
     1
179
     1
273
     0
  0
XRECORD
  5
5A
102
{ACAD_REACTORS
330
59
102
}
330
59
100
AcDbXrecord
102
MATERIAL
148
0.0
149
0.0
149
0.0
 93
        0
 94
      127
282
     0
 72
     1
 77
     1
171
     1
175
     1
179
     1
273
     0
  0
XRECORD
  5
5E
102
{ACAD_REACTORS
330
5D
102
}
330
5D
100
AcDbXrecord
102
MATERIAL
148
0.0
149
0.0
149
0.0
 93
        0
 94
      127
282
     0
 72
     1
 77
     1
171
     1
175
     1
179
     1
273
     0
  0
ENDSEC
  0
EOF
