G75*
%MOIN*%
%OFA0B0*%
%FSLAX25Y25*%
%IPPOS*%
%LPD*%
%AMOC8*
5,1,8,0,0,1.08239X$1,22.5*
%
%ADD10C,0.00500*%
D10*
X0018780Y0005000D02*
X0247126Y0005000D01*
X0247459Y0005004D01*
X0247792Y0005016D01*
X0248124Y0005036D01*
X0248456Y0005064D01*
X0248787Y0005100D01*
X0249117Y0005145D01*
X0249446Y0005197D01*
X0249774Y0005257D01*
X0250100Y0005325D01*
X0250424Y0005400D01*
X0250746Y0005484D01*
X0251066Y0005575D01*
X0251384Y0005674D01*
X0251700Y0005781D01*
X0252012Y0005895D01*
X0252322Y0006017D01*
X0252629Y0006147D01*
X0252933Y0006283D01*
X0253233Y0006427D01*
X0253530Y0006578D01*
X0253823Y0006737D01*
X0254112Y0006902D01*
X0254397Y0007074D01*
X0254678Y0007253D01*
X0254954Y0007439D01*
X0255226Y0007632D01*
X0255493Y0007831D01*
X0255755Y0008036D01*
X0256012Y0008248D01*
X0256264Y0008466D01*
X0256510Y0008689D01*
X0256751Y0008919D01*
X0256987Y0009155D01*
X0257217Y0009396D01*
X0257440Y0009642D01*
X0257658Y0009894D01*
X0257870Y0010151D01*
X0258075Y0010413D01*
X0258274Y0010680D01*
X0258467Y0010952D01*
X0258653Y0011228D01*
X0258832Y0011509D01*
X0259004Y0011794D01*
X0259169Y0012083D01*
X0259328Y0012376D01*
X0259479Y0012673D01*
X0259623Y0012973D01*
X0259759Y0013277D01*
X0259889Y0013584D01*
X0260011Y0013894D01*
X0260125Y0014206D01*
X0260232Y0014522D01*
X0260331Y0014840D01*
X0260422Y0015160D01*
X0260506Y0015482D01*
X0260581Y0015806D01*
X0260649Y0016132D01*
X0260709Y0016460D01*
X0260761Y0016789D01*
X0260806Y0017119D01*
X0260842Y0017450D01*
X0260870Y0017782D01*
X0260890Y0018114D01*
X0260902Y0018447D01*
X0260906Y0018780D01*
X0260906Y0079803D01*
X0264843Y0087677D02*
X0274685Y0097520D01*
X0278622Y0105394D02*
X0278622Y0211693D01*
X0278623Y0211693D02*
X0278619Y0212026D01*
X0278607Y0212359D01*
X0278587Y0212691D01*
X0278559Y0213023D01*
X0278523Y0213354D01*
X0278478Y0213684D01*
X0278426Y0214013D01*
X0278366Y0214341D01*
X0278298Y0214667D01*
X0278223Y0214991D01*
X0278139Y0215313D01*
X0278048Y0215633D01*
X0277949Y0215951D01*
X0277842Y0216267D01*
X0277728Y0216579D01*
X0277606Y0216889D01*
X0277476Y0217196D01*
X0277340Y0217500D01*
X0277196Y0217800D01*
X0277045Y0218097D01*
X0276886Y0218390D01*
X0276721Y0218679D01*
X0276549Y0218964D01*
X0276370Y0219245D01*
X0276184Y0219521D01*
X0275991Y0219793D01*
X0275792Y0220060D01*
X0275587Y0220322D01*
X0275375Y0220579D01*
X0275157Y0220831D01*
X0274934Y0221077D01*
X0274704Y0221318D01*
X0274468Y0221554D01*
X0274227Y0221784D01*
X0273981Y0222007D01*
X0273729Y0222225D01*
X0273472Y0222437D01*
X0273210Y0222642D01*
X0272943Y0222841D01*
X0272671Y0223034D01*
X0272395Y0223220D01*
X0272114Y0223399D01*
X0271829Y0223571D01*
X0271540Y0223736D01*
X0271247Y0223895D01*
X0270950Y0224046D01*
X0270650Y0224190D01*
X0270346Y0224326D01*
X0270039Y0224456D01*
X0269729Y0224578D01*
X0269417Y0224692D01*
X0269101Y0224799D01*
X0268783Y0224898D01*
X0268463Y0224989D01*
X0268141Y0225073D01*
X0267817Y0225148D01*
X0267491Y0225216D01*
X0267163Y0225276D01*
X0266834Y0225328D01*
X0266504Y0225373D01*
X0266173Y0225409D01*
X0265841Y0225437D01*
X0265509Y0225457D01*
X0265176Y0225469D01*
X0264843Y0225473D01*
X0264843Y0225472D02*
X0018780Y0225472D01*
X0018780Y0225473D02*
X0018447Y0225469D01*
X0018114Y0225457D01*
X0017782Y0225437D01*
X0017450Y0225409D01*
X0017119Y0225373D01*
X0016789Y0225328D01*
X0016460Y0225276D01*
X0016132Y0225216D01*
X0015806Y0225148D01*
X0015482Y0225073D01*
X0015160Y0224989D01*
X0014840Y0224898D01*
X0014522Y0224799D01*
X0014206Y0224692D01*
X0013894Y0224578D01*
X0013584Y0224456D01*
X0013277Y0224326D01*
X0012973Y0224190D01*
X0012673Y0224046D01*
X0012376Y0223895D01*
X0012083Y0223736D01*
X0011794Y0223571D01*
X0011509Y0223399D01*
X0011228Y0223220D01*
X0010952Y0223034D01*
X0010680Y0222841D01*
X0010413Y0222642D01*
X0010151Y0222437D01*
X0009894Y0222225D01*
X0009642Y0222007D01*
X0009396Y0221784D01*
X0009155Y0221554D01*
X0008919Y0221318D01*
X0008689Y0221077D01*
X0008466Y0220831D01*
X0008248Y0220579D01*
X0008036Y0220322D01*
X0007831Y0220060D01*
X0007632Y0219793D01*
X0007439Y0219521D01*
X0007253Y0219245D01*
X0007074Y0218964D01*
X0006902Y0218679D01*
X0006737Y0218390D01*
X0006578Y0218097D01*
X0006427Y0217800D01*
X0006283Y0217500D01*
X0006147Y0217196D01*
X0006017Y0216889D01*
X0005895Y0216579D01*
X0005781Y0216267D01*
X0005674Y0215951D01*
X0005575Y0215633D01*
X0005484Y0215313D01*
X0005400Y0214991D01*
X0005325Y0214667D01*
X0005257Y0214341D01*
X0005197Y0214013D01*
X0005145Y0213684D01*
X0005100Y0213354D01*
X0005064Y0213023D01*
X0005036Y0212691D01*
X0005016Y0212359D01*
X0005004Y0212026D01*
X0005000Y0211693D01*
X0005000Y0018780D01*
X0005004Y0018447D01*
X0005016Y0018114D01*
X0005036Y0017782D01*
X0005064Y0017450D01*
X0005100Y0017119D01*
X0005145Y0016789D01*
X0005197Y0016460D01*
X0005257Y0016132D01*
X0005325Y0015806D01*
X0005400Y0015482D01*
X0005484Y0015160D01*
X0005575Y0014840D01*
X0005674Y0014522D01*
X0005781Y0014206D01*
X0005895Y0013894D01*
X0006017Y0013584D01*
X0006147Y0013277D01*
X0006283Y0012973D01*
X0006427Y0012673D01*
X0006578Y0012376D01*
X0006737Y0012083D01*
X0006902Y0011794D01*
X0007074Y0011509D01*
X0007253Y0011228D01*
X0007439Y0010952D01*
X0007632Y0010680D01*
X0007831Y0010413D01*
X0008036Y0010151D01*
X0008248Y0009894D01*
X0008466Y0009642D01*
X0008689Y0009396D01*
X0008919Y0009155D01*
X0009155Y0008919D01*
X0009396Y0008689D01*
X0009642Y0008466D01*
X0009894Y0008248D01*
X0010151Y0008036D01*
X0010413Y0007831D01*
X0010680Y0007632D01*
X0010952Y0007439D01*
X0011228Y0007253D01*
X0011509Y0007074D01*
X0011794Y0006902D01*
X0012083Y0006737D01*
X0012376Y0006578D01*
X0012673Y0006427D01*
X0012973Y0006283D01*
X0013277Y0006147D01*
X0013584Y0006017D01*
X0013894Y0005895D01*
X0014206Y0005781D01*
X0014522Y0005674D01*
X0014840Y0005575D01*
X0015160Y0005484D01*
X0015482Y0005400D01*
X0015806Y0005325D01*
X0016132Y0005257D01*
X0016460Y0005197D01*
X0016789Y0005145D01*
X0017119Y0005100D01*
X0017450Y0005064D01*
X0017782Y0005036D01*
X0018114Y0005016D01*
X0018447Y0005004D01*
X0018780Y0005000D01*
X0013268Y0018780D02*
X0013270Y0018928D01*
X0013276Y0019076D01*
X0013286Y0019224D01*
X0013300Y0019371D01*
X0013318Y0019518D01*
X0013339Y0019664D01*
X0013365Y0019810D01*
X0013395Y0019955D01*
X0013428Y0020099D01*
X0013466Y0020242D01*
X0013507Y0020384D01*
X0013552Y0020525D01*
X0013600Y0020665D01*
X0013653Y0020804D01*
X0013709Y0020941D01*
X0013769Y0021076D01*
X0013832Y0021210D01*
X0013899Y0021342D01*
X0013970Y0021472D01*
X0014044Y0021600D01*
X0014121Y0021726D01*
X0014202Y0021850D01*
X0014286Y0021972D01*
X0014373Y0022091D01*
X0014464Y0022208D01*
X0014558Y0022323D01*
X0014654Y0022435D01*
X0014754Y0022545D01*
X0014856Y0022651D01*
X0014962Y0022755D01*
X0015070Y0022856D01*
X0015181Y0022954D01*
X0015294Y0023050D01*
X0015410Y0023142D01*
X0015528Y0023231D01*
X0015649Y0023316D01*
X0015772Y0023399D01*
X0015897Y0023478D01*
X0016024Y0023554D01*
X0016153Y0023626D01*
X0016284Y0023695D01*
X0016417Y0023760D01*
X0016552Y0023821D01*
X0016688Y0023879D01*
X0016825Y0023934D01*
X0016964Y0023984D01*
X0017105Y0024031D01*
X0017246Y0024074D01*
X0017389Y0024114D01*
X0017533Y0024149D01*
X0017677Y0024181D01*
X0017823Y0024208D01*
X0017969Y0024232D01*
X0018116Y0024252D01*
X0018263Y0024268D01*
X0018410Y0024280D01*
X0018558Y0024288D01*
X0018706Y0024292D01*
X0018854Y0024292D01*
X0019002Y0024288D01*
X0019150Y0024280D01*
X0019297Y0024268D01*
X0019444Y0024252D01*
X0019591Y0024232D01*
X0019737Y0024208D01*
X0019883Y0024181D01*
X0020027Y0024149D01*
X0020171Y0024114D01*
X0020314Y0024074D01*
X0020455Y0024031D01*
X0020596Y0023984D01*
X0020735Y0023934D01*
X0020872Y0023879D01*
X0021008Y0023821D01*
X0021143Y0023760D01*
X0021276Y0023695D01*
X0021407Y0023626D01*
X0021536Y0023554D01*
X0021663Y0023478D01*
X0021788Y0023399D01*
X0021911Y0023316D01*
X0022032Y0023231D01*
X0022150Y0023142D01*
X0022266Y0023050D01*
X0022379Y0022954D01*
X0022490Y0022856D01*
X0022598Y0022755D01*
X0022704Y0022651D01*
X0022806Y0022545D01*
X0022906Y0022435D01*
X0023002Y0022323D01*
X0023096Y0022208D01*
X0023187Y0022091D01*
X0023274Y0021972D01*
X0023358Y0021850D01*
X0023439Y0021726D01*
X0023516Y0021600D01*
X0023590Y0021472D01*
X0023661Y0021342D01*
X0023728Y0021210D01*
X0023791Y0021076D01*
X0023851Y0020941D01*
X0023907Y0020804D01*
X0023960Y0020665D01*
X0024008Y0020525D01*
X0024053Y0020384D01*
X0024094Y0020242D01*
X0024132Y0020099D01*
X0024165Y0019955D01*
X0024195Y0019810D01*
X0024221Y0019664D01*
X0024242Y0019518D01*
X0024260Y0019371D01*
X0024274Y0019224D01*
X0024284Y0019076D01*
X0024290Y0018928D01*
X0024292Y0018780D01*
X0024290Y0018632D01*
X0024284Y0018484D01*
X0024274Y0018336D01*
X0024260Y0018189D01*
X0024242Y0018042D01*
X0024221Y0017896D01*
X0024195Y0017750D01*
X0024165Y0017605D01*
X0024132Y0017461D01*
X0024094Y0017318D01*
X0024053Y0017176D01*
X0024008Y0017035D01*
X0023960Y0016895D01*
X0023907Y0016756D01*
X0023851Y0016619D01*
X0023791Y0016484D01*
X0023728Y0016350D01*
X0023661Y0016218D01*
X0023590Y0016088D01*
X0023516Y0015960D01*
X0023439Y0015834D01*
X0023358Y0015710D01*
X0023274Y0015588D01*
X0023187Y0015469D01*
X0023096Y0015352D01*
X0023002Y0015237D01*
X0022906Y0015125D01*
X0022806Y0015015D01*
X0022704Y0014909D01*
X0022598Y0014805D01*
X0022490Y0014704D01*
X0022379Y0014606D01*
X0022266Y0014510D01*
X0022150Y0014418D01*
X0022032Y0014329D01*
X0021911Y0014244D01*
X0021788Y0014161D01*
X0021663Y0014082D01*
X0021536Y0014006D01*
X0021407Y0013934D01*
X0021276Y0013865D01*
X0021143Y0013800D01*
X0021008Y0013739D01*
X0020872Y0013681D01*
X0020735Y0013626D01*
X0020596Y0013576D01*
X0020455Y0013529D01*
X0020314Y0013486D01*
X0020171Y0013446D01*
X0020027Y0013411D01*
X0019883Y0013379D01*
X0019737Y0013352D01*
X0019591Y0013328D01*
X0019444Y0013308D01*
X0019297Y0013292D01*
X0019150Y0013280D01*
X0019002Y0013272D01*
X0018854Y0013268D01*
X0018706Y0013268D01*
X0018558Y0013272D01*
X0018410Y0013280D01*
X0018263Y0013292D01*
X0018116Y0013308D01*
X0017969Y0013328D01*
X0017823Y0013352D01*
X0017677Y0013379D01*
X0017533Y0013411D01*
X0017389Y0013446D01*
X0017246Y0013486D01*
X0017105Y0013529D01*
X0016964Y0013576D01*
X0016825Y0013626D01*
X0016688Y0013681D01*
X0016552Y0013739D01*
X0016417Y0013800D01*
X0016284Y0013865D01*
X0016153Y0013934D01*
X0016024Y0014006D01*
X0015897Y0014082D01*
X0015772Y0014161D01*
X0015649Y0014244D01*
X0015528Y0014329D01*
X0015410Y0014418D01*
X0015294Y0014510D01*
X0015181Y0014606D01*
X0015070Y0014704D01*
X0014962Y0014805D01*
X0014856Y0014909D01*
X0014754Y0015015D01*
X0014654Y0015125D01*
X0014558Y0015237D01*
X0014464Y0015352D01*
X0014373Y0015469D01*
X0014286Y0015588D01*
X0014202Y0015710D01*
X0014121Y0015834D01*
X0014044Y0015960D01*
X0013970Y0016088D01*
X0013899Y0016218D01*
X0013832Y0016350D01*
X0013769Y0016484D01*
X0013709Y0016619D01*
X0013653Y0016756D01*
X0013600Y0016895D01*
X0013552Y0017035D01*
X0013507Y0017176D01*
X0013466Y0017318D01*
X0013428Y0017461D01*
X0013395Y0017605D01*
X0013365Y0017750D01*
X0013339Y0017896D01*
X0013318Y0018042D01*
X0013300Y0018189D01*
X0013286Y0018336D01*
X0013276Y0018484D01*
X0013270Y0018632D01*
X0013268Y0018780D01*
X0055295Y0040094D02*
X0055297Y0040252D01*
X0055303Y0040410D01*
X0055313Y0040568D01*
X0055327Y0040726D01*
X0055345Y0040883D01*
X0055366Y0041040D01*
X0055392Y0041196D01*
X0055422Y0041352D01*
X0055455Y0041507D01*
X0055493Y0041660D01*
X0055534Y0041813D01*
X0055579Y0041965D01*
X0055628Y0042116D01*
X0055681Y0042265D01*
X0055737Y0042413D01*
X0055797Y0042559D01*
X0055861Y0042704D01*
X0055929Y0042847D01*
X0056000Y0042989D01*
X0056074Y0043129D01*
X0056152Y0043266D01*
X0056234Y0043402D01*
X0056318Y0043536D01*
X0056407Y0043667D01*
X0056498Y0043796D01*
X0056593Y0043923D01*
X0056690Y0044048D01*
X0056791Y0044170D01*
X0056895Y0044289D01*
X0057002Y0044406D01*
X0057112Y0044520D01*
X0057225Y0044631D01*
X0057340Y0044740D01*
X0057458Y0044845D01*
X0057579Y0044947D01*
X0057702Y0045047D01*
X0057828Y0045143D01*
X0057956Y0045236D01*
X0058086Y0045326D01*
X0058219Y0045412D01*
X0058354Y0045496D01*
X0058490Y0045575D01*
X0058629Y0045652D01*
X0058770Y0045724D01*
X0058912Y0045794D01*
X0059056Y0045859D01*
X0059202Y0045921D01*
X0059349Y0045979D01*
X0059498Y0046034D01*
X0059648Y0046085D01*
X0059799Y0046132D01*
X0059951Y0046175D01*
X0060104Y0046214D01*
X0060259Y0046250D01*
X0060414Y0046281D01*
X0060570Y0046309D01*
X0060726Y0046333D01*
X0060883Y0046353D01*
X0061041Y0046369D01*
X0061198Y0046381D01*
X0061357Y0046389D01*
X0061515Y0046393D01*
X0061673Y0046393D01*
X0061831Y0046389D01*
X0061990Y0046381D01*
X0062147Y0046369D01*
X0062305Y0046353D01*
X0062462Y0046333D01*
X0062618Y0046309D01*
X0062774Y0046281D01*
X0062929Y0046250D01*
X0063084Y0046214D01*
X0063237Y0046175D01*
X0063389Y0046132D01*
X0063540Y0046085D01*
X0063690Y0046034D01*
X0063839Y0045979D01*
X0063986Y0045921D01*
X0064132Y0045859D01*
X0064276Y0045794D01*
X0064418Y0045724D01*
X0064559Y0045652D01*
X0064698Y0045575D01*
X0064834Y0045496D01*
X0064969Y0045412D01*
X0065102Y0045326D01*
X0065232Y0045236D01*
X0065360Y0045143D01*
X0065486Y0045047D01*
X0065609Y0044947D01*
X0065730Y0044845D01*
X0065848Y0044740D01*
X0065963Y0044631D01*
X0066076Y0044520D01*
X0066186Y0044406D01*
X0066293Y0044289D01*
X0066397Y0044170D01*
X0066498Y0044048D01*
X0066595Y0043923D01*
X0066690Y0043796D01*
X0066781Y0043667D01*
X0066870Y0043536D01*
X0066954Y0043402D01*
X0067036Y0043266D01*
X0067114Y0043129D01*
X0067188Y0042989D01*
X0067259Y0042847D01*
X0067327Y0042704D01*
X0067391Y0042559D01*
X0067451Y0042413D01*
X0067507Y0042265D01*
X0067560Y0042116D01*
X0067609Y0041965D01*
X0067654Y0041813D01*
X0067695Y0041660D01*
X0067733Y0041507D01*
X0067766Y0041352D01*
X0067796Y0041196D01*
X0067822Y0041040D01*
X0067843Y0040883D01*
X0067861Y0040726D01*
X0067875Y0040568D01*
X0067885Y0040410D01*
X0067891Y0040252D01*
X0067893Y0040094D01*
X0067891Y0039936D01*
X0067885Y0039778D01*
X0067875Y0039620D01*
X0067861Y0039462D01*
X0067843Y0039305D01*
X0067822Y0039148D01*
X0067796Y0038992D01*
X0067766Y0038836D01*
X0067733Y0038681D01*
X0067695Y0038528D01*
X0067654Y0038375D01*
X0067609Y0038223D01*
X0067560Y0038072D01*
X0067507Y0037923D01*
X0067451Y0037775D01*
X0067391Y0037629D01*
X0067327Y0037484D01*
X0067259Y0037341D01*
X0067188Y0037199D01*
X0067114Y0037059D01*
X0067036Y0036922D01*
X0066954Y0036786D01*
X0066870Y0036652D01*
X0066781Y0036521D01*
X0066690Y0036392D01*
X0066595Y0036265D01*
X0066498Y0036140D01*
X0066397Y0036018D01*
X0066293Y0035899D01*
X0066186Y0035782D01*
X0066076Y0035668D01*
X0065963Y0035557D01*
X0065848Y0035448D01*
X0065730Y0035343D01*
X0065609Y0035241D01*
X0065486Y0035141D01*
X0065360Y0035045D01*
X0065232Y0034952D01*
X0065102Y0034862D01*
X0064969Y0034776D01*
X0064834Y0034692D01*
X0064698Y0034613D01*
X0064559Y0034536D01*
X0064418Y0034464D01*
X0064276Y0034394D01*
X0064132Y0034329D01*
X0063986Y0034267D01*
X0063839Y0034209D01*
X0063690Y0034154D01*
X0063540Y0034103D01*
X0063389Y0034056D01*
X0063237Y0034013D01*
X0063084Y0033974D01*
X0062929Y0033938D01*
X0062774Y0033907D01*
X0062618Y0033879D01*
X0062462Y0033855D01*
X0062305Y0033835D01*
X0062147Y0033819D01*
X0061990Y0033807D01*
X0061831Y0033799D01*
X0061673Y0033795D01*
X0061515Y0033795D01*
X0061357Y0033799D01*
X0061198Y0033807D01*
X0061041Y0033819D01*
X0060883Y0033835D01*
X0060726Y0033855D01*
X0060570Y0033879D01*
X0060414Y0033907D01*
X0060259Y0033938D01*
X0060104Y0033974D01*
X0059951Y0034013D01*
X0059799Y0034056D01*
X0059648Y0034103D01*
X0059498Y0034154D01*
X0059349Y0034209D01*
X0059202Y0034267D01*
X0059056Y0034329D01*
X0058912Y0034394D01*
X0058770Y0034464D01*
X0058629Y0034536D01*
X0058490Y0034613D01*
X0058354Y0034692D01*
X0058219Y0034776D01*
X0058086Y0034862D01*
X0057956Y0034952D01*
X0057828Y0035045D01*
X0057702Y0035141D01*
X0057579Y0035241D01*
X0057458Y0035343D01*
X0057340Y0035448D01*
X0057225Y0035557D01*
X0057112Y0035668D01*
X0057002Y0035782D01*
X0056895Y0035899D01*
X0056791Y0036018D01*
X0056690Y0036140D01*
X0056593Y0036265D01*
X0056498Y0036392D01*
X0056407Y0036521D01*
X0056318Y0036652D01*
X0056234Y0036786D01*
X0056152Y0036922D01*
X0056074Y0037059D01*
X0056000Y0037199D01*
X0055929Y0037341D01*
X0055861Y0037484D01*
X0055797Y0037629D01*
X0055737Y0037775D01*
X0055681Y0037923D01*
X0055628Y0038072D01*
X0055579Y0038223D01*
X0055534Y0038375D01*
X0055493Y0038528D01*
X0055455Y0038681D01*
X0055422Y0038836D01*
X0055392Y0038992D01*
X0055366Y0039148D01*
X0055345Y0039305D01*
X0055327Y0039462D01*
X0055313Y0039620D01*
X0055303Y0039778D01*
X0055297Y0039936D01*
X0055295Y0040094D01*
X0115295Y0040094D02*
X0115297Y0040252D01*
X0115303Y0040410D01*
X0115313Y0040568D01*
X0115327Y0040726D01*
X0115345Y0040883D01*
X0115366Y0041040D01*
X0115392Y0041196D01*
X0115422Y0041352D01*
X0115455Y0041507D01*
X0115493Y0041660D01*
X0115534Y0041813D01*
X0115579Y0041965D01*
X0115628Y0042116D01*
X0115681Y0042265D01*
X0115737Y0042413D01*
X0115797Y0042559D01*
X0115861Y0042704D01*
X0115929Y0042847D01*
X0116000Y0042989D01*
X0116074Y0043129D01*
X0116152Y0043266D01*
X0116234Y0043402D01*
X0116318Y0043536D01*
X0116407Y0043667D01*
X0116498Y0043796D01*
X0116593Y0043923D01*
X0116690Y0044048D01*
X0116791Y0044170D01*
X0116895Y0044289D01*
X0117002Y0044406D01*
X0117112Y0044520D01*
X0117225Y0044631D01*
X0117340Y0044740D01*
X0117458Y0044845D01*
X0117579Y0044947D01*
X0117702Y0045047D01*
X0117828Y0045143D01*
X0117956Y0045236D01*
X0118086Y0045326D01*
X0118219Y0045412D01*
X0118354Y0045496D01*
X0118490Y0045575D01*
X0118629Y0045652D01*
X0118770Y0045724D01*
X0118912Y0045794D01*
X0119056Y0045859D01*
X0119202Y0045921D01*
X0119349Y0045979D01*
X0119498Y0046034D01*
X0119648Y0046085D01*
X0119799Y0046132D01*
X0119951Y0046175D01*
X0120104Y0046214D01*
X0120259Y0046250D01*
X0120414Y0046281D01*
X0120570Y0046309D01*
X0120726Y0046333D01*
X0120883Y0046353D01*
X0121041Y0046369D01*
X0121198Y0046381D01*
X0121357Y0046389D01*
X0121515Y0046393D01*
X0121673Y0046393D01*
X0121831Y0046389D01*
X0121990Y0046381D01*
X0122147Y0046369D01*
X0122305Y0046353D01*
X0122462Y0046333D01*
X0122618Y0046309D01*
X0122774Y0046281D01*
X0122929Y0046250D01*
X0123084Y0046214D01*
X0123237Y0046175D01*
X0123389Y0046132D01*
X0123540Y0046085D01*
X0123690Y0046034D01*
X0123839Y0045979D01*
X0123986Y0045921D01*
X0124132Y0045859D01*
X0124276Y0045794D01*
X0124418Y0045724D01*
X0124559Y0045652D01*
X0124698Y0045575D01*
X0124834Y0045496D01*
X0124969Y0045412D01*
X0125102Y0045326D01*
X0125232Y0045236D01*
X0125360Y0045143D01*
X0125486Y0045047D01*
X0125609Y0044947D01*
X0125730Y0044845D01*
X0125848Y0044740D01*
X0125963Y0044631D01*
X0126076Y0044520D01*
X0126186Y0044406D01*
X0126293Y0044289D01*
X0126397Y0044170D01*
X0126498Y0044048D01*
X0126595Y0043923D01*
X0126690Y0043796D01*
X0126781Y0043667D01*
X0126870Y0043536D01*
X0126954Y0043402D01*
X0127036Y0043266D01*
X0127114Y0043129D01*
X0127188Y0042989D01*
X0127259Y0042847D01*
X0127327Y0042704D01*
X0127391Y0042559D01*
X0127451Y0042413D01*
X0127507Y0042265D01*
X0127560Y0042116D01*
X0127609Y0041965D01*
X0127654Y0041813D01*
X0127695Y0041660D01*
X0127733Y0041507D01*
X0127766Y0041352D01*
X0127796Y0041196D01*
X0127822Y0041040D01*
X0127843Y0040883D01*
X0127861Y0040726D01*
X0127875Y0040568D01*
X0127885Y0040410D01*
X0127891Y0040252D01*
X0127893Y0040094D01*
X0127891Y0039936D01*
X0127885Y0039778D01*
X0127875Y0039620D01*
X0127861Y0039462D01*
X0127843Y0039305D01*
X0127822Y0039148D01*
X0127796Y0038992D01*
X0127766Y0038836D01*
X0127733Y0038681D01*
X0127695Y0038528D01*
X0127654Y0038375D01*
X0127609Y0038223D01*
X0127560Y0038072D01*
X0127507Y0037923D01*
X0127451Y0037775D01*
X0127391Y0037629D01*
X0127327Y0037484D01*
X0127259Y0037341D01*
X0127188Y0037199D01*
X0127114Y0037059D01*
X0127036Y0036922D01*
X0126954Y0036786D01*
X0126870Y0036652D01*
X0126781Y0036521D01*
X0126690Y0036392D01*
X0126595Y0036265D01*
X0126498Y0036140D01*
X0126397Y0036018D01*
X0126293Y0035899D01*
X0126186Y0035782D01*
X0126076Y0035668D01*
X0125963Y0035557D01*
X0125848Y0035448D01*
X0125730Y0035343D01*
X0125609Y0035241D01*
X0125486Y0035141D01*
X0125360Y0035045D01*
X0125232Y0034952D01*
X0125102Y0034862D01*
X0124969Y0034776D01*
X0124834Y0034692D01*
X0124698Y0034613D01*
X0124559Y0034536D01*
X0124418Y0034464D01*
X0124276Y0034394D01*
X0124132Y0034329D01*
X0123986Y0034267D01*
X0123839Y0034209D01*
X0123690Y0034154D01*
X0123540Y0034103D01*
X0123389Y0034056D01*
X0123237Y0034013D01*
X0123084Y0033974D01*
X0122929Y0033938D01*
X0122774Y0033907D01*
X0122618Y0033879D01*
X0122462Y0033855D01*
X0122305Y0033835D01*
X0122147Y0033819D01*
X0121990Y0033807D01*
X0121831Y0033799D01*
X0121673Y0033795D01*
X0121515Y0033795D01*
X0121357Y0033799D01*
X0121198Y0033807D01*
X0121041Y0033819D01*
X0120883Y0033835D01*
X0120726Y0033855D01*
X0120570Y0033879D01*
X0120414Y0033907D01*
X0120259Y0033938D01*
X0120104Y0033974D01*
X0119951Y0034013D01*
X0119799Y0034056D01*
X0119648Y0034103D01*
X0119498Y0034154D01*
X0119349Y0034209D01*
X0119202Y0034267D01*
X0119056Y0034329D01*
X0118912Y0034394D01*
X0118770Y0034464D01*
X0118629Y0034536D01*
X0118490Y0034613D01*
X0118354Y0034692D01*
X0118219Y0034776D01*
X0118086Y0034862D01*
X0117956Y0034952D01*
X0117828Y0035045D01*
X0117702Y0035141D01*
X0117579Y0035241D01*
X0117458Y0035343D01*
X0117340Y0035448D01*
X0117225Y0035557D01*
X0117112Y0035668D01*
X0117002Y0035782D01*
X0116895Y0035899D01*
X0116791Y0036018D01*
X0116690Y0036140D01*
X0116593Y0036265D01*
X0116498Y0036392D01*
X0116407Y0036521D01*
X0116318Y0036652D01*
X0116234Y0036786D01*
X0116152Y0036922D01*
X0116074Y0037059D01*
X0116000Y0037199D01*
X0115929Y0037341D01*
X0115861Y0037484D01*
X0115797Y0037629D01*
X0115737Y0037775D01*
X0115681Y0037923D01*
X0115628Y0038072D01*
X0115579Y0038223D01*
X0115534Y0038375D01*
X0115493Y0038528D01*
X0115455Y0038681D01*
X0115422Y0038836D01*
X0115392Y0038992D01*
X0115366Y0039148D01*
X0115345Y0039305D01*
X0115327Y0039462D01*
X0115313Y0039620D01*
X0115303Y0039778D01*
X0115297Y0039936D01*
X0115295Y0040094D01*
X0175295Y0040094D02*
X0175297Y0040252D01*
X0175303Y0040410D01*
X0175313Y0040568D01*
X0175327Y0040726D01*
X0175345Y0040883D01*
X0175366Y0041040D01*
X0175392Y0041196D01*
X0175422Y0041352D01*
X0175455Y0041507D01*
X0175493Y0041660D01*
X0175534Y0041813D01*
X0175579Y0041965D01*
X0175628Y0042116D01*
X0175681Y0042265D01*
X0175737Y0042413D01*
X0175797Y0042559D01*
X0175861Y0042704D01*
X0175929Y0042847D01*
X0176000Y0042989D01*
X0176074Y0043129D01*
X0176152Y0043266D01*
X0176234Y0043402D01*
X0176318Y0043536D01*
X0176407Y0043667D01*
X0176498Y0043796D01*
X0176593Y0043923D01*
X0176690Y0044048D01*
X0176791Y0044170D01*
X0176895Y0044289D01*
X0177002Y0044406D01*
X0177112Y0044520D01*
X0177225Y0044631D01*
X0177340Y0044740D01*
X0177458Y0044845D01*
X0177579Y0044947D01*
X0177702Y0045047D01*
X0177828Y0045143D01*
X0177956Y0045236D01*
X0178086Y0045326D01*
X0178219Y0045412D01*
X0178354Y0045496D01*
X0178490Y0045575D01*
X0178629Y0045652D01*
X0178770Y0045724D01*
X0178912Y0045794D01*
X0179056Y0045859D01*
X0179202Y0045921D01*
X0179349Y0045979D01*
X0179498Y0046034D01*
X0179648Y0046085D01*
X0179799Y0046132D01*
X0179951Y0046175D01*
X0180104Y0046214D01*
X0180259Y0046250D01*
X0180414Y0046281D01*
X0180570Y0046309D01*
X0180726Y0046333D01*
X0180883Y0046353D01*
X0181041Y0046369D01*
X0181198Y0046381D01*
X0181357Y0046389D01*
X0181515Y0046393D01*
X0181673Y0046393D01*
X0181831Y0046389D01*
X0181990Y0046381D01*
X0182147Y0046369D01*
X0182305Y0046353D01*
X0182462Y0046333D01*
X0182618Y0046309D01*
X0182774Y0046281D01*
X0182929Y0046250D01*
X0183084Y0046214D01*
X0183237Y0046175D01*
X0183389Y0046132D01*
X0183540Y0046085D01*
X0183690Y0046034D01*
X0183839Y0045979D01*
X0183986Y0045921D01*
X0184132Y0045859D01*
X0184276Y0045794D01*
X0184418Y0045724D01*
X0184559Y0045652D01*
X0184698Y0045575D01*
X0184834Y0045496D01*
X0184969Y0045412D01*
X0185102Y0045326D01*
X0185232Y0045236D01*
X0185360Y0045143D01*
X0185486Y0045047D01*
X0185609Y0044947D01*
X0185730Y0044845D01*
X0185848Y0044740D01*
X0185963Y0044631D01*
X0186076Y0044520D01*
X0186186Y0044406D01*
X0186293Y0044289D01*
X0186397Y0044170D01*
X0186498Y0044048D01*
X0186595Y0043923D01*
X0186690Y0043796D01*
X0186781Y0043667D01*
X0186870Y0043536D01*
X0186954Y0043402D01*
X0187036Y0043266D01*
X0187114Y0043129D01*
X0187188Y0042989D01*
X0187259Y0042847D01*
X0187327Y0042704D01*
X0187391Y0042559D01*
X0187451Y0042413D01*
X0187507Y0042265D01*
X0187560Y0042116D01*
X0187609Y0041965D01*
X0187654Y0041813D01*
X0187695Y0041660D01*
X0187733Y0041507D01*
X0187766Y0041352D01*
X0187796Y0041196D01*
X0187822Y0041040D01*
X0187843Y0040883D01*
X0187861Y0040726D01*
X0187875Y0040568D01*
X0187885Y0040410D01*
X0187891Y0040252D01*
X0187893Y0040094D01*
X0187891Y0039936D01*
X0187885Y0039778D01*
X0187875Y0039620D01*
X0187861Y0039462D01*
X0187843Y0039305D01*
X0187822Y0039148D01*
X0187796Y0038992D01*
X0187766Y0038836D01*
X0187733Y0038681D01*
X0187695Y0038528D01*
X0187654Y0038375D01*
X0187609Y0038223D01*
X0187560Y0038072D01*
X0187507Y0037923D01*
X0187451Y0037775D01*
X0187391Y0037629D01*
X0187327Y0037484D01*
X0187259Y0037341D01*
X0187188Y0037199D01*
X0187114Y0037059D01*
X0187036Y0036922D01*
X0186954Y0036786D01*
X0186870Y0036652D01*
X0186781Y0036521D01*
X0186690Y0036392D01*
X0186595Y0036265D01*
X0186498Y0036140D01*
X0186397Y0036018D01*
X0186293Y0035899D01*
X0186186Y0035782D01*
X0186076Y0035668D01*
X0185963Y0035557D01*
X0185848Y0035448D01*
X0185730Y0035343D01*
X0185609Y0035241D01*
X0185486Y0035141D01*
X0185360Y0035045D01*
X0185232Y0034952D01*
X0185102Y0034862D01*
X0184969Y0034776D01*
X0184834Y0034692D01*
X0184698Y0034613D01*
X0184559Y0034536D01*
X0184418Y0034464D01*
X0184276Y0034394D01*
X0184132Y0034329D01*
X0183986Y0034267D01*
X0183839Y0034209D01*
X0183690Y0034154D01*
X0183540Y0034103D01*
X0183389Y0034056D01*
X0183237Y0034013D01*
X0183084Y0033974D01*
X0182929Y0033938D01*
X0182774Y0033907D01*
X0182618Y0033879D01*
X0182462Y0033855D01*
X0182305Y0033835D01*
X0182147Y0033819D01*
X0181990Y0033807D01*
X0181831Y0033799D01*
X0181673Y0033795D01*
X0181515Y0033795D01*
X0181357Y0033799D01*
X0181198Y0033807D01*
X0181041Y0033819D01*
X0180883Y0033835D01*
X0180726Y0033855D01*
X0180570Y0033879D01*
X0180414Y0033907D01*
X0180259Y0033938D01*
X0180104Y0033974D01*
X0179951Y0034013D01*
X0179799Y0034056D01*
X0179648Y0034103D01*
X0179498Y0034154D01*
X0179349Y0034209D01*
X0179202Y0034267D01*
X0179056Y0034329D01*
X0178912Y0034394D01*
X0178770Y0034464D01*
X0178629Y0034536D01*
X0178490Y0034613D01*
X0178354Y0034692D01*
X0178219Y0034776D01*
X0178086Y0034862D01*
X0177956Y0034952D01*
X0177828Y0035045D01*
X0177702Y0035141D01*
X0177579Y0035241D01*
X0177458Y0035343D01*
X0177340Y0035448D01*
X0177225Y0035557D01*
X0177112Y0035668D01*
X0177002Y0035782D01*
X0176895Y0035899D01*
X0176791Y0036018D01*
X0176690Y0036140D01*
X0176593Y0036265D01*
X0176498Y0036392D01*
X0176407Y0036521D01*
X0176318Y0036652D01*
X0176234Y0036786D01*
X0176152Y0036922D01*
X0176074Y0037059D01*
X0176000Y0037199D01*
X0175929Y0037341D01*
X0175861Y0037484D01*
X0175797Y0037629D01*
X0175737Y0037775D01*
X0175681Y0037923D01*
X0175628Y0038072D01*
X0175579Y0038223D01*
X0175534Y0038375D01*
X0175493Y0038528D01*
X0175455Y0038681D01*
X0175422Y0038836D01*
X0175392Y0038992D01*
X0175366Y0039148D01*
X0175345Y0039305D01*
X0175327Y0039462D01*
X0175313Y0039620D01*
X0175303Y0039778D01*
X0175297Y0039936D01*
X0175295Y0040094D01*
X0235295Y0040094D02*
X0235297Y0040252D01*
X0235303Y0040410D01*
X0235313Y0040568D01*
X0235327Y0040726D01*
X0235345Y0040883D01*
X0235366Y0041040D01*
X0235392Y0041196D01*
X0235422Y0041352D01*
X0235455Y0041507D01*
X0235493Y0041660D01*
X0235534Y0041813D01*
X0235579Y0041965D01*
X0235628Y0042116D01*
X0235681Y0042265D01*
X0235737Y0042413D01*
X0235797Y0042559D01*
X0235861Y0042704D01*
X0235929Y0042847D01*
X0236000Y0042989D01*
X0236074Y0043129D01*
X0236152Y0043266D01*
X0236234Y0043402D01*
X0236318Y0043536D01*
X0236407Y0043667D01*
X0236498Y0043796D01*
X0236593Y0043923D01*
X0236690Y0044048D01*
X0236791Y0044170D01*
X0236895Y0044289D01*
X0237002Y0044406D01*
X0237112Y0044520D01*
X0237225Y0044631D01*
X0237340Y0044740D01*
X0237458Y0044845D01*
X0237579Y0044947D01*
X0237702Y0045047D01*
X0237828Y0045143D01*
X0237956Y0045236D01*
X0238086Y0045326D01*
X0238219Y0045412D01*
X0238354Y0045496D01*
X0238490Y0045575D01*
X0238629Y0045652D01*
X0238770Y0045724D01*
X0238912Y0045794D01*
X0239056Y0045859D01*
X0239202Y0045921D01*
X0239349Y0045979D01*
X0239498Y0046034D01*
X0239648Y0046085D01*
X0239799Y0046132D01*
X0239951Y0046175D01*
X0240104Y0046214D01*
X0240259Y0046250D01*
X0240414Y0046281D01*
X0240570Y0046309D01*
X0240726Y0046333D01*
X0240883Y0046353D01*
X0241041Y0046369D01*
X0241198Y0046381D01*
X0241357Y0046389D01*
X0241515Y0046393D01*
X0241673Y0046393D01*
X0241831Y0046389D01*
X0241990Y0046381D01*
X0242147Y0046369D01*
X0242305Y0046353D01*
X0242462Y0046333D01*
X0242618Y0046309D01*
X0242774Y0046281D01*
X0242929Y0046250D01*
X0243084Y0046214D01*
X0243237Y0046175D01*
X0243389Y0046132D01*
X0243540Y0046085D01*
X0243690Y0046034D01*
X0243839Y0045979D01*
X0243986Y0045921D01*
X0244132Y0045859D01*
X0244276Y0045794D01*
X0244418Y0045724D01*
X0244559Y0045652D01*
X0244698Y0045575D01*
X0244834Y0045496D01*
X0244969Y0045412D01*
X0245102Y0045326D01*
X0245232Y0045236D01*
X0245360Y0045143D01*
X0245486Y0045047D01*
X0245609Y0044947D01*
X0245730Y0044845D01*
X0245848Y0044740D01*
X0245963Y0044631D01*
X0246076Y0044520D01*
X0246186Y0044406D01*
X0246293Y0044289D01*
X0246397Y0044170D01*
X0246498Y0044048D01*
X0246595Y0043923D01*
X0246690Y0043796D01*
X0246781Y0043667D01*
X0246870Y0043536D01*
X0246954Y0043402D01*
X0247036Y0043266D01*
X0247114Y0043129D01*
X0247188Y0042989D01*
X0247259Y0042847D01*
X0247327Y0042704D01*
X0247391Y0042559D01*
X0247451Y0042413D01*
X0247507Y0042265D01*
X0247560Y0042116D01*
X0247609Y0041965D01*
X0247654Y0041813D01*
X0247695Y0041660D01*
X0247733Y0041507D01*
X0247766Y0041352D01*
X0247796Y0041196D01*
X0247822Y0041040D01*
X0247843Y0040883D01*
X0247861Y0040726D01*
X0247875Y0040568D01*
X0247885Y0040410D01*
X0247891Y0040252D01*
X0247893Y0040094D01*
X0247891Y0039936D01*
X0247885Y0039778D01*
X0247875Y0039620D01*
X0247861Y0039462D01*
X0247843Y0039305D01*
X0247822Y0039148D01*
X0247796Y0038992D01*
X0247766Y0038836D01*
X0247733Y0038681D01*
X0247695Y0038528D01*
X0247654Y0038375D01*
X0247609Y0038223D01*
X0247560Y0038072D01*
X0247507Y0037923D01*
X0247451Y0037775D01*
X0247391Y0037629D01*
X0247327Y0037484D01*
X0247259Y0037341D01*
X0247188Y0037199D01*
X0247114Y0037059D01*
X0247036Y0036922D01*
X0246954Y0036786D01*
X0246870Y0036652D01*
X0246781Y0036521D01*
X0246690Y0036392D01*
X0246595Y0036265D01*
X0246498Y0036140D01*
X0246397Y0036018D01*
X0246293Y0035899D01*
X0246186Y0035782D01*
X0246076Y0035668D01*
X0245963Y0035557D01*
X0245848Y0035448D01*
X0245730Y0035343D01*
X0245609Y0035241D01*
X0245486Y0035141D01*
X0245360Y0035045D01*
X0245232Y0034952D01*
X0245102Y0034862D01*
X0244969Y0034776D01*
X0244834Y0034692D01*
X0244698Y0034613D01*
X0244559Y0034536D01*
X0244418Y0034464D01*
X0244276Y0034394D01*
X0244132Y0034329D01*
X0243986Y0034267D01*
X0243839Y0034209D01*
X0243690Y0034154D01*
X0243540Y0034103D01*
X0243389Y0034056D01*
X0243237Y0034013D01*
X0243084Y0033974D01*
X0242929Y0033938D01*
X0242774Y0033907D01*
X0242618Y0033879D01*
X0242462Y0033855D01*
X0242305Y0033835D01*
X0242147Y0033819D01*
X0241990Y0033807D01*
X0241831Y0033799D01*
X0241673Y0033795D01*
X0241515Y0033795D01*
X0241357Y0033799D01*
X0241198Y0033807D01*
X0241041Y0033819D01*
X0240883Y0033835D01*
X0240726Y0033855D01*
X0240570Y0033879D01*
X0240414Y0033907D01*
X0240259Y0033938D01*
X0240104Y0033974D01*
X0239951Y0034013D01*
X0239799Y0034056D01*
X0239648Y0034103D01*
X0239498Y0034154D01*
X0239349Y0034209D01*
X0239202Y0034267D01*
X0239056Y0034329D01*
X0238912Y0034394D01*
X0238770Y0034464D01*
X0238629Y0034536D01*
X0238490Y0034613D01*
X0238354Y0034692D01*
X0238219Y0034776D01*
X0238086Y0034862D01*
X0237956Y0034952D01*
X0237828Y0035045D01*
X0237702Y0035141D01*
X0237579Y0035241D01*
X0237458Y0035343D01*
X0237340Y0035448D01*
X0237225Y0035557D01*
X0237112Y0035668D01*
X0237002Y0035782D01*
X0236895Y0035899D01*
X0236791Y0036018D01*
X0236690Y0036140D01*
X0236593Y0036265D01*
X0236498Y0036392D01*
X0236407Y0036521D01*
X0236318Y0036652D01*
X0236234Y0036786D01*
X0236152Y0036922D01*
X0236074Y0037059D01*
X0236000Y0037199D01*
X0235929Y0037341D01*
X0235861Y0037484D01*
X0235797Y0037629D01*
X0235737Y0037775D01*
X0235681Y0037923D01*
X0235628Y0038072D01*
X0235579Y0038223D01*
X0235534Y0038375D01*
X0235493Y0038528D01*
X0235455Y0038681D01*
X0235422Y0038836D01*
X0235392Y0038992D01*
X0235366Y0039148D01*
X0235345Y0039305D01*
X0235327Y0039462D01*
X0235313Y0039620D01*
X0235303Y0039778D01*
X0235297Y0039936D01*
X0235295Y0040094D01*
X0241614Y0018780D02*
X0241616Y0018928D01*
X0241622Y0019076D01*
X0241632Y0019224D01*
X0241646Y0019371D01*
X0241664Y0019518D01*
X0241685Y0019664D01*
X0241711Y0019810D01*
X0241741Y0019955D01*
X0241774Y0020099D01*
X0241812Y0020242D01*
X0241853Y0020384D01*
X0241898Y0020525D01*
X0241946Y0020665D01*
X0241999Y0020804D01*
X0242055Y0020941D01*
X0242115Y0021076D01*
X0242178Y0021210D01*
X0242245Y0021342D01*
X0242316Y0021472D01*
X0242390Y0021600D01*
X0242467Y0021726D01*
X0242548Y0021850D01*
X0242632Y0021972D01*
X0242719Y0022091D01*
X0242810Y0022208D01*
X0242904Y0022323D01*
X0243000Y0022435D01*
X0243100Y0022545D01*
X0243202Y0022651D01*
X0243308Y0022755D01*
X0243416Y0022856D01*
X0243527Y0022954D01*
X0243640Y0023050D01*
X0243756Y0023142D01*
X0243874Y0023231D01*
X0243995Y0023316D01*
X0244118Y0023399D01*
X0244243Y0023478D01*
X0244370Y0023554D01*
X0244499Y0023626D01*
X0244630Y0023695D01*
X0244763Y0023760D01*
X0244898Y0023821D01*
X0245034Y0023879D01*
X0245171Y0023934D01*
X0245310Y0023984D01*
X0245451Y0024031D01*
X0245592Y0024074D01*
X0245735Y0024114D01*
X0245879Y0024149D01*
X0246023Y0024181D01*
X0246169Y0024208D01*
X0246315Y0024232D01*
X0246462Y0024252D01*
X0246609Y0024268D01*
X0246756Y0024280D01*
X0246904Y0024288D01*
X0247052Y0024292D01*
X0247200Y0024292D01*
X0247348Y0024288D01*
X0247496Y0024280D01*
X0247643Y0024268D01*
X0247790Y0024252D01*
X0247937Y0024232D01*
X0248083Y0024208D01*
X0248229Y0024181D01*
X0248373Y0024149D01*
X0248517Y0024114D01*
X0248660Y0024074D01*
X0248801Y0024031D01*
X0248942Y0023984D01*
X0249081Y0023934D01*
X0249218Y0023879D01*
X0249354Y0023821D01*
X0249489Y0023760D01*
X0249622Y0023695D01*
X0249753Y0023626D01*
X0249882Y0023554D01*
X0250009Y0023478D01*
X0250134Y0023399D01*
X0250257Y0023316D01*
X0250378Y0023231D01*
X0250496Y0023142D01*
X0250612Y0023050D01*
X0250725Y0022954D01*
X0250836Y0022856D01*
X0250944Y0022755D01*
X0251050Y0022651D01*
X0251152Y0022545D01*
X0251252Y0022435D01*
X0251348Y0022323D01*
X0251442Y0022208D01*
X0251533Y0022091D01*
X0251620Y0021972D01*
X0251704Y0021850D01*
X0251785Y0021726D01*
X0251862Y0021600D01*
X0251936Y0021472D01*
X0252007Y0021342D01*
X0252074Y0021210D01*
X0252137Y0021076D01*
X0252197Y0020941D01*
X0252253Y0020804D01*
X0252306Y0020665D01*
X0252354Y0020525D01*
X0252399Y0020384D01*
X0252440Y0020242D01*
X0252478Y0020099D01*
X0252511Y0019955D01*
X0252541Y0019810D01*
X0252567Y0019664D01*
X0252588Y0019518D01*
X0252606Y0019371D01*
X0252620Y0019224D01*
X0252630Y0019076D01*
X0252636Y0018928D01*
X0252638Y0018780D01*
X0252636Y0018632D01*
X0252630Y0018484D01*
X0252620Y0018336D01*
X0252606Y0018189D01*
X0252588Y0018042D01*
X0252567Y0017896D01*
X0252541Y0017750D01*
X0252511Y0017605D01*
X0252478Y0017461D01*
X0252440Y0017318D01*
X0252399Y0017176D01*
X0252354Y0017035D01*
X0252306Y0016895D01*
X0252253Y0016756D01*
X0252197Y0016619D01*
X0252137Y0016484D01*
X0252074Y0016350D01*
X0252007Y0016218D01*
X0251936Y0016088D01*
X0251862Y0015960D01*
X0251785Y0015834D01*
X0251704Y0015710D01*
X0251620Y0015588D01*
X0251533Y0015469D01*
X0251442Y0015352D01*
X0251348Y0015237D01*
X0251252Y0015125D01*
X0251152Y0015015D01*
X0251050Y0014909D01*
X0250944Y0014805D01*
X0250836Y0014704D01*
X0250725Y0014606D01*
X0250612Y0014510D01*
X0250496Y0014418D01*
X0250378Y0014329D01*
X0250257Y0014244D01*
X0250134Y0014161D01*
X0250009Y0014082D01*
X0249882Y0014006D01*
X0249753Y0013934D01*
X0249622Y0013865D01*
X0249489Y0013800D01*
X0249354Y0013739D01*
X0249218Y0013681D01*
X0249081Y0013626D01*
X0248942Y0013576D01*
X0248801Y0013529D01*
X0248660Y0013486D01*
X0248517Y0013446D01*
X0248373Y0013411D01*
X0248229Y0013379D01*
X0248083Y0013352D01*
X0247937Y0013328D01*
X0247790Y0013308D01*
X0247643Y0013292D01*
X0247496Y0013280D01*
X0247348Y0013272D01*
X0247200Y0013268D01*
X0247052Y0013268D01*
X0246904Y0013272D01*
X0246756Y0013280D01*
X0246609Y0013292D01*
X0246462Y0013308D01*
X0246315Y0013328D01*
X0246169Y0013352D01*
X0246023Y0013379D01*
X0245879Y0013411D01*
X0245735Y0013446D01*
X0245592Y0013486D01*
X0245451Y0013529D01*
X0245310Y0013576D01*
X0245171Y0013626D01*
X0245034Y0013681D01*
X0244898Y0013739D01*
X0244763Y0013800D01*
X0244630Y0013865D01*
X0244499Y0013934D01*
X0244370Y0014006D01*
X0244243Y0014082D01*
X0244118Y0014161D01*
X0243995Y0014244D01*
X0243874Y0014329D01*
X0243756Y0014418D01*
X0243640Y0014510D01*
X0243527Y0014606D01*
X0243416Y0014704D01*
X0243308Y0014805D01*
X0243202Y0014909D01*
X0243100Y0015015D01*
X0243000Y0015125D01*
X0242904Y0015237D01*
X0242810Y0015352D01*
X0242719Y0015469D01*
X0242632Y0015588D01*
X0242548Y0015710D01*
X0242467Y0015834D01*
X0242390Y0015960D01*
X0242316Y0016088D01*
X0242245Y0016218D01*
X0242178Y0016350D01*
X0242115Y0016484D01*
X0242055Y0016619D01*
X0241999Y0016756D01*
X0241946Y0016895D01*
X0241898Y0017035D01*
X0241853Y0017176D01*
X0241812Y0017318D01*
X0241774Y0017461D01*
X0241741Y0017605D01*
X0241711Y0017750D01*
X0241685Y0017896D01*
X0241664Y0018042D01*
X0241646Y0018189D01*
X0241632Y0018336D01*
X0241622Y0018484D01*
X0241616Y0018632D01*
X0241614Y0018780D01*
X0260905Y0079803D02*
X0260908Y0080043D01*
X0260917Y0080283D01*
X0260931Y0080523D01*
X0260952Y0080762D01*
X0260978Y0081001D01*
X0261010Y0081239D01*
X0261048Y0081476D01*
X0261092Y0081712D01*
X0261141Y0081947D01*
X0261197Y0082181D01*
X0261257Y0082414D01*
X0261324Y0082644D01*
X0261396Y0082873D01*
X0261474Y0083101D01*
X0261557Y0083326D01*
X0261646Y0083549D01*
X0261740Y0083770D01*
X0261839Y0083989D01*
X0261944Y0084205D01*
X0262054Y0084418D01*
X0262169Y0084629D01*
X0262290Y0084837D01*
X0262415Y0085042D01*
X0262545Y0085244D01*
X0262681Y0085442D01*
X0262821Y0085637D01*
X0262965Y0085829D01*
X0263115Y0086017D01*
X0263269Y0086202D01*
X0263427Y0086382D01*
X0263590Y0086559D01*
X0263757Y0086732D01*
X0263928Y0086900D01*
X0264103Y0087064D01*
X0264282Y0087224D01*
X0264465Y0087380D01*
X0264652Y0087531D01*
X0264842Y0087677D01*
X0274685Y0097519D02*
X0274864Y0097645D01*
X0275040Y0097775D01*
X0275212Y0097910D01*
X0275382Y0098048D01*
X0275548Y0098191D01*
X0275710Y0098337D01*
X0275869Y0098488D01*
X0276025Y0098642D01*
X0276176Y0098800D01*
X0276324Y0098961D01*
X0276468Y0099126D01*
X0276607Y0099295D01*
X0276743Y0099466D01*
X0276874Y0099641D01*
X0277002Y0099819D01*
X0277124Y0100000D01*
X0277243Y0100184D01*
X0277357Y0100371D01*
X0277466Y0100561D01*
X0277571Y0100753D01*
X0277671Y0100947D01*
X0277767Y0101144D01*
X0277858Y0101343D01*
X0277944Y0101545D01*
X0278025Y0101748D01*
X0278101Y0101953D01*
X0278172Y0102160D01*
X0278238Y0102369D01*
X0278299Y0102579D01*
X0278355Y0102790D01*
X0278406Y0103003D01*
X0278452Y0103217D01*
X0278492Y0103432D01*
X0278528Y0103648D01*
X0278558Y0103865D01*
X0278583Y0104082D01*
X0278602Y0104300D01*
X0278617Y0104518D01*
X0278626Y0104737D01*
X0278630Y0104956D01*
X0278628Y0105175D01*
X0278622Y0105393D01*
X0241614Y0211693D02*
X0241616Y0211841D01*
X0241622Y0211989D01*
X0241632Y0212137D01*
X0241646Y0212284D01*
X0241664Y0212431D01*
X0241685Y0212577D01*
X0241711Y0212723D01*
X0241741Y0212868D01*
X0241774Y0213012D01*
X0241812Y0213155D01*
X0241853Y0213297D01*
X0241898Y0213438D01*
X0241946Y0213578D01*
X0241999Y0213717D01*
X0242055Y0213854D01*
X0242115Y0213989D01*
X0242178Y0214123D01*
X0242245Y0214255D01*
X0242316Y0214385D01*
X0242390Y0214513D01*
X0242467Y0214639D01*
X0242548Y0214763D01*
X0242632Y0214885D01*
X0242719Y0215004D01*
X0242810Y0215121D01*
X0242904Y0215236D01*
X0243000Y0215348D01*
X0243100Y0215458D01*
X0243202Y0215564D01*
X0243308Y0215668D01*
X0243416Y0215769D01*
X0243527Y0215867D01*
X0243640Y0215963D01*
X0243756Y0216055D01*
X0243874Y0216144D01*
X0243995Y0216229D01*
X0244118Y0216312D01*
X0244243Y0216391D01*
X0244370Y0216467D01*
X0244499Y0216539D01*
X0244630Y0216608D01*
X0244763Y0216673D01*
X0244898Y0216734D01*
X0245034Y0216792D01*
X0245171Y0216847D01*
X0245310Y0216897D01*
X0245451Y0216944D01*
X0245592Y0216987D01*
X0245735Y0217027D01*
X0245879Y0217062D01*
X0246023Y0217094D01*
X0246169Y0217121D01*
X0246315Y0217145D01*
X0246462Y0217165D01*
X0246609Y0217181D01*
X0246756Y0217193D01*
X0246904Y0217201D01*
X0247052Y0217205D01*
X0247200Y0217205D01*
X0247348Y0217201D01*
X0247496Y0217193D01*
X0247643Y0217181D01*
X0247790Y0217165D01*
X0247937Y0217145D01*
X0248083Y0217121D01*
X0248229Y0217094D01*
X0248373Y0217062D01*
X0248517Y0217027D01*
X0248660Y0216987D01*
X0248801Y0216944D01*
X0248942Y0216897D01*
X0249081Y0216847D01*
X0249218Y0216792D01*
X0249354Y0216734D01*
X0249489Y0216673D01*
X0249622Y0216608D01*
X0249753Y0216539D01*
X0249882Y0216467D01*
X0250009Y0216391D01*
X0250134Y0216312D01*
X0250257Y0216229D01*
X0250378Y0216144D01*
X0250496Y0216055D01*
X0250612Y0215963D01*
X0250725Y0215867D01*
X0250836Y0215769D01*
X0250944Y0215668D01*
X0251050Y0215564D01*
X0251152Y0215458D01*
X0251252Y0215348D01*
X0251348Y0215236D01*
X0251442Y0215121D01*
X0251533Y0215004D01*
X0251620Y0214885D01*
X0251704Y0214763D01*
X0251785Y0214639D01*
X0251862Y0214513D01*
X0251936Y0214385D01*
X0252007Y0214255D01*
X0252074Y0214123D01*
X0252137Y0213989D01*
X0252197Y0213854D01*
X0252253Y0213717D01*
X0252306Y0213578D01*
X0252354Y0213438D01*
X0252399Y0213297D01*
X0252440Y0213155D01*
X0252478Y0213012D01*
X0252511Y0212868D01*
X0252541Y0212723D01*
X0252567Y0212577D01*
X0252588Y0212431D01*
X0252606Y0212284D01*
X0252620Y0212137D01*
X0252630Y0211989D01*
X0252636Y0211841D01*
X0252638Y0211693D01*
X0252636Y0211545D01*
X0252630Y0211397D01*
X0252620Y0211249D01*
X0252606Y0211102D01*
X0252588Y0210955D01*
X0252567Y0210809D01*
X0252541Y0210663D01*
X0252511Y0210518D01*
X0252478Y0210374D01*
X0252440Y0210231D01*
X0252399Y0210089D01*
X0252354Y0209948D01*
X0252306Y0209808D01*
X0252253Y0209669D01*
X0252197Y0209532D01*
X0252137Y0209397D01*
X0252074Y0209263D01*
X0252007Y0209131D01*
X0251936Y0209001D01*
X0251862Y0208873D01*
X0251785Y0208747D01*
X0251704Y0208623D01*
X0251620Y0208501D01*
X0251533Y0208382D01*
X0251442Y0208265D01*
X0251348Y0208150D01*
X0251252Y0208038D01*
X0251152Y0207928D01*
X0251050Y0207822D01*
X0250944Y0207718D01*
X0250836Y0207617D01*
X0250725Y0207519D01*
X0250612Y0207423D01*
X0250496Y0207331D01*
X0250378Y0207242D01*
X0250257Y0207157D01*
X0250134Y0207074D01*
X0250009Y0206995D01*
X0249882Y0206919D01*
X0249753Y0206847D01*
X0249622Y0206778D01*
X0249489Y0206713D01*
X0249354Y0206652D01*
X0249218Y0206594D01*
X0249081Y0206539D01*
X0248942Y0206489D01*
X0248801Y0206442D01*
X0248660Y0206399D01*
X0248517Y0206359D01*
X0248373Y0206324D01*
X0248229Y0206292D01*
X0248083Y0206265D01*
X0247937Y0206241D01*
X0247790Y0206221D01*
X0247643Y0206205D01*
X0247496Y0206193D01*
X0247348Y0206185D01*
X0247200Y0206181D01*
X0247052Y0206181D01*
X0246904Y0206185D01*
X0246756Y0206193D01*
X0246609Y0206205D01*
X0246462Y0206221D01*
X0246315Y0206241D01*
X0246169Y0206265D01*
X0246023Y0206292D01*
X0245879Y0206324D01*
X0245735Y0206359D01*
X0245592Y0206399D01*
X0245451Y0206442D01*
X0245310Y0206489D01*
X0245171Y0206539D01*
X0245034Y0206594D01*
X0244898Y0206652D01*
X0244763Y0206713D01*
X0244630Y0206778D01*
X0244499Y0206847D01*
X0244370Y0206919D01*
X0244243Y0206995D01*
X0244118Y0207074D01*
X0243995Y0207157D01*
X0243874Y0207242D01*
X0243756Y0207331D01*
X0243640Y0207423D01*
X0243527Y0207519D01*
X0243416Y0207617D01*
X0243308Y0207718D01*
X0243202Y0207822D01*
X0243100Y0207928D01*
X0243000Y0208038D01*
X0242904Y0208150D01*
X0242810Y0208265D01*
X0242719Y0208382D01*
X0242632Y0208501D01*
X0242548Y0208623D01*
X0242467Y0208747D01*
X0242390Y0208873D01*
X0242316Y0209001D01*
X0242245Y0209131D01*
X0242178Y0209263D01*
X0242115Y0209397D01*
X0242055Y0209532D01*
X0241999Y0209669D01*
X0241946Y0209808D01*
X0241898Y0209948D01*
X0241853Y0210089D01*
X0241812Y0210231D01*
X0241774Y0210374D01*
X0241741Y0210518D01*
X0241711Y0210663D01*
X0241685Y0210809D01*
X0241664Y0210955D01*
X0241646Y0211102D01*
X0241632Y0211249D01*
X0241622Y0211397D01*
X0241616Y0211545D01*
X0241614Y0211693D01*
X0013268Y0211693D02*
X0013270Y0211841D01*
X0013276Y0211989D01*
X0013286Y0212137D01*
X0013300Y0212284D01*
X0013318Y0212431D01*
X0013339Y0212577D01*
X0013365Y0212723D01*
X0013395Y0212868D01*
X0013428Y0213012D01*
X0013466Y0213155D01*
X0013507Y0213297D01*
X0013552Y0213438D01*
X0013600Y0213578D01*
X0013653Y0213717D01*
X0013709Y0213854D01*
X0013769Y0213989D01*
X0013832Y0214123D01*
X0013899Y0214255D01*
X0013970Y0214385D01*
X0014044Y0214513D01*
X0014121Y0214639D01*
X0014202Y0214763D01*
X0014286Y0214885D01*
X0014373Y0215004D01*
X0014464Y0215121D01*
X0014558Y0215236D01*
X0014654Y0215348D01*
X0014754Y0215458D01*
X0014856Y0215564D01*
X0014962Y0215668D01*
X0015070Y0215769D01*
X0015181Y0215867D01*
X0015294Y0215963D01*
X0015410Y0216055D01*
X0015528Y0216144D01*
X0015649Y0216229D01*
X0015772Y0216312D01*
X0015897Y0216391D01*
X0016024Y0216467D01*
X0016153Y0216539D01*
X0016284Y0216608D01*
X0016417Y0216673D01*
X0016552Y0216734D01*
X0016688Y0216792D01*
X0016825Y0216847D01*
X0016964Y0216897D01*
X0017105Y0216944D01*
X0017246Y0216987D01*
X0017389Y0217027D01*
X0017533Y0217062D01*
X0017677Y0217094D01*
X0017823Y0217121D01*
X0017969Y0217145D01*
X0018116Y0217165D01*
X0018263Y0217181D01*
X0018410Y0217193D01*
X0018558Y0217201D01*
X0018706Y0217205D01*
X0018854Y0217205D01*
X0019002Y0217201D01*
X0019150Y0217193D01*
X0019297Y0217181D01*
X0019444Y0217165D01*
X0019591Y0217145D01*
X0019737Y0217121D01*
X0019883Y0217094D01*
X0020027Y0217062D01*
X0020171Y0217027D01*
X0020314Y0216987D01*
X0020455Y0216944D01*
X0020596Y0216897D01*
X0020735Y0216847D01*
X0020872Y0216792D01*
X0021008Y0216734D01*
X0021143Y0216673D01*
X0021276Y0216608D01*
X0021407Y0216539D01*
X0021536Y0216467D01*
X0021663Y0216391D01*
X0021788Y0216312D01*
X0021911Y0216229D01*
X0022032Y0216144D01*
X0022150Y0216055D01*
X0022266Y0215963D01*
X0022379Y0215867D01*
X0022490Y0215769D01*
X0022598Y0215668D01*
X0022704Y0215564D01*
X0022806Y0215458D01*
X0022906Y0215348D01*
X0023002Y0215236D01*
X0023096Y0215121D01*
X0023187Y0215004D01*
X0023274Y0214885D01*
X0023358Y0214763D01*
X0023439Y0214639D01*
X0023516Y0214513D01*
X0023590Y0214385D01*
X0023661Y0214255D01*
X0023728Y0214123D01*
X0023791Y0213989D01*
X0023851Y0213854D01*
X0023907Y0213717D01*
X0023960Y0213578D01*
X0024008Y0213438D01*
X0024053Y0213297D01*
X0024094Y0213155D01*
X0024132Y0213012D01*
X0024165Y0212868D01*
X0024195Y0212723D01*
X0024221Y0212577D01*
X0024242Y0212431D01*
X0024260Y0212284D01*
X0024274Y0212137D01*
X0024284Y0211989D01*
X0024290Y0211841D01*
X0024292Y0211693D01*
X0024290Y0211545D01*
X0024284Y0211397D01*
X0024274Y0211249D01*
X0024260Y0211102D01*
X0024242Y0210955D01*
X0024221Y0210809D01*
X0024195Y0210663D01*
X0024165Y0210518D01*
X0024132Y0210374D01*
X0024094Y0210231D01*
X0024053Y0210089D01*
X0024008Y0209948D01*
X0023960Y0209808D01*
X0023907Y0209669D01*
X0023851Y0209532D01*
X0023791Y0209397D01*
X0023728Y0209263D01*
X0023661Y0209131D01*
X0023590Y0209001D01*
X0023516Y0208873D01*
X0023439Y0208747D01*
X0023358Y0208623D01*
X0023274Y0208501D01*
X0023187Y0208382D01*
X0023096Y0208265D01*
X0023002Y0208150D01*
X0022906Y0208038D01*
X0022806Y0207928D01*
X0022704Y0207822D01*
X0022598Y0207718D01*
X0022490Y0207617D01*
X0022379Y0207519D01*
X0022266Y0207423D01*
X0022150Y0207331D01*
X0022032Y0207242D01*
X0021911Y0207157D01*
X0021788Y0207074D01*
X0021663Y0206995D01*
X0021536Y0206919D01*
X0021407Y0206847D01*
X0021276Y0206778D01*
X0021143Y0206713D01*
X0021008Y0206652D01*
X0020872Y0206594D01*
X0020735Y0206539D01*
X0020596Y0206489D01*
X0020455Y0206442D01*
X0020314Y0206399D01*
X0020171Y0206359D01*
X0020027Y0206324D01*
X0019883Y0206292D01*
X0019737Y0206265D01*
X0019591Y0206241D01*
X0019444Y0206221D01*
X0019297Y0206205D01*
X0019150Y0206193D01*
X0019002Y0206185D01*
X0018854Y0206181D01*
X0018706Y0206181D01*
X0018558Y0206185D01*
X0018410Y0206193D01*
X0018263Y0206205D01*
X0018116Y0206221D01*
X0017969Y0206241D01*
X0017823Y0206265D01*
X0017677Y0206292D01*
X0017533Y0206324D01*
X0017389Y0206359D01*
X0017246Y0206399D01*
X0017105Y0206442D01*
X0016964Y0206489D01*
X0016825Y0206539D01*
X0016688Y0206594D01*
X0016552Y0206652D01*
X0016417Y0206713D01*
X0016284Y0206778D01*
X0016153Y0206847D01*
X0016024Y0206919D01*
X0015897Y0206995D01*
X0015772Y0207074D01*
X0015649Y0207157D01*
X0015528Y0207242D01*
X0015410Y0207331D01*
X0015294Y0207423D01*
X0015181Y0207519D01*
X0015070Y0207617D01*
X0014962Y0207718D01*
X0014856Y0207822D01*
X0014754Y0207928D01*
X0014654Y0208038D01*
X0014558Y0208150D01*
X0014464Y0208265D01*
X0014373Y0208382D01*
X0014286Y0208501D01*
X0014202Y0208623D01*
X0014121Y0208747D01*
X0014044Y0208873D01*
X0013970Y0209001D01*
X0013899Y0209131D01*
X0013832Y0209263D01*
X0013769Y0209397D01*
X0013709Y0209532D01*
X0013653Y0209669D01*
X0013600Y0209808D01*
X0013552Y0209948D01*
X0013507Y0210089D01*
X0013466Y0210231D01*
X0013428Y0210374D01*
X0013395Y0210518D01*
X0013365Y0210663D01*
X0013339Y0210809D01*
X0013318Y0210955D01*
X0013300Y0211102D01*
X0013286Y0211249D01*
X0013276Y0211397D01*
X0013270Y0211545D01*
X0013268Y0211693D01*
M02*
