%
M48
M72
T01C0.0130
T02C0.0157
T03C0.0200
T04C0.0236
T05C0.0400
T06C0.0630
%
T01
X7300Y5800
X7800Y6600
X8500Y6900
X8700Y7600
X9100Y8200
X9000Y8700
X9400Y9000
X10200Y9000
X10700Y9000
X11500Y9200
X11400Y8200
X11900Y7600
X12100Y6900
X12400Y6400
X13100Y6800
X13900Y6600
X14600Y7000
X14600Y7600
X15100Y8200
X14900Y8900
X15400Y9000
X16200Y9000
X16700Y9000
X17500Y9200
X18700Y8700
X19700Y8700
X21100Y8200
X21600Y8700
X22100Y8900
X23300Y9200
X23800Y9000
X24100Y8700
X23500Y8200
X23900Y7600
X24100Y6900
X24400Y6400
X25200Y6900
X25500Y5100
X20600Y7000
X19800Y6700
X19000Y6800
X18300Y6500
X18100Y7000
X17900Y7600
X17400Y8200
X20600Y7600
X19200Y5700
X13700Y8700
X12700Y8700
X9900Y10400
X9575Y10400
X9250Y10400
X8925Y10400
X8600Y10400
X8600Y10750
X8925Y10750
X9250Y10750
X9575Y10750
X9900Y10750
X9900Y11100
X9575Y11100
X9250Y11100
X8925Y11100
X8600Y11100
X8600Y11450
X8925Y11450
X9250Y11450
X9575Y11450
X9900Y11450
X9900Y11800
X9500Y11800
X9250Y11800
X8925Y11800
X8600Y11800
X6100Y11800
X5775Y11800
X5450Y11800
X5125Y11800
X4800Y11800
X4800Y11450
X5125Y11450
X5450Y11450
X5775Y11450
X6100Y11450
X6100Y11100
X5775Y11100
X5450Y11100
X5125Y11100
X4800Y11100
X4800Y10750
X5125Y10750
X5450Y10750
X5775Y10750
X6100Y10750
X6100Y10400
X5775Y10400
X5450Y10400
X5125Y10400
X4800Y10400
X3300Y9400
X3700Y8900
X4300Y9300
X4800Y9100
X5500Y9200
X5400Y8200
X5900Y7600
X6000Y7000
X6300Y6600
X7000Y6800
X6700Y8700
X7700Y8700
X3100Y8200
X2700Y7600
X2600Y7000
X1500Y6700
X5200Y13100
X8700Y13800
X11900Y16200
X13500Y12800
X16700Y12800
X18600Y12600
X19100Y12400
X19600Y12200
X20100Y12100
X20700Y11700
X21200Y11500
X22300Y11300
X22800Y11300
X26000Y9400
X22800Y13800
X23000Y14200
X22400Y14600
X21200Y15100
X20600Y15200
X20400Y15800
X20400Y16300
X20900Y16300
X20900Y16800
X20100Y16900
X20100Y17400
X20100Y17900
X19900Y19600
X19300Y19700
X22800Y18100
X24100Y17800
X25050Y17300
X25400Y17300
X24600Y17200
X24200Y17200
X23100Y16700
X24000Y15800
X24700Y15800
X24700Y15000
X24000Y15000
X26000Y16700
X26700Y16500
X26700Y16000
X26700Y17000
X25700Y18200
X27400Y14900
X13200Y5700
X1100Y18900
X4500Y19500
T02
X4565Y7721
X4870Y7721
X4259Y7721
X3954Y7721
X3649Y7721
X3649Y7377
X3954Y7377
X4259Y7377
X4565Y7377
X4870Y7377
X4870Y7042
X4565Y7042
X4259Y7042
X3954Y7042
X3649Y7042
X3649Y6698
X3954Y6698
X4259Y6698
X4565Y6698
X4870Y6698
X9649Y6698
X9954Y6698
X10259Y6698
X10565Y6698
X10870Y6698
X10870Y7042
X10565Y7042
X10259Y7042
X9954Y7042
X9649Y7042
X9649Y7377
X9954Y7377
X10259Y7377
X10565Y7377
X10870Y7377
X10870Y7721
X10565Y7721
X10259Y7721
X9954Y7721
X9649Y7721
X15649Y7721
X15954Y7721
X16259Y7721
X16565Y7721
X16870Y7721
X16870Y7377
X16565Y7377
X16259Y7377
X15954Y7377
X15649Y7377
X15649Y7042
X15954Y7042
X16259Y7042
X16565Y7042
X16870Y7042
X16870Y6698
X16565Y6698
X16259Y6698
X15954Y6698
X15649Y6698
X21649Y6698
X21954Y6698
X22259Y6698
X22565Y6698
X22870Y6698
X22870Y7042
X22565Y7042
X22259Y7042
X21954Y7042
X21649Y7042
X21649Y7377
X21954Y7377
X22259Y7377
X22565Y7377
X22870Y7377
X22870Y7721
X22565Y7721
X22259Y7721
X21954Y7721
X21649Y7721
T03
X22800Y2600
X17800Y2600
X12800Y2600
X7800Y2600
T04
X16400Y15900
X16400Y16400
X16400Y16900
X16400Y17400
X16400Y17900
X17000Y17900
X17000Y17400
X17000Y16900
X17000Y16400
X17000Y15900
X17600Y15900
X17600Y16400
X17600Y16900
X17600Y17400
X17600Y17900
X18200Y17900
X18200Y17400
X18200Y16900
X18200Y16400
X18200Y15900
X18200Y18400
X18200Y18900
X18200Y19400
X17600Y19400
X17600Y18900
X17600Y18400
X17000Y18400
X17000Y18900
X17000Y19400
X16400Y19400
X16400Y18900
X16400Y18400
T05
X4000Y2000
X5000Y2000
X6000Y2000
X7000Y2000
X9000Y2000
X10000Y2000
X11000Y2000
X12000Y2000
X14000Y2000
X15000Y2000
X16000Y2000
X17000Y2000
X19000Y2000
X20000Y2000
X21000Y2000
X22000Y2000
X20900Y10400
X19900Y10400
X18100Y10400
X17100Y10400
X15300Y10400
X14300Y10400
X12500Y10400
X11500Y10400
X11500Y13900
X10500Y13900
X9500Y13900
X7700Y13900
X6700Y13900
X5700Y13900
X4700Y13900
X12500Y13900
X14300Y13900
X15300Y13900
X17100Y13900
X18100Y13900
X19900Y13900
X20900Y13900
X26797Y18515
X26797Y19515
X26797Y20515
X26797Y21515
X22795Y21669
X21795Y21669
X20795Y21669
X19795Y21669
X18795Y21669
X17795Y21669
X16795Y21669
X15795Y21669
X14795Y21669
X13795Y21669
X12795Y21669
X11795Y21669
X10795Y21669
X9795Y21669
X8795Y21669
X7795Y21669
X6795Y21669
X5795Y21669
X4795Y21669
X3795Y21669
X3795Y20669
X4795Y20669
X5795Y20669
X6795Y20669
X7795Y20669
X8795Y20669
X9795Y20669
X10795Y20669
X11795Y20669
X12795Y20669
X13795Y20669
X14795Y20669
X15795Y20669
X16795Y20669
X17795Y20669
X18795Y20669
X19795Y20669
X20795Y20669
X21795Y20669
X22795Y20669
T06
X2297Y17169
X2297Y15169
X2297Y13169
X2297Y11169
M30
