G75*
%MOIN*%
%OFA0B0*%
%FSLAX25Y25*%
%IPPOS*%
%LPD*%
%AMOC8*
5,1,8,0,0,1.08239X$1,22.5*
%
%ADD10R,0.00984X0.03150*%
%ADD11R,0.03150X0.00984*%
%ADD12R,0.16142X0.14173*%
%ADD13R,0.04331X0.03937*%
%ADD14R,0.03937X0.04331*%
%ADD15R,0.05906X0.05118*%
%ADD16R,0.03150X0.00945*%
%ADD17R,0.00945X0.03150*%
%ADD18R,0.18110X0.18110*%
%ADD19R,0.05118X0.05118*%
%ADD20R,0.05118X0.07874*%
%ADD21R,0.03937X0.04724*%
%ADD22R,0.00787X0.01181*%
%ADD23R,0.07874X0.03937*%
%ADD24R,0.03150X0.11024*%
%ADD25R,0.17835X0.17953*%
%ADD26R,0.03937X0.02953*%
%ADD27R,0.03543X0.03150*%
%ADD28R,0.08504X0.04213*%
%ADD29R,0.27520X0.42520*%
%ADD30R,0.07874X0.07874*%
%ADD31R,0.13780X0.21260*%
%ADD32R,0.02165X0.03937*%
%ADD33R,0.05118X0.05906*%
D10*
X0033736Y0062252D03*
X0035705Y0062252D03*
X0037673Y0062252D03*
X0039642Y0062252D03*
X0041610Y0062252D03*
X0043579Y0062252D03*
X0045547Y0062252D03*
X0047516Y0062252D03*
X0049484Y0062252D03*
X0051453Y0062252D03*
X0051453Y0081937D03*
X0049484Y0081937D03*
X0047516Y0081937D03*
X0045547Y0081937D03*
X0043579Y0081937D03*
X0041610Y0081937D03*
X0039642Y0081937D03*
X0037673Y0081937D03*
X0035705Y0081937D03*
X0033736Y0081937D03*
X0093736Y0081937D03*
X0095705Y0081937D03*
X0097673Y0081937D03*
X0099642Y0081937D03*
X0101610Y0081937D03*
X0103579Y0081937D03*
X0105547Y0081937D03*
X0107516Y0081937D03*
X0109484Y0081937D03*
X0111453Y0081937D03*
X0111453Y0062252D03*
X0109484Y0062252D03*
X0107516Y0062252D03*
X0105547Y0062252D03*
X0103579Y0062252D03*
X0101610Y0062252D03*
X0099642Y0062252D03*
X0097673Y0062252D03*
X0095705Y0062252D03*
X0093736Y0062252D03*
X0153736Y0062252D03*
X0155705Y0062252D03*
X0157673Y0062252D03*
X0159642Y0062252D03*
X0161610Y0062252D03*
X0163579Y0062252D03*
X0165547Y0062252D03*
X0167516Y0062252D03*
X0169484Y0062252D03*
X0171453Y0062252D03*
X0171453Y0081937D03*
X0169484Y0081937D03*
X0167516Y0081937D03*
X0165547Y0081937D03*
X0163579Y0081937D03*
X0161610Y0081937D03*
X0159642Y0081937D03*
X0157673Y0081937D03*
X0155705Y0081937D03*
X0153736Y0081937D03*
X0213736Y0081937D03*
X0215705Y0081937D03*
X0217673Y0081937D03*
X0219642Y0081937D03*
X0221610Y0081937D03*
X0223579Y0081937D03*
X0225547Y0081937D03*
X0227516Y0081937D03*
X0229484Y0081937D03*
X0231453Y0081937D03*
X0231453Y0062252D03*
X0229484Y0062252D03*
X0227516Y0062252D03*
X0225547Y0062252D03*
X0223579Y0062252D03*
X0221610Y0062252D03*
X0219642Y0062252D03*
X0217673Y0062252D03*
X0215705Y0062252D03*
X0213736Y0062252D03*
D11*
X0210783Y0065205D03*
X0210783Y0067173D03*
X0210783Y0069142D03*
X0210783Y0071110D03*
X0210783Y0073079D03*
X0210783Y0075047D03*
X0210783Y0077016D03*
X0210783Y0078984D03*
X0234406Y0078984D03*
X0234406Y0077016D03*
X0234406Y0075047D03*
X0234406Y0073079D03*
X0234406Y0071110D03*
X0234406Y0069142D03*
X0234406Y0067173D03*
X0234406Y0065205D03*
X0174406Y0065205D03*
X0174406Y0067173D03*
X0174406Y0069142D03*
X0174406Y0071110D03*
X0174406Y0073079D03*
X0174406Y0075047D03*
X0174406Y0077016D03*
X0174406Y0078984D03*
X0150783Y0078984D03*
X0150783Y0077016D03*
X0150783Y0075047D03*
X0150783Y0073079D03*
X0150783Y0071110D03*
X0150783Y0069142D03*
X0150783Y0067173D03*
X0150783Y0065205D03*
X0114406Y0065205D03*
X0114406Y0067173D03*
X0114406Y0069142D03*
X0114406Y0071110D03*
X0114406Y0073079D03*
X0114406Y0075047D03*
X0114406Y0077016D03*
X0114406Y0078984D03*
X0090783Y0078984D03*
X0090783Y0077016D03*
X0090783Y0075047D03*
X0090783Y0073079D03*
X0090783Y0071110D03*
X0090783Y0069142D03*
X0090783Y0067173D03*
X0090783Y0065205D03*
X0054406Y0065205D03*
X0054406Y0067173D03*
X0054406Y0069142D03*
X0054406Y0071110D03*
X0054406Y0073079D03*
X0054406Y0075047D03*
X0054406Y0077016D03*
X0054406Y0078984D03*
X0030783Y0078984D03*
X0030783Y0077016D03*
X0030783Y0075047D03*
X0030783Y0073079D03*
X0030783Y0071110D03*
X0030783Y0069142D03*
X0030783Y0067173D03*
X0030783Y0065205D03*
D12*
X0042594Y0072094D03*
X0102594Y0072094D03*
X0162594Y0072094D03*
X0222594Y0072094D03*
D13*
X0038248Y0032094D03*
X0044941Y0032094D03*
X0032441Y0042594D03*
X0025748Y0042594D03*
X0025941Y0049094D03*
X0019248Y0049094D03*
X0019248Y0055094D03*
X0019248Y0061094D03*
X0025941Y0061094D03*
X0025941Y0055094D03*
X0042248Y0054094D03*
X0048941Y0054094D03*
X0079248Y0055094D03*
X0079248Y0061094D03*
X0085941Y0061094D03*
X0085941Y0055094D03*
X0085941Y0049094D03*
X0079248Y0049094D03*
X0085748Y0042594D03*
X0092441Y0042594D03*
X0098248Y0032094D03*
X0104941Y0032094D03*
X0102248Y0054094D03*
X0108941Y0054094D03*
X0139248Y0055094D03*
X0139248Y0061094D03*
X0145941Y0061094D03*
X0145941Y0055094D03*
X0145941Y0049094D03*
X0139248Y0049094D03*
X0145748Y0042594D03*
X0152441Y0042594D03*
X0158248Y0032094D03*
X0164941Y0032094D03*
X0162248Y0054094D03*
X0168941Y0054094D03*
X0199248Y0055094D03*
X0205941Y0055094D03*
X0205941Y0061094D03*
X0199248Y0061094D03*
X0199248Y0049094D03*
X0205941Y0049094D03*
X0205748Y0042594D03*
X0212441Y0042594D03*
X0218248Y0032094D03*
X0224941Y0032094D03*
X0222248Y0054094D03*
X0228941Y0054094D03*
X0240248Y0082594D03*
X0246941Y0082594D03*
X0254654Y0105000D03*
X0261346Y0105000D03*
X0261346Y0128000D03*
X0254654Y0128000D03*
X0218000Y0134654D03*
X0218000Y0141346D03*
X0190000Y0142346D03*
X0190000Y0135654D03*
X0162000Y0135654D03*
X0162000Y0142346D03*
X0164000Y0119346D03*
X0164000Y0112654D03*
X0136000Y0112654D03*
X0136000Y0119346D03*
X0118941Y0087594D03*
X0112248Y0087594D03*
X0071000Y0105654D03*
X0071000Y0112346D03*
X0085000Y0125654D03*
X0085000Y0132346D03*
X0045000Y0131346D03*
X0038000Y0131346D03*
X0038000Y0124654D03*
X0045000Y0124654D03*
X0053248Y0087594D03*
X0059941Y0087594D03*
X0172248Y0087594D03*
X0178941Y0087594D03*
X0217126Y0168654D03*
X0223819Y0168654D03*
X0242756Y0194591D03*
X0249449Y0194591D03*
D14*
X0252346Y0185000D03*
X0245654Y0185000D03*
X0245654Y0179000D03*
X0252346Y0179000D03*
X0273000Y0166346D03*
X0273000Y0159654D03*
X0270000Y0152346D03*
X0270000Y0145654D03*
X0261000Y0141346D03*
X0261000Y0134654D03*
X0248000Y0120346D03*
X0248000Y0113654D03*
X0224000Y0134654D03*
X0224000Y0141346D03*
X0206346Y0112000D03*
X0199654Y0112000D03*
X0178346Y0112000D03*
X0171654Y0112000D03*
X0171654Y0120000D03*
X0178346Y0120000D03*
X0178346Y0126000D03*
X0171654Y0126000D03*
X0179000Y0061846D03*
X0179000Y0055154D03*
X0168941Y0048094D03*
X0162248Y0048094D03*
X0164941Y0038094D03*
X0158248Y0038094D03*
X0119000Y0055154D03*
X0119000Y0061846D03*
X0108941Y0048094D03*
X0102248Y0048094D03*
X0104941Y0038094D03*
X0098248Y0038094D03*
X0059000Y0055154D03*
X0059000Y0061846D03*
X0048941Y0048094D03*
X0042248Y0048094D03*
X0044941Y0038094D03*
X0038248Y0038094D03*
X0218248Y0038094D03*
X0224941Y0038094D03*
X0222248Y0048094D03*
X0228941Y0048094D03*
X0239000Y0055154D03*
X0239000Y0061846D03*
D15*
X0250406Y0062146D03*
X0250406Y0054665D03*
X0199094Y0073354D03*
X0199094Y0080835D03*
X0186094Y0080835D03*
X0186094Y0073354D03*
X0139094Y0073354D03*
X0139094Y0080835D03*
X0126094Y0080835D03*
X0126094Y0073354D03*
X0079094Y0073354D03*
X0079094Y0080835D03*
X0066094Y0080835D03*
X0066094Y0073354D03*
X0019094Y0073354D03*
X0019094Y0080835D03*
X0219150Y0184969D03*
X0219150Y0192449D03*
D16*
X0231189Y0162661D03*
X0231189Y0161087D03*
X0231189Y0159512D03*
X0231189Y0157937D03*
X0231189Y0156362D03*
X0231189Y0154787D03*
X0231189Y0153213D03*
X0231189Y0151638D03*
X0231189Y0150063D03*
X0231189Y0148488D03*
X0231189Y0146913D03*
X0231189Y0145339D03*
X0254811Y0145339D03*
X0254811Y0146913D03*
X0254811Y0148488D03*
X0254811Y0150063D03*
X0254811Y0151638D03*
X0254811Y0153213D03*
X0254811Y0154787D03*
X0254811Y0156362D03*
X0254811Y0157937D03*
X0254811Y0159512D03*
X0254811Y0161087D03*
X0254811Y0162661D03*
D17*
X0251661Y0165811D03*
X0250087Y0165811D03*
X0248512Y0165811D03*
X0246937Y0165811D03*
X0245362Y0165811D03*
X0243787Y0165811D03*
X0242213Y0165811D03*
X0240638Y0165811D03*
X0239063Y0165811D03*
X0237488Y0165811D03*
X0235913Y0165811D03*
X0234339Y0165811D03*
X0234339Y0142189D03*
X0235913Y0142189D03*
X0237488Y0142189D03*
X0239063Y0142189D03*
X0240638Y0142189D03*
X0242213Y0142189D03*
X0243787Y0142189D03*
X0245362Y0142189D03*
X0246937Y0142189D03*
X0248512Y0142189D03*
X0250087Y0142189D03*
X0251661Y0142189D03*
D18*
X0243000Y0154000D03*
D19*
X0252421Y0044622D03*
X0252421Y0035567D03*
X0192421Y0035567D03*
X0192421Y0044622D03*
X0132421Y0044622D03*
X0132421Y0035567D03*
X0072421Y0035567D03*
X0072421Y0044622D03*
D20*
X0050768Y0040094D03*
X0110768Y0040094D03*
X0170768Y0040094D03*
X0230768Y0040094D03*
D21*
X0255441Y0112654D03*
X0260559Y0112654D03*
X0260559Y0119346D03*
X0255441Y0119346D03*
D22*
X0260929Y0148008D03*
X0262898Y0148008D03*
X0264866Y0148008D03*
X0264866Y0151157D03*
X0262898Y0151157D03*
X0260929Y0151157D03*
D23*
X0271031Y0140047D03*
X0271031Y0112488D03*
D24*
X0267823Y0126268D03*
X0274240Y0126268D03*
D25*
X0092717Y0111000D03*
X0054717Y0111000D03*
D26*
X0040031Y0108500D03*
X0040031Y0103500D03*
X0040031Y0113500D03*
X0040031Y0118500D03*
X0078031Y0118500D03*
X0078031Y0113500D03*
X0078031Y0108500D03*
X0078031Y0103500D03*
D27*
X0122063Y0116000D03*
X0129937Y0112063D03*
X0129937Y0119937D03*
X0150063Y0116000D03*
X0157937Y0112063D03*
X0157937Y0119937D03*
D28*
X0130984Y0162874D03*
X0130984Y0169567D03*
X0130984Y0176260D03*
X0130984Y0182953D03*
X0130984Y0189646D03*
D29*
X0173012Y0176260D03*
D30*
X0115000Y0171693D03*
X0115000Y0188228D03*
D31*
X0098740Y0173425D03*
X0055827Y0173425D03*
D32*
X0226827Y0185819D03*
X0234307Y0185819D03*
X0234307Y0196449D03*
X0230567Y0196449D03*
X0226827Y0196449D03*
D33*
X0224236Y0175646D03*
X0216756Y0175646D03*
M02*
