G75*
%MOIN*%
%OFA0B0*%
%FSLAX25Y25*%
%IPPOS*%
%LPD*%
%AMOC8*
5,1,8,0,0,1.08239X$1,22.5*
%
%ADD10OC8,0.06000*%
%ADD11R,0.02975X0.02975*%
%ADD12R,0.06000X0.06000*%
%ADD13C,0.06000*%
%ADD14R,0.19685X0.11811*%
%ADD15R,0.09449X0.09449*%
%ADD16C,0.09449*%
%ADD17R,0.06300X0.04600*%
%ADD18R,0.06102X0.05118*%
%ADD19R,0.03150X0.03150*%
%ADD20C,0.05000*%
%ADD21C,0.02700*%
%ADD22C,0.00600*%
%ADD23C,0.01600*%
%ADD24C,0.01000*%
%ADD25R,0.03762X0.03762*%
%ADD26C,0.03400*%
%ADD27R,0.02700X0.02700*%
D10*
X0037953Y0206693D03*
X0047953Y0206693D03*
X0057953Y0206693D03*
X0067953Y0206693D03*
X0077953Y0206693D03*
X0087953Y0206693D03*
X0097953Y0206693D03*
X0107953Y0206693D03*
X0117953Y0206693D03*
X0127953Y0206693D03*
X0137953Y0206693D03*
X0147953Y0206693D03*
X0157953Y0206693D03*
X0167953Y0206693D03*
X0177953Y0206693D03*
X0187953Y0206693D03*
X0197953Y0206693D03*
X0207953Y0206693D03*
X0217953Y0206693D03*
X0227953Y0206693D03*
X0227953Y0216693D03*
X0217953Y0216693D03*
X0207953Y0216693D03*
X0197953Y0216693D03*
X0187953Y0216693D03*
X0177953Y0216693D03*
X0167953Y0216693D03*
X0157953Y0216693D03*
X0147953Y0216693D03*
X0137953Y0216693D03*
X0127953Y0216693D03*
X0117953Y0216693D03*
X0107953Y0216693D03*
X0097953Y0216693D03*
X0087953Y0216693D03*
X0077953Y0216693D03*
X0067953Y0216693D03*
X0057953Y0216693D03*
X0047953Y0216693D03*
X0037953Y0216693D03*
D11*
X0036492Y0077213D03*
X0039543Y0077213D03*
X0042594Y0077213D03*
X0045646Y0077213D03*
X0048697Y0077213D03*
X0048697Y0073768D03*
X0045646Y0073768D03*
X0042594Y0073768D03*
X0039543Y0073768D03*
X0036492Y0073768D03*
X0036492Y0070421D03*
X0039543Y0070421D03*
X0042594Y0070421D03*
X0045646Y0070421D03*
X0048697Y0070421D03*
X0048697Y0066976D03*
X0045646Y0066976D03*
X0042594Y0066976D03*
X0039543Y0066976D03*
X0036492Y0066976D03*
X0096492Y0066976D03*
X0099543Y0066976D03*
X0102594Y0066976D03*
X0105646Y0066976D03*
X0108697Y0066976D03*
X0108697Y0070421D03*
X0105646Y0070421D03*
X0102594Y0070421D03*
X0099543Y0070421D03*
X0096492Y0070421D03*
X0096492Y0073768D03*
X0099543Y0073768D03*
X0102594Y0073768D03*
X0105646Y0073768D03*
X0108697Y0073768D03*
X0108697Y0077213D03*
X0105646Y0077213D03*
X0102594Y0077213D03*
X0099543Y0077213D03*
X0096492Y0077213D03*
X0156492Y0077213D03*
X0159543Y0077213D03*
X0162594Y0077213D03*
X0165646Y0077213D03*
X0168697Y0077213D03*
X0168697Y0073768D03*
X0165646Y0073768D03*
X0162594Y0073768D03*
X0159543Y0073768D03*
X0156492Y0073768D03*
X0156492Y0070421D03*
X0159543Y0070421D03*
X0162594Y0070421D03*
X0165646Y0070421D03*
X0168697Y0070421D03*
X0168697Y0066976D03*
X0165646Y0066976D03*
X0162594Y0066976D03*
X0159543Y0066976D03*
X0156492Y0066976D03*
X0216492Y0066976D03*
X0219543Y0066976D03*
X0222594Y0066976D03*
X0225646Y0066976D03*
X0228697Y0066976D03*
X0228697Y0070421D03*
X0225646Y0070421D03*
X0222594Y0070421D03*
X0219543Y0070421D03*
X0216492Y0070421D03*
X0216492Y0073768D03*
X0219543Y0073768D03*
X0222594Y0073768D03*
X0225646Y0073768D03*
X0228697Y0073768D03*
X0228697Y0077213D03*
X0225646Y0077213D03*
X0222594Y0077213D03*
X0219543Y0077213D03*
X0216492Y0077213D03*
D12*
X0209000Y0104000D03*
X0181000Y0104000D03*
X0153000Y0104000D03*
X0125000Y0104000D03*
X0125000Y0139000D03*
X0153000Y0139000D03*
X0181000Y0139000D03*
X0209000Y0139000D03*
X0267969Y0185150D03*
X0077000Y0139000D03*
X0090000Y0020000D03*
X0040000Y0020000D03*
X0140000Y0020000D03*
X0190000Y0020000D03*
D13*
X0200000Y0020000D03*
X0210000Y0020000D03*
X0220000Y0020000D03*
X0170000Y0020000D03*
X0160000Y0020000D03*
X0150000Y0020000D03*
X0120000Y0020000D03*
X0110000Y0020000D03*
X0100000Y0020000D03*
X0070000Y0020000D03*
X0060000Y0020000D03*
X0050000Y0020000D03*
X0115000Y0104000D03*
X0143000Y0104000D03*
X0171000Y0104000D03*
X0199000Y0104000D03*
X0199000Y0139000D03*
X0171000Y0139000D03*
X0143000Y0139000D03*
X0115000Y0139000D03*
X0105000Y0139000D03*
X0095000Y0139000D03*
X0067000Y0139000D03*
X0057000Y0139000D03*
X0047000Y0139000D03*
X0267969Y0195150D03*
X0267969Y0205150D03*
X0267969Y0215150D03*
D14*
X0134492Y0178228D03*
X0103980Y0178228D03*
X0080343Y0178228D03*
X0049831Y0178228D03*
D15*
X0022969Y0111685D03*
D16*
X0022969Y0131685D03*
X0022969Y0151685D03*
X0022969Y0171685D03*
D17*
X0027000Y0098500D03*
X0027000Y0092500D03*
X0027000Y0086500D03*
X0067000Y0087000D03*
X0067000Y0081000D03*
X0067000Y0075000D03*
X0077000Y0075000D03*
X0077000Y0081000D03*
X0077000Y0087000D03*
X0127000Y0087000D03*
X0127000Y0081000D03*
X0127000Y0075000D03*
X0137000Y0075000D03*
X0137000Y0081000D03*
X0137000Y0087000D03*
X0187000Y0087000D03*
X0187000Y0081000D03*
X0187000Y0075000D03*
X0197000Y0075000D03*
X0197000Y0081000D03*
X0197000Y0087000D03*
X0247000Y0087000D03*
X0247000Y0081000D03*
X0247000Y0075000D03*
D18*
X0247650Y0178142D03*
X0247650Y0195858D03*
X0216350Y0195858D03*
X0216350Y0178142D03*
D19*
X0246750Y0167953D03*
X0246750Y0162047D03*
D20*
X0262000Y0174000D03*
X0228000Y0123000D03*
D21*
X0228000Y0113000D03*
X0223000Y0113000D03*
X0212000Y0115000D03*
X0207000Y0117000D03*
X0201000Y0121000D03*
X0196000Y0122000D03*
X0191000Y0124000D03*
X0186000Y0126000D03*
X0167000Y0128000D03*
X0135000Y0128000D03*
X0087000Y0138000D03*
X0052000Y0131000D03*
X0033000Y0094000D03*
X0037000Y0089000D03*
X0043000Y0093000D03*
X0048000Y0091000D03*
X0055000Y0092000D03*
X0054000Y0082000D03*
X0059000Y0076000D03*
X0060000Y0070000D03*
X0063000Y0066000D03*
X0070000Y0068000D03*
X0078000Y0066000D03*
X0085000Y0069000D03*
X0087000Y0076000D03*
X0091000Y0082000D03*
X0090000Y0087000D03*
X0094000Y0090000D03*
X0102000Y0090000D03*
X0107000Y0090000D03*
X0115000Y0092000D03*
X0114000Y0082000D03*
X0119000Y0076000D03*
X0121000Y0069000D03*
X0124000Y0064000D03*
X0131000Y0068000D03*
X0139000Y0066000D03*
X0146000Y0070000D03*
X0146000Y0076000D03*
X0151000Y0082000D03*
X0149000Y0089000D03*
X0154000Y0090000D03*
X0162000Y0090000D03*
X0167000Y0090000D03*
X0175000Y0092000D03*
X0187000Y0087000D03*
X0197000Y0087000D03*
X0211000Y0082000D03*
X0216000Y0087000D03*
X0221000Y0089000D03*
X0233000Y0092000D03*
X0238000Y0090000D03*
X0241000Y0087000D03*
X0235000Y0082000D03*
X0239000Y0076000D03*
X0241000Y0069000D03*
X0244000Y0064000D03*
X0252000Y0069000D03*
X0255000Y0051000D03*
X0206000Y0070000D03*
X0198000Y0067000D03*
X0190000Y0068000D03*
X0183000Y0065000D03*
X0181000Y0070000D03*
X0179000Y0076000D03*
X0174000Y0082000D03*
X0206000Y0076000D03*
X0192000Y0057000D03*
X0137000Y0087000D03*
X0127000Y0087000D03*
X0132000Y0057000D03*
X0077000Y0087000D03*
X0067000Y0087000D03*
X0031000Y0082000D03*
X0027000Y0076000D03*
X0026000Y0070000D03*
X0015000Y0067000D03*
X0073000Y0058000D03*
X0206000Y0152000D03*
X0212000Y0151000D03*
X0204000Y0158000D03*
X0204000Y0163000D03*
X0209000Y0163000D03*
X0209000Y0168000D03*
X0201000Y0169000D03*
X0201000Y0174000D03*
X0201000Y0179000D03*
X0199000Y0196000D03*
X0193000Y0197000D03*
X0228000Y0181000D03*
X0241000Y0178000D03*
X0250500Y0173000D03*
X0254000Y0173000D03*
X0246000Y0172000D03*
X0242000Y0172000D03*
X0231000Y0167000D03*
X0240000Y0158000D03*
X0247000Y0158000D03*
X0247000Y0150000D03*
X0240000Y0150000D03*
X0230000Y0142000D03*
X0228000Y0138000D03*
X0224000Y0146000D03*
X0260000Y0167000D03*
X0267000Y0165000D03*
X0267000Y0160000D03*
X0267000Y0170000D03*
X0257000Y0182000D03*
X0274000Y0149000D03*
X0260000Y0094000D03*
X0119000Y0162000D03*
X0045000Y0195000D03*
X0011000Y0189000D03*
D22*
X0083000Y0148000D02*
X0088000Y0153000D01*
X0189000Y0153000D01*
X0199000Y0163000D01*
X0204000Y0163000D01*
X0206000Y0166000D02*
X0209000Y0163000D01*
X0206000Y0166000D02*
X0206000Y0184000D01*
X0193000Y0197000D01*
X0199000Y0196000D02*
X0209000Y0186000D01*
X0209000Y0168000D01*
X0204000Y0158000D02*
X0197000Y0158000D01*
X0190000Y0151000D01*
X0091000Y0151000D01*
X0087000Y0147000D01*
X0087000Y0138000D01*
X0083000Y0135000D02*
X0083000Y0148000D01*
X0083000Y0135000D02*
X0081000Y0133000D01*
X0054000Y0133000D01*
X0052000Y0131000D01*
X0045000Y0121000D02*
X0065000Y0121000D01*
X0065000Y0101000D01*
X0045000Y0101000D01*
X0045000Y0121000D01*
X0045000Y0120513D02*
X0065000Y0120513D01*
X0065000Y0119914D02*
X0045000Y0119914D01*
X0045000Y0119316D02*
X0065000Y0119316D01*
X0065000Y0118717D02*
X0045000Y0118717D01*
X0045000Y0118119D02*
X0065000Y0118119D01*
X0065000Y0117520D02*
X0045000Y0117520D01*
X0045000Y0116922D02*
X0065000Y0116922D01*
X0065000Y0116323D02*
X0045000Y0116323D01*
X0045000Y0115725D02*
X0065000Y0115725D01*
X0065000Y0115126D02*
X0045000Y0115126D01*
X0045000Y0114528D02*
X0065000Y0114528D01*
X0065000Y0113929D02*
X0045000Y0113929D01*
X0045000Y0113331D02*
X0065000Y0113331D01*
X0065000Y0112732D02*
X0045000Y0112732D01*
X0045000Y0112134D02*
X0065000Y0112134D01*
X0065000Y0111535D02*
X0045000Y0111535D01*
X0045000Y0110937D02*
X0065000Y0110937D01*
X0065000Y0110338D02*
X0045000Y0110338D01*
X0045000Y0109739D02*
X0065000Y0109739D01*
X0065000Y0109141D02*
X0045000Y0109141D01*
X0045000Y0108542D02*
X0065000Y0108542D01*
X0065000Y0107944D02*
X0045000Y0107944D01*
X0045000Y0107345D02*
X0065000Y0107345D01*
X0065000Y0106747D02*
X0045000Y0106747D01*
X0045000Y0106148D02*
X0065000Y0106148D01*
X0065000Y0105550D02*
X0045000Y0105550D01*
X0045000Y0104951D02*
X0065000Y0104951D01*
X0065000Y0104353D02*
X0045000Y0104353D01*
X0045000Y0103754D02*
X0065000Y0103754D01*
X0065000Y0103156D02*
X0045000Y0103156D01*
X0045000Y0102557D02*
X0065000Y0102557D01*
X0065000Y0101959D02*
X0045000Y0101959D01*
X0045000Y0101360D02*
X0065000Y0101360D01*
X0068000Y0098000D02*
X0048000Y0098000D01*
X0043000Y0093000D01*
X0048000Y0091000D02*
X0053000Y0096000D01*
X0069000Y0096000D01*
X0074000Y0101000D01*
X0074000Y0122000D01*
X0077000Y0125000D01*
X0109000Y0125000D01*
X0113000Y0121000D01*
X0182000Y0121000D01*
X0188000Y0121000D01*
X0191000Y0124000D01*
X0186000Y0126000D02*
X0183000Y0123000D01*
X0114000Y0123000D01*
X0110000Y0127000D01*
X0076000Y0127000D01*
X0072000Y0123000D01*
X0072000Y0102000D01*
X0068000Y0098000D01*
X0072000Y0096000D02*
X0072000Y0070000D01*
X0070000Y0068000D01*
X0067000Y0081000D02*
X0064000Y0081000D01*
X0060000Y0085000D01*
X0041000Y0085000D01*
X0037000Y0089000D01*
X0038000Y0093000D02*
X0038000Y0095000D01*
X0035000Y0098000D01*
X0027500Y0098000D01*
X0027000Y0098500D01*
X0033000Y0094000D02*
X0031000Y0092000D01*
X0027500Y0092000D01*
X0027000Y0092500D01*
X0038000Y0093000D02*
X0043000Y0088000D01*
X0051000Y0088000D01*
X0055000Y0092000D01*
X0072000Y0096000D02*
X0076000Y0100000D01*
X0076000Y0121000D01*
X0078000Y0123000D01*
X0108000Y0123000D01*
X0112000Y0119000D01*
X0193000Y0119000D01*
X0196000Y0122000D01*
X0197000Y0117000D02*
X0201000Y0121000D01*
X0197000Y0117000D02*
X0110000Y0117000D01*
X0106000Y0113000D01*
X0106000Y0097000D01*
X0102000Y0093000D01*
X0102000Y0090000D01*
X0107000Y0090000D02*
X0107000Y0095000D01*
X0108000Y0096000D01*
X0108000Y0112000D01*
X0111000Y0115000D01*
X0205000Y0115000D01*
X0207000Y0117000D01*
X0210000Y0113000D02*
X0212000Y0115000D01*
X0210000Y0113000D02*
X0112000Y0113000D01*
X0110000Y0111000D01*
X0110000Y0098000D01*
X0113000Y0095000D01*
X0127000Y0095000D01*
X0132000Y0090000D01*
X0132000Y0069000D01*
X0131000Y0068000D01*
X0127000Y0081000D02*
X0123000Y0081000D01*
X0119000Y0085000D01*
X0097000Y0085000D01*
X0094000Y0088000D01*
X0094000Y0090000D01*
X0090000Y0087000D02*
X0086000Y0087000D01*
X0080000Y0081000D01*
X0077000Y0081000D01*
X0083000Y0101000D02*
X0083000Y0121000D01*
X0103000Y0121000D01*
X0103000Y0101000D01*
X0083000Y0101000D01*
X0083000Y0101360D02*
X0103000Y0101360D01*
X0103000Y0101959D02*
X0083000Y0101959D01*
X0083000Y0102557D02*
X0103000Y0102557D01*
X0103000Y0103156D02*
X0083000Y0103156D01*
X0083000Y0103754D02*
X0103000Y0103754D01*
X0103000Y0104353D02*
X0083000Y0104353D01*
X0083000Y0104951D02*
X0103000Y0104951D01*
X0103000Y0105550D02*
X0083000Y0105550D01*
X0083000Y0106148D02*
X0103000Y0106148D01*
X0103000Y0106747D02*
X0083000Y0106747D01*
X0083000Y0107345D02*
X0103000Y0107345D01*
X0103000Y0107944D02*
X0083000Y0107944D01*
X0083000Y0108542D02*
X0103000Y0108542D01*
X0103000Y0109141D02*
X0083000Y0109141D01*
X0083000Y0109739D02*
X0103000Y0109739D01*
X0103000Y0110338D02*
X0083000Y0110338D01*
X0083000Y0110937D02*
X0103000Y0110937D01*
X0103000Y0111535D02*
X0083000Y0111535D01*
X0083000Y0112134D02*
X0103000Y0112134D01*
X0103000Y0112732D02*
X0083000Y0112732D01*
X0083000Y0113331D02*
X0103000Y0113331D01*
X0103000Y0113929D02*
X0083000Y0113929D01*
X0083000Y0114528D02*
X0103000Y0114528D01*
X0103000Y0115126D02*
X0083000Y0115126D01*
X0083000Y0115725D02*
X0103000Y0115725D01*
X0103000Y0116323D02*
X0083000Y0116323D01*
X0083000Y0116922D02*
X0103000Y0116922D01*
X0103000Y0117520D02*
X0083000Y0117520D01*
X0083000Y0118119D02*
X0103000Y0118119D01*
X0103000Y0118717D02*
X0083000Y0118717D01*
X0083000Y0119316D02*
X0103000Y0119316D01*
X0103000Y0119914D02*
X0083000Y0119914D01*
X0083000Y0120513D02*
X0103000Y0120513D01*
X0135000Y0128000D02*
X0167000Y0128000D01*
X0178000Y0111000D02*
X0214000Y0111000D01*
X0218000Y0115000D01*
X0218000Y0140000D01*
X0206000Y0152000D01*
X0212000Y0151000D02*
X0220000Y0143000D01*
X0220000Y0114000D01*
X0215000Y0109000D01*
X0204000Y0109000D01*
X0199000Y0104000D01*
X0196000Y0094000D02*
X0227000Y0094000D01*
X0235000Y0102000D01*
X0249000Y0102000D01*
X0255000Y0108000D01*
X0255000Y0172000D01*
X0254000Y0173000D01*
X0253000Y0170500D02*
X0253000Y0109000D01*
X0248000Y0104000D01*
X0234000Y0104000D01*
X0226000Y0096000D01*
X0173000Y0096000D01*
X0167000Y0091000D01*
X0167000Y0090000D01*
X0162000Y0090000D02*
X0162000Y0093000D01*
X0167000Y0098000D01*
X0225000Y0098000D01*
X0233000Y0106000D01*
X0247000Y0106000D01*
X0251000Y0110000D01*
X0251000Y0169000D01*
X0248000Y0172000D01*
X0246000Y0172000D01*
X0245703Y0169000D02*
X0243000Y0169000D01*
X0242000Y0170000D01*
X0242000Y0172000D01*
X0245703Y0169000D02*
X0246750Y0167953D01*
X0250500Y0173000D02*
X0253000Y0170500D01*
X0260000Y0172000D02*
X0260000Y0167000D01*
X0260000Y0172000D02*
X0262000Y0174000D01*
X0267000Y0170000D02*
X0259000Y0162000D01*
X0259000Y0105000D01*
X0252000Y0098000D01*
X0239000Y0098000D01*
X0233000Y0092000D01*
X0238000Y0090000D02*
X0244000Y0096000D01*
X0253000Y0096000D01*
X0261000Y0104000D01*
X0261000Y0159000D01*
X0267000Y0165000D01*
X0267000Y0160000D02*
X0263000Y0156000D01*
X0263000Y0097000D01*
X0260000Y0094000D01*
X0247000Y0087000D02*
X0241000Y0087000D01*
X0238000Y0085000D02*
X0242000Y0081000D01*
X0247000Y0081000D01*
X0238000Y0085000D02*
X0225000Y0085000D01*
X0221000Y0089000D01*
X0216000Y0087000D02*
X0207000Y0087000D01*
X0201000Y0081000D01*
X0197000Y0081000D01*
X0187000Y0081000D02*
X0184000Y0081000D01*
X0180000Y0085000D01*
X0159000Y0085000D01*
X0154000Y0090000D01*
X0149000Y0089000D02*
X0147000Y0089000D01*
X0139000Y0081000D01*
X0137000Y0081000D01*
X0171000Y0104000D02*
X0178000Y0111000D01*
X0196000Y0094000D02*
X0192000Y0090000D01*
X0192000Y0070000D01*
X0190000Y0068000D01*
X0252000Y0069000D02*
X0255000Y0066000D01*
X0228000Y0113000D02*
X0228000Y0123000D01*
X0223000Y0113000D02*
X0223000Y0145000D01*
X0224000Y0146000D01*
X0230000Y0142000D02*
X0231000Y0143000D01*
X0231000Y0167000D01*
X0241000Y0178000D02*
X0247508Y0178000D01*
X0247650Y0178142D01*
X0254000Y0182000D02*
X0257000Y0182000D01*
X0134492Y0178228D02*
X0131492Y0174492D01*
D23*
X0009950Y0012004D02*
X0012004Y0009950D01*
X0014520Y0008497D01*
X0017327Y0007745D01*
X0018780Y0007650D01*
X0247126Y0007650D01*
X0248579Y0007745D01*
X0251385Y0008497D01*
X0253901Y0009950D01*
X0255956Y0012004D01*
X0257408Y0014520D01*
X0258160Y0017327D01*
X0258256Y0018779D01*
X0258256Y0049060D01*
X0258179Y0048876D01*
X0257124Y0047821D01*
X0255746Y0047250D01*
X0254254Y0047250D01*
X0252876Y0047821D01*
X0251821Y0048876D01*
X0251250Y0050254D01*
X0251250Y0051746D01*
X0251821Y0053124D01*
X0252100Y0053403D01*
X0252100Y0060118D01*
X0238219Y0060118D01*
X0222900Y0044799D01*
X0222900Y0024644D01*
X0223059Y0024578D01*
X0224578Y0023059D01*
X0225400Y0021074D01*
X0225400Y0018926D01*
X0224578Y0016941D01*
X0223059Y0015422D01*
X0221074Y0014600D01*
X0218926Y0014600D01*
X0216941Y0015422D01*
X0215422Y0016941D01*
X0215000Y0017960D01*
X0214578Y0016941D01*
X0213059Y0015422D01*
X0211074Y0014600D01*
X0208926Y0014600D01*
X0206941Y0015422D01*
X0205422Y0016941D01*
X0205000Y0017960D01*
X0204578Y0016941D01*
X0203059Y0015422D01*
X0201074Y0014600D01*
X0198926Y0014600D01*
X0196941Y0015422D01*
X0195422Y0016941D01*
X0195400Y0016995D01*
X0195400Y0016523D01*
X0195035Y0015641D01*
X0194359Y0014965D01*
X0193477Y0014600D01*
X0186523Y0014600D01*
X0185641Y0014965D01*
X0184965Y0015641D01*
X0184600Y0016523D01*
X0184600Y0023477D01*
X0184965Y0024359D01*
X0185641Y0025035D01*
X0186523Y0025400D01*
X0187100Y0025400D01*
X0187100Y0028577D01*
X0187541Y0029643D01*
X0199100Y0041201D01*
X0199100Y0060118D01*
X0194900Y0060118D01*
X0194900Y0059403D01*
X0195179Y0059124D01*
X0195750Y0057746D01*
X0195750Y0056254D01*
X0195179Y0054876D01*
X0194124Y0053821D01*
X0192746Y0053250D01*
X0191254Y0053250D01*
X0189876Y0053821D01*
X0188821Y0054876D01*
X0188250Y0056254D01*
X0188250Y0057746D01*
X0188821Y0059124D01*
X0189100Y0059403D01*
X0189100Y0060118D01*
X0179900Y0060118D01*
X0179900Y0057423D01*
X0179458Y0056357D01*
X0168900Y0045799D01*
X0168900Y0032201D01*
X0171643Y0029458D01*
X0172458Y0028643D01*
X0172900Y0027577D01*
X0172900Y0024644D01*
X0173059Y0024578D01*
X0174578Y0023059D01*
X0175400Y0021074D01*
X0175400Y0018926D01*
X0174578Y0016941D01*
X0173059Y0015422D01*
X0171074Y0014600D01*
X0168926Y0014600D01*
X0166941Y0015422D01*
X0165422Y0016941D01*
X0165000Y0017960D01*
X0164578Y0016941D01*
X0163059Y0015422D01*
X0161074Y0014600D01*
X0158926Y0014600D01*
X0156941Y0015422D01*
X0155422Y0016941D01*
X0155000Y0017960D01*
X0154578Y0016941D01*
X0153059Y0015422D01*
X0151074Y0014600D01*
X0148926Y0014600D01*
X0146941Y0015422D01*
X0145422Y0016941D01*
X0145400Y0016995D01*
X0145400Y0016523D01*
X0145035Y0015641D01*
X0144359Y0014965D01*
X0143477Y0014600D01*
X0136523Y0014600D01*
X0135641Y0014965D01*
X0134965Y0015641D01*
X0134600Y0016523D01*
X0134600Y0023477D01*
X0134965Y0024359D01*
X0135641Y0025035D01*
X0136523Y0025400D01*
X0140100Y0025400D01*
X0140100Y0060118D01*
X0135900Y0060118D01*
X0135900Y0057423D01*
X0135750Y0057061D01*
X0135750Y0056254D01*
X0135179Y0054876D01*
X0134124Y0053821D01*
X0132746Y0053250D01*
X0131254Y0053250D01*
X0129876Y0053821D01*
X0128821Y0054876D01*
X0128250Y0056254D01*
X0128250Y0057746D01*
X0128821Y0059124D01*
X0129815Y0060118D01*
X0123900Y0060118D01*
X0123900Y0055423D01*
X0123458Y0054357D01*
X0116042Y0046941D01*
X0118170Y0048362D01*
X0118170Y0048362D01*
X0121594Y0049044D01*
X0121594Y0049044D01*
X0125019Y0048362D01*
X0125019Y0048362D01*
X0127923Y0046423D01*
X0127923Y0046423D01*
X0127923Y0046423D01*
X0129862Y0043519D01*
X0129862Y0043519D01*
X0130544Y0040094D01*
X0129862Y0036670D01*
X0129862Y0036670D01*
X0127923Y0033766D01*
X0127923Y0033766D01*
X0127923Y0033766D01*
X0125019Y0031826D01*
X0121594Y0031145D01*
X0118301Y0031800D01*
X0122458Y0027643D01*
X0122900Y0026577D01*
X0122900Y0024644D01*
X0123059Y0024578D01*
X0124578Y0023059D01*
X0125400Y0021074D01*
X0125400Y0018926D01*
X0124578Y0016941D01*
X0123059Y0015422D01*
X0121074Y0014600D01*
X0118926Y0014600D01*
X0116941Y0015422D01*
X0115422Y0016941D01*
X0115000Y0017960D01*
X0114578Y0016941D01*
X0113059Y0015422D01*
X0111074Y0014600D01*
X0108926Y0014600D01*
X0106941Y0015422D01*
X0105422Y0016941D01*
X0105000Y0017960D01*
X0104578Y0016941D01*
X0103059Y0015422D01*
X0101074Y0014600D01*
X0098926Y0014600D01*
X0096941Y0015422D01*
X0095422Y0016941D01*
X0095400Y0016995D01*
X0095400Y0016523D01*
X0095035Y0015641D01*
X0094359Y0014965D01*
X0093477Y0014600D01*
X0086523Y0014600D01*
X0085641Y0014965D01*
X0084965Y0015641D01*
X0084600Y0016523D01*
X0084600Y0023477D01*
X0084965Y0024359D01*
X0085641Y0025035D01*
X0086523Y0025400D01*
X0087100Y0025400D01*
X0087100Y0054799D01*
X0081781Y0060118D01*
X0076182Y0060118D01*
X0076750Y0058746D01*
X0076750Y0057254D01*
X0076179Y0055876D01*
X0075124Y0054821D01*
X0073746Y0054250D01*
X0072254Y0054250D01*
X0070876Y0054821D01*
X0069821Y0055876D01*
X0069250Y0057254D01*
X0069250Y0058746D01*
X0069818Y0060118D01*
X0062900Y0060118D01*
X0062900Y0059201D01*
X0074458Y0047643D01*
X0074900Y0046577D01*
X0074900Y0028698D01*
X0075678Y0029476D01*
X0077184Y0030100D01*
X0078816Y0030100D01*
X0080322Y0029476D01*
X0081476Y0028322D01*
X0082100Y0026816D01*
X0082100Y0025184D01*
X0081476Y0023678D01*
X0080322Y0022524D01*
X0078816Y0021900D01*
X0077184Y0021900D01*
X0075678Y0022524D01*
X0074524Y0023678D01*
X0073900Y0025184D01*
X0073900Y0026799D01*
X0072900Y0025799D01*
X0072900Y0024644D01*
X0073059Y0024578D01*
X0074578Y0023059D01*
X0075400Y0021074D01*
X0075400Y0018926D01*
X0074578Y0016941D01*
X0073059Y0015422D01*
X0071074Y0014600D01*
X0068926Y0014600D01*
X0066941Y0015422D01*
X0065422Y0016941D01*
X0065000Y0017960D01*
X0064578Y0016941D01*
X0063059Y0015422D01*
X0061074Y0014600D01*
X0058926Y0014600D01*
X0056941Y0015422D01*
X0055422Y0016941D01*
X0055000Y0017960D01*
X0054578Y0016941D01*
X0053059Y0015422D01*
X0051074Y0014600D01*
X0048926Y0014600D01*
X0046941Y0015422D01*
X0045422Y0016941D01*
X0045400Y0016995D01*
X0045400Y0016523D01*
X0045035Y0015641D01*
X0044359Y0014965D01*
X0043477Y0014600D01*
X0036523Y0014600D01*
X0035641Y0014965D01*
X0034965Y0015641D01*
X0034600Y0016523D01*
X0034600Y0023477D01*
X0034965Y0024359D01*
X0035641Y0025035D01*
X0036523Y0025400D01*
X0037100Y0025400D01*
X0037100Y0047799D01*
X0024781Y0060118D01*
X0017717Y0060118D01*
X0015748Y0062087D01*
X0015748Y0142795D01*
X0032559Y0142795D01*
X0036496Y0146732D01*
X0036496Y0176260D01*
X0030591Y0182165D01*
X0010906Y0182165D01*
X0007650Y0178910D01*
X0007650Y0018779D01*
X0007745Y0017327D01*
X0008497Y0014520D01*
X0009950Y0012004D01*
X0010560Y0011394D02*
X0015675Y0011394D01*
X0014699Y0011711D02*
X0017926Y0010662D01*
X0017926Y0010662D01*
X0021302Y0011017D01*
X0024241Y0012714D01*
X0024241Y0012714D01*
X0026236Y0015460D01*
X0026941Y0018780D01*
X0026941Y0018780D01*
X0026236Y0022099D01*
X0026236Y0022099D01*
X0024241Y0024845D01*
X0024241Y0024845D01*
X0024241Y0024845D01*
X0021302Y0026542D01*
X0021302Y0026542D01*
X0017926Y0026897D01*
X0014699Y0025848D01*
X0014699Y0025848D01*
X0012176Y0023577D01*
X0012176Y0023577D01*
X0010796Y0020476D01*
X0010796Y0017083D01*
X0012176Y0013982D01*
X0012176Y0013982D01*
X0012176Y0013982D01*
X0014699Y0011711D01*
X0014699Y0011711D01*
X0013276Y0012993D02*
X0009379Y0012993D01*
X0008478Y0014591D02*
X0011905Y0014591D01*
X0011194Y0016190D02*
X0008050Y0016190D01*
X0007715Y0017788D02*
X0010796Y0017788D01*
X0010796Y0019387D02*
X0007650Y0019387D01*
X0007650Y0020985D02*
X0011023Y0020985D01*
X0011734Y0022584D02*
X0007650Y0022584D01*
X0007650Y0024182D02*
X0012849Y0024182D01*
X0014624Y0025781D02*
X0007650Y0025781D01*
X0007650Y0027379D02*
X0037100Y0027379D01*
X0037100Y0025781D02*
X0022620Y0025781D01*
X0024722Y0024182D02*
X0034892Y0024182D01*
X0034600Y0022584D02*
X0025884Y0022584D01*
X0026473Y0020985D02*
X0034600Y0020985D01*
X0034600Y0019387D02*
X0026812Y0019387D01*
X0026731Y0017788D02*
X0034600Y0017788D01*
X0034738Y0016190D02*
X0026391Y0016190D01*
X0025605Y0014591D02*
X0240252Y0014591D01*
X0240523Y0013982D02*
X0240523Y0013982D01*
X0243045Y0011711D01*
X0246273Y0010662D01*
X0249648Y0011017D01*
X0249648Y0011017D01*
X0252587Y0012714D01*
X0252587Y0012714D01*
X0252587Y0012714D01*
X0254582Y0015460D01*
X0255288Y0018780D01*
X0254582Y0022099D01*
X0254582Y0022099D01*
X0252587Y0024845D01*
X0249648Y0026542D01*
X0246273Y0026897D01*
X0243045Y0025848D01*
X0240523Y0023577D01*
X0240523Y0023577D01*
X0239143Y0020476D01*
X0239143Y0017083D01*
X0240523Y0013982D01*
X0241622Y0012993D02*
X0024443Y0012993D01*
X0021954Y0011394D02*
X0244021Y0011394D01*
X0243045Y0011711D02*
X0243045Y0011711D01*
X0246273Y0010662D02*
X0246273Y0010662D01*
X0250301Y0011394D02*
X0255345Y0011394D01*
X0256526Y0012993D02*
X0252790Y0012993D01*
X0253951Y0014591D02*
X0257427Y0014591D01*
X0257856Y0016190D02*
X0254737Y0016190D01*
X0254582Y0015460D02*
X0254582Y0015460D01*
X0255077Y0017788D02*
X0258191Y0017788D01*
X0258256Y0019387D02*
X0255159Y0019387D01*
X0254819Y0020985D02*
X0258256Y0020985D01*
X0258256Y0022584D02*
X0254230Y0022584D01*
X0253069Y0024182D02*
X0258256Y0024182D01*
X0258256Y0025781D02*
X0250967Y0025781D01*
X0249648Y0026542D02*
X0249648Y0026542D01*
X0246273Y0026897D02*
X0246273Y0026897D01*
X0243045Y0025848D02*
X0243045Y0025848D01*
X0242970Y0025781D02*
X0232100Y0025781D01*
X0232100Y0025184D02*
X0231476Y0023678D01*
X0230322Y0022524D01*
X0228816Y0021900D01*
X0227184Y0021900D01*
X0225678Y0022524D01*
X0224524Y0023678D01*
X0223900Y0025184D01*
X0223900Y0026816D01*
X0224524Y0028322D01*
X0225678Y0029476D01*
X0227184Y0030100D01*
X0228816Y0030100D01*
X0230322Y0029476D01*
X0231476Y0028322D01*
X0232100Y0026816D01*
X0232100Y0025184D01*
X0231685Y0024182D02*
X0241195Y0024182D01*
X0240081Y0022584D02*
X0230382Y0022584D01*
X0225618Y0022584D02*
X0224775Y0022584D01*
X0224315Y0024182D02*
X0223455Y0024182D01*
X0223900Y0025781D02*
X0222900Y0025781D01*
X0222900Y0027379D02*
X0224133Y0027379D01*
X0225179Y0028978D02*
X0222900Y0028978D01*
X0222900Y0030576D02*
X0258256Y0030576D01*
X0258256Y0028978D02*
X0230821Y0028978D01*
X0231867Y0027379D02*
X0258256Y0027379D01*
X0258256Y0032175D02*
X0245540Y0032175D01*
X0245019Y0031826D02*
X0247923Y0033766D01*
X0247923Y0033766D01*
X0247923Y0033766D01*
X0249862Y0036670D01*
X0250544Y0040094D01*
X0249862Y0043519D01*
X0249862Y0043519D01*
X0247923Y0046423D01*
X0247923Y0046423D01*
X0247923Y0046423D01*
X0245019Y0048362D01*
X0241594Y0049044D01*
X0238170Y0048362D01*
X0238170Y0048362D01*
X0235266Y0046423D01*
X0235266Y0046423D01*
X0235266Y0046423D01*
X0233326Y0043519D01*
X0232645Y0040094D01*
X0233326Y0036670D01*
X0233326Y0036670D01*
X0235266Y0033766D01*
X0235266Y0033766D01*
X0238170Y0031826D01*
X0241594Y0031145D01*
X0245019Y0031826D01*
X0247927Y0033773D02*
X0258256Y0033773D01*
X0258256Y0035372D02*
X0248995Y0035372D01*
X0249862Y0036670D02*
X0249862Y0036670D01*
X0249922Y0036970D02*
X0258256Y0036970D01*
X0258256Y0038569D02*
X0250240Y0038569D01*
X0250529Y0040167D02*
X0258256Y0040167D01*
X0258256Y0041766D02*
X0250211Y0041766D01*
X0249893Y0043364D02*
X0258256Y0043364D01*
X0258256Y0044963D02*
X0248898Y0044963D01*
X0247715Y0046561D02*
X0258256Y0046561D01*
X0258256Y0048160D02*
X0257463Y0048160D01*
X0252537Y0048160D02*
X0245323Y0048160D01*
X0245019Y0048362D02*
X0245019Y0048362D01*
X0241594Y0049044D02*
X0241594Y0049044D01*
X0237866Y0048160D02*
X0226261Y0048160D01*
X0227860Y0049758D02*
X0251455Y0049758D01*
X0251250Y0051357D02*
X0229458Y0051357D01*
X0231057Y0052955D02*
X0251751Y0052955D01*
X0252100Y0054554D02*
X0232655Y0054554D01*
X0234254Y0056152D02*
X0252100Y0056152D01*
X0252100Y0057751D02*
X0235852Y0057751D01*
X0237451Y0059349D02*
X0252100Y0059349D01*
X0235474Y0046561D02*
X0224662Y0046561D01*
X0223064Y0044963D02*
X0234291Y0044963D01*
X0233326Y0043519D02*
X0233326Y0043519D01*
X0233296Y0043364D02*
X0222900Y0043364D01*
X0222900Y0041766D02*
X0232978Y0041766D01*
X0232660Y0040167D02*
X0222900Y0040167D01*
X0222900Y0038569D02*
X0232949Y0038569D01*
X0232645Y0040094D02*
X0232645Y0040094D01*
X0233267Y0036970D02*
X0222900Y0036970D01*
X0222900Y0035372D02*
X0234194Y0035372D01*
X0235262Y0033773D02*
X0222900Y0033773D01*
X0222900Y0032175D02*
X0237649Y0032175D01*
X0252587Y0024845D02*
X0252587Y0024845D01*
X0252587Y0024845D01*
X0239369Y0020985D02*
X0225400Y0020985D01*
X0225400Y0019387D02*
X0239143Y0019387D01*
X0239143Y0017788D02*
X0224929Y0017788D01*
X0223826Y0016190D02*
X0239540Y0016190D01*
X0250265Y0008197D02*
X0015641Y0008197D01*
X0012272Y0009796D02*
X0253634Y0009796D01*
X0216174Y0016190D02*
X0213826Y0016190D01*
X0214929Y0017788D02*
X0215071Y0017788D01*
X0206174Y0016190D02*
X0203826Y0016190D01*
X0204929Y0017788D02*
X0205071Y0017788D01*
X0196174Y0016190D02*
X0195262Y0016190D01*
X0184738Y0016190D02*
X0173826Y0016190D01*
X0174929Y0017788D02*
X0184600Y0017788D01*
X0184600Y0019387D02*
X0175400Y0019387D01*
X0175400Y0020985D02*
X0184600Y0020985D01*
X0184600Y0022584D02*
X0180382Y0022584D01*
X0180322Y0022524D02*
X0181476Y0023678D01*
X0182100Y0025184D01*
X0182100Y0026816D01*
X0181476Y0028322D01*
X0180322Y0029476D01*
X0178816Y0030100D01*
X0177184Y0030100D01*
X0175678Y0029476D01*
X0174524Y0028322D01*
X0173900Y0026816D01*
X0173900Y0025184D01*
X0174524Y0023678D01*
X0175678Y0022524D01*
X0177184Y0021900D01*
X0178816Y0021900D01*
X0180322Y0022524D01*
X0181685Y0024182D02*
X0184892Y0024182D01*
X0187100Y0025781D02*
X0182100Y0025781D01*
X0181867Y0027379D02*
X0187100Y0027379D01*
X0187266Y0028978D02*
X0180821Y0028978D01*
X0181594Y0031145D02*
X0185019Y0031826D01*
X0187923Y0033766D01*
X0187923Y0033766D01*
X0187923Y0033766D01*
X0189862Y0036670D01*
X0190544Y0040094D01*
X0189862Y0043519D01*
X0189862Y0043519D01*
X0187923Y0046423D01*
X0187923Y0046423D01*
X0187923Y0046423D01*
X0185019Y0048362D01*
X0181594Y0049044D01*
X0178170Y0048362D01*
X0178170Y0048362D01*
X0175266Y0046423D01*
X0175266Y0046423D01*
X0175266Y0046423D01*
X0173326Y0043519D01*
X0172645Y0040094D01*
X0173326Y0036670D01*
X0173326Y0036670D01*
X0175266Y0033766D01*
X0175266Y0033766D01*
X0178170Y0031826D01*
X0181594Y0031145D01*
X0185540Y0032175D02*
X0190073Y0032175D01*
X0188475Y0030576D02*
X0170525Y0030576D01*
X0172124Y0028978D02*
X0175179Y0028978D01*
X0174133Y0027379D02*
X0172900Y0027379D01*
X0172900Y0025781D02*
X0173900Y0025781D01*
X0174315Y0024182D02*
X0173455Y0024182D01*
X0174775Y0022584D02*
X0175618Y0022584D01*
X0166174Y0016190D02*
X0163826Y0016190D01*
X0164929Y0017788D02*
X0165071Y0017788D01*
X0156174Y0016190D02*
X0153826Y0016190D01*
X0154929Y0017788D02*
X0155071Y0017788D01*
X0146174Y0016190D02*
X0145262Y0016190D01*
X0134738Y0016190D02*
X0123826Y0016190D01*
X0124929Y0017788D02*
X0134600Y0017788D01*
X0134600Y0019387D02*
X0125400Y0019387D01*
X0125400Y0020985D02*
X0134600Y0020985D01*
X0134600Y0022584D02*
X0130382Y0022584D01*
X0130322Y0022524D02*
X0131476Y0023678D01*
X0132100Y0025184D01*
X0132100Y0026816D01*
X0131476Y0028322D01*
X0130322Y0029476D01*
X0128816Y0030100D01*
X0127184Y0030100D01*
X0125678Y0029476D01*
X0124524Y0028322D01*
X0123900Y0026816D01*
X0123900Y0025184D01*
X0124524Y0023678D01*
X0125678Y0022524D01*
X0127184Y0021900D01*
X0128816Y0021900D01*
X0130322Y0022524D01*
X0131685Y0024182D02*
X0134892Y0024182D01*
X0132100Y0025781D02*
X0140100Y0025781D01*
X0140100Y0027379D02*
X0131867Y0027379D01*
X0130821Y0028978D02*
X0140100Y0028978D01*
X0140100Y0030576D02*
X0119525Y0030576D01*
X0121124Y0028978D02*
X0125179Y0028978D01*
X0124133Y0027379D02*
X0122568Y0027379D01*
X0122900Y0025781D02*
X0123900Y0025781D01*
X0124315Y0024182D02*
X0123455Y0024182D01*
X0124775Y0022584D02*
X0125618Y0022584D01*
X0116174Y0016190D02*
X0113826Y0016190D01*
X0114929Y0017788D02*
X0115071Y0017788D01*
X0106174Y0016190D02*
X0103826Y0016190D01*
X0104929Y0017788D02*
X0105071Y0017788D01*
X0096174Y0016190D02*
X0095262Y0016190D01*
X0084738Y0016190D02*
X0073826Y0016190D01*
X0074929Y0017788D02*
X0084600Y0017788D01*
X0084600Y0019387D02*
X0075400Y0019387D01*
X0075400Y0020985D02*
X0084600Y0020985D01*
X0084600Y0022584D02*
X0080382Y0022584D01*
X0081685Y0024182D02*
X0084892Y0024182D01*
X0087100Y0025781D02*
X0082100Y0025781D01*
X0081867Y0027379D02*
X0087100Y0027379D01*
X0087100Y0028978D02*
X0080821Y0028978D01*
X0074900Y0030576D02*
X0087100Y0030576D01*
X0087100Y0032175D02*
X0074900Y0032175D01*
X0074900Y0033773D02*
X0087100Y0033773D01*
X0087100Y0035372D02*
X0074900Y0035372D01*
X0074900Y0036970D02*
X0087100Y0036970D01*
X0087100Y0038569D02*
X0074900Y0038569D01*
X0074900Y0040167D02*
X0087100Y0040167D01*
X0087100Y0041766D02*
X0074900Y0041766D01*
X0074900Y0043364D02*
X0087100Y0043364D01*
X0087100Y0044963D02*
X0074900Y0044963D01*
X0074900Y0046561D02*
X0087100Y0046561D01*
X0087100Y0048160D02*
X0073941Y0048160D01*
X0072343Y0049758D02*
X0087100Y0049758D01*
X0087100Y0051357D02*
X0070744Y0051357D01*
X0069146Y0052955D02*
X0087100Y0052955D01*
X0087100Y0054554D02*
X0074479Y0054554D01*
X0076294Y0056152D02*
X0085746Y0056152D01*
X0084148Y0057751D02*
X0076750Y0057751D01*
X0076500Y0059349D02*
X0082549Y0059349D01*
X0071521Y0054554D02*
X0067547Y0054554D01*
X0065949Y0056152D02*
X0069706Y0056152D01*
X0069250Y0057751D02*
X0064350Y0057751D01*
X0062900Y0059349D02*
X0069500Y0059349D01*
X0036739Y0048160D02*
X0007650Y0048160D01*
X0007650Y0049758D02*
X0035140Y0049758D01*
X0033542Y0051357D02*
X0007650Y0051357D01*
X0007650Y0052955D02*
X0031943Y0052955D01*
X0030345Y0054554D02*
X0007650Y0054554D01*
X0007650Y0056152D02*
X0028746Y0056152D01*
X0027148Y0057751D02*
X0007650Y0057751D01*
X0007650Y0059349D02*
X0025549Y0059349D01*
X0016887Y0060948D02*
X0007650Y0060948D01*
X0007650Y0062546D02*
X0015748Y0062546D01*
X0015748Y0064145D02*
X0007650Y0064145D01*
X0007650Y0065743D02*
X0015748Y0065743D01*
X0015748Y0067342D02*
X0007650Y0067342D01*
X0007650Y0068940D02*
X0015748Y0068940D01*
X0015748Y0070539D02*
X0007650Y0070539D01*
X0007650Y0072137D02*
X0015748Y0072137D01*
X0015748Y0073736D02*
X0007650Y0073736D01*
X0007650Y0075334D02*
X0015748Y0075334D01*
X0015748Y0076933D02*
X0007650Y0076933D01*
X0007650Y0078532D02*
X0015748Y0078532D01*
X0015748Y0080130D02*
X0007650Y0080130D01*
X0007650Y0081729D02*
X0015748Y0081729D01*
X0015748Y0083327D02*
X0007650Y0083327D01*
X0007650Y0084926D02*
X0015748Y0084926D01*
X0015748Y0086524D02*
X0007650Y0086524D01*
X0007650Y0088123D02*
X0015748Y0088123D01*
X0015748Y0089721D02*
X0007650Y0089721D01*
X0007650Y0091320D02*
X0015748Y0091320D01*
X0015748Y0092918D02*
X0007650Y0092918D01*
X0007650Y0094517D02*
X0015748Y0094517D01*
X0015748Y0096115D02*
X0007650Y0096115D01*
X0007650Y0097714D02*
X0015748Y0097714D01*
X0015748Y0099312D02*
X0007650Y0099312D01*
X0007650Y0100911D02*
X0015748Y0100911D01*
X0015748Y0102509D02*
X0007650Y0102509D01*
X0007650Y0104108D02*
X0015748Y0104108D01*
X0015748Y0105706D02*
X0007650Y0105706D01*
X0007650Y0107305D02*
X0015748Y0107305D01*
X0015748Y0108903D02*
X0007650Y0108903D01*
X0007650Y0110502D02*
X0015748Y0110502D01*
X0015748Y0112100D02*
X0007650Y0112100D01*
X0007650Y0113699D02*
X0015748Y0113699D01*
X0015748Y0115297D02*
X0007650Y0115297D01*
X0007650Y0116896D02*
X0015748Y0116896D01*
X0015748Y0118494D02*
X0007650Y0118494D01*
X0007650Y0120093D02*
X0015748Y0120093D01*
X0015748Y0121691D02*
X0007650Y0121691D01*
X0007650Y0123290D02*
X0015748Y0123290D01*
X0015748Y0124888D02*
X0007650Y0124888D01*
X0007650Y0126487D02*
X0015748Y0126487D01*
X0015748Y0128085D02*
X0007650Y0128085D01*
X0007650Y0129684D02*
X0015748Y0129684D01*
X0015748Y0131282D02*
X0007650Y0131282D01*
X0007650Y0132881D02*
X0015748Y0132881D01*
X0015748Y0134479D02*
X0007650Y0134479D01*
X0007650Y0136078D02*
X0015748Y0136078D01*
X0015748Y0137676D02*
X0007650Y0137676D01*
X0007650Y0139275D02*
X0015748Y0139275D01*
X0015748Y0140873D02*
X0007650Y0140873D01*
X0007650Y0142472D02*
X0015748Y0142472D01*
X0007650Y0144070D02*
X0033834Y0144070D01*
X0035433Y0145669D02*
X0007650Y0145669D01*
X0007650Y0147268D02*
X0036496Y0147268D01*
X0036496Y0148866D02*
X0007650Y0148866D01*
X0007650Y0150465D02*
X0036496Y0150465D01*
X0036496Y0152063D02*
X0007650Y0152063D01*
X0007650Y0153662D02*
X0036496Y0153662D01*
X0036496Y0155260D02*
X0007650Y0155260D01*
X0007650Y0156859D02*
X0036496Y0156859D01*
X0036496Y0158457D02*
X0007650Y0158457D01*
X0007650Y0160056D02*
X0036496Y0160056D01*
X0036496Y0161654D02*
X0007650Y0161654D01*
X0007650Y0163253D02*
X0036496Y0163253D01*
X0036496Y0164851D02*
X0007650Y0164851D01*
X0007650Y0166450D02*
X0036496Y0166450D01*
X0036496Y0168048D02*
X0007650Y0168048D01*
X0007650Y0169647D02*
X0036496Y0169647D01*
X0036496Y0171245D02*
X0007650Y0171245D01*
X0007650Y0172844D02*
X0036496Y0172844D01*
X0036496Y0174442D02*
X0007650Y0174442D01*
X0007650Y0176041D02*
X0036496Y0176041D01*
X0035117Y0177639D02*
X0007650Y0177639D01*
X0007978Y0179238D02*
X0033518Y0179238D01*
X0031920Y0180836D02*
X0009576Y0180836D01*
X0045000Y0195000D02*
X0049831Y0190169D01*
X0049831Y0178228D01*
X0119000Y0162000D02*
X0131492Y0174492D01*
X0129046Y0059349D02*
X0123900Y0059349D01*
X0123900Y0057751D02*
X0128252Y0057751D01*
X0128292Y0056152D02*
X0123900Y0056152D01*
X0123540Y0054554D02*
X0129143Y0054554D01*
X0134857Y0054554D02*
X0140100Y0054554D01*
X0140100Y0056152D02*
X0135708Y0056152D01*
X0135900Y0057751D02*
X0140100Y0057751D01*
X0140100Y0059349D02*
X0135900Y0059349D01*
X0140100Y0052955D02*
X0122057Y0052955D01*
X0120458Y0051357D02*
X0140100Y0051357D01*
X0140100Y0049758D02*
X0118860Y0049758D01*
X0117866Y0048160D02*
X0117261Y0048160D01*
X0125323Y0048160D02*
X0140100Y0048160D01*
X0140100Y0046561D02*
X0127715Y0046561D01*
X0128898Y0044963D02*
X0140100Y0044963D01*
X0140100Y0043364D02*
X0129893Y0043364D01*
X0130211Y0041766D02*
X0140100Y0041766D01*
X0140100Y0040167D02*
X0130529Y0040167D01*
X0130240Y0038569D02*
X0140100Y0038569D01*
X0140100Y0036970D02*
X0129922Y0036970D01*
X0128995Y0035372D02*
X0140100Y0035372D01*
X0140100Y0033773D02*
X0127927Y0033773D01*
X0125540Y0032175D02*
X0140100Y0032175D01*
X0168927Y0032175D02*
X0177649Y0032175D01*
X0175262Y0033773D02*
X0168900Y0033773D01*
X0168900Y0035372D02*
X0174194Y0035372D01*
X0173267Y0036970D02*
X0168900Y0036970D01*
X0168900Y0038569D02*
X0172949Y0038569D01*
X0172645Y0040094D02*
X0172645Y0040094D01*
X0172660Y0040167D02*
X0168900Y0040167D01*
X0168900Y0041766D02*
X0172978Y0041766D01*
X0173296Y0043364D02*
X0168900Y0043364D01*
X0168900Y0044963D02*
X0174291Y0044963D01*
X0173326Y0043519D02*
X0173326Y0043519D01*
X0175474Y0046561D02*
X0169663Y0046561D01*
X0171261Y0048160D02*
X0177866Y0048160D01*
X0174458Y0051357D02*
X0199100Y0051357D01*
X0199100Y0052955D02*
X0176057Y0052955D01*
X0177655Y0054554D02*
X0189143Y0054554D01*
X0188292Y0056152D02*
X0179254Y0056152D01*
X0179900Y0057751D02*
X0188252Y0057751D01*
X0189046Y0059349D02*
X0179900Y0059349D01*
X0194954Y0059349D02*
X0199100Y0059349D01*
X0199100Y0057751D02*
X0195748Y0057751D01*
X0195708Y0056152D02*
X0199100Y0056152D01*
X0199100Y0054554D02*
X0194857Y0054554D01*
X0199100Y0049758D02*
X0172860Y0049758D01*
X0181594Y0049044D02*
X0181594Y0049044D01*
X0185019Y0048362D02*
X0185019Y0048362D01*
X0185323Y0048160D02*
X0199100Y0048160D01*
X0199100Y0046561D02*
X0187715Y0046561D01*
X0188898Y0044963D02*
X0199100Y0044963D01*
X0199100Y0043364D02*
X0189893Y0043364D01*
X0190211Y0041766D02*
X0199100Y0041766D01*
X0198066Y0040167D02*
X0190529Y0040167D01*
X0190240Y0038569D02*
X0196468Y0038569D01*
X0194869Y0036970D02*
X0189922Y0036970D01*
X0189862Y0036670D02*
X0189862Y0036670D01*
X0188995Y0035372D02*
X0193270Y0035372D01*
X0191672Y0033773D02*
X0187927Y0033773D01*
X0075179Y0028978D02*
X0074900Y0028978D01*
X0073900Y0025781D02*
X0072900Y0025781D01*
X0073455Y0024182D02*
X0074315Y0024182D01*
X0074775Y0022584D02*
X0075618Y0022584D01*
X0066174Y0016190D02*
X0063826Y0016190D01*
X0064929Y0017788D02*
X0065071Y0017788D01*
X0056174Y0016190D02*
X0053826Y0016190D01*
X0054929Y0017788D02*
X0055071Y0017788D01*
X0046174Y0016190D02*
X0045262Y0016190D01*
X0037100Y0028978D02*
X0007650Y0028978D01*
X0007650Y0030576D02*
X0037100Y0030576D01*
X0037100Y0032175D02*
X0007650Y0032175D01*
X0007650Y0033773D02*
X0037100Y0033773D01*
X0037100Y0035372D02*
X0007650Y0035372D01*
X0007650Y0036970D02*
X0037100Y0036970D01*
X0037100Y0038569D02*
X0007650Y0038569D01*
X0007650Y0040167D02*
X0037100Y0040167D01*
X0037100Y0041766D02*
X0007650Y0041766D01*
X0007650Y0043364D02*
X0037100Y0043364D01*
X0037100Y0044963D02*
X0007650Y0044963D01*
X0007650Y0046561D02*
X0037100Y0046561D01*
X0017926Y0026897D02*
X0017926Y0026897D01*
X0021302Y0011017D02*
X0021302Y0011017D01*
D24*
X0040000Y0020000D02*
X0040000Y0049000D01*
X0023000Y0066000D01*
X0023000Y0072000D01*
X0027000Y0076000D01*
X0023950Y0076061D02*
X0022089Y0074200D01*
X0020800Y0072911D01*
X0020800Y0065089D01*
X0022871Y0063018D01*
X0018918Y0063018D01*
X0018648Y0063288D01*
X0018648Y0139895D01*
X0033136Y0139895D01*
X0034202Y0140337D01*
X0035018Y0141153D01*
X0038955Y0145090D01*
X0039396Y0146155D01*
X0039396Y0170623D01*
X0060377Y0170623D01*
X0061373Y0171619D01*
X0061373Y0184838D01*
X0060377Y0185834D01*
X0052331Y0185834D01*
X0052331Y0190667D01*
X0051950Y0191585D01*
X0048050Y0195486D01*
X0048050Y0195607D01*
X0047586Y0196728D01*
X0046728Y0197586D01*
X0045607Y0198050D01*
X0044393Y0198050D01*
X0043272Y0197586D01*
X0042414Y0196728D01*
X0041950Y0195607D01*
X0041950Y0194393D01*
X0042414Y0193272D01*
X0043272Y0192414D01*
X0044393Y0191950D01*
X0044514Y0191950D01*
X0047331Y0189134D01*
X0047331Y0185834D01*
X0039284Y0185834D01*
X0038288Y0184838D01*
X0038288Y0178569D01*
X0038139Y0178718D01*
X0032233Y0184624D01*
X0031167Y0185065D01*
X0010329Y0185065D01*
X0009263Y0184624D01*
X0008447Y0183808D01*
X0007250Y0182611D01*
X0007250Y0211693D01*
X0007349Y0213198D01*
X0008128Y0216105D01*
X0009633Y0218712D01*
X0011761Y0220840D01*
X0014367Y0222345D01*
X0017275Y0223124D01*
X0018780Y0223222D01*
X0264843Y0223222D01*
X0266347Y0223124D01*
X0269255Y0222345D01*
X0271861Y0220840D01*
X0273990Y0218712D01*
X0275494Y0216105D01*
X0276273Y0213198D01*
X0276372Y0211693D01*
X0276372Y0106270D01*
X0276335Y0106229D01*
X0276372Y0105346D01*
X0276372Y0105250D01*
X0276326Y0104148D01*
X0275659Y0101954D01*
X0274304Y0100104D01*
X0273895Y0099770D01*
X0273753Y0099770D01*
X0273241Y0099258D01*
X0272644Y0098848D01*
X0272601Y0098618D01*
X0263365Y0089381D01*
X0261985Y0088347D01*
X0259802Y0085276D01*
X0258656Y0081687D01*
X0258656Y0063018D01*
X0246895Y0063018D01*
X0247050Y0063393D01*
X0247050Y0064607D01*
X0246586Y0065728D01*
X0245728Y0066586D01*
X0244607Y0067050D01*
X0243393Y0067050D01*
X0243342Y0067029D01*
X0243586Y0067272D01*
X0244050Y0068393D01*
X0244050Y0069607D01*
X0243586Y0070728D01*
X0242728Y0071586D01*
X0241607Y0072050D01*
X0240393Y0072050D01*
X0239272Y0071586D01*
X0238414Y0070728D01*
X0237950Y0069607D01*
X0237950Y0068393D01*
X0238340Y0067451D01*
X0237200Y0066311D01*
X0237200Y0071089D01*
X0239061Y0072950D01*
X0239607Y0072950D01*
X0240728Y0073414D01*
X0241586Y0074272D01*
X0242050Y0075393D01*
X0242050Y0076607D01*
X0241586Y0077728D01*
X0240728Y0078586D01*
X0239607Y0079050D01*
X0238393Y0079050D01*
X0237272Y0078586D01*
X0236414Y0077728D01*
X0235950Y0076607D01*
X0235950Y0076061D01*
X0232800Y0072911D01*
X0232800Y0065911D01*
X0229907Y0063018D01*
X0208200Y0063018D01*
X0208200Y0067887D01*
X0208586Y0068272D01*
X0209050Y0069393D01*
X0209050Y0070607D01*
X0208586Y0071728D01*
X0207728Y0072586D01*
X0206727Y0073000D01*
X0207728Y0073414D01*
X0208586Y0074272D01*
X0209050Y0075393D01*
X0209050Y0076607D01*
X0208586Y0077728D01*
X0207728Y0078586D01*
X0206607Y0079050D01*
X0205393Y0079050D01*
X0204272Y0078586D01*
X0203414Y0077728D01*
X0202950Y0076607D01*
X0202950Y0076061D01*
X0201389Y0074500D01*
X0197500Y0074500D01*
X0197500Y0075500D01*
X0201650Y0075500D01*
X0201650Y0077497D01*
X0201587Y0077733D01*
X0201850Y0077996D01*
X0201850Y0079022D01*
X0207828Y0085000D01*
X0213687Y0085000D01*
X0214272Y0084414D01*
X0215393Y0083950D01*
X0216607Y0083950D01*
X0217728Y0084414D01*
X0218586Y0085272D01*
X0219050Y0086393D01*
X0219050Y0086637D01*
X0219272Y0086414D01*
X0220393Y0085950D01*
X0221222Y0085950D01*
X0223000Y0084172D01*
X0224172Y0083000D01*
X0237172Y0083000D01*
X0240000Y0080172D01*
X0241172Y0079000D01*
X0242150Y0079000D01*
X0242150Y0077996D01*
X0242413Y0077733D01*
X0242350Y0077497D01*
X0242350Y0075500D01*
X0246500Y0075500D01*
X0246500Y0074500D01*
X0247500Y0074500D01*
X0247500Y0075500D01*
X0251650Y0075500D01*
X0251650Y0077497D01*
X0251587Y0077733D01*
X0251850Y0077996D01*
X0251850Y0090004D01*
X0250854Y0091000D01*
X0243146Y0091000D01*
X0242150Y0090004D01*
X0242150Y0089825D01*
X0241607Y0090050D01*
X0241050Y0090050D01*
X0241050Y0090222D01*
X0244828Y0094000D01*
X0253828Y0094000D01*
X0261000Y0101172D01*
X0261000Y0097828D01*
X0260222Y0097050D01*
X0259393Y0097050D01*
X0258272Y0096586D01*
X0257414Y0095728D01*
X0256950Y0094607D01*
X0256950Y0093393D01*
X0257414Y0092272D01*
X0258272Y0091414D01*
X0259393Y0090950D01*
X0260607Y0090950D01*
X0261728Y0091414D01*
X0262586Y0092272D01*
X0263050Y0093393D01*
X0263050Y0094222D01*
X0263828Y0095000D01*
X0265000Y0096172D01*
X0265000Y0155172D01*
X0266778Y0156950D01*
X0267607Y0156950D01*
X0268728Y0157414D01*
X0269586Y0158272D01*
X0270050Y0159393D01*
X0270050Y0160607D01*
X0269586Y0161728D01*
X0268813Y0162500D01*
X0269586Y0163272D01*
X0270050Y0164393D01*
X0270050Y0165607D01*
X0269586Y0166728D01*
X0268813Y0167500D01*
X0269586Y0168272D01*
X0270050Y0169393D01*
X0270050Y0170607D01*
X0269586Y0171728D01*
X0268728Y0172586D01*
X0267607Y0173050D01*
X0266393Y0173050D01*
X0266103Y0172930D01*
X0266200Y0173165D01*
X0266200Y0174835D01*
X0265561Y0176379D01*
X0264379Y0177561D01*
X0262835Y0178200D01*
X0261165Y0178200D01*
X0259621Y0177561D01*
X0259200Y0177140D01*
X0259200Y0179887D01*
X0259586Y0180272D01*
X0260050Y0181393D01*
X0260050Y0182607D01*
X0259586Y0183728D01*
X0258728Y0184586D01*
X0257607Y0185050D01*
X0256393Y0185050D01*
X0255272Y0184586D01*
X0254887Y0184200D01*
X0228089Y0184200D01*
X0227939Y0184050D01*
X0227393Y0184050D01*
X0226272Y0183586D01*
X0225414Y0182728D01*
X0224950Y0181607D01*
X0224950Y0180393D01*
X0225414Y0179272D01*
X0226272Y0178414D01*
X0227393Y0177950D01*
X0228607Y0177950D01*
X0229728Y0178414D01*
X0230586Y0179272D01*
X0230804Y0179800D01*
X0238487Y0179800D01*
X0238414Y0179728D01*
X0237950Y0178607D01*
X0237950Y0177393D01*
X0238414Y0176272D01*
X0239272Y0175414D01*
X0240393Y0174950D01*
X0241152Y0174950D01*
X0240272Y0174586D01*
X0239414Y0173728D01*
X0238950Y0172607D01*
X0238950Y0171393D01*
X0239414Y0170272D01*
X0240000Y0169687D01*
X0240000Y0169172D01*
X0241000Y0168172D01*
X0242172Y0167000D01*
X0243475Y0167000D01*
X0243475Y0165674D01*
X0244300Y0164849D01*
X0244254Y0164822D01*
X0243975Y0164543D01*
X0243777Y0164201D01*
X0243675Y0163820D01*
X0243675Y0162335D01*
X0246463Y0162335D01*
X0246463Y0161760D01*
X0247037Y0161760D01*
X0247037Y0158972D01*
X0248522Y0158972D01*
X0248904Y0159075D01*
X0249000Y0159130D01*
X0249000Y0110828D01*
X0246172Y0108000D01*
X0232172Y0108000D01*
X0231000Y0106828D01*
X0224172Y0100000D01*
X0201625Y0100000D01*
X0201662Y0100016D01*
X0202984Y0101338D01*
X0203700Y0103065D01*
X0203700Y0104935D01*
X0203426Y0105597D01*
X0204828Y0107000D01*
X0215828Y0107000D01*
X0220322Y0111494D01*
X0220414Y0111272D01*
X0221272Y0110414D01*
X0222393Y0109950D01*
X0223607Y0109950D01*
X0224728Y0110414D01*
X0225500Y0111187D01*
X0226272Y0110414D01*
X0227393Y0109950D01*
X0228607Y0109950D01*
X0229728Y0110414D01*
X0230586Y0111272D01*
X0231050Y0112393D01*
X0231050Y0113607D01*
X0230586Y0114728D01*
X0230000Y0115313D01*
X0230000Y0119282D01*
X0230379Y0119439D01*
X0231561Y0120621D01*
X0232200Y0122165D01*
X0232200Y0123835D01*
X0231561Y0125379D01*
X0230379Y0126561D01*
X0228835Y0127200D01*
X0227165Y0127200D01*
X0225621Y0126561D01*
X0225000Y0125940D01*
X0225000Y0143113D01*
X0225728Y0143414D01*
X0226586Y0144272D01*
X0227050Y0145393D01*
X0227050Y0146607D01*
X0226586Y0147728D01*
X0225728Y0148586D01*
X0224607Y0149050D01*
X0223393Y0149050D01*
X0222272Y0148586D01*
X0221414Y0147728D01*
X0220950Y0146607D01*
X0220950Y0145393D01*
X0221000Y0145273D01*
X0221000Y0144828D01*
X0220828Y0145000D01*
X0215050Y0150778D01*
X0215050Y0151607D01*
X0214586Y0152728D01*
X0213728Y0153586D01*
X0212607Y0154050D01*
X0211393Y0154050D01*
X0210272Y0153586D01*
X0209414Y0152728D01*
X0209050Y0151848D01*
X0209050Y0152607D01*
X0208586Y0153728D01*
X0207728Y0154586D01*
X0206607Y0155050D01*
X0205393Y0155050D01*
X0204272Y0154586D01*
X0203414Y0153728D01*
X0202950Y0152607D01*
X0202950Y0151393D01*
X0203414Y0150272D01*
X0204272Y0149414D01*
X0205393Y0148950D01*
X0206222Y0148950D01*
X0216000Y0139172D01*
X0216000Y0115828D01*
X0215050Y0114878D01*
X0215050Y0115607D01*
X0214586Y0116728D01*
X0213728Y0117586D01*
X0212607Y0118050D01*
X0211393Y0118050D01*
X0210272Y0117586D01*
X0210050Y0117363D01*
X0210050Y0117607D01*
X0209586Y0118728D01*
X0208728Y0119586D01*
X0207607Y0120050D01*
X0206393Y0120050D01*
X0205272Y0119586D01*
X0204414Y0118728D01*
X0203950Y0117607D01*
X0203950Y0117000D01*
X0199828Y0117000D01*
X0200778Y0117950D01*
X0201607Y0117950D01*
X0202728Y0118414D01*
X0203586Y0119272D01*
X0204050Y0120393D01*
X0204050Y0121607D01*
X0203586Y0122728D01*
X0202728Y0123586D01*
X0201607Y0124050D01*
X0200393Y0124050D01*
X0199272Y0123586D01*
X0198828Y0123142D01*
X0198586Y0123728D01*
X0197728Y0124586D01*
X0196607Y0125050D01*
X0195393Y0125050D01*
X0194272Y0124586D01*
X0194050Y0124363D01*
X0194050Y0124607D01*
X0193586Y0125728D01*
X0192728Y0126586D01*
X0191607Y0127050D01*
X0190393Y0127050D01*
X0189272Y0126586D01*
X0189050Y0126363D01*
X0189050Y0126607D01*
X0188586Y0127728D01*
X0187728Y0128586D01*
X0186607Y0129050D01*
X0185393Y0129050D01*
X0184272Y0128586D01*
X0183414Y0127728D01*
X0182950Y0126607D01*
X0182950Y0125778D01*
X0182172Y0125000D01*
X0167727Y0125000D01*
X0168728Y0125414D01*
X0169586Y0126272D01*
X0170050Y0127393D01*
X0170050Y0128607D01*
X0169586Y0129728D01*
X0168728Y0130586D01*
X0167607Y0131050D01*
X0166393Y0131050D01*
X0165272Y0130586D01*
X0164687Y0130000D01*
X0137313Y0130000D01*
X0136728Y0130586D01*
X0135607Y0131050D01*
X0134393Y0131050D01*
X0133272Y0130586D01*
X0132414Y0129728D01*
X0131950Y0128607D01*
X0131950Y0127393D01*
X0132414Y0126272D01*
X0133272Y0125414D01*
X0134273Y0125000D01*
X0114828Y0125000D01*
X0112000Y0127828D01*
X0110828Y0129000D01*
X0075172Y0129000D01*
X0074000Y0127828D01*
X0070000Y0123828D01*
X0070000Y0102828D01*
X0067172Y0100000D01*
X0066828Y0100000D01*
X0067000Y0100172D01*
X0067000Y0121828D01*
X0065828Y0123000D01*
X0044172Y0123000D01*
X0043000Y0121828D01*
X0043000Y0100172D01*
X0044172Y0099000D01*
X0045828Y0099000D01*
X0046172Y0099000D01*
X0046000Y0098828D01*
X0043222Y0096050D01*
X0042393Y0096050D01*
X0041272Y0095586D01*
X0040414Y0094728D01*
X0040030Y0093799D01*
X0040000Y0093828D01*
X0040000Y0095828D01*
X0037000Y0098828D01*
X0037000Y0098828D01*
X0035828Y0100000D01*
X0031850Y0100000D01*
X0031850Y0101504D01*
X0030854Y0102500D01*
X0023146Y0102500D01*
X0022150Y0101504D01*
X0022150Y0089496D01*
X0022413Y0089233D01*
X0022350Y0088997D01*
X0022350Y0087000D01*
X0026500Y0087000D01*
X0026500Y0086000D01*
X0027500Y0086000D01*
X0027500Y0087000D01*
X0031650Y0087000D01*
X0031650Y0088997D01*
X0031587Y0089233D01*
X0031850Y0089496D01*
X0031850Y0090022D01*
X0032778Y0090950D01*
X0033607Y0090950D01*
X0034728Y0091414D01*
X0035586Y0092272D01*
X0036000Y0093273D01*
X0036000Y0092172D01*
X0036201Y0091970D01*
X0035272Y0091586D01*
X0034414Y0090728D01*
X0033950Y0089607D01*
X0033950Y0088393D01*
X0034414Y0087272D01*
X0035272Y0086414D01*
X0036393Y0085950D01*
X0037222Y0085950D01*
X0039000Y0084172D01*
X0040172Y0083000D01*
X0059172Y0083000D01*
X0062150Y0080022D01*
X0062150Y0077996D01*
X0062413Y0077733D01*
X0062350Y0077497D01*
X0062350Y0075500D01*
X0066500Y0075500D01*
X0066500Y0074500D01*
X0067500Y0074500D01*
X0067500Y0071200D01*
X0070000Y0071200D01*
X0070000Y0071050D01*
X0069393Y0071050D01*
X0068272Y0070586D01*
X0067414Y0069728D01*
X0066950Y0068607D01*
X0066950Y0067393D01*
X0067414Y0066272D01*
X0068272Y0065414D01*
X0069393Y0064950D01*
X0070607Y0064950D01*
X0071728Y0065414D01*
X0072586Y0066272D01*
X0073050Y0067393D01*
X0073050Y0068222D01*
X0074000Y0069172D01*
X0074000Y0071200D01*
X0076500Y0071200D01*
X0076500Y0074500D01*
X0077500Y0074500D01*
X0077500Y0075500D01*
X0081650Y0075500D01*
X0081650Y0077497D01*
X0081587Y0077733D01*
X0081850Y0077996D01*
X0081850Y0080022D01*
X0086828Y0085000D01*
X0087687Y0085000D01*
X0088272Y0084414D01*
X0089393Y0083950D01*
X0090607Y0083950D01*
X0091728Y0084414D01*
X0092586Y0085272D01*
X0092970Y0086201D01*
X0095000Y0084172D01*
X0096172Y0083000D01*
X0118172Y0083000D01*
X0122150Y0079022D01*
X0122150Y0077996D01*
X0122413Y0077733D01*
X0122350Y0077497D01*
X0122350Y0075500D01*
X0126500Y0075500D01*
X0126500Y0074500D01*
X0127500Y0074500D01*
X0127500Y0071200D01*
X0130000Y0071200D01*
X0130000Y0070887D01*
X0129272Y0070586D01*
X0128414Y0069728D01*
X0127950Y0068607D01*
X0127950Y0067393D01*
X0128414Y0066272D01*
X0129272Y0065414D01*
X0130393Y0064950D01*
X0131607Y0064950D01*
X0132728Y0065414D01*
X0133586Y0066272D01*
X0134050Y0067393D01*
X0134050Y0068607D01*
X0134000Y0068727D01*
X0134000Y0071200D01*
X0136500Y0071200D01*
X0136500Y0074500D01*
X0137500Y0074500D01*
X0137500Y0075500D01*
X0141650Y0075500D01*
X0141650Y0077497D01*
X0141587Y0077733D01*
X0141850Y0077996D01*
X0141850Y0081022D01*
X0147258Y0086429D01*
X0147272Y0086414D01*
X0148393Y0085950D01*
X0149607Y0085950D01*
X0150728Y0086414D01*
X0151586Y0087272D01*
X0151828Y0087858D01*
X0152272Y0087414D01*
X0153393Y0086950D01*
X0154222Y0086950D01*
X0157000Y0084172D01*
X0158172Y0083000D01*
X0179172Y0083000D01*
X0182000Y0080172D01*
X0182150Y0080022D01*
X0182150Y0077996D01*
X0182413Y0077733D01*
X0182350Y0077497D01*
X0182350Y0075500D01*
X0186500Y0075500D01*
X0186500Y0074500D01*
X0187500Y0074500D01*
X0187500Y0071200D01*
X0190000Y0071200D01*
X0190000Y0071050D01*
X0189393Y0071050D01*
X0188272Y0070586D01*
X0187414Y0069728D01*
X0186950Y0068607D01*
X0186950Y0067393D01*
X0187414Y0066272D01*
X0188272Y0065414D01*
X0189393Y0064950D01*
X0190607Y0064950D01*
X0191728Y0065414D01*
X0192586Y0066272D01*
X0193050Y0067393D01*
X0193050Y0068222D01*
X0194000Y0069172D01*
X0194000Y0071200D01*
X0196500Y0071200D01*
X0196500Y0074500D01*
X0197500Y0074500D01*
X0197500Y0071200D01*
X0199800Y0071200D01*
X0199800Y0069513D01*
X0199728Y0069586D01*
X0198607Y0070050D01*
X0197393Y0070050D01*
X0196272Y0069586D01*
X0195414Y0068728D01*
X0194950Y0067607D01*
X0194950Y0066393D01*
X0195414Y0065272D01*
X0195800Y0064887D01*
X0195800Y0063018D01*
X0185331Y0063018D01*
X0185586Y0063272D01*
X0186050Y0064393D01*
X0186050Y0065607D01*
X0185586Y0066728D01*
X0184728Y0067586D01*
X0183607Y0068050D01*
X0183363Y0068050D01*
X0183586Y0068272D01*
X0184050Y0069393D01*
X0184050Y0070607D01*
X0183804Y0071200D01*
X0186500Y0071200D01*
X0186500Y0074500D01*
X0182350Y0074500D01*
X0182350Y0072742D01*
X0181607Y0073050D01*
X0180393Y0073050D01*
X0179272Y0072586D01*
X0178414Y0071728D01*
X0177950Y0070607D01*
X0177950Y0070061D01*
X0176089Y0068200D01*
X0175200Y0067311D01*
X0175200Y0069089D01*
X0179061Y0072950D01*
X0179607Y0072950D01*
X0180728Y0073414D01*
X0181586Y0074272D01*
X0182050Y0075393D01*
X0182050Y0076607D01*
X0181586Y0077728D01*
X0180728Y0078586D01*
X0179607Y0079050D01*
X0178393Y0079050D01*
X0177272Y0078586D01*
X0176414Y0077728D01*
X0175950Y0076607D01*
X0175950Y0076061D01*
X0172089Y0072200D01*
X0170800Y0070911D01*
X0170800Y0063018D01*
X0152200Y0063018D01*
X0152200Y0066911D01*
X0149050Y0070061D01*
X0149050Y0070607D01*
X0148586Y0071728D01*
X0147728Y0072586D01*
X0146727Y0073000D01*
X0147728Y0073414D01*
X0148586Y0074272D01*
X0149050Y0075393D01*
X0149050Y0076607D01*
X0148586Y0077728D01*
X0147728Y0078586D01*
X0146607Y0079050D01*
X0145393Y0079050D01*
X0144272Y0078586D01*
X0143414Y0077728D01*
X0142950Y0076607D01*
X0142950Y0076061D01*
X0142089Y0075200D01*
X0141389Y0074500D01*
X0137500Y0074500D01*
X0137500Y0071200D01*
X0140347Y0071200D01*
X0140729Y0071302D01*
X0140800Y0071343D01*
X0140800Y0068513D01*
X0140728Y0068586D01*
X0139607Y0069050D01*
X0138393Y0069050D01*
X0137272Y0068586D01*
X0136414Y0067728D01*
X0135950Y0066607D01*
X0135950Y0065393D01*
X0136414Y0064272D01*
X0136800Y0063887D01*
X0136800Y0063018D01*
X0126895Y0063018D01*
X0127050Y0063393D01*
X0127050Y0064607D01*
X0126586Y0065728D01*
X0125728Y0066586D01*
X0124607Y0067050D01*
X0123393Y0067050D01*
X0123342Y0067029D01*
X0123586Y0067272D01*
X0124050Y0068393D01*
X0124050Y0069607D01*
X0123586Y0070728D01*
X0122728Y0071586D01*
X0121607Y0072050D01*
X0120393Y0072050D01*
X0119272Y0071586D01*
X0118414Y0070728D01*
X0117950Y0069607D01*
X0117950Y0068393D01*
X0118414Y0067272D01*
X0118800Y0066887D01*
X0118800Y0063018D01*
X0115200Y0063018D01*
X0115200Y0069089D01*
X0119061Y0072950D01*
X0119607Y0072950D01*
X0120728Y0073414D01*
X0121586Y0074272D01*
X0122050Y0075393D01*
X0122050Y0076607D01*
X0121586Y0077728D01*
X0120728Y0078586D01*
X0119607Y0079050D01*
X0118393Y0079050D01*
X0117272Y0078586D01*
X0116414Y0077728D01*
X0115950Y0076607D01*
X0115950Y0076061D01*
X0112089Y0072200D01*
X0110800Y0070911D01*
X0110800Y0063018D01*
X0094093Y0063018D01*
X0088050Y0069061D01*
X0088050Y0069607D01*
X0087586Y0070728D01*
X0086728Y0071586D01*
X0085999Y0071888D01*
X0087061Y0072950D01*
X0087607Y0072950D01*
X0088728Y0073414D01*
X0089586Y0074272D01*
X0090050Y0075393D01*
X0090050Y0076607D01*
X0089586Y0077728D01*
X0088728Y0078586D01*
X0087607Y0079050D01*
X0086393Y0079050D01*
X0085272Y0078586D01*
X0084414Y0077728D01*
X0083950Y0076607D01*
X0083950Y0076061D01*
X0081650Y0073761D01*
X0081650Y0074500D01*
X0077500Y0074500D01*
X0077500Y0071200D01*
X0079800Y0071200D01*
X0079800Y0068513D01*
X0079728Y0068586D01*
X0078607Y0069050D01*
X0077393Y0069050D01*
X0076272Y0068586D01*
X0075414Y0067728D01*
X0074950Y0066607D01*
X0074950Y0065393D01*
X0075414Y0064272D01*
X0075800Y0063887D01*
X0075800Y0063018D01*
X0065200Y0063018D01*
X0065200Y0063887D01*
X0065586Y0064272D01*
X0066050Y0065393D01*
X0066050Y0066607D01*
X0065586Y0067728D01*
X0064728Y0068586D01*
X0063607Y0069050D01*
X0062908Y0069050D01*
X0063050Y0069393D01*
X0063050Y0070607D01*
X0062586Y0071728D01*
X0061728Y0072586D01*
X0060607Y0073050D01*
X0059848Y0073050D01*
X0060728Y0073414D01*
X0061586Y0074272D01*
X0062050Y0075393D01*
X0062050Y0076607D01*
X0061586Y0077728D01*
X0060728Y0078586D01*
X0059607Y0079050D01*
X0058393Y0079050D01*
X0057272Y0078586D01*
X0056414Y0077728D01*
X0055950Y0076607D01*
X0055950Y0076061D01*
X0053089Y0073200D01*
X0051800Y0071911D01*
X0051800Y0063018D01*
X0034093Y0063018D01*
X0028660Y0068451D01*
X0029050Y0069393D01*
X0029050Y0070607D01*
X0028586Y0071728D01*
X0027728Y0072586D01*
X0026999Y0072888D01*
X0027061Y0072950D01*
X0027607Y0072950D01*
X0028728Y0073414D01*
X0029586Y0074272D01*
X0030050Y0075393D01*
X0030050Y0076607D01*
X0029586Y0077728D01*
X0028728Y0078586D01*
X0027607Y0079050D01*
X0026393Y0079050D01*
X0025272Y0078586D01*
X0024414Y0077728D01*
X0023950Y0076607D01*
X0023950Y0076061D01*
X0023783Y0075894D02*
X0018648Y0075894D01*
X0018648Y0074896D02*
X0022785Y0074896D01*
X0021786Y0073897D02*
X0018648Y0073897D01*
X0018648Y0072899D02*
X0020800Y0072899D01*
X0020800Y0071900D02*
X0018648Y0071900D01*
X0018648Y0070902D02*
X0020800Y0070902D01*
X0020800Y0069903D02*
X0018648Y0069903D01*
X0018648Y0068905D02*
X0020800Y0068905D01*
X0020800Y0067906D02*
X0018648Y0067906D01*
X0018648Y0066908D02*
X0020800Y0066908D01*
X0020800Y0065909D02*
X0018648Y0065909D01*
X0018648Y0064911D02*
X0020978Y0064911D01*
X0021977Y0063912D02*
X0018648Y0063912D01*
X0026000Y0068000D02*
X0026000Y0070000D01*
X0026000Y0068000D02*
X0047000Y0047000D01*
X0047000Y0032000D01*
X0050000Y0029000D01*
X0050000Y0020000D01*
X0060000Y0020000D02*
X0060000Y0026000D01*
X0052000Y0034000D01*
X0052000Y0051000D01*
X0054000Y0053000D01*
X0054000Y0071000D01*
X0059000Y0076000D01*
X0061844Y0074896D02*
X0066500Y0074896D01*
X0066500Y0074500D02*
X0062350Y0074500D01*
X0062350Y0072503D01*
X0062452Y0072121D01*
X0062650Y0071779D01*
X0062929Y0071500D01*
X0063271Y0071302D01*
X0063653Y0071200D01*
X0066500Y0071200D01*
X0066500Y0074500D01*
X0066500Y0073897D02*
X0067500Y0073897D01*
X0067500Y0072899D02*
X0066500Y0072899D01*
X0066500Y0071900D02*
X0067500Y0071900D01*
X0069035Y0070902D02*
X0062928Y0070902D01*
X0063050Y0069903D02*
X0067590Y0069903D01*
X0067073Y0068905D02*
X0063957Y0068905D01*
X0065407Y0067906D02*
X0066950Y0067906D01*
X0067151Y0066908D02*
X0065925Y0066908D01*
X0066050Y0065909D02*
X0067777Y0065909D01*
X0065850Y0064911D02*
X0075150Y0064911D01*
X0074950Y0065909D02*
X0072223Y0065909D01*
X0072849Y0066908D02*
X0075075Y0066908D01*
X0075593Y0067906D02*
X0073050Y0067906D01*
X0073733Y0068905D02*
X0077043Y0068905D01*
X0078957Y0068905D02*
X0079800Y0068905D01*
X0079800Y0069903D02*
X0074000Y0069903D01*
X0074000Y0070902D02*
X0079800Y0070902D01*
X0082000Y0071000D02*
X0082000Y0064000D01*
X0090000Y0056000D01*
X0090000Y0020000D01*
X0100000Y0020000D02*
X0100000Y0054000D01*
X0085000Y0069000D01*
X0087927Y0069903D02*
X0110800Y0069903D01*
X0110800Y0068905D02*
X0088207Y0068905D01*
X0089205Y0067906D02*
X0110800Y0067906D01*
X0110800Y0066908D02*
X0090204Y0066908D01*
X0091202Y0065909D02*
X0110800Y0065909D01*
X0110800Y0064911D02*
X0092201Y0064911D01*
X0093199Y0063912D02*
X0110800Y0063912D01*
X0115200Y0063912D02*
X0118800Y0063912D01*
X0118800Y0064911D02*
X0115200Y0064911D01*
X0115200Y0065909D02*
X0118800Y0065909D01*
X0118779Y0066908D02*
X0115200Y0066908D01*
X0115200Y0067906D02*
X0118152Y0067906D01*
X0117950Y0068905D02*
X0115200Y0068905D01*
X0116015Y0069903D02*
X0118073Y0069903D01*
X0118588Y0070902D02*
X0117013Y0070902D01*
X0118012Y0071900D02*
X0120032Y0071900D01*
X0119010Y0072899D02*
X0122350Y0072899D01*
X0122350Y0072503D02*
X0122350Y0074500D01*
X0126500Y0074500D01*
X0126500Y0071200D01*
X0123653Y0071200D01*
X0123271Y0071302D01*
X0122929Y0071500D01*
X0122650Y0071779D01*
X0122452Y0072121D01*
X0122350Y0072503D01*
X0122580Y0071900D02*
X0121968Y0071900D01*
X0123412Y0070902D02*
X0130000Y0070902D01*
X0128590Y0069903D02*
X0123927Y0069903D01*
X0124050Y0068905D02*
X0128073Y0068905D01*
X0127950Y0067906D02*
X0123848Y0067906D01*
X0124950Y0066908D02*
X0128151Y0066908D01*
X0128777Y0065909D02*
X0126404Y0065909D01*
X0126924Y0064911D02*
X0136150Y0064911D01*
X0135950Y0065909D02*
X0133223Y0065909D01*
X0133849Y0066908D02*
X0136075Y0066908D01*
X0136593Y0067906D02*
X0134050Y0067906D01*
X0134000Y0068905D02*
X0138043Y0068905D01*
X0139957Y0068905D02*
X0140800Y0068905D01*
X0140800Y0069903D02*
X0134000Y0069903D01*
X0134000Y0070902D02*
X0140800Y0070902D01*
X0143000Y0073000D02*
X0143000Y0023000D01*
X0140000Y0020000D01*
X0150000Y0020000D02*
X0150000Y0066000D01*
X0146000Y0070000D01*
X0148928Y0070902D02*
X0170800Y0070902D01*
X0170800Y0069903D02*
X0149208Y0069903D01*
X0150207Y0068905D02*
X0170800Y0068905D01*
X0170800Y0067906D02*
X0151205Y0067906D01*
X0152200Y0066908D02*
X0170800Y0066908D01*
X0170800Y0065909D02*
X0152200Y0065909D01*
X0152200Y0064911D02*
X0170800Y0064911D01*
X0170800Y0063912D02*
X0152200Y0063912D01*
X0148413Y0071900D02*
X0171789Y0071900D01*
X0172787Y0072899D02*
X0146972Y0072899D01*
X0148211Y0073897D02*
X0173786Y0073897D01*
X0174785Y0074896D02*
X0148844Y0074896D01*
X0149050Y0075894D02*
X0175783Y0075894D01*
X0176069Y0076893D02*
X0148931Y0076893D01*
X0148422Y0077891D02*
X0176578Y0077891D01*
X0178007Y0078890D02*
X0146993Y0078890D01*
X0145007Y0078890D02*
X0141850Y0078890D01*
X0141850Y0079888D02*
X0182150Y0079888D01*
X0182150Y0078890D02*
X0179993Y0078890D01*
X0181422Y0077891D02*
X0182255Y0077891D01*
X0182350Y0076893D02*
X0181931Y0076893D01*
X0182050Y0075894D02*
X0182350Y0075894D01*
X0181844Y0074896D02*
X0186500Y0074896D01*
X0186500Y0073897D02*
X0187500Y0073897D01*
X0187500Y0072899D02*
X0186500Y0072899D01*
X0186500Y0071900D02*
X0187500Y0071900D01*
X0189035Y0070902D02*
X0183928Y0070902D01*
X0184050Y0069903D02*
X0187590Y0069903D01*
X0187073Y0068905D02*
X0183848Y0068905D01*
X0183954Y0067906D02*
X0186950Y0067906D01*
X0187151Y0066908D02*
X0185406Y0066908D01*
X0185925Y0065909D02*
X0187777Y0065909D01*
X0186050Y0064911D02*
X0195776Y0064911D01*
X0195800Y0063912D02*
X0185851Y0063912D01*
X0183000Y0065000D02*
X0183000Y0060000D01*
X0177000Y0058000D02*
X0166000Y0047000D01*
X0166000Y0031000D01*
X0170000Y0027000D01*
X0170000Y0020000D01*
X0160000Y0020000D02*
X0160000Y0046000D01*
X0173000Y0059000D01*
X0173000Y0070000D01*
X0179000Y0076000D01*
X0181211Y0073897D02*
X0182350Y0073897D01*
X0182350Y0072899D02*
X0181972Y0072899D01*
X0180028Y0072899D02*
X0179010Y0072899D01*
X0178587Y0071900D02*
X0178012Y0071900D01*
X0178072Y0070902D02*
X0177013Y0070902D01*
X0177792Y0069903D02*
X0176015Y0069903D01*
X0176793Y0068905D02*
X0175200Y0068905D01*
X0175200Y0067906D02*
X0175795Y0067906D01*
X0177000Y0066000D02*
X0177000Y0058000D01*
X0177000Y0066000D02*
X0181000Y0070000D01*
X0192000Y0064000D02*
X0192000Y0057000D01*
X0198000Y0060000D02*
X0198000Y0067000D01*
X0195151Y0065909D02*
X0192223Y0065909D01*
X0192849Y0066908D02*
X0194950Y0066908D01*
X0195074Y0067906D02*
X0193050Y0067906D01*
X0193733Y0068905D02*
X0195591Y0068905D01*
X0197039Y0069903D02*
X0194000Y0069903D01*
X0194000Y0070902D02*
X0199800Y0070902D01*
X0199800Y0069903D02*
X0198961Y0069903D01*
X0197500Y0071900D02*
X0196500Y0071900D01*
X0196500Y0072899D02*
X0197500Y0072899D01*
X0197500Y0073897D02*
X0196500Y0073897D01*
X0197500Y0074896D02*
X0201785Y0074896D01*
X0201650Y0075894D02*
X0202783Y0075894D01*
X0203069Y0076893D02*
X0201650Y0076893D01*
X0201745Y0077891D02*
X0203578Y0077891D01*
X0205007Y0078890D02*
X0201850Y0078890D01*
X0202717Y0079888D02*
X0240283Y0079888D01*
X0239993Y0078890D02*
X0242150Y0078890D01*
X0242255Y0077891D02*
X0241422Y0077891D01*
X0241931Y0076893D02*
X0242350Y0076893D01*
X0242350Y0075894D02*
X0242050Y0075894D01*
X0241844Y0074896D02*
X0246500Y0074896D01*
X0246500Y0074500D02*
X0242350Y0074500D01*
X0242350Y0072503D01*
X0242452Y0072121D01*
X0242650Y0071779D01*
X0242929Y0071500D01*
X0243271Y0071302D01*
X0243653Y0071200D01*
X0246500Y0071200D01*
X0246500Y0074500D01*
X0246500Y0073897D02*
X0247500Y0073897D01*
X0247500Y0074500D02*
X0247500Y0071200D01*
X0250347Y0071200D01*
X0250729Y0071302D01*
X0251071Y0071500D01*
X0251350Y0071779D01*
X0251548Y0072121D01*
X0251650Y0072503D01*
X0251650Y0074500D01*
X0247500Y0074500D01*
X0247500Y0074896D02*
X0258656Y0074896D01*
X0258656Y0075894D02*
X0251650Y0075894D01*
X0251650Y0076893D02*
X0258656Y0076893D01*
X0258656Y0077891D02*
X0251745Y0077891D01*
X0251850Y0078890D02*
X0258656Y0078890D01*
X0258656Y0079888D02*
X0251850Y0079888D01*
X0251850Y0080887D02*
X0258656Y0080887D01*
X0258719Y0081885D02*
X0251850Y0081885D01*
X0251850Y0082884D02*
X0259038Y0082884D01*
X0259357Y0083882D02*
X0251850Y0083882D01*
X0251850Y0084881D02*
X0259675Y0084881D01*
X0259802Y0085276D02*
X0259802Y0085276D01*
X0260231Y0085879D02*
X0251850Y0085879D01*
X0251850Y0086878D02*
X0260941Y0086878D01*
X0261651Y0087876D02*
X0251850Y0087876D01*
X0251850Y0088875D02*
X0262690Y0088875D01*
X0261985Y0088347D02*
X0261985Y0088347D01*
X0261985Y0088347D01*
X0263857Y0089873D02*
X0251850Y0089873D01*
X0250982Y0090872D02*
X0264855Y0090872D01*
X0265854Y0091870D02*
X0262184Y0091870D01*
X0262833Y0092869D02*
X0266852Y0092869D01*
X0267851Y0093868D02*
X0263050Y0093868D01*
X0263694Y0094866D02*
X0268849Y0094866D01*
X0269848Y0095865D02*
X0264693Y0095865D01*
X0265000Y0096863D02*
X0270846Y0096863D01*
X0271845Y0097862D02*
X0265000Y0097862D01*
X0265000Y0098860D02*
X0272661Y0098860D01*
X0274004Y0099859D02*
X0265000Y0099859D01*
X0265000Y0100857D02*
X0274856Y0100857D01*
X0275587Y0101856D02*
X0265000Y0101856D01*
X0265000Y0102854D02*
X0275933Y0102854D01*
X0276236Y0103853D02*
X0265000Y0103853D01*
X0265000Y0104851D02*
X0276355Y0104851D01*
X0276351Y0105850D02*
X0265000Y0105850D01*
X0265000Y0106848D02*
X0276372Y0106848D01*
X0276372Y0107847D02*
X0265000Y0107847D01*
X0265000Y0108845D02*
X0276372Y0108845D01*
X0276372Y0109844D02*
X0265000Y0109844D01*
X0265000Y0110842D02*
X0276372Y0110842D01*
X0276372Y0111841D02*
X0265000Y0111841D01*
X0265000Y0112839D02*
X0276372Y0112839D01*
X0276372Y0113838D02*
X0265000Y0113838D01*
X0265000Y0114836D02*
X0276372Y0114836D01*
X0276372Y0115835D02*
X0265000Y0115835D01*
X0265000Y0116833D02*
X0276372Y0116833D01*
X0276372Y0117832D02*
X0265000Y0117832D01*
X0265000Y0118830D02*
X0276372Y0118830D01*
X0276372Y0119829D02*
X0265000Y0119829D01*
X0265000Y0120827D02*
X0276372Y0120827D01*
X0276372Y0121826D02*
X0265000Y0121826D01*
X0265000Y0122824D02*
X0276372Y0122824D01*
X0276372Y0123823D02*
X0265000Y0123823D01*
X0265000Y0124821D02*
X0276372Y0124821D01*
X0276372Y0125820D02*
X0265000Y0125820D01*
X0265000Y0126818D02*
X0276372Y0126818D01*
X0276372Y0127817D02*
X0265000Y0127817D01*
X0265000Y0128815D02*
X0276372Y0128815D01*
X0276372Y0129814D02*
X0265000Y0129814D01*
X0265000Y0130812D02*
X0276372Y0130812D01*
X0276372Y0131811D02*
X0265000Y0131811D01*
X0265000Y0132809D02*
X0276372Y0132809D01*
X0276372Y0133808D02*
X0265000Y0133808D01*
X0265000Y0134806D02*
X0276372Y0134806D01*
X0276372Y0135805D02*
X0265000Y0135805D01*
X0265000Y0136803D02*
X0276372Y0136803D01*
X0276372Y0137802D02*
X0265000Y0137802D01*
X0265000Y0138801D02*
X0276372Y0138801D01*
X0276372Y0139799D02*
X0265000Y0139799D01*
X0265000Y0140798D02*
X0276372Y0140798D01*
X0276372Y0141796D02*
X0265000Y0141796D01*
X0265000Y0142795D02*
X0276372Y0142795D01*
X0276372Y0143793D02*
X0265000Y0143793D01*
X0265000Y0144792D02*
X0276372Y0144792D01*
X0276372Y0145790D02*
X0265000Y0145790D01*
X0265000Y0146789D02*
X0276372Y0146789D01*
X0276372Y0147787D02*
X0265000Y0147787D01*
X0265000Y0148786D02*
X0276372Y0148786D01*
X0276372Y0149784D02*
X0265000Y0149784D01*
X0265000Y0150783D02*
X0276372Y0150783D01*
X0276372Y0151781D02*
X0265000Y0151781D01*
X0265000Y0152780D02*
X0276372Y0152780D01*
X0276372Y0153778D02*
X0265000Y0153778D01*
X0265000Y0154777D02*
X0276372Y0154777D01*
X0276372Y0155775D02*
X0265604Y0155775D01*
X0266602Y0156774D02*
X0276372Y0156774D01*
X0276372Y0157772D02*
X0269086Y0157772D01*
X0269792Y0158771D02*
X0276372Y0158771D01*
X0276372Y0159769D02*
X0270050Y0159769D01*
X0269983Y0160768D02*
X0276372Y0160768D01*
X0276372Y0161766D02*
X0269547Y0161766D01*
X0269078Y0162765D02*
X0276372Y0162765D01*
X0276372Y0163763D02*
X0269789Y0163763D01*
X0270050Y0164762D02*
X0276372Y0164762D01*
X0276372Y0165760D02*
X0269986Y0165760D01*
X0269555Y0166759D02*
X0276372Y0166759D01*
X0276372Y0167757D02*
X0269071Y0167757D01*
X0269786Y0168756D02*
X0276372Y0168756D01*
X0276372Y0169754D02*
X0270050Y0169754D01*
X0269989Y0170753D02*
X0276372Y0170753D01*
X0276372Y0171751D02*
X0269562Y0171751D01*
X0268331Y0172750D02*
X0276372Y0172750D01*
X0276372Y0173748D02*
X0266200Y0173748D01*
X0266200Y0174747D02*
X0276372Y0174747D01*
X0276372Y0175745D02*
X0265823Y0175745D01*
X0265196Y0176744D02*
X0276372Y0176744D01*
X0276372Y0177742D02*
X0263940Y0177742D01*
X0260060Y0177742D02*
X0259200Y0177742D01*
X0259200Y0178741D02*
X0276372Y0178741D01*
X0276372Y0179739D02*
X0259200Y0179739D01*
X0259779Y0180738D02*
X0276372Y0180738D01*
X0276372Y0181737D02*
X0260050Y0181737D01*
X0259997Y0182735D02*
X0276372Y0182735D01*
X0276372Y0183734D02*
X0259580Y0183734D01*
X0258374Y0184732D02*
X0276372Y0184732D01*
X0276372Y0185731D02*
X0211000Y0185731D01*
X0211000Y0186729D02*
X0276372Y0186729D01*
X0276372Y0187728D02*
X0210101Y0187728D01*
X0211000Y0186828D02*
X0202050Y0195778D01*
X0202050Y0196607D01*
X0201586Y0197728D01*
X0200728Y0198586D01*
X0199607Y0199050D01*
X0198393Y0199050D01*
X0197272Y0198586D01*
X0196414Y0197728D01*
X0196050Y0196848D01*
X0196050Y0197607D01*
X0195586Y0198728D01*
X0194728Y0199586D01*
X0193607Y0200050D01*
X0192393Y0200050D01*
X0191272Y0199586D01*
X0190414Y0198728D01*
X0189950Y0197607D01*
X0189950Y0196393D01*
X0190414Y0195272D01*
X0191272Y0194414D01*
X0192393Y0193950D01*
X0193222Y0193950D01*
X0204000Y0183172D01*
X0204000Y0166050D01*
X0203393Y0166050D01*
X0202272Y0165586D01*
X0201687Y0165000D01*
X0198172Y0165000D01*
X0197000Y0163828D01*
X0188172Y0155000D01*
X0087172Y0155000D01*
X0086000Y0153828D01*
X0081000Y0148828D01*
X0081000Y0143404D01*
X0080704Y0143700D01*
X0073296Y0143700D01*
X0072300Y0142704D01*
X0072300Y0135296D01*
X0072596Y0135000D01*
X0069625Y0135000D01*
X0069662Y0135016D01*
X0070984Y0136338D01*
X0071700Y0138065D01*
X0071700Y0139935D01*
X0070984Y0141662D01*
X0069662Y0142984D01*
X0067935Y0143700D01*
X0066065Y0143700D01*
X0064338Y0142984D01*
X0063016Y0141662D01*
X0062300Y0139935D01*
X0062300Y0138065D01*
X0063016Y0136338D01*
X0064338Y0135016D01*
X0064375Y0135000D01*
X0059625Y0135000D01*
X0059662Y0135016D01*
X0060984Y0136338D01*
X0061700Y0138065D01*
X0061700Y0139935D01*
X0060984Y0141662D01*
X0059662Y0142984D01*
X0057935Y0143700D01*
X0056065Y0143700D01*
X0054338Y0142984D01*
X0053016Y0141662D01*
X0052300Y0139935D01*
X0052300Y0138065D01*
X0053016Y0136338D01*
X0054338Y0135016D01*
X0054375Y0135000D01*
X0053172Y0135000D01*
X0052222Y0134050D01*
X0051393Y0134050D01*
X0050272Y0133586D01*
X0049414Y0132728D01*
X0048950Y0131607D01*
X0048950Y0130393D01*
X0049414Y0129272D01*
X0050272Y0128414D01*
X0051393Y0127950D01*
X0052607Y0127950D01*
X0053728Y0128414D01*
X0054586Y0129272D01*
X0055050Y0130393D01*
X0055050Y0131000D01*
X0081828Y0131000D01*
X0083000Y0132172D01*
X0083828Y0133000D01*
X0085000Y0134172D01*
X0085000Y0135687D01*
X0085272Y0135414D01*
X0086393Y0134950D01*
X0087607Y0134950D01*
X0088728Y0135414D01*
X0089586Y0136272D01*
X0090050Y0137393D01*
X0090050Y0138607D01*
X0089586Y0139728D01*
X0089000Y0140313D01*
X0089000Y0146172D01*
X0091828Y0149000D01*
X0190828Y0149000D01*
X0197828Y0156000D01*
X0201687Y0156000D01*
X0202272Y0155414D01*
X0203393Y0154950D01*
X0204607Y0154950D01*
X0205728Y0155414D01*
X0206586Y0156272D01*
X0207050Y0157393D01*
X0207050Y0158607D01*
X0206586Y0159728D01*
X0205813Y0160500D01*
X0206500Y0161187D01*
X0207272Y0160414D01*
X0208393Y0159950D01*
X0209607Y0159950D01*
X0210728Y0160414D01*
X0211586Y0161272D01*
X0212050Y0162393D01*
X0212050Y0163607D01*
X0211586Y0164728D01*
X0210813Y0165500D01*
X0211586Y0166272D01*
X0212050Y0167393D01*
X0212050Y0168607D01*
X0211586Y0169728D01*
X0211000Y0170313D01*
X0211000Y0186828D01*
X0211000Y0184732D02*
X0255626Y0184732D01*
X0254000Y0182000D02*
X0257000Y0179000D01*
X0257000Y0106000D01*
X0251000Y0100000D01*
X0236000Y0100000D01*
X0228000Y0092000D01*
X0233000Y0087000D01*
X0241000Y0087000D01*
X0242033Y0089873D02*
X0242150Y0089873D01*
X0241700Y0090872D02*
X0243018Y0090872D01*
X0242699Y0091870D02*
X0257816Y0091870D01*
X0257167Y0092869D02*
X0243697Y0092869D01*
X0244696Y0093868D02*
X0256950Y0093868D01*
X0257057Y0094866D02*
X0254694Y0094866D01*
X0255693Y0095865D02*
X0257551Y0095865D01*
X0256691Y0096863D02*
X0258942Y0096863D01*
X0257690Y0097862D02*
X0261000Y0097862D01*
X0261000Y0098860D02*
X0258688Y0098860D01*
X0259687Y0099859D02*
X0261000Y0099859D01*
X0261000Y0100857D02*
X0260685Y0100857D01*
X0249000Y0110842D02*
X0230156Y0110842D01*
X0230821Y0111841D02*
X0249000Y0111841D01*
X0249000Y0112839D02*
X0231050Y0112839D01*
X0230954Y0113838D02*
X0249000Y0113838D01*
X0249000Y0114836D02*
X0230477Y0114836D01*
X0230000Y0115835D02*
X0249000Y0115835D01*
X0249000Y0116833D02*
X0230000Y0116833D01*
X0230000Y0117832D02*
X0249000Y0117832D01*
X0249000Y0118830D02*
X0230000Y0118830D01*
X0230768Y0119829D02*
X0249000Y0119829D01*
X0249000Y0120827D02*
X0231646Y0120827D01*
X0232060Y0121826D02*
X0249000Y0121826D01*
X0249000Y0122824D02*
X0232200Y0122824D01*
X0232200Y0123823D02*
X0249000Y0123823D01*
X0249000Y0124821D02*
X0231792Y0124821D01*
X0231120Y0125820D02*
X0249000Y0125820D01*
X0249000Y0126818D02*
X0229757Y0126818D01*
X0226243Y0126818D02*
X0225000Y0126818D01*
X0225000Y0127817D02*
X0249000Y0127817D01*
X0249000Y0128815D02*
X0225000Y0128815D01*
X0225000Y0129814D02*
X0249000Y0129814D01*
X0249000Y0130812D02*
X0225000Y0130812D01*
X0225000Y0131811D02*
X0249000Y0131811D01*
X0249000Y0132809D02*
X0225000Y0132809D01*
X0225000Y0133808D02*
X0249000Y0133808D01*
X0249000Y0134806D02*
X0225000Y0134806D01*
X0225000Y0135805D02*
X0249000Y0135805D01*
X0249000Y0136803D02*
X0225000Y0136803D01*
X0225000Y0137802D02*
X0249000Y0137802D01*
X0249000Y0138801D02*
X0225000Y0138801D01*
X0225000Y0139799D02*
X0227888Y0139799D01*
X0228272Y0139414D02*
X0229393Y0138950D01*
X0230607Y0138950D01*
X0231728Y0139414D01*
X0232586Y0140272D01*
X0233050Y0141393D01*
X0233050Y0142607D01*
X0233000Y0142727D01*
X0233000Y0164687D01*
X0233586Y0165272D01*
X0234050Y0166393D01*
X0234050Y0167607D01*
X0233586Y0168728D01*
X0232728Y0169586D01*
X0231607Y0170050D01*
X0230393Y0170050D01*
X0229272Y0169586D01*
X0228414Y0168728D01*
X0227950Y0167607D01*
X0227950Y0166393D01*
X0228414Y0165272D01*
X0229000Y0164687D01*
X0229000Y0144887D01*
X0228272Y0144586D01*
X0227414Y0143728D01*
X0226950Y0142607D01*
X0226950Y0141393D01*
X0227414Y0140272D01*
X0228272Y0139414D01*
X0227197Y0140798D02*
X0225000Y0140798D01*
X0225000Y0141796D02*
X0226950Y0141796D01*
X0227028Y0142795D02*
X0225000Y0142795D01*
X0226106Y0143793D02*
X0227480Y0143793D01*
X0226801Y0144792D02*
X0228769Y0144792D01*
X0229000Y0145790D02*
X0227050Y0145790D01*
X0226975Y0146789D02*
X0229000Y0146789D01*
X0229000Y0147787D02*
X0226526Y0147787D01*
X0225245Y0148786D02*
X0229000Y0148786D01*
X0229000Y0149784D02*
X0216044Y0149784D01*
X0215050Y0150783D02*
X0229000Y0150783D01*
X0229000Y0151781D02*
X0214978Y0151781D01*
X0214534Y0152780D02*
X0229000Y0152780D01*
X0229000Y0153778D02*
X0213263Y0153778D01*
X0210737Y0153778D02*
X0208535Y0153778D01*
X0208978Y0152780D02*
X0209466Y0152780D01*
X0207266Y0154777D02*
X0229000Y0154777D01*
X0229000Y0155775D02*
X0206089Y0155775D01*
X0206793Y0156774D02*
X0229000Y0156774D01*
X0229000Y0157772D02*
X0207050Y0157772D01*
X0206982Y0158771D02*
X0229000Y0158771D01*
X0229000Y0159769D02*
X0206544Y0159769D01*
X0206919Y0160768D02*
X0206081Y0160768D01*
X0211081Y0160768D02*
X0229000Y0160768D01*
X0229000Y0161766D02*
X0211790Y0161766D01*
X0212050Y0162765D02*
X0229000Y0162765D01*
X0229000Y0163763D02*
X0211985Y0163763D01*
X0211552Y0164762D02*
X0228925Y0164762D01*
X0228212Y0165760D02*
X0211074Y0165760D01*
X0211787Y0166759D02*
X0227950Y0166759D01*
X0228012Y0167757D02*
X0212050Y0167757D01*
X0211988Y0168756D02*
X0228443Y0168756D01*
X0229680Y0169754D02*
X0211559Y0169754D01*
X0211000Y0170753D02*
X0239215Y0170753D01*
X0238950Y0171751D02*
X0211000Y0171751D01*
X0211000Y0172750D02*
X0239009Y0172750D01*
X0239435Y0173748D02*
X0211000Y0173748D01*
X0211000Y0174747D02*
X0211731Y0174747D01*
X0211599Y0174879D02*
X0212595Y0173883D01*
X0220106Y0173883D01*
X0221102Y0174879D01*
X0221102Y0181405D01*
X0220106Y0182401D01*
X0212595Y0182401D01*
X0211599Y0181405D01*
X0211599Y0174879D01*
X0211599Y0175745D02*
X0211000Y0175745D01*
X0211000Y0176744D02*
X0211599Y0176744D01*
X0211599Y0177742D02*
X0211000Y0177742D01*
X0211000Y0178741D02*
X0211599Y0178741D01*
X0211599Y0179739D02*
X0211000Y0179739D01*
X0211000Y0180738D02*
X0211599Y0180738D01*
X0211931Y0181737D02*
X0211000Y0181737D01*
X0211000Y0182735D02*
X0225422Y0182735D01*
X0225004Y0181737D02*
X0220770Y0181737D01*
X0221102Y0180738D02*
X0224950Y0180738D01*
X0225221Y0179739D02*
X0221102Y0179739D01*
X0221102Y0178741D02*
X0225946Y0178741D01*
X0228000Y0181000D02*
X0229000Y0182000D01*
X0254000Y0182000D01*
X0251280Y0191901D02*
X0251622Y0192099D01*
X0251901Y0192378D01*
X0252099Y0192720D01*
X0252201Y0193102D01*
X0252201Y0195358D01*
X0248150Y0195358D01*
X0248150Y0196358D01*
X0252201Y0196358D01*
X0252201Y0198615D01*
X0252099Y0198996D01*
X0251901Y0199338D01*
X0251622Y0199618D01*
X0251280Y0199815D01*
X0250898Y0199917D01*
X0248150Y0199917D01*
X0248150Y0196358D01*
X0247150Y0196358D01*
X0247150Y0199917D01*
X0244401Y0199917D01*
X0244019Y0199815D01*
X0243677Y0199618D01*
X0243398Y0199338D01*
X0243201Y0198996D01*
X0243098Y0198615D01*
X0243098Y0196358D01*
X0247150Y0196358D01*
X0247150Y0195358D01*
X0248150Y0195358D01*
X0248150Y0191799D01*
X0250898Y0191799D01*
X0251280Y0191901D01*
X0252098Y0192720D02*
X0263888Y0192720D01*
X0263984Y0192487D02*
X0265306Y0191165D01*
X0267034Y0190450D01*
X0268903Y0190450D01*
X0270631Y0191165D01*
X0271953Y0192487D01*
X0272668Y0194215D01*
X0272668Y0196084D01*
X0271953Y0197812D01*
X0270631Y0199134D01*
X0268903Y0199850D01*
X0267034Y0199850D01*
X0265306Y0199134D01*
X0263984Y0197812D01*
X0263269Y0196084D01*
X0263269Y0194215D01*
X0263984Y0192487D01*
X0264750Y0191722D02*
X0206107Y0191722D01*
X0205108Y0192720D02*
X0211901Y0192720D01*
X0212099Y0192378D01*
X0212378Y0192099D01*
X0212720Y0191901D01*
X0213102Y0191799D01*
X0215850Y0191799D01*
X0215850Y0195358D01*
X0211799Y0195358D01*
X0211799Y0193102D01*
X0211901Y0192720D01*
X0211799Y0193719D02*
X0204110Y0193719D01*
X0203111Y0194717D02*
X0211799Y0194717D01*
X0211799Y0196358D02*
X0215850Y0196358D01*
X0215850Y0195358D01*
X0216850Y0195358D01*
X0216850Y0191799D01*
X0219599Y0191799D01*
X0219981Y0191901D01*
X0220323Y0192099D01*
X0220602Y0192378D01*
X0220799Y0192720D01*
X0243201Y0192720D01*
X0243398Y0192378D01*
X0243677Y0192099D01*
X0244019Y0191901D01*
X0244401Y0191799D01*
X0247150Y0191799D01*
X0247150Y0195358D01*
X0243098Y0195358D01*
X0243098Y0193102D01*
X0243201Y0192720D01*
X0243098Y0193719D02*
X0220902Y0193719D01*
X0220902Y0193102D02*
X0220902Y0195358D01*
X0216850Y0195358D01*
X0216850Y0196358D01*
X0215850Y0196358D01*
X0215850Y0199917D01*
X0213102Y0199917D01*
X0212720Y0199815D01*
X0212378Y0199618D01*
X0212099Y0199338D01*
X0211901Y0198996D01*
X0211799Y0198615D01*
X0211799Y0196358D01*
X0211799Y0196714D02*
X0202005Y0196714D01*
X0202113Y0195716D02*
X0215850Y0195716D01*
X0215850Y0196714D02*
X0216850Y0196714D01*
X0216850Y0196358D02*
X0216850Y0199917D01*
X0219599Y0199917D01*
X0219981Y0199815D01*
X0220323Y0199618D01*
X0220602Y0199338D01*
X0220799Y0198996D01*
X0220902Y0198615D01*
X0220902Y0196358D01*
X0216850Y0196358D01*
X0216850Y0195716D02*
X0247150Y0195716D01*
X0247150Y0196714D02*
X0248150Y0196714D01*
X0248150Y0195716D02*
X0263269Y0195716D01*
X0263269Y0194717D02*
X0252201Y0194717D01*
X0252201Y0193719D02*
X0263474Y0193719D01*
X0263529Y0196714D02*
X0252201Y0196714D01*
X0252201Y0197713D02*
X0263943Y0197713D01*
X0264883Y0198711D02*
X0252175Y0198711D01*
X0251462Y0199710D02*
X0266696Y0199710D01*
X0267034Y0200450D02*
X0265306Y0201165D01*
X0263984Y0202487D01*
X0263269Y0204215D01*
X0263269Y0206084D01*
X0263984Y0207812D01*
X0265306Y0209134D01*
X0267034Y0209850D01*
X0268903Y0209850D01*
X0270631Y0209134D01*
X0271953Y0207812D01*
X0272668Y0206084D01*
X0272668Y0204215D01*
X0271953Y0202487D01*
X0270631Y0201165D01*
X0268903Y0200450D01*
X0267034Y0200450D01*
X0266409Y0200708D02*
X0007250Y0200708D01*
X0007250Y0199710D02*
X0191572Y0199710D01*
X0190408Y0198711D02*
X0007250Y0198711D01*
X0007250Y0197713D02*
X0043579Y0197713D01*
X0042409Y0196714D02*
X0007250Y0196714D01*
X0007250Y0195716D02*
X0041995Y0195716D01*
X0041950Y0194717D02*
X0007250Y0194717D01*
X0007250Y0193719D02*
X0042229Y0193719D01*
X0042967Y0192720D02*
X0007250Y0192720D01*
X0007250Y0191722D02*
X0044743Y0191722D01*
X0045741Y0190723D02*
X0007250Y0190723D01*
X0007250Y0189725D02*
X0046740Y0189725D01*
X0047331Y0188726D02*
X0007250Y0188726D01*
X0007250Y0187728D02*
X0047331Y0187728D01*
X0047331Y0186729D02*
X0007250Y0186729D01*
X0007250Y0185731D02*
X0039181Y0185731D01*
X0038288Y0184732D02*
X0031972Y0184732D01*
X0033124Y0183734D02*
X0038288Y0183734D01*
X0038288Y0182735D02*
X0034122Y0182735D01*
X0035121Y0181737D02*
X0038288Y0181737D01*
X0038288Y0180738D02*
X0036119Y0180738D01*
X0037118Y0179739D02*
X0038288Y0179739D01*
X0038288Y0178741D02*
X0038116Y0178741D01*
X0039396Y0169754D02*
X0123219Y0169754D01*
X0123945Y0170623D02*
X0122950Y0171619D01*
X0122950Y0184838D01*
X0123945Y0185834D01*
X0145039Y0185834D01*
X0146035Y0184838D01*
X0146035Y0171619D01*
X0145039Y0170623D01*
X0131158Y0170623D01*
X0122050Y0161514D01*
X0122050Y0161393D01*
X0121586Y0160272D01*
X0120728Y0159414D01*
X0119607Y0158950D01*
X0118393Y0158950D01*
X0117272Y0159414D01*
X0116414Y0160272D01*
X0115950Y0161393D01*
X0115950Y0162607D01*
X0116414Y0163728D01*
X0117272Y0164586D01*
X0118393Y0165050D01*
X0118514Y0165050D01*
X0124087Y0170623D01*
X0123945Y0170623D01*
X0123815Y0170753D02*
X0060507Y0170753D01*
X0061373Y0171751D02*
X0122950Y0171751D01*
X0122950Y0172750D02*
X0061373Y0172750D01*
X0061373Y0173748D02*
X0122950Y0173748D01*
X0122950Y0174747D02*
X0061373Y0174747D01*
X0061373Y0175745D02*
X0122950Y0175745D01*
X0122950Y0176744D02*
X0061373Y0176744D01*
X0061373Y0177742D02*
X0122950Y0177742D01*
X0122950Y0178741D02*
X0061373Y0178741D01*
X0061373Y0179739D02*
X0122950Y0179739D01*
X0122950Y0180738D02*
X0061373Y0180738D01*
X0061373Y0181737D02*
X0122950Y0181737D01*
X0122950Y0182735D02*
X0061373Y0182735D01*
X0061373Y0183734D02*
X0122950Y0183734D01*
X0122950Y0184732D02*
X0061373Y0184732D01*
X0060481Y0185731D02*
X0123842Y0185731D01*
X0145142Y0185731D02*
X0201441Y0185731D01*
X0200443Y0186729D02*
X0052331Y0186729D01*
X0052331Y0187728D02*
X0199444Y0187728D01*
X0198445Y0188726D02*
X0052331Y0188726D01*
X0052331Y0189725D02*
X0197447Y0189725D01*
X0196448Y0190723D02*
X0052307Y0190723D01*
X0051814Y0191722D02*
X0195450Y0191722D01*
X0194451Y0192720D02*
X0050815Y0192720D01*
X0049817Y0193719D02*
X0193453Y0193719D01*
X0190969Y0194717D02*
X0048818Y0194717D01*
X0048005Y0195716D02*
X0190231Y0195716D01*
X0189950Y0196714D02*
X0047591Y0196714D01*
X0046421Y0197713D02*
X0189994Y0197713D01*
X0189900Y0201993D02*
X0186006Y0201993D01*
X0183253Y0204746D01*
X0183253Y0208640D01*
X0186006Y0211393D01*
X0189900Y0211393D01*
X0192653Y0208640D01*
X0192653Y0204746D01*
X0189900Y0201993D01*
X0190612Y0202705D02*
X0195294Y0202705D01*
X0196006Y0201993D02*
X0193253Y0204746D01*
X0193253Y0208640D01*
X0196006Y0211393D01*
X0199900Y0211393D01*
X0202653Y0208640D01*
X0202653Y0204746D01*
X0199900Y0201993D01*
X0196006Y0201993D01*
X0194295Y0203704D02*
X0191610Y0203704D01*
X0192609Y0204702D02*
X0193297Y0204702D01*
X0193253Y0205701D02*
X0192653Y0205701D01*
X0192653Y0206699D02*
X0193253Y0206699D01*
X0193253Y0207698D02*
X0192653Y0207698D01*
X0192596Y0208696D02*
X0193309Y0208696D01*
X0194308Y0209695D02*
X0191598Y0209695D01*
X0190599Y0210693D02*
X0195306Y0210693D01*
X0196089Y0212193D02*
X0197453Y0212193D01*
X0197453Y0216193D01*
X0198453Y0216193D01*
X0198453Y0217193D01*
X0202453Y0217193D01*
X0202453Y0218557D01*
X0199817Y0221193D01*
X0198453Y0221193D01*
X0198453Y0217193D01*
X0197453Y0217193D01*
X0197453Y0221193D01*
X0196089Y0221193D01*
X0193453Y0218557D01*
X0193453Y0217193D01*
X0197453Y0217193D01*
X0197453Y0216193D01*
X0193453Y0216193D01*
X0193453Y0214829D01*
X0196089Y0212193D01*
X0195591Y0212690D02*
X0190597Y0212690D01*
X0189900Y0211993D02*
X0192653Y0214746D01*
X0192653Y0218640D01*
X0189900Y0221393D01*
X0186006Y0221393D01*
X0183253Y0218640D01*
X0183253Y0214746D01*
X0186006Y0211993D01*
X0189900Y0211993D01*
X0191595Y0213689D02*
X0194593Y0213689D01*
X0193594Y0214687D02*
X0192594Y0214687D01*
X0192653Y0215686D02*
X0193453Y0215686D01*
X0192653Y0216684D02*
X0197453Y0216684D01*
X0197453Y0215686D02*
X0198453Y0215686D01*
X0198453Y0216193D02*
X0198453Y0212193D01*
X0199817Y0212193D01*
X0202453Y0214829D01*
X0202453Y0216193D01*
X0198453Y0216193D01*
X0198453Y0216684D02*
X0203253Y0216684D01*
X0203253Y0215686D02*
X0202453Y0215686D01*
X0202311Y0214687D02*
X0203311Y0214687D01*
X0203253Y0214746D02*
X0206006Y0211993D01*
X0209900Y0211993D01*
X0212653Y0214746D01*
X0212653Y0218640D01*
X0209900Y0221393D01*
X0206006Y0221393D01*
X0203253Y0218640D01*
X0203253Y0214746D01*
X0204310Y0213689D02*
X0201313Y0213689D01*
X0200314Y0212690D02*
X0205309Y0212690D01*
X0206006Y0211393D02*
X0203253Y0208640D01*
X0203253Y0204746D01*
X0206006Y0201993D01*
X0209900Y0201993D01*
X0212653Y0204746D01*
X0212653Y0208640D01*
X0209900Y0211393D01*
X0206006Y0211393D01*
X0205306Y0210693D02*
X0200599Y0210693D01*
X0201598Y0209695D02*
X0204308Y0209695D01*
X0203309Y0208696D02*
X0202596Y0208696D01*
X0202653Y0207698D02*
X0203253Y0207698D01*
X0203253Y0206699D02*
X0202653Y0206699D01*
X0202653Y0205701D02*
X0203253Y0205701D01*
X0203297Y0204702D02*
X0202609Y0204702D01*
X0201610Y0203704D02*
X0204295Y0203704D01*
X0205294Y0202705D02*
X0200612Y0202705D01*
X0200425Y0198711D02*
X0211825Y0198711D01*
X0211799Y0197713D02*
X0201592Y0197713D01*
X0197575Y0198711D02*
X0195592Y0198711D01*
X0196006Y0197713D02*
X0196408Y0197713D01*
X0194428Y0199710D02*
X0212538Y0199710D01*
X0215850Y0199710D02*
X0216850Y0199710D01*
X0216850Y0198711D02*
X0215850Y0198711D01*
X0215850Y0197713D02*
X0216850Y0197713D01*
X0220163Y0199710D02*
X0243837Y0199710D01*
X0243124Y0198711D02*
X0220876Y0198711D01*
X0220902Y0197713D02*
X0243098Y0197713D01*
X0243098Y0196714D02*
X0220902Y0196714D01*
X0220902Y0194717D02*
X0243098Y0194717D01*
X0247150Y0194717D02*
X0248150Y0194717D01*
X0248150Y0193719D02*
X0247150Y0193719D01*
X0247150Y0192720D02*
X0248150Y0192720D01*
X0248150Y0197713D02*
X0247150Y0197713D01*
X0247150Y0198711D02*
X0248150Y0198711D01*
X0248150Y0199710D02*
X0247150Y0199710D01*
X0246315Y0203974D02*
X0249524Y0204311D01*
X0249525Y0204311D01*
X0252320Y0205925D01*
X0254217Y0208536D01*
X0254888Y0211693D01*
X0254217Y0214850D01*
X0252320Y0217461D01*
X0252320Y0217461D01*
X0249525Y0219075D01*
X0249524Y0219075D01*
X0246315Y0219412D01*
X0246315Y0219412D01*
X0243245Y0218415D01*
X0240847Y0216255D01*
X0239534Y0213307D01*
X0239534Y0210079D01*
X0240847Y0207131D01*
X0243245Y0204971D01*
X0243245Y0204971D01*
X0246315Y0203974D01*
X0246315Y0203974D01*
X0244072Y0204702D02*
X0232326Y0204702D01*
X0232453Y0204829D02*
X0232453Y0206193D01*
X0228453Y0206193D01*
X0228453Y0207193D01*
X0232453Y0207193D01*
X0232453Y0208557D01*
X0229817Y0211193D01*
X0228453Y0211193D01*
X0228453Y0207193D01*
X0227453Y0207193D01*
X0227453Y0211193D01*
X0226089Y0211193D01*
X0223453Y0208557D01*
X0223453Y0207193D01*
X0227453Y0207193D01*
X0227453Y0206193D01*
X0228453Y0206193D01*
X0228453Y0202193D01*
X0229817Y0202193D01*
X0232453Y0204829D01*
X0232453Y0205701D02*
X0242435Y0205701D01*
X0241326Y0206699D02*
X0228453Y0206699D01*
X0228453Y0205701D02*
X0227453Y0205701D01*
X0227453Y0206193D02*
X0227453Y0202193D01*
X0226089Y0202193D01*
X0223453Y0204829D01*
X0223453Y0206193D01*
X0227453Y0206193D01*
X0227453Y0206699D02*
X0222653Y0206699D01*
X0222653Y0205701D02*
X0223453Y0205701D01*
X0223579Y0204702D02*
X0222609Y0204702D01*
X0222653Y0204746D02*
X0219900Y0201993D01*
X0216006Y0201993D01*
X0213253Y0204746D01*
X0213253Y0208640D01*
X0216006Y0211393D01*
X0219900Y0211393D01*
X0222653Y0208640D01*
X0222653Y0204746D01*
X0221610Y0203704D02*
X0224578Y0203704D01*
X0225576Y0202705D02*
X0220612Y0202705D01*
X0215294Y0202705D02*
X0210612Y0202705D01*
X0211610Y0203704D02*
X0214295Y0203704D01*
X0213297Y0204702D02*
X0212609Y0204702D01*
X0212653Y0205701D02*
X0213253Y0205701D01*
X0213253Y0206699D02*
X0212653Y0206699D01*
X0212653Y0207698D02*
X0213253Y0207698D01*
X0213309Y0208696D02*
X0212596Y0208696D01*
X0211598Y0209695D02*
X0214308Y0209695D01*
X0215306Y0210693D02*
X0210599Y0210693D01*
X0210597Y0212690D02*
X0215309Y0212690D01*
X0216006Y0211993D02*
X0219900Y0211993D01*
X0222653Y0214746D01*
X0222653Y0218640D01*
X0219900Y0221393D01*
X0216006Y0221393D01*
X0213253Y0218640D01*
X0213253Y0214746D01*
X0216006Y0211993D01*
X0214310Y0213689D02*
X0211595Y0213689D01*
X0212594Y0214687D02*
X0213311Y0214687D01*
X0213253Y0215686D02*
X0212653Y0215686D01*
X0212653Y0216684D02*
X0213253Y0216684D01*
X0213253Y0217683D02*
X0212653Y0217683D01*
X0212611Y0218681D02*
X0213294Y0218681D01*
X0214293Y0219680D02*
X0211613Y0219680D01*
X0210614Y0220678D02*
X0215291Y0220678D01*
X0220614Y0220678D02*
X0225291Y0220678D01*
X0226006Y0221393D02*
X0223253Y0218640D01*
X0223253Y0214746D01*
X0226006Y0211993D01*
X0229900Y0211993D01*
X0232653Y0214746D01*
X0232653Y0218640D01*
X0229900Y0221393D01*
X0226006Y0221393D01*
X0224293Y0219680D02*
X0221613Y0219680D01*
X0222611Y0218681D02*
X0223294Y0218681D01*
X0223253Y0217683D02*
X0222653Y0217683D01*
X0222653Y0216684D02*
X0223253Y0216684D01*
X0223253Y0215686D02*
X0222653Y0215686D01*
X0222594Y0214687D02*
X0223311Y0214687D01*
X0224310Y0213689D02*
X0221595Y0213689D01*
X0220597Y0212690D02*
X0225309Y0212690D01*
X0225589Y0210693D02*
X0220599Y0210693D01*
X0221598Y0209695D02*
X0224591Y0209695D01*
X0223592Y0208696D02*
X0222596Y0208696D01*
X0222653Y0207698D02*
X0223453Y0207698D01*
X0227453Y0207698D02*
X0228453Y0207698D01*
X0228453Y0208696D02*
X0227453Y0208696D01*
X0227453Y0209695D02*
X0228453Y0209695D01*
X0228453Y0210693D02*
X0227453Y0210693D01*
X0230316Y0210693D02*
X0239534Y0210693D01*
X0239534Y0211692D02*
X0026541Y0211692D01*
X0026541Y0211693D02*
X0025870Y0214850D01*
X0023973Y0217461D01*
X0021178Y0219075D01*
X0017968Y0219412D01*
X0014899Y0218415D01*
X0014899Y0218415D01*
X0012500Y0216255D01*
X0011187Y0213307D01*
X0011187Y0210079D01*
X0012500Y0207131D01*
X0012500Y0207131D01*
X0014899Y0204971D01*
X0017968Y0203974D01*
X0021178Y0204311D01*
X0021178Y0204311D01*
X0023973Y0205925D01*
X0025870Y0208536D01*
X0026541Y0211693D01*
X0026329Y0212690D02*
X0035309Y0212690D01*
X0036006Y0211993D02*
X0039900Y0211993D01*
X0042653Y0214746D01*
X0042653Y0218640D01*
X0039900Y0221393D01*
X0036006Y0221393D01*
X0033253Y0218640D01*
X0033253Y0214746D01*
X0036006Y0211993D01*
X0036006Y0211393D02*
X0033253Y0208640D01*
X0033253Y0204746D01*
X0036006Y0201993D01*
X0039900Y0201993D01*
X0042653Y0204746D01*
X0042653Y0208640D01*
X0039900Y0211393D01*
X0036006Y0211393D01*
X0035306Y0210693D02*
X0026329Y0210693D01*
X0026117Y0209695D02*
X0034308Y0209695D01*
X0033309Y0208696D02*
X0025904Y0208696D01*
X0025870Y0208536D02*
X0025870Y0208536D01*
X0025261Y0207698D02*
X0033253Y0207698D01*
X0033253Y0206699D02*
X0024536Y0206699D01*
X0023973Y0205925D02*
X0023973Y0205925D01*
X0023973Y0205925D01*
X0023585Y0205701D02*
X0033253Y0205701D01*
X0033297Y0204702D02*
X0021856Y0204702D01*
X0017968Y0203974D02*
X0017968Y0203974D01*
X0015726Y0204702D02*
X0007250Y0204702D01*
X0007250Y0203704D02*
X0034295Y0203704D01*
X0035294Y0202705D02*
X0007250Y0202705D01*
X0007250Y0201707D02*
X0264765Y0201707D01*
X0263894Y0202705D02*
X0230329Y0202705D01*
X0231328Y0203704D02*
X0263480Y0203704D01*
X0263269Y0204702D02*
X0250202Y0204702D01*
X0251932Y0205701D02*
X0263269Y0205701D01*
X0263523Y0206699D02*
X0252882Y0206699D01*
X0252320Y0205925D02*
X0252320Y0205925D01*
X0252320Y0205925D01*
X0253608Y0207698D02*
X0263937Y0207698D01*
X0264868Y0208696D02*
X0254251Y0208696D01*
X0254217Y0208536D02*
X0254217Y0208536D01*
X0254463Y0209695D02*
X0266660Y0209695D01*
X0267034Y0210450D02*
X0268903Y0210450D01*
X0270631Y0211165D01*
X0271953Y0212487D01*
X0272668Y0214215D01*
X0272668Y0216084D01*
X0271953Y0217812D01*
X0270631Y0219134D01*
X0268903Y0219850D01*
X0267034Y0219850D01*
X0265306Y0219134D01*
X0263984Y0217812D01*
X0263269Y0216084D01*
X0263269Y0214215D01*
X0263984Y0212487D01*
X0265306Y0211165D01*
X0267034Y0210450D01*
X0266445Y0210693D02*
X0254675Y0210693D01*
X0254888Y0211692D02*
X0264779Y0211692D01*
X0263900Y0212690D02*
X0254676Y0212690D01*
X0254464Y0213689D02*
X0263486Y0213689D01*
X0263269Y0214687D02*
X0254251Y0214687D01*
X0254217Y0214850D02*
X0254217Y0214850D01*
X0253609Y0215686D02*
X0263269Y0215686D01*
X0263517Y0216684D02*
X0252884Y0216684D01*
X0251935Y0217683D02*
X0263931Y0217683D01*
X0264854Y0218681D02*
X0250206Y0218681D01*
X0244066Y0218681D02*
X0232611Y0218681D01*
X0232653Y0217683D02*
X0242432Y0217683D01*
X0243245Y0218415D02*
X0243245Y0218415D01*
X0241323Y0216684D02*
X0232653Y0216684D01*
X0232653Y0215686D02*
X0240593Y0215686D01*
X0240847Y0216255D02*
X0240847Y0216255D01*
X0240149Y0214687D02*
X0232594Y0214687D01*
X0231595Y0213689D02*
X0239704Y0213689D01*
X0239534Y0212690D02*
X0230597Y0212690D01*
X0231315Y0209695D02*
X0239705Y0209695D01*
X0240149Y0208696D02*
X0232313Y0208696D01*
X0232453Y0207698D02*
X0240594Y0207698D01*
X0228453Y0204702D02*
X0227453Y0204702D01*
X0227453Y0203704D02*
X0228453Y0203704D01*
X0228453Y0202705D02*
X0227453Y0202705D01*
X0220902Y0193102D02*
X0220799Y0192720D01*
X0216850Y0192720D02*
X0215850Y0192720D01*
X0215850Y0193719D02*
X0216850Y0193719D01*
X0216850Y0194717D02*
X0215850Y0194717D01*
X0209102Y0188726D02*
X0276372Y0188726D01*
X0276372Y0189725D02*
X0208104Y0189725D01*
X0207105Y0190723D02*
X0266373Y0190723D01*
X0269564Y0190723D02*
X0276372Y0190723D01*
X0276372Y0191722D02*
X0271187Y0191722D01*
X0272049Y0192720D02*
X0276372Y0192720D01*
X0276372Y0193719D02*
X0272463Y0193719D01*
X0272668Y0194717D02*
X0276372Y0194717D01*
X0276372Y0195716D02*
X0272668Y0195716D01*
X0272408Y0196714D02*
X0276372Y0196714D01*
X0276372Y0197713D02*
X0271994Y0197713D01*
X0271054Y0198711D02*
X0276372Y0198711D01*
X0276372Y0199710D02*
X0269241Y0199710D01*
X0269528Y0200708D02*
X0276372Y0200708D01*
X0276372Y0201707D02*
X0271172Y0201707D01*
X0272043Y0202705D02*
X0276372Y0202705D01*
X0276372Y0203704D02*
X0272457Y0203704D01*
X0272668Y0204702D02*
X0276372Y0204702D01*
X0276372Y0205701D02*
X0272668Y0205701D01*
X0272414Y0206699D02*
X0276372Y0206699D01*
X0276372Y0207698D02*
X0272000Y0207698D01*
X0271069Y0208696D02*
X0276372Y0208696D01*
X0276372Y0209695D02*
X0269277Y0209695D01*
X0269492Y0210693D02*
X0276372Y0210693D01*
X0276372Y0211692D02*
X0271158Y0211692D01*
X0272037Y0212690D02*
X0276307Y0212690D01*
X0276142Y0213689D02*
X0272451Y0213689D01*
X0272668Y0214687D02*
X0275874Y0214687D01*
X0275607Y0215686D02*
X0272668Y0215686D01*
X0272420Y0216684D02*
X0275160Y0216684D01*
X0274583Y0217683D02*
X0272006Y0217683D01*
X0271083Y0218681D02*
X0274007Y0218681D01*
X0273021Y0219680D02*
X0269313Y0219680D01*
X0270411Y0221677D02*
X0013211Y0221677D01*
X0011599Y0220678D02*
X0035291Y0220678D01*
X0034293Y0219680D02*
X0010601Y0219680D01*
X0009615Y0218681D02*
X0015719Y0218681D01*
X0014086Y0217683D02*
X0009039Y0217683D01*
X0008462Y0216684D02*
X0012977Y0216684D01*
X0012500Y0216255D02*
X0012500Y0216255D01*
X0012247Y0215686D02*
X0008015Y0215686D01*
X0007748Y0214687D02*
X0011802Y0214687D01*
X0011357Y0213689D02*
X0007480Y0213689D01*
X0007315Y0212690D02*
X0011187Y0212690D01*
X0011187Y0211692D02*
X0007250Y0211692D01*
X0007250Y0210693D02*
X0011187Y0210693D01*
X0011358Y0209695D02*
X0007250Y0209695D01*
X0007250Y0208696D02*
X0011803Y0208696D01*
X0012248Y0207698D02*
X0007250Y0207698D01*
X0007250Y0206699D02*
X0012979Y0206699D01*
X0014088Y0205701D02*
X0007250Y0205701D01*
X0014899Y0204971D02*
X0014899Y0204971D01*
X0026117Y0213689D02*
X0034310Y0213689D01*
X0033311Y0214687D02*
X0025905Y0214687D01*
X0025870Y0214850D02*
X0025870Y0214850D01*
X0025263Y0215686D02*
X0033253Y0215686D01*
X0033253Y0216684D02*
X0024537Y0216684D01*
X0023973Y0217461D02*
X0023973Y0217461D01*
X0023973Y0217461D01*
X0023589Y0217683D02*
X0033253Y0217683D01*
X0033294Y0218681D02*
X0021859Y0218681D01*
X0021178Y0219075D02*
X0021178Y0219075D01*
X0017968Y0219412D02*
X0017968Y0219412D01*
X0015601Y0222675D02*
X0268021Y0222675D01*
X0272023Y0220678D02*
X0230614Y0220678D01*
X0231613Y0219680D02*
X0266624Y0219680D01*
X0226629Y0183734D02*
X0211000Y0183734D01*
X0204000Y0182735D02*
X0146035Y0182735D01*
X0146035Y0181737D02*
X0204000Y0181737D01*
X0204000Y0180738D02*
X0146035Y0180738D01*
X0146035Y0179739D02*
X0204000Y0179739D01*
X0204000Y0178741D02*
X0146035Y0178741D01*
X0146035Y0177742D02*
X0204000Y0177742D01*
X0204000Y0176744D02*
X0146035Y0176744D01*
X0146035Y0175745D02*
X0204000Y0175745D01*
X0204000Y0174747D02*
X0146035Y0174747D01*
X0146035Y0173748D02*
X0204000Y0173748D01*
X0204000Y0172750D02*
X0146035Y0172750D01*
X0146035Y0171751D02*
X0204000Y0171751D01*
X0204000Y0170753D02*
X0145169Y0170753D01*
X0130290Y0169754D02*
X0204000Y0169754D01*
X0204000Y0168756D02*
X0129291Y0168756D01*
X0128293Y0167757D02*
X0204000Y0167757D01*
X0204000Y0166759D02*
X0127294Y0166759D01*
X0126296Y0165760D02*
X0202694Y0165760D01*
X0197933Y0164762D02*
X0125297Y0164762D01*
X0124299Y0163763D02*
X0196935Y0163763D01*
X0195936Y0162765D02*
X0123300Y0162765D01*
X0122302Y0161766D02*
X0194938Y0161766D01*
X0193939Y0160768D02*
X0121791Y0160768D01*
X0121083Y0159769D02*
X0192941Y0159769D01*
X0191942Y0158771D02*
X0039396Y0158771D01*
X0039396Y0159769D02*
X0116917Y0159769D01*
X0116209Y0160768D02*
X0039396Y0160768D01*
X0039396Y0161766D02*
X0115950Y0161766D01*
X0116016Y0162765D02*
X0039396Y0162765D01*
X0039396Y0163763D02*
X0116450Y0163763D01*
X0117698Y0164762D02*
X0039396Y0164762D01*
X0039396Y0165760D02*
X0119225Y0165760D01*
X0120223Y0166759D02*
X0039396Y0166759D01*
X0039396Y0167757D02*
X0121222Y0167757D01*
X0122220Y0168756D02*
X0039396Y0168756D01*
X0039396Y0157772D02*
X0190944Y0157772D01*
X0189945Y0156774D02*
X0039396Y0156774D01*
X0039396Y0155775D02*
X0188947Y0155775D01*
X0194608Y0152780D02*
X0203022Y0152780D01*
X0202950Y0151781D02*
X0193610Y0151781D01*
X0192611Y0150783D02*
X0203203Y0150783D01*
X0203902Y0149784D02*
X0191613Y0149784D01*
X0195607Y0153778D02*
X0203465Y0153778D01*
X0204734Y0154777D02*
X0196605Y0154777D01*
X0197604Y0155775D02*
X0201911Y0155775D01*
X0206386Y0148786D02*
X0091614Y0148786D01*
X0090616Y0147787D02*
X0207384Y0147787D01*
X0208383Y0146789D02*
X0089617Y0146789D01*
X0089000Y0145790D02*
X0209381Y0145790D01*
X0210380Y0144792D02*
X0089000Y0144792D01*
X0089000Y0143793D02*
X0211378Y0143793D01*
X0212377Y0142795D02*
X0201852Y0142795D01*
X0201662Y0142984D02*
X0199935Y0143700D01*
X0198065Y0143700D01*
X0196338Y0142984D01*
X0195016Y0141662D01*
X0194300Y0139935D01*
X0194300Y0138065D01*
X0195016Y0136338D01*
X0196338Y0135016D01*
X0198065Y0134300D01*
X0199935Y0134300D01*
X0201662Y0135016D01*
X0202984Y0136338D01*
X0203700Y0138065D01*
X0203700Y0139935D01*
X0202984Y0141662D01*
X0201662Y0142984D01*
X0202851Y0141796D02*
X0213376Y0141796D01*
X0214374Y0140798D02*
X0203343Y0140798D01*
X0203700Y0139799D02*
X0215373Y0139799D01*
X0216000Y0138801D02*
X0203700Y0138801D01*
X0203591Y0137802D02*
X0216000Y0137802D01*
X0216000Y0136803D02*
X0203177Y0136803D01*
X0202452Y0135805D02*
X0216000Y0135805D01*
X0216000Y0134806D02*
X0201158Y0134806D01*
X0196842Y0134806D02*
X0173158Y0134806D01*
X0173662Y0135016D02*
X0174984Y0136338D01*
X0175700Y0138065D01*
X0175700Y0139935D01*
X0174984Y0141662D01*
X0173662Y0142984D01*
X0171935Y0143700D01*
X0170065Y0143700D01*
X0168338Y0142984D01*
X0167016Y0141662D01*
X0166300Y0139935D01*
X0166300Y0138065D01*
X0167016Y0136338D01*
X0168338Y0135016D01*
X0170065Y0134300D01*
X0171935Y0134300D01*
X0173662Y0135016D01*
X0174452Y0135805D02*
X0195548Y0135805D01*
X0194823Y0136803D02*
X0175177Y0136803D01*
X0175591Y0137802D02*
X0194409Y0137802D01*
X0194300Y0138801D02*
X0175700Y0138801D01*
X0175700Y0139799D02*
X0194300Y0139799D01*
X0194657Y0140798D02*
X0175343Y0140798D01*
X0174851Y0141796D02*
X0195149Y0141796D01*
X0196148Y0142795D02*
X0173852Y0142795D01*
X0168148Y0142795D02*
X0145852Y0142795D01*
X0145662Y0142984D02*
X0143935Y0143700D01*
X0142065Y0143700D01*
X0140338Y0142984D01*
X0139016Y0141662D01*
X0138300Y0139935D01*
X0138300Y0138065D01*
X0139016Y0136338D01*
X0140338Y0135016D01*
X0142065Y0134300D01*
X0143935Y0134300D01*
X0145662Y0135016D01*
X0146984Y0136338D01*
X0147700Y0138065D01*
X0147700Y0139935D01*
X0146984Y0141662D01*
X0145662Y0142984D01*
X0146851Y0141796D02*
X0167149Y0141796D01*
X0166657Y0140798D02*
X0147343Y0140798D01*
X0147700Y0139799D02*
X0166300Y0139799D01*
X0166300Y0138801D02*
X0147700Y0138801D01*
X0147591Y0137802D02*
X0166409Y0137802D01*
X0166823Y0136803D02*
X0147177Y0136803D01*
X0146452Y0135805D02*
X0167548Y0135805D01*
X0168842Y0134806D02*
X0145158Y0134806D01*
X0140842Y0134806D02*
X0129211Y0134806D01*
X0129700Y0135296D02*
X0129700Y0142704D01*
X0128704Y0143700D01*
X0121296Y0143700D01*
X0120300Y0142704D01*
X0120300Y0135296D01*
X0121296Y0134300D01*
X0128704Y0134300D01*
X0129700Y0135296D01*
X0129700Y0135805D02*
X0139548Y0135805D01*
X0138823Y0136803D02*
X0129700Y0136803D01*
X0129700Y0137802D02*
X0138409Y0137802D01*
X0138300Y0138801D02*
X0129700Y0138801D01*
X0129700Y0139799D02*
X0138300Y0139799D01*
X0138657Y0140798D02*
X0129700Y0140798D01*
X0129700Y0141796D02*
X0139149Y0141796D01*
X0140148Y0142795D02*
X0129610Y0142795D01*
X0120390Y0142795D02*
X0117852Y0142795D01*
X0117662Y0142984D02*
X0115935Y0143700D01*
X0114065Y0143700D01*
X0112338Y0142984D01*
X0111016Y0141662D01*
X0110300Y0139935D01*
X0110300Y0138065D01*
X0111016Y0136338D01*
X0112338Y0135016D01*
X0114065Y0134300D01*
X0115935Y0134300D01*
X0117662Y0135016D01*
X0118984Y0136338D01*
X0119700Y0138065D01*
X0119700Y0139935D01*
X0118984Y0141662D01*
X0117662Y0142984D01*
X0118851Y0141796D02*
X0120300Y0141796D01*
X0120300Y0140798D02*
X0119343Y0140798D01*
X0119700Y0139799D02*
X0120300Y0139799D01*
X0120300Y0138801D02*
X0119700Y0138801D01*
X0119591Y0137802D02*
X0120300Y0137802D01*
X0120300Y0136803D02*
X0119177Y0136803D01*
X0118452Y0135805D02*
X0120300Y0135805D01*
X0120789Y0134806D02*
X0117158Y0134806D01*
X0112842Y0134806D02*
X0107158Y0134806D01*
X0107662Y0135016D02*
X0108984Y0136338D01*
X0109700Y0138065D01*
X0109700Y0139935D01*
X0108984Y0141662D01*
X0107662Y0142984D01*
X0105935Y0143700D01*
X0104065Y0143700D01*
X0102338Y0142984D01*
X0101016Y0141662D01*
X0100300Y0139935D01*
X0100300Y0138065D01*
X0101016Y0136338D01*
X0102338Y0135016D01*
X0104065Y0134300D01*
X0105935Y0134300D01*
X0107662Y0135016D01*
X0108452Y0135805D02*
X0111548Y0135805D01*
X0110823Y0136803D02*
X0109177Y0136803D01*
X0109591Y0137802D02*
X0110409Y0137802D01*
X0110300Y0138801D02*
X0109700Y0138801D01*
X0109700Y0139799D02*
X0110300Y0139799D01*
X0110657Y0140798D02*
X0109343Y0140798D01*
X0108851Y0141796D02*
X0111149Y0141796D01*
X0112148Y0142795D02*
X0107852Y0142795D01*
X0102148Y0142795D02*
X0097852Y0142795D01*
X0097662Y0142984D02*
X0098984Y0141662D01*
X0099700Y0139935D01*
X0099700Y0138065D01*
X0098984Y0136338D01*
X0097662Y0135016D01*
X0095935Y0134300D01*
X0094065Y0134300D01*
X0092338Y0135016D01*
X0091016Y0136338D01*
X0090300Y0138065D01*
X0090300Y0139935D01*
X0091016Y0141662D01*
X0092338Y0142984D01*
X0094065Y0143700D01*
X0095935Y0143700D01*
X0097662Y0142984D01*
X0098851Y0141796D02*
X0101149Y0141796D01*
X0100657Y0140798D02*
X0099343Y0140798D01*
X0099700Y0139799D02*
X0100300Y0139799D01*
X0100300Y0138801D02*
X0099700Y0138801D01*
X0099591Y0137802D02*
X0100409Y0137802D01*
X0100823Y0136803D02*
X0099177Y0136803D01*
X0098452Y0135805D02*
X0101548Y0135805D01*
X0102842Y0134806D02*
X0097158Y0134806D01*
X0092842Y0134806D02*
X0085000Y0134806D01*
X0084636Y0133808D02*
X0216000Y0133808D01*
X0216000Y0132809D02*
X0083638Y0132809D01*
X0082639Y0131811D02*
X0216000Y0131811D01*
X0216000Y0130812D02*
X0168180Y0130812D01*
X0169499Y0129814D02*
X0216000Y0129814D01*
X0216000Y0128815D02*
X0187173Y0128815D01*
X0188496Y0127817D02*
X0216000Y0127817D01*
X0216000Y0126818D02*
X0192166Y0126818D01*
X0193493Y0125820D02*
X0216000Y0125820D01*
X0216000Y0124821D02*
X0197159Y0124821D01*
X0198490Y0123823D02*
X0199845Y0123823D01*
X0202155Y0123823D02*
X0216000Y0123823D01*
X0216000Y0122824D02*
X0203489Y0122824D01*
X0203959Y0121826D02*
X0216000Y0121826D01*
X0216000Y0120827D02*
X0204050Y0120827D01*
X0203816Y0119829D02*
X0205859Y0119829D01*
X0204517Y0118830D02*
X0203144Y0118830D01*
X0204043Y0117832D02*
X0200660Y0117832D01*
X0208141Y0119829D02*
X0216000Y0119829D01*
X0216000Y0118830D02*
X0209483Y0118830D01*
X0209957Y0117832D02*
X0210867Y0117832D01*
X0213133Y0117832D02*
X0216000Y0117832D01*
X0216000Y0116833D02*
X0214480Y0116833D01*
X0214956Y0115835D02*
X0216000Y0115835D01*
X0219671Y0110842D02*
X0220844Y0110842D01*
X0218672Y0109844D02*
X0248015Y0109844D01*
X0247017Y0108845D02*
X0217674Y0108845D01*
X0216675Y0107847D02*
X0232018Y0107847D01*
X0231020Y0106848D02*
X0204677Y0106848D01*
X0203678Y0105850D02*
X0230021Y0105850D01*
X0229023Y0104851D02*
X0203700Y0104851D01*
X0203700Y0103853D02*
X0228024Y0103853D01*
X0227026Y0102854D02*
X0203613Y0102854D01*
X0203199Y0101856D02*
X0226027Y0101856D01*
X0225029Y0100857D02*
X0202504Y0100857D01*
X0196375Y0100000D02*
X0173625Y0100000D01*
X0173662Y0100016D01*
X0174984Y0101338D01*
X0175700Y0103065D01*
X0175700Y0104935D01*
X0175426Y0105597D01*
X0178828Y0109000D01*
X0201172Y0109000D01*
X0200597Y0108426D01*
X0199935Y0108700D01*
X0198065Y0108700D01*
X0196338Y0107984D01*
X0195016Y0106662D01*
X0194300Y0104935D01*
X0194300Y0103065D01*
X0195016Y0101338D01*
X0196338Y0100016D01*
X0196375Y0100000D01*
X0195496Y0100857D02*
X0174504Y0100857D01*
X0175199Y0101856D02*
X0194801Y0101856D01*
X0194387Y0102854D02*
X0175613Y0102854D01*
X0175700Y0103853D02*
X0194300Y0103853D01*
X0194300Y0104851D02*
X0175700Y0104851D01*
X0175678Y0105850D02*
X0194679Y0105850D01*
X0195201Y0106848D02*
X0176677Y0106848D01*
X0177675Y0107847D02*
X0196200Y0107847D01*
X0201017Y0108845D02*
X0178674Y0108845D01*
X0182000Y0121000D02*
X0183000Y0121000D01*
X0182950Y0125820D02*
X0169133Y0125820D01*
X0169812Y0126818D02*
X0183038Y0126818D01*
X0183504Y0127817D02*
X0170050Y0127817D01*
X0169964Y0128815D02*
X0184827Y0128815D01*
X0188962Y0126818D02*
X0189834Y0126818D01*
X0193961Y0124821D02*
X0194841Y0124821D01*
X0165820Y0130812D02*
X0136180Y0130812D01*
X0133820Y0130812D02*
X0055050Y0130812D01*
X0054810Y0129814D02*
X0132501Y0129814D01*
X0132036Y0128815D02*
X0111013Y0128815D01*
X0112012Y0127817D02*
X0131950Y0127817D01*
X0132188Y0126818D02*
X0113010Y0126818D01*
X0114009Y0125820D02*
X0132867Y0125820D01*
X0091548Y0135805D02*
X0089118Y0135805D01*
X0089806Y0136803D02*
X0090823Y0136803D01*
X0090409Y0137802D02*
X0090050Y0137802D01*
X0089970Y0138801D02*
X0090300Y0138801D01*
X0090300Y0139799D02*
X0089514Y0139799D01*
X0089000Y0140798D02*
X0090657Y0140798D01*
X0091149Y0141796D02*
X0089000Y0141796D01*
X0089000Y0142795D02*
X0092148Y0142795D01*
X0081000Y0143793D02*
X0037658Y0143793D01*
X0036660Y0142795D02*
X0044148Y0142795D01*
X0044338Y0142984D02*
X0043016Y0141662D01*
X0042300Y0139935D01*
X0042300Y0138065D01*
X0043016Y0136338D01*
X0044338Y0135016D01*
X0046065Y0134300D01*
X0047935Y0134300D01*
X0049662Y0135016D01*
X0050984Y0136338D01*
X0051700Y0138065D01*
X0051700Y0139935D01*
X0050984Y0141662D01*
X0049662Y0142984D01*
X0047935Y0143700D01*
X0046065Y0143700D01*
X0044338Y0142984D01*
X0043149Y0141796D02*
X0035661Y0141796D01*
X0034663Y0140798D02*
X0042657Y0140798D01*
X0042300Y0139799D02*
X0018648Y0139799D01*
X0018648Y0138801D02*
X0042300Y0138801D01*
X0042409Y0137802D02*
X0018648Y0137802D01*
X0018648Y0136803D02*
X0042823Y0136803D01*
X0043548Y0135805D02*
X0018648Y0135805D01*
X0018648Y0134806D02*
X0044842Y0134806D01*
X0049158Y0134806D02*
X0052978Y0134806D01*
X0053548Y0135805D02*
X0050452Y0135805D01*
X0051177Y0136803D02*
X0052823Y0136803D01*
X0052409Y0137802D02*
X0051591Y0137802D01*
X0051700Y0138801D02*
X0052300Y0138801D01*
X0052300Y0139799D02*
X0051700Y0139799D01*
X0051343Y0140798D02*
X0052657Y0140798D01*
X0053149Y0141796D02*
X0050851Y0141796D01*
X0049852Y0142795D02*
X0054148Y0142795D01*
X0059852Y0142795D02*
X0064148Y0142795D01*
X0063149Y0141796D02*
X0060851Y0141796D01*
X0061343Y0140798D02*
X0062657Y0140798D01*
X0062300Y0139799D02*
X0061700Y0139799D01*
X0061700Y0138801D02*
X0062300Y0138801D01*
X0062409Y0137802D02*
X0061591Y0137802D01*
X0061177Y0136803D02*
X0062823Y0136803D01*
X0063548Y0135805D02*
X0060452Y0135805D01*
X0054129Y0128815D02*
X0074987Y0128815D01*
X0074000Y0127828D02*
X0074000Y0127828D01*
X0073988Y0127817D02*
X0018648Y0127817D01*
X0018648Y0128815D02*
X0049871Y0128815D01*
X0049190Y0129814D02*
X0018648Y0129814D01*
X0018648Y0130812D02*
X0048950Y0130812D01*
X0049035Y0131811D02*
X0018648Y0131811D01*
X0018648Y0132809D02*
X0049496Y0132809D01*
X0050809Y0133808D02*
X0018648Y0133808D01*
X0018648Y0126818D02*
X0072990Y0126818D01*
X0071991Y0125820D02*
X0018648Y0125820D01*
X0018648Y0124821D02*
X0070993Y0124821D01*
X0070000Y0123823D02*
X0018648Y0123823D01*
X0018648Y0122824D02*
X0043996Y0122824D01*
X0043000Y0121826D02*
X0018648Y0121826D01*
X0018648Y0120827D02*
X0043000Y0120827D01*
X0043000Y0119829D02*
X0018648Y0119829D01*
X0018648Y0118830D02*
X0043000Y0118830D01*
X0043000Y0117832D02*
X0018648Y0117832D01*
X0018648Y0116833D02*
X0043000Y0116833D01*
X0043000Y0115835D02*
X0018648Y0115835D01*
X0018648Y0114836D02*
X0043000Y0114836D01*
X0043000Y0113838D02*
X0018648Y0113838D01*
X0018648Y0112839D02*
X0043000Y0112839D01*
X0043000Y0111841D02*
X0018648Y0111841D01*
X0018648Y0110842D02*
X0043000Y0110842D01*
X0043000Y0109844D02*
X0018648Y0109844D01*
X0018648Y0108845D02*
X0043000Y0108845D01*
X0043000Y0107847D02*
X0018648Y0107847D01*
X0018648Y0106848D02*
X0043000Y0106848D01*
X0043000Y0105850D02*
X0018648Y0105850D01*
X0018648Y0104851D02*
X0043000Y0104851D01*
X0043000Y0103853D02*
X0018648Y0103853D01*
X0018648Y0102854D02*
X0043000Y0102854D01*
X0043000Y0101856D02*
X0031499Y0101856D01*
X0031850Y0100857D02*
X0043000Y0100857D01*
X0043313Y0099859D02*
X0035970Y0099859D01*
X0036968Y0098860D02*
X0046032Y0098860D01*
X0045033Y0097862D02*
X0037967Y0097862D01*
X0038965Y0096863D02*
X0044035Y0096863D01*
X0041946Y0095865D02*
X0039964Y0095865D01*
X0040000Y0094866D02*
X0040553Y0094866D01*
X0040058Y0093868D02*
X0040000Y0093868D01*
X0036000Y0092869D02*
X0035833Y0092869D01*
X0035960Y0091870D02*
X0035184Y0091870D01*
X0034559Y0090872D02*
X0032700Y0090872D01*
X0031850Y0089873D02*
X0034061Y0089873D01*
X0033950Y0088875D02*
X0031650Y0088875D01*
X0031650Y0087876D02*
X0034164Y0087876D01*
X0034809Y0086878D02*
X0027500Y0086878D01*
X0027500Y0086000D02*
X0031650Y0086000D01*
X0031650Y0084003D01*
X0031548Y0083621D01*
X0031350Y0083279D01*
X0031071Y0083000D01*
X0030729Y0082802D01*
X0030347Y0082700D01*
X0027500Y0082700D01*
X0027500Y0086000D01*
X0027500Y0085879D02*
X0026500Y0085879D01*
X0026500Y0086000D02*
X0026500Y0082700D01*
X0023653Y0082700D01*
X0023271Y0082802D01*
X0022929Y0083000D01*
X0022650Y0083279D01*
X0022452Y0083621D01*
X0022350Y0084003D01*
X0022350Y0086000D01*
X0026500Y0086000D01*
X0026500Y0086878D02*
X0018648Y0086878D01*
X0018648Y0087876D02*
X0022350Y0087876D01*
X0022350Y0088875D02*
X0018648Y0088875D01*
X0018648Y0089873D02*
X0022150Y0089873D01*
X0022150Y0090872D02*
X0018648Y0090872D01*
X0018648Y0091870D02*
X0022150Y0091870D01*
X0022150Y0092869D02*
X0018648Y0092869D01*
X0018648Y0093868D02*
X0022150Y0093868D01*
X0022150Y0094866D02*
X0018648Y0094866D01*
X0018648Y0095865D02*
X0022150Y0095865D01*
X0022150Y0096863D02*
X0018648Y0096863D01*
X0018648Y0097862D02*
X0022150Y0097862D01*
X0022150Y0098860D02*
X0018648Y0098860D01*
X0018648Y0099859D02*
X0022150Y0099859D01*
X0022150Y0100857D02*
X0018648Y0100857D01*
X0018648Y0101856D02*
X0022501Y0101856D01*
X0022350Y0085879D02*
X0018648Y0085879D01*
X0018648Y0084881D02*
X0022350Y0084881D01*
X0022382Y0083882D02*
X0018648Y0083882D01*
X0018648Y0082884D02*
X0023130Y0082884D01*
X0026500Y0082884D02*
X0027500Y0082884D01*
X0027500Y0083882D02*
X0026500Y0083882D01*
X0026500Y0084881D02*
X0027500Y0084881D01*
X0030870Y0082884D02*
X0059288Y0082884D01*
X0060286Y0081885D02*
X0018648Y0081885D01*
X0018648Y0080887D02*
X0061285Y0080887D01*
X0062150Y0079888D02*
X0018648Y0079888D01*
X0018648Y0078890D02*
X0026007Y0078890D01*
X0024578Y0077891D02*
X0018648Y0077891D01*
X0018648Y0076893D02*
X0024069Y0076893D01*
X0027010Y0072899D02*
X0052787Y0072899D01*
X0051800Y0071900D02*
X0028413Y0071900D01*
X0028928Y0070902D02*
X0051800Y0070902D01*
X0051800Y0069903D02*
X0029050Y0069903D01*
X0028848Y0068905D02*
X0051800Y0068905D01*
X0051800Y0067906D02*
X0029205Y0067906D01*
X0030204Y0066908D02*
X0051800Y0066908D01*
X0051800Y0065909D02*
X0031202Y0065909D01*
X0032201Y0064911D02*
X0051800Y0064911D01*
X0051800Y0063912D02*
X0033199Y0063912D01*
X0029211Y0073897D02*
X0053786Y0073897D01*
X0054785Y0074896D02*
X0029844Y0074896D01*
X0030050Y0075894D02*
X0055783Y0075894D01*
X0056069Y0076893D02*
X0029931Y0076893D01*
X0029422Y0077891D02*
X0056578Y0077891D01*
X0058007Y0078890D02*
X0027993Y0078890D01*
X0031618Y0083882D02*
X0039289Y0083882D01*
X0038291Y0084881D02*
X0031650Y0084881D01*
X0031650Y0085879D02*
X0037292Y0085879D01*
X0055000Y0092000D02*
X0060000Y0087000D01*
X0067000Y0087000D01*
X0077000Y0087000D02*
X0084000Y0094000D01*
X0096000Y0094000D01*
X0098000Y0092000D01*
X0098000Y0089000D01*
X0100000Y0087000D01*
X0110000Y0087000D01*
X0115000Y0092000D01*
X0122000Y0092000D01*
X0127000Y0087000D01*
X0119286Y0081885D02*
X0083714Y0081885D01*
X0082715Y0080887D02*
X0120285Y0080887D01*
X0121283Y0079888D02*
X0081850Y0079888D01*
X0081850Y0078890D02*
X0086007Y0078890D01*
X0084578Y0077891D02*
X0081745Y0077891D01*
X0081650Y0076893D02*
X0084069Y0076893D01*
X0083783Y0075894D02*
X0081650Y0075894D01*
X0082785Y0074896D02*
X0077500Y0074896D01*
X0077500Y0073897D02*
X0076500Y0073897D01*
X0076500Y0072899D02*
X0077500Y0072899D01*
X0077500Y0071900D02*
X0076500Y0071900D01*
X0081650Y0073897D02*
X0081786Y0073897D01*
X0082000Y0071000D02*
X0087000Y0076000D01*
X0089844Y0074896D02*
X0114785Y0074896D01*
X0115783Y0075894D02*
X0090050Y0075894D01*
X0089931Y0076893D02*
X0116069Y0076893D01*
X0116578Y0077891D02*
X0089422Y0077891D01*
X0087993Y0078890D02*
X0118007Y0078890D01*
X0119993Y0078890D02*
X0122150Y0078890D01*
X0122255Y0077891D02*
X0121422Y0077891D01*
X0121931Y0076893D02*
X0122350Y0076893D01*
X0122350Y0075894D02*
X0122050Y0075894D01*
X0121844Y0074896D02*
X0126500Y0074896D01*
X0126500Y0073897D02*
X0127500Y0073897D01*
X0127500Y0072899D02*
X0126500Y0072899D01*
X0126500Y0071900D02*
X0127500Y0071900D01*
X0122350Y0073897D02*
X0121211Y0073897D01*
X0119000Y0076000D02*
X0113000Y0070000D01*
X0113000Y0058000D01*
X0110000Y0055000D01*
X0110000Y0020000D01*
X0120000Y0020000D02*
X0120000Y0026000D01*
X0113000Y0033000D01*
X0113000Y0048000D01*
X0121000Y0056000D01*
X0121000Y0069000D01*
X0124000Y0064000D02*
X0124000Y0059000D01*
X0132000Y0057000D02*
X0133000Y0058000D01*
X0133000Y0064000D01*
X0136774Y0063912D02*
X0127050Y0063912D01*
X0139000Y0066000D02*
X0139000Y0060000D01*
X0137500Y0071900D02*
X0136500Y0071900D01*
X0136500Y0072899D02*
X0137500Y0072899D01*
X0137500Y0073897D02*
X0136500Y0073897D01*
X0137500Y0074896D02*
X0141785Y0074896D01*
X0141650Y0075894D02*
X0142783Y0075894D01*
X0143069Y0076893D02*
X0141650Y0076893D01*
X0141745Y0077891D02*
X0143578Y0077891D01*
X0146000Y0076000D02*
X0143000Y0073000D01*
X0141850Y0080887D02*
X0181285Y0080887D01*
X0180286Y0081885D02*
X0142714Y0081885D01*
X0143712Y0082884D02*
X0179288Y0082884D01*
X0187000Y0087000D02*
X0182000Y0092000D01*
X0175000Y0092000D01*
X0170000Y0087000D01*
X0160000Y0087000D01*
X0158000Y0089000D01*
X0158000Y0092000D01*
X0156000Y0094000D01*
X0148000Y0094000D01*
X0141000Y0087000D01*
X0137000Y0087000D01*
X0144711Y0083882D02*
X0157289Y0083882D01*
X0156291Y0084881D02*
X0145709Y0084881D01*
X0146708Y0085879D02*
X0155292Y0085879D01*
X0154294Y0086878D02*
X0151191Y0086878D01*
X0118288Y0082884D02*
X0084712Y0082884D01*
X0085711Y0083882D02*
X0095289Y0083882D01*
X0094291Y0084881D02*
X0092194Y0084881D01*
X0092837Y0085879D02*
X0093292Y0085879D01*
X0087806Y0084881D02*
X0086709Y0084881D01*
X0089211Y0073897D02*
X0113786Y0073897D01*
X0112787Y0072899D02*
X0087010Y0072899D01*
X0086012Y0071900D02*
X0111789Y0071900D01*
X0110800Y0070902D02*
X0087412Y0070902D01*
X0078000Y0066000D02*
X0078000Y0059000D01*
X0073000Y0058000D02*
X0073000Y0064000D01*
X0075774Y0063912D02*
X0065226Y0063912D01*
X0063000Y0062000D02*
X0066000Y0059000D01*
X0060000Y0058000D02*
X0072000Y0046000D01*
X0072000Y0029000D01*
X0070000Y0027000D01*
X0070000Y0020000D01*
X0060000Y0058000D02*
X0060000Y0070000D01*
X0062413Y0071900D02*
X0062580Y0071900D01*
X0062350Y0072899D02*
X0060972Y0072899D01*
X0061211Y0073897D02*
X0062350Y0073897D01*
X0062350Y0075894D02*
X0062050Y0075894D01*
X0061931Y0076893D02*
X0062350Y0076893D01*
X0062255Y0077891D02*
X0061422Y0077891D01*
X0062150Y0078890D02*
X0059993Y0078890D01*
X0063000Y0066000D02*
X0063000Y0062000D01*
X0067000Y0100857D02*
X0068029Y0100857D01*
X0069027Y0101856D02*
X0067000Y0101856D01*
X0067000Y0102854D02*
X0070000Y0102854D01*
X0070000Y0103853D02*
X0067000Y0103853D01*
X0067000Y0104851D02*
X0070000Y0104851D01*
X0070000Y0105850D02*
X0067000Y0105850D01*
X0067000Y0106848D02*
X0070000Y0106848D01*
X0070000Y0107847D02*
X0067000Y0107847D01*
X0067000Y0108845D02*
X0070000Y0108845D01*
X0070000Y0109844D02*
X0067000Y0109844D01*
X0067000Y0110842D02*
X0070000Y0110842D01*
X0070000Y0111841D02*
X0067000Y0111841D01*
X0067000Y0112839D02*
X0070000Y0112839D01*
X0070000Y0113838D02*
X0067000Y0113838D01*
X0067000Y0114836D02*
X0070000Y0114836D01*
X0070000Y0115835D02*
X0067000Y0115835D01*
X0067000Y0116833D02*
X0070000Y0116833D01*
X0070000Y0117832D02*
X0067000Y0117832D01*
X0067000Y0118830D02*
X0070000Y0118830D01*
X0070000Y0119829D02*
X0067000Y0119829D01*
X0067000Y0120827D02*
X0070000Y0120827D01*
X0070000Y0121826D02*
X0067000Y0121826D01*
X0066004Y0122824D02*
X0070000Y0122824D01*
X0070452Y0135805D02*
X0072300Y0135805D01*
X0072300Y0136803D02*
X0071177Y0136803D01*
X0071591Y0137802D02*
X0072300Y0137802D01*
X0072300Y0138801D02*
X0071700Y0138801D01*
X0071700Y0139799D02*
X0072300Y0139799D01*
X0072300Y0140798D02*
X0071343Y0140798D01*
X0070851Y0141796D02*
X0072300Y0141796D01*
X0072390Y0142795D02*
X0069852Y0142795D01*
X0081000Y0144792D02*
X0038657Y0144792D01*
X0039245Y0145790D02*
X0081000Y0145790D01*
X0081000Y0146789D02*
X0039396Y0146789D01*
X0039396Y0147787D02*
X0081000Y0147787D01*
X0081000Y0148786D02*
X0039396Y0148786D01*
X0039396Y0149784D02*
X0081956Y0149784D01*
X0082954Y0150783D02*
X0039396Y0150783D01*
X0039396Y0151781D02*
X0083953Y0151781D01*
X0084951Y0152780D02*
X0039396Y0152780D01*
X0039396Y0153778D02*
X0085950Y0153778D01*
X0086948Y0154777D02*
X0039396Y0154777D01*
X0008372Y0183734D02*
X0007250Y0183734D01*
X0007250Y0184732D02*
X0009524Y0184732D01*
X0007374Y0182735D02*
X0007250Y0182735D01*
X0040612Y0202705D02*
X0045294Y0202705D01*
X0046006Y0201993D02*
X0043253Y0204746D01*
X0043253Y0208640D01*
X0046006Y0211393D01*
X0049900Y0211393D01*
X0052653Y0208640D01*
X0052653Y0204746D01*
X0049900Y0201993D01*
X0046006Y0201993D01*
X0044295Y0203704D02*
X0041610Y0203704D01*
X0042609Y0204702D02*
X0043297Y0204702D01*
X0043253Y0205701D02*
X0042653Y0205701D01*
X0042653Y0206699D02*
X0043253Y0206699D01*
X0043253Y0207698D02*
X0042653Y0207698D01*
X0042596Y0208696D02*
X0043309Y0208696D01*
X0044308Y0209695D02*
X0041598Y0209695D01*
X0040599Y0210693D02*
X0045306Y0210693D01*
X0046006Y0211993D02*
X0049900Y0211993D01*
X0052653Y0214746D01*
X0052653Y0218640D01*
X0049900Y0221393D01*
X0046006Y0221393D01*
X0043253Y0218640D01*
X0043253Y0214746D01*
X0046006Y0211993D01*
X0045309Y0212690D02*
X0040597Y0212690D01*
X0041595Y0213689D02*
X0044310Y0213689D01*
X0043311Y0214687D02*
X0042594Y0214687D01*
X0042653Y0215686D02*
X0043253Y0215686D01*
X0043253Y0216684D02*
X0042653Y0216684D01*
X0042653Y0217683D02*
X0043253Y0217683D01*
X0043294Y0218681D02*
X0042611Y0218681D01*
X0041613Y0219680D02*
X0044293Y0219680D01*
X0045291Y0220678D02*
X0040614Y0220678D01*
X0050614Y0220678D02*
X0055574Y0220678D01*
X0056089Y0221193D02*
X0053453Y0218557D01*
X0053453Y0217193D01*
X0057453Y0217193D01*
X0057453Y0221193D01*
X0056089Y0221193D01*
X0057453Y0220678D02*
X0058453Y0220678D01*
X0058453Y0221193D02*
X0059817Y0221193D01*
X0062453Y0218557D01*
X0062453Y0217193D01*
X0058453Y0217193D01*
X0058453Y0216193D01*
X0062453Y0216193D01*
X0062453Y0214829D01*
X0059817Y0212193D01*
X0058453Y0212193D01*
X0058453Y0216193D01*
X0057453Y0216193D01*
X0057453Y0212193D01*
X0056089Y0212193D01*
X0053453Y0214829D01*
X0053453Y0216193D01*
X0057453Y0216193D01*
X0057453Y0217193D01*
X0058453Y0217193D01*
X0058453Y0221193D01*
X0058453Y0219680D02*
X0057453Y0219680D01*
X0057453Y0218681D02*
X0058453Y0218681D01*
X0058453Y0217683D02*
X0057453Y0217683D01*
X0057453Y0216684D02*
X0052653Y0216684D01*
X0052653Y0215686D02*
X0053453Y0215686D01*
X0053594Y0214687D02*
X0052594Y0214687D01*
X0051595Y0213689D02*
X0054593Y0213689D01*
X0055591Y0212690D02*
X0050597Y0212690D01*
X0050599Y0210693D02*
X0055306Y0210693D01*
X0056006Y0211393D02*
X0053253Y0208640D01*
X0053253Y0204746D01*
X0056006Y0201993D01*
X0059900Y0201993D01*
X0062653Y0204746D01*
X0062653Y0208640D01*
X0059900Y0211393D01*
X0056006Y0211393D01*
X0057453Y0212690D02*
X0058453Y0212690D01*
X0058453Y0213689D02*
X0057453Y0213689D01*
X0057453Y0214687D02*
X0058453Y0214687D01*
X0058453Y0215686D02*
X0057453Y0215686D01*
X0058453Y0216684D02*
X0063253Y0216684D01*
X0063253Y0215686D02*
X0062453Y0215686D01*
X0062311Y0214687D02*
X0063311Y0214687D01*
X0063253Y0214746D02*
X0066006Y0211993D01*
X0069900Y0211993D01*
X0072653Y0214746D01*
X0072653Y0218640D01*
X0069900Y0221393D01*
X0066006Y0221393D01*
X0063253Y0218640D01*
X0063253Y0214746D01*
X0064310Y0213689D02*
X0061313Y0213689D01*
X0060314Y0212690D02*
X0065309Y0212690D01*
X0066006Y0211393D02*
X0063253Y0208640D01*
X0063253Y0204746D01*
X0066006Y0201993D01*
X0069900Y0201993D01*
X0072653Y0204746D01*
X0072653Y0208640D01*
X0069900Y0211393D01*
X0066006Y0211393D01*
X0065306Y0210693D02*
X0060599Y0210693D01*
X0061598Y0209695D02*
X0064308Y0209695D01*
X0063309Y0208696D02*
X0062596Y0208696D01*
X0062653Y0207698D02*
X0063253Y0207698D01*
X0063253Y0206699D02*
X0062653Y0206699D01*
X0062653Y0205701D02*
X0063253Y0205701D01*
X0063297Y0204702D02*
X0062609Y0204702D01*
X0061610Y0203704D02*
X0064295Y0203704D01*
X0065294Y0202705D02*
X0060612Y0202705D01*
X0055294Y0202705D02*
X0050612Y0202705D01*
X0051610Y0203704D02*
X0054295Y0203704D01*
X0053297Y0204702D02*
X0052609Y0204702D01*
X0052653Y0205701D02*
X0053253Y0205701D01*
X0053253Y0206699D02*
X0052653Y0206699D01*
X0052653Y0207698D02*
X0053253Y0207698D01*
X0053309Y0208696D02*
X0052596Y0208696D01*
X0051598Y0209695D02*
X0054308Y0209695D01*
X0053453Y0217683D02*
X0052653Y0217683D01*
X0052611Y0218681D02*
X0053577Y0218681D01*
X0054576Y0219680D02*
X0051613Y0219680D01*
X0060331Y0220678D02*
X0065291Y0220678D01*
X0064293Y0219680D02*
X0061330Y0219680D01*
X0062328Y0218681D02*
X0063294Y0218681D01*
X0063253Y0217683D02*
X0062453Y0217683D01*
X0070614Y0220678D02*
X0075291Y0220678D01*
X0076006Y0221393D02*
X0073253Y0218640D01*
X0073253Y0214746D01*
X0076006Y0211993D01*
X0079900Y0211993D01*
X0082653Y0214746D01*
X0082653Y0218640D01*
X0079900Y0221393D01*
X0076006Y0221393D01*
X0074293Y0219680D02*
X0071613Y0219680D01*
X0072611Y0218681D02*
X0073294Y0218681D01*
X0073253Y0217683D02*
X0072653Y0217683D01*
X0072653Y0216684D02*
X0073253Y0216684D01*
X0073253Y0215686D02*
X0072653Y0215686D01*
X0072594Y0214687D02*
X0073311Y0214687D01*
X0074310Y0213689D02*
X0071595Y0213689D01*
X0070597Y0212690D02*
X0075309Y0212690D01*
X0076089Y0211193D02*
X0073453Y0208557D01*
X0073453Y0207193D01*
X0077453Y0207193D01*
X0077453Y0211193D01*
X0076089Y0211193D01*
X0075589Y0210693D02*
X0070599Y0210693D01*
X0071598Y0209695D02*
X0074591Y0209695D01*
X0073592Y0208696D02*
X0072596Y0208696D01*
X0072653Y0207698D02*
X0073453Y0207698D01*
X0072653Y0206699D02*
X0077453Y0206699D01*
X0077453Y0207193D02*
X0077453Y0206193D01*
X0078453Y0206193D01*
X0078453Y0207193D01*
X0082453Y0207193D01*
X0082453Y0208557D01*
X0079817Y0211193D01*
X0078453Y0211193D01*
X0078453Y0207193D01*
X0077453Y0207193D01*
X0077453Y0207698D02*
X0078453Y0207698D01*
X0078453Y0208696D02*
X0077453Y0208696D01*
X0077453Y0209695D02*
X0078453Y0209695D01*
X0078453Y0210693D02*
X0077453Y0210693D01*
X0080316Y0210693D02*
X0085306Y0210693D01*
X0086006Y0211393D02*
X0083253Y0208640D01*
X0083253Y0204746D01*
X0086006Y0201993D01*
X0089900Y0201993D01*
X0092653Y0204746D01*
X0092653Y0208640D01*
X0089900Y0211393D01*
X0086006Y0211393D01*
X0086006Y0211993D02*
X0089900Y0211993D01*
X0092653Y0214746D01*
X0092653Y0218640D01*
X0089900Y0221393D01*
X0086006Y0221393D01*
X0083253Y0218640D01*
X0083253Y0214746D01*
X0086006Y0211993D01*
X0085309Y0212690D02*
X0080597Y0212690D01*
X0081595Y0213689D02*
X0084310Y0213689D01*
X0083311Y0214687D02*
X0082594Y0214687D01*
X0082653Y0215686D02*
X0083253Y0215686D01*
X0083253Y0216684D02*
X0082653Y0216684D01*
X0082653Y0217683D02*
X0083253Y0217683D01*
X0083294Y0218681D02*
X0082611Y0218681D01*
X0081613Y0219680D02*
X0084293Y0219680D01*
X0085291Y0220678D02*
X0080614Y0220678D01*
X0090614Y0220678D02*
X0095574Y0220678D01*
X0096089Y0221193D02*
X0093453Y0218557D01*
X0093453Y0217193D01*
X0097453Y0217193D01*
X0097453Y0221193D01*
X0096089Y0221193D01*
X0097453Y0220678D02*
X0098453Y0220678D01*
X0098453Y0221193D02*
X0099817Y0221193D01*
X0102453Y0218557D01*
X0102453Y0217193D01*
X0098453Y0217193D01*
X0098453Y0216193D01*
X0102453Y0216193D01*
X0102453Y0214829D01*
X0099817Y0212193D01*
X0098453Y0212193D01*
X0098453Y0216193D01*
X0097453Y0216193D01*
X0097453Y0212193D01*
X0096089Y0212193D01*
X0093453Y0214829D01*
X0093453Y0216193D01*
X0097453Y0216193D01*
X0097453Y0217193D01*
X0098453Y0217193D01*
X0098453Y0221193D01*
X0098453Y0219680D02*
X0097453Y0219680D01*
X0097453Y0218681D02*
X0098453Y0218681D01*
X0098453Y0217683D02*
X0097453Y0217683D01*
X0097453Y0216684D02*
X0092653Y0216684D01*
X0092653Y0215686D02*
X0093453Y0215686D01*
X0093594Y0214687D02*
X0092594Y0214687D01*
X0091595Y0213689D02*
X0094593Y0213689D01*
X0095591Y0212690D02*
X0090597Y0212690D01*
X0090599Y0210693D02*
X0095306Y0210693D01*
X0096006Y0211393D02*
X0093253Y0208640D01*
X0093253Y0204746D01*
X0096006Y0201993D01*
X0099900Y0201993D01*
X0102653Y0204746D01*
X0102653Y0208640D01*
X0099900Y0211393D01*
X0096006Y0211393D01*
X0097453Y0212690D02*
X0098453Y0212690D01*
X0098453Y0213689D02*
X0097453Y0213689D01*
X0097453Y0214687D02*
X0098453Y0214687D01*
X0098453Y0215686D02*
X0097453Y0215686D01*
X0098453Y0216684D02*
X0103253Y0216684D01*
X0103253Y0215686D02*
X0102453Y0215686D01*
X0102311Y0214687D02*
X0103311Y0214687D01*
X0103253Y0214746D02*
X0106006Y0211993D01*
X0109900Y0211993D01*
X0112653Y0214746D01*
X0112653Y0218640D01*
X0109900Y0221393D01*
X0106006Y0221393D01*
X0103253Y0218640D01*
X0103253Y0214746D01*
X0104310Y0213689D02*
X0101313Y0213689D01*
X0100314Y0212690D02*
X0105309Y0212690D01*
X0106006Y0211393D02*
X0103253Y0208640D01*
X0103253Y0204746D01*
X0106006Y0201993D01*
X0109900Y0201993D01*
X0112653Y0204746D01*
X0112653Y0208640D01*
X0109900Y0211393D01*
X0106006Y0211393D01*
X0105306Y0210693D02*
X0100599Y0210693D01*
X0101598Y0209695D02*
X0104308Y0209695D01*
X0103309Y0208696D02*
X0102596Y0208696D01*
X0102653Y0207698D02*
X0103253Y0207698D01*
X0103253Y0206699D02*
X0102653Y0206699D01*
X0102653Y0205701D02*
X0103253Y0205701D01*
X0103297Y0204702D02*
X0102609Y0204702D01*
X0101610Y0203704D02*
X0104295Y0203704D01*
X0105294Y0202705D02*
X0100612Y0202705D01*
X0095294Y0202705D02*
X0090612Y0202705D01*
X0091610Y0203704D02*
X0094295Y0203704D01*
X0093297Y0204702D02*
X0092609Y0204702D01*
X0092653Y0205701D02*
X0093253Y0205701D01*
X0093253Y0206699D02*
X0092653Y0206699D01*
X0092653Y0207698D02*
X0093253Y0207698D01*
X0093309Y0208696D02*
X0092596Y0208696D01*
X0091598Y0209695D02*
X0094308Y0209695D01*
X0093453Y0217683D02*
X0092653Y0217683D01*
X0092611Y0218681D02*
X0093577Y0218681D01*
X0094576Y0219680D02*
X0091613Y0219680D01*
X0100331Y0220678D02*
X0105291Y0220678D01*
X0104293Y0219680D02*
X0101330Y0219680D01*
X0102328Y0218681D02*
X0103294Y0218681D01*
X0103253Y0217683D02*
X0102453Y0217683D01*
X0110614Y0220678D02*
X0115291Y0220678D01*
X0116006Y0221393D02*
X0113253Y0218640D01*
X0113253Y0214746D01*
X0116006Y0211993D01*
X0119900Y0211993D01*
X0122653Y0214746D01*
X0122653Y0218640D01*
X0119900Y0221393D01*
X0116006Y0221393D01*
X0114293Y0219680D02*
X0111613Y0219680D01*
X0112611Y0218681D02*
X0113294Y0218681D01*
X0113253Y0217683D02*
X0112653Y0217683D01*
X0112653Y0216684D02*
X0113253Y0216684D01*
X0113253Y0215686D02*
X0112653Y0215686D01*
X0112594Y0214687D02*
X0113311Y0214687D01*
X0114310Y0213689D02*
X0111595Y0213689D01*
X0110597Y0212690D02*
X0115309Y0212690D01*
X0116006Y0211393D02*
X0113253Y0208640D01*
X0113253Y0204746D01*
X0116006Y0201993D01*
X0119900Y0201993D01*
X0122653Y0204746D01*
X0122653Y0208640D01*
X0119900Y0211393D01*
X0116006Y0211393D01*
X0115306Y0210693D02*
X0110599Y0210693D01*
X0111598Y0209695D02*
X0114308Y0209695D01*
X0113309Y0208696D02*
X0112596Y0208696D01*
X0112653Y0207698D02*
X0113253Y0207698D01*
X0113253Y0206699D02*
X0112653Y0206699D01*
X0112653Y0205701D02*
X0113253Y0205701D01*
X0113297Y0204702D02*
X0112609Y0204702D01*
X0111610Y0203704D02*
X0114295Y0203704D01*
X0115294Y0202705D02*
X0110612Y0202705D01*
X0120612Y0202705D02*
X0125294Y0202705D01*
X0126006Y0201993D02*
X0123253Y0204746D01*
X0123253Y0208640D01*
X0126006Y0211393D01*
X0129900Y0211393D01*
X0132653Y0208640D01*
X0132653Y0204746D01*
X0129900Y0201993D01*
X0126006Y0201993D01*
X0124295Y0203704D02*
X0121610Y0203704D01*
X0122609Y0204702D02*
X0123297Y0204702D01*
X0123253Y0205701D02*
X0122653Y0205701D01*
X0122653Y0206699D02*
X0123253Y0206699D01*
X0123253Y0207698D02*
X0122653Y0207698D01*
X0122596Y0208696D02*
X0123309Y0208696D01*
X0124308Y0209695D02*
X0121598Y0209695D01*
X0120599Y0210693D02*
X0125306Y0210693D01*
X0126089Y0212193D02*
X0127453Y0212193D01*
X0127453Y0216193D01*
X0128453Y0216193D01*
X0128453Y0217193D01*
X0132453Y0217193D01*
X0132453Y0218557D01*
X0129817Y0221193D01*
X0128453Y0221193D01*
X0128453Y0217193D01*
X0127453Y0217193D01*
X0127453Y0221193D01*
X0126089Y0221193D01*
X0123453Y0218557D01*
X0123453Y0217193D01*
X0127453Y0217193D01*
X0127453Y0216193D01*
X0123453Y0216193D01*
X0123453Y0214829D01*
X0126089Y0212193D01*
X0125591Y0212690D02*
X0120597Y0212690D01*
X0121595Y0213689D02*
X0124593Y0213689D01*
X0123594Y0214687D02*
X0122594Y0214687D01*
X0122653Y0215686D02*
X0123453Y0215686D01*
X0122653Y0216684D02*
X0127453Y0216684D01*
X0127453Y0215686D02*
X0128453Y0215686D01*
X0128453Y0216193D02*
X0128453Y0212193D01*
X0129817Y0212193D01*
X0132453Y0214829D01*
X0132453Y0216193D01*
X0128453Y0216193D01*
X0128453Y0216684D02*
X0133253Y0216684D01*
X0133253Y0215686D02*
X0132453Y0215686D01*
X0132311Y0214687D02*
X0133311Y0214687D01*
X0133253Y0214746D02*
X0136006Y0211993D01*
X0139900Y0211993D01*
X0142653Y0214746D01*
X0142653Y0218640D01*
X0139900Y0221393D01*
X0136006Y0221393D01*
X0133253Y0218640D01*
X0133253Y0214746D01*
X0134310Y0213689D02*
X0131313Y0213689D01*
X0130314Y0212690D02*
X0135309Y0212690D01*
X0136006Y0211393D02*
X0133253Y0208640D01*
X0133253Y0204746D01*
X0136006Y0201993D01*
X0139900Y0201993D01*
X0142653Y0204746D01*
X0142653Y0208640D01*
X0139900Y0211393D01*
X0136006Y0211393D01*
X0135306Y0210693D02*
X0130599Y0210693D01*
X0131598Y0209695D02*
X0134308Y0209695D01*
X0133309Y0208696D02*
X0132596Y0208696D01*
X0132653Y0207698D02*
X0133253Y0207698D01*
X0133253Y0206699D02*
X0132653Y0206699D01*
X0132653Y0205701D02*
X0133253Y0205701D01*
X0133297Y0204702D02*
X0132609Y0204702D01*
X0131610Y0203704D02*
X0134295Y0203704D01*
X0135294Y0202705D02*
X0130612Y0202705D01*
X0140612Y0202705D02*
X0145294Y0202705D01*
X0146006Y0201993D02*
X0149900Y0201993D01*
X0152653Y0204746D01*
X0152653Y0208640D01*
X0149900Y0211393D01*
X0146006Y0211393D01*
X0143253Y0208640D01*
X0143253Y0204746D01*
X0146006Y0201993D01*
X0144295Y0203704D02*
X0141610Y0203704D01*
X0142609Y0204702D02*
X0143297Y0204702D01*
X0143253Y0205701D02*
X0142653Y0205701D01*
X0142653Y0206699D02*
X0143253Y0206699D01*
X0143253Y0207698D02*
X0142653Y0207698D01*
X0142596Y0208696D02*
X0143309Y0208696D01*
X0144308Y0209695D02*
X0141598Y0209695D01*
X0140599Y0210693D02*
X0145306Y0210693D01*
X0146006Y0211993D02*
X0149900Y0211993D01*
X0152653Y0214746D01*
X0152653Y0218640D01*
X0149900Y0221393D01*
X0146006Y0221393D01*
X0143253Y0218640D01*
X0143253Y0214746D01*
X0146006Y0211993D01*
X0145309Y0212690D02*
X0140597Y0212690D01*
X0141595Y0213689D02*
X0144310Y0213689D01*
X0143311Y0214687D02*
X0142594Y0214687D01*
X0142653Y0215686D02*
X0143253Y0215686D01*
X0143253Y0216684D02*
X0142653Y0216684D01*
X0142653Y0217683D02*
X0143253Y0217683D01*
X0143294Y0218681D02*
X0142611Y0218681D01*
X0141613Y0219680D02*
X0144293Y0219680D01*
X0145291Y0220678D02*
X0140614Y0220678D01*
X0135291Y0220678D02*
X0130331Y0220678D01*
X0131330Y0219680D02*
X0134293Y0219680D01*
X0133294Y0218681D02*
X0132328Y0218681D01*
X0132453Y0217683D02*
X0133253Y0217683D01*
X0128453Y0217683D02*
X0127453Y0217683D01*
X0127453Y0218681D02*
X0128453Y0218681D01*
X0128453Y0219680D02*
X0127453Y0219680D01*
X0127453Y0220678D02*
X0128453Y0220678D01*
X0125574Y0220678D02*
X0120614Y0220678D01*
X0121613Y0219680D02*
X0124576Y0219680D01*
X0123577Y0218681D02*
X0122611Y0218681D01*
X0122653Y0217683D02*
X0123453Y0217683D01*
X0127453Y0214687D02*
X0128453Y0214687D01*
X0128453Y0213689D02*
X0127453Y0213689D01*
X0127453Y0212690D02*
X0128453Y0212690D01*
X0150597Y0212690D02*
X0155309Y0212690D01*
X0156006Y0211993D02*
X0159900Y0211993D01*
X0162653Y0214746D01*
X0162653Y0218640D01*
X0159900Y0221393D01*
X0156006Y0221393D01*
X0153253Y0218640D01*
X0153253Y0214746D01*
X0156006Y0211993D01*
X0156089Y0211193D02*
X0153453Y0208557D01*
X0153453Y0207193D01*
X0157453Y0207193D01*
X0157453Y0211193D01*
X0156089Y0211193D01*
X0155589Y0210693D02*
X0150599Y0210693D01*
X0151598Y0209695D02*
X0154591Y0209695D01*
X0153592Y0208696D02*
X0152596Y0208696D01*
X0152653Y0207698D02*
X0153453Y0207698D01*
X0152653Y0206699D02*
X0157453Y0206699D01*
X0157453Y0207193D02*
X0157453Y0206193D01*
X0158453Y0206193D01*
X0158453Y0207193D01*
X0162453Y0207193D01*
X0162453Y0208557D01*
X0159817Y0211193D01*
X0158453Y0211193D01*
X0158453Y0207193D01*
X0157453Y0207193D01*
X0157453Y0207698D02*
X0158453Y0207698D01*
X0158453Y0208696D02*
X0157453Y0208696D01*
X0157453Y0209695D02*
X0158453Y0209695D01*
X0158453Y0210693D02*
X0157453Y0210693D01*
X0160316Y0210693D02*
X0165306Y0210693D01*
X0166006Y0211393D02*
X0163253Y0208640D01*
X0163253Y0204746D01*
X0166006Y0201993D01*
X0169900Y0201993D01*
X0172653Y0204746D01*
X0172653Y0208640D01*
X0169900Y0211393D01*
X0166006Y0211393D01*
X0166006Y0211993D02*
X0169900Y0211993D01*
X0172653Y0214746D01*
X0172653Y0218640D01*
X0169900Y0221393D01*
X0166006Y0221393D01*
X0163253Y0218640D01*
X0163253Y0214746D01*
X0166006Y0211993D01*
X0165309Y0212690D02*
X0160597Y0212690D01*
X0161595Y0213689D02*
X0164310Y0213689D01*
X0163311Y0214687D02*
X0162594Y0214687D01*
X0162653Y0215686D02*
X0163253Y0215686D01*
X0163253Y0216684D02*
X0162653Y0216684D01*
X0162653Y0217683D02*
X0163253Y0217683D01*
X0163294Y0218681D02*
X0162611Y0218681D01*
X0161613Y0219680D02*
X0164293Y0219680D01*
X0165291Y0220678D02*
X0160614Y0220678D01*
X0155291Y0220678D02*
X0150614Y0220678D01*
X0151613Y0219680D02*
X0154293Y0219680D01*
X0153294Y0218681D02*
X0152611Y0218681D01*
X0152653Y0217683D02*
X0153253Y0217683D01*
X0153253Y0216684D02*
X0152653Y0216684D01*
X0152653Y0215686D02*
X0153253Y0215686D01*
X0153311Y0214687D02*
X0152594Y0214687D01*
X0151595Y0213689D02*
X0154310Y0213689D01*
X0161315Y0209695D02*
X0164308Y0209695D01*
X0163309Y0208696D02*
X0162313Y0208696D01*
X0162453Y0207698D02*
X0163253Y0207698D01*
X0163253Y0206699D02*
X0158453Y0206699D01*
X0158453Y0206193D02*
X0162453Y0206193D01*
X0162453Y0204829D01*
X0159817Y0202193D01*
X0158453Y0202193D01*
X0158453Y0206193D01*
X0158453Y0205701D02*
X0157453Y0205701D01*
X0157453Y0206193D02*
X0157453Y0202193D01*
X0156089Y0202193D01*
X0153453Y0204829D01*
X0153453Y0206193D01*
X0157453Y0206193D01*
X0157453Y0204702D02*
X0158453Y0204702D01*
X0158453Y0203704D02*
X0157453Y0203704D01*
X0157453Y0202705D02*
X0158453Y0202705D01*
X0160329Y0202705D02*
X0165294Y0202705D01*
X0164295Y0203704D02*
X0161328Y0203704D01*
X0162326Y0204702D02*
X0163297Y0204702D01*
X0163253Y0205701D02*
X0162453Y0205701D01*
X0155576Y0202705D02*
X0150612Y0202705D01*
X0151610Y0203704D02*
X0154578Y0203704D01*
X0153579Y0204702D02*
X0152609Y0204702D01*
X0152653Y0205701D02*
X0153453Y0205701D01*
X0170612Y0202705D02*
X0175294Y0202705D01*
X0176006Y0201993D02*
X0173253Y0204746D01*
X0173253Y0208640D01*
X0176006Y0211393D01*
X0179900Y0211393D01*
X0182653Y0208640D01*
X0182653Y0204746D01*
X0179900Y0201993D01*
X0176006Y0201993D01*
X0174295Y0203704D02*
X0171610Y0203704D01*
X0172609Y0204702D02*
X0173297Y0204702D01*
X0173253Y0205701D02*
X0172653Y0205701D01*
X0172653Y0206699D02*
X0173253Y0206699D01*
X0173253Y0207698D02*
X0172653Y0207698D01*
X0172596Y0208696D02*
X0173309Y0208696D01*
X0174308Y0209695D02*
X0171598Y0209695D01*
X0170599Y0210693D02*
X0175306Y0210693D01*
X0176089Y0212193D02*
X0177453Y0212193D01*
X0177453Y0216193D01*
X0178453Y0216193D01*
X0178453Y0217193D01*
X0182453Y0217193D01*
X0182453Y0218557D01*
X0179817Y0221193D01*
X0178453Y0221193D01*
X0178453Y0217193D01*
X0177453Y0217193D01*
X0177453Y0221193D01*
X0176089Y0221193D01*
X0173453Y0218557D01*
X0173453Y0217193D01*
X0177453Y0217193D01*
X0177453Y0216193D01*
X0173453Y0216193D01*
X0173453Y0214829D01*
X0176089Y0212193D01*
X0175591Y0212690D02*
X0170597Y0212690D01*
X0171595Y0213689D02*
X0174593Y0213689D01*
X0173594Y0214687D02*
X0172594Y0214687D01*
X0172653Y0215686D02*
X0173453Y0215686D01*
X0172653Y0216684D02*
X0177453Y0216684D01*
X0177453Y0215686D02*
X0178453Y0215686D01*
X0178453Y0216193D02*
X0178453Y0212193D01*
X0179817Y0212193D01*
X0182453Y0214829D01*
X0182453Y0216193D01*
X0178453Y0216193D01*
X0178453Y0216684D02*
X0183253Y0216684D01*
X0183253Y0215686D02*
X0182453Y0215686D01*
X0182311Y0214687D02*
X0183311Y0214687D01*
X0184310Y0213689D02*
X0181313Y0213689D01*
X0180314Y0212690D02*
X0185309Y0212690D01*
X0185306Y0210693D02*
X0180599Y0210693D01*
X0181598Y0209695D02*
X0184308Y0209695D01*
X0183309Y0208696D02*
X0182596Y0208696D01*
X0182653Y0207698D02*
X0183253Y0207698D01*
X0183253Y0206699D02*
X0182653Y0206699D01*
X0182653Y0205701D02*
X0183253Y0205701D01*
X0183297Y0204702D02*
X0182609Y0204702D01*
X0181610Y0203704D02*
X0184295Y0203704D01*
X0185294Y0202705D02*
X0180612Y0202705D01*
X0178453Y0212690D02*
X0177453Y0212690D01*
X0177453Y0213689D02*
X0178453Y0213689D01*
X0178453Y0214687D02*
X0177453Y0214687D01*
X0177453Y0217683D02*
X0178453Y0217683D01*
X0178453Y0218681D02*
X0177453Y0218681D01*
X0177453Y0219680D02*
X0178453Y0219680D01*
X0178453Y0220678D02*
X0177453Y0220678D01*
X0175574Y0220678D02*
X0170614Y0220678D01*
X0171613Y0219680D02*
X0174576Y0219680D01*
X0173577Y0218681D02*
X0172611Y0218681D01*
X0172653Y0217683D02*
X0173453Y0217683D01*
X0180331Y0220678D02*
X0185291Y0220678D01*
X0184293Y0219680D02*
X0181330Y0219680D01*
X0182328Y0218681D02*
X0183294Y0218681D01*
X0183253Y0217683D02*
X0182453Y0217683D01*
X0190614Y0220678D02*
X0195574Y0220678D01*
X0194576Y0219680D02*
X0191613Y0219680D01*
X0192611Y0218681D02*
X0193577Y0218681D01*
X0193453Y0217683D02*
X0192653Y0217683D01*
X0197453Y0217683D02*
X0198453Y0217683D01*
X0198453Y0218681D02*
X0197453Y0218681D01*
X0197453Y0219680D02*
X0198453Y0219680D01*
X0198453Y0220678D02*
X0197453Y0220678D01*
X0200331Y0220678D02*
X0205291Y0220678D01*
X0204293Y0219680D02*
X0201330Y0219680D01*
X0202328Y0218681D02*
X0203294Y0218681D01*
X0203253Y0217683D02*
X0202453Y0217683D01*
X0198453Y0214687D02*
X0197453Y0214687D01*
X0197453Y0213689D02*
X0198453Y0213689D01*
X0198453Y0212690D02*
X0197453Y0212690D01*
X0202440Y0184732D02*
X0146035Y0184732D01*
X0146035Y0183734D02*
X0203438Y0183734D01*
X0221102Y0177742D02*
X0237950Y0177742D01*
X0238006Y0178741D02*
X0230054Y0178741D01*
X0230779Y0179739D02*
X0238426Y0179739D01*
X0238219Y0176744D02*
X0221102Y0176744D01*
X0221102Y0175745D02*
X0238941Y0175745D01*
X0240662Y0174747D02*
X0220970Y0174747D01*
X0232320Y0169754D02*
X0239932Y0169754D01*
X0240416Y0168756D02*
X0233557Y0168756D01*
X0233988Y0167757D02*
X0241414Y0167757D01*
X0243475Y0166759D02*
X0234050Y0166759D01*
X0233788Y0165760D02*
X0243475Y0165760D01*
X0244194Y0164762D02*
X0233075Y0164762D01*
X0233000Y0163763D02*
X0243675Y0163763D01*
X0243675Y0162765D02*
X0233000Y0162765D01*
X0233000Y0161766D02*
X0246463Y0161766D01*
X0246463Y0161760D02*
X0243675Y0161760D01*
X0243675Y0160275D01*
X0243777Y0159893D01*
X0243975Y0159551D01*
X0244254Y0159272D01*
X0244596Y0159075D01*
X0244978Y0158972D01*
X0246463Y0158972D01*
X0246463Y0161760D01*
X0246463Y0160768D02*
X0247037Y0160768D01*
X0247037Y0159769D02*
X0246463Y0159769D01*
X0243849Y0159769D02*
X0233000Y0159769D01*
X0233000Y0158771D02*
X0249000Y0158771D01*
X0249000Y0157772D02*
X0233000Y0157772D01*
X0233000Y0156774D02*
X0249000Y0156774D01*
X0249000Y0155775D02*
X0233000Y0155775D01*
X0233000Y0154777D02*
X0249000Y0154777D01*
X0249000Y0153778D02*
X0233000Y0153778D01*
X0233000Y0152780D02*
X0249000Y0152780D01*
X0249000Y0151781D02*
X0233000Y0151781D01*
X0233000Y0150783D02*
X0249000Y0150783D01*
X0249000Y0149784D02*
X0233000Y0149784D01*
X0233000Y0148786D02*
X0249000Y0148786D01*
X0249000Y0147787D02*
X0233000Y0147787D01*
X0233000Y0146789D02*
X0249000Y0146789D01*
X0249000Y0145790D02*
X0233000Y0145790D01*
X0233000Y0144792D02*
X0249000Y0144792D01*
X0249000Y0143793D02*
X0233000Y0143793D01*
X0233000Y0142795D02*
X0249000Y0142795D01*
X0249000Y0141796D02*
X0233050Y0141796D01*
X0232803Y0140798D02*
X0249000Y0140798D01*
X0249000Y0139799D02*
X0232112Y0139799D01*
X0220950Y0145790D02*
X0220038Y0145790D01*
X0221025Y0146789D02*
X0219040Y0146789D01*
X0218041Y0147787D02*
X0221474Y0147787D01*
X0222755Y0148786D02*
X0217043Y0148786D01*
X0233000Y0160768D02*
X0243675Y0160768D01*
X0225844Y0110842D02*
X0225156Y0110842D01*
X0228000Y0092000D02*
X0202000Y0092000D01*
X0197000Y0087000D01*
X0204714Y0081885D02*
X0238286Y0081885D01*
X0239285Y0080887D02*
X0203715Y0080887D01*
X0205712Y0082884D02*
X0237288Y0082884D01*
X0238007Y0078890D02*
X0206993Y0078890D01*
X0208422Y0077891D02*
X0236578Y0077891D01*
X0236069Y0076893D02*
X0208931Y0076893D01*
X0209050Y0075894D02*
X0235783Y0075894D01*
X0234785Y0074896D02*
X0208844Y0074896D01*
X0208211Y0073897D02*
X0233786Y0073897D01*
X0232800Y0072899D02*
X0206972Y0072899D01*
X0208413Y0071900D02*
X0232800Y0071900D01*
X0232800Y0070902D02*
X0208928Y0070902D01*
X0209050Y0069903D02*
X0232800Y0069903D01*
X0232800Y0068905D02*
X0208848Y0068905D01*
X0208220Y0067906D02*
X0232800Y0067906D01*
X0232800Y0066908D02*
X0208200Y0066908D01*
X0208200Y0065909D02*
X0232798Y0065909D01*
X0231799Y0064911D02*
X0208200Y0064911D01*
X0208200Y0063912D02*
X0230801Y0063912D01*
X0235000Y0065000D02*
X0210000Y0040000D01*
X0210000Y0020000D01*
X0200000Y0020000D02*
X0200000Y0028000D01*
X0206000Y0034000D01*
X0206000Y0070000D01*
X0202000Y0072000D02*
X0202000Y0040000D01*
X0190000Y0028000D01*
X0190000Y0020000D01*
X0220000Y0020000D02*
X0220000Y0046000D01*
X0241000Y0067000D01*
X0241000Y0069000D01*
X0243848Y0067906D02*
X0258656Y0067906D01*
X0258656Y0066908D02*
X0244950Y0066908D01*
X0246404Y0065909D02*
X0258656Y0065909D01*
X0258656Y0064911D02*
X0246924Y0064911D01*
X0247050Y0063912D02*
X0258656Y0063912D01*
X0255000Y0066000D02*
X0255000Y0051000D01*
X0244000Y0060000D02*
X0244000Y0064000D01*
X0237796Y0066908D02*
X0237200Y0066908D01*
X0237200Y0067906D02*
X0238152Y0067906D01*
X0237950Y0068905D02*
X0237200Y0068905D01*
X0237200Y0069903D02*
X0238073Y0069903D01*
X0238588Y0070902D02*
X0237200Y0070902D01*
X0238012Y0071900D02*
X0240032Y0071900D01*
X0239010Y0072899D02*
X0242350Y0072899D01*
X0242350Y0073897D02*
X0241211Y0073897D01*
X0241968Y0071900D02*
X0242580Y0071900D01*
X0243412Y0070902D02*
X0258656Y0070902D01*
X0258656Y0071900D02*
X0251420Y0071900D01*
X0251650Y0072899D02*
X0258656Y0072899D01*
X0258656Y0073897D02*
X0251650Y0073897D01*
X0247500Y0072899D02*
X0246500Y0072899D01*
X0246500Y0071900D02*
X0247500Y0071900D01*
X0243927Y0069903D02*
X0258656Y0069903D01*
X0258656Y0068905D02*
X0244050Y0068905D01*
X0239000Y0076000D02*
X0235000Y0072000D01*
X0235000Y0065000D01*
X0223289Y0083882D02*
X0206711Y0083882D01*
X0207709Y0084881D02*
X0213806Y0084881D01*
X0218194Y0084881D02*
X0222291Y0084881D01*
X0221292Y0085879D02*
X0218837Y0085879D01*
X0206000Y0076000D02*
X0202000Y0072000D01*
X0085294Y0202705D02*
X0080329Y0202705D01*
X0079817Y0202193D02*
X0082453Y0204829D01*
X0082453Y0206193D01*
X0078453Y0206193D01*
X0078453Y0202193D01*
X0079817Y0202193D01*
X0078453Y0202705D02*
X0077453Y0202705D01*
X0077453Y0202193D02*
X0077453Y0206193D01*
X0073453Y0206193D01*
X0073453Y0204829D01*
X0076089Y0202193D01*
X0077453Y0202193D01*
X0077453Y0203704D02*
X0078453Y0203704D01*
X0078453Y0204702D02*
X0077453Y0204702D01*
X0077453Y0205701D02*
X0078453Y0205701D01*
X0078453Y0206699D02*
X0083253Y0206699D01*
X0083253Y0205701D02*
X0082453Y0205701D01*
X0082326Y0204702D02*
X0083297Y0204702D01*
X0084295Y0203704D02*
X0081328Y0203704D01*
X0082453Y0207698D02*
X0083253Y0207698D01*
X0083309Y0208696D02*
X0082313Y0208696D01*
X0081315Y0209695D02*
X0084308Y0209695D01*
X0075576Y0202705D02*
X0070612Y0202705D01*
X0071610Y0203704D02*
X0074578Y0203704D01*
X0073579Y0204702D02*
X0072609Y0204702D01*
X0072653Y0205701D02*
X0073453Y0205701D01*
D25*
X0164000Y0194000D03*
X0164000Y0189000D03*
X0164000Y0184000D03*
X0170000Y0184000D03*
X0170000Y0189000D03*
X0170000Y0194000D03*
X0176000Y0194000D03*
X0176000Y0189000D03*
X0176000Y0184000D03*
X0182000Y0184000D03*
X0182000Y0189000D03*
X0182000Y0194000D03*
X0182000Y0179000D03*
X0182000Y0174000D03*
X0182000Y0169000D03*
X0182000Y0164000D03*
X0182000Y0159000D03*
X0176000Y0159000D03*
X0176000Y0164000D03*
X0176000Y0169000D03*
X0176000Y0174000D03*
X0176000Y0179000D03*
X0170000Y0179000D03*
X0170000Y0174000D03*
X0170000Y0169000D03*
X0170000Y0164000D03*
X0170000Y0159000D03*
X0164000Y0159000D03*
X0164000Y0164000D03*
X0164000Y0169000D03*
X0164000Y0174000D03*
X0164000Y0179000D03*
D26*
X0178000Y0026000D03*
X0128000Y0026000D03*
X0078000Y0026000D03*
X0228000Y0026000D03*
D27*
X0099000Y0104000D03*
X0095750Y0104000D03*
X0092500Y0104000D03*
X0089250Y0104000D03*
X0086000Y0104000D03*
X0086000Y0107500D03*
X0089250Y0107500D03*
X0092500Y0107500D03*
X0095750Y0107500D03*
X0099000Y0107500D03*
X0099000Y0111000D03*
X0095750Y0111000D03*
X0092500Y0111000D03*
X0089250Y0111000D03*
X0086000Y0111000D03*
X0086000Y0114500D03*
X0089250Y0114500D03*
X0092500Y0114500D03*
X0095750Y0114500D03*
X0099000Y0114500D03*
X0099000Y0118000D03*
X0095000Y0118000D03*
X0092500Y0118000D03*
X0089250Y0118000D03*
X0086000Y0118000D03*
X0061000Y0118000D03*
X0057750Y0118000D03*
X0054500Y0118000D03*
X0051250Y0118000D03*
X0048000Y0118000D03*
X0048000Y0114500D03*
X0051250Y0114500D03*
X0054500Y0114500D03*
X0057750Y0114500D03*
X0061000Y0114500D03*
X0061000Y0111000D03*
X0057750Y0111000D03*
X0054500Y0111000D03*
X0051250Y0111000D03*
X0048000Y0111000D03*
X0048000Y0107500D03*
X0051250Y0107500D03*
X0054500Y0107500D03*
X0057750Y0107500D03*
X0061000Y0107500D03*
X0061000Y0104000D03*
X0057750Y0104000D03*
X0054500Y0104000D03*
X0051250Y0104000D03*
X0048000Y0104000D03*
M02*
